<svg width="34" height="31" viewBox="0 0 34 31" fill="none" xmlns="http://www.w3.org/2000/svg">
<path d="M28.9377 12.5328L16.3197 0.591508L16.3056 0.578855C15.9001 0.206523 15.3703 0 14.8206 0C14.2708 0 13.741 0.206523 13.3356 0.578855L13.3214 0.591508L0.703473 12.5328C0.480292 12.7412 0.302568 12.9937 0.181499 13.2743C0.0604298 13.555 -0.00135999 13.8577 2.27029e-05 14.1635V28.7857C2.27029e-05 29.373 0.232665 29.9362 0.646772 30.3515C1.06088 30.7667 1.62253 31 2.20816 31H9.77892C10.3646 31 10.9262 30.7667 11.3403 30.3515C11.7544 29.9362 11.9871 29.373 11.9871 28.7857V21.1939C11.9871 21.11 12.0203 21.0295 12.0795 20.9702C12.1386 20.9109 12.2188 20.8775 12.3025 20.8775H17.3497C17.4333 20.8775 17.5136 20.9109 17.5727 20.9702C17.6319 21.0295 17.6651 21.11 17.6651 21.1939V28.7857C17.6651 29.373 17.8978 29.9362 18.3119 30.3515C18.726 30.7667 19.2876 31 19.8733 31H27.444C28.0297 31 28.5913 30.7667 29.0054 30.3515C29.4195 29.9362 29.6522 29.373 29.6522 28.7857V14.1635C29.6521 13.8569 29.5886 13.5537 29.4656 13.273C29.3426 12.9923 29.1629 12.7402 28.9377 12.5328ZM27.7595 28.7857C27.7595 28.8696 27.7262 28.9501 27.6671 29.0094C27.6079 29.0687 27.5277 29.102 27.444 29.102H19.8733C19.7896 29.102 19.7094 29.0687 19.6502 29.0094C19.5911 28.9501 19.5578 28.8696 19.5578 28.7857V21.1939C19.5578 20.6066 19.3252 20.0434 18.9111 19.6281C18.497 19.2129 17.9353 18.9796 17.3497 18.9796H12.3025C11.7169 18.9796 11.1552 19.2129 10.7411 19.6281C10.327 20.0434 10.0944 20.6066 10.0944 21.1939V28.7857C10.0944 28.8696 10.0611 28.9501 10.002 29.0094C9.94282 29.0687 9.86259 29.102 9.77892 29.102H2.20816C2.1245 29.102 2.04426 29.0687 1.98511 29.0094C1.92595 28.9501 1.89271 28.8696 1.89271 28.7857V14.1635C1.89262 14.1195 1.90169 14.0759 1.91934 14.0356C1.93699 13.9953 1.96284 13.9591 1.99523 13.9294L2.00943 13.9168L14.6179 1.9786C14.6754 1.92832 14.749 1.90061 14.8253 1.90061C14.9016 1.90061 14.9753 1.92832 15.0327 1.9786L27.6428 13.9184L27.6554 13.931C27.6881 13.9606 27.7142 13.9967 27.7321 14.037C27.7501 14.0773 27.7594 14.1209 27.7595 14.1651V28.7857Z" fill="#FB631C"/>
<path d="M18.1303 16.8483C17.755 16.8483 17.395 16.6991 17.1296 16.4337C16.8642 16.1683 16.7151 15.8084 16.7151 15.433C16.7151 15.0577 16.8642 14.6977 17.1296 14.4323C17.395 14.1669 17.755 14.0178 18.1303 14.0178C18.5056 14.0178 18.8656 14.1669 19.131 14.4323C19.3964 14.6977 19.5455 15.0577 19.5455 15.433C19.5455 15.8084 19.3964 16.1683 19.131 16.4337C18.8656 16.6991 18.5056 16.8483 18.1303 16.8483ZM33.141 21.1694L24.6497 12.6781C24.3101 12.3384 23.8383 12.1309 23.3194 12.1309H16.7151C15.6678 12.1309 14.8281 12.9706 14.8281 14.0178V20.6222C14.8281 21.1411 15.0357 21.6128 15.3848 21.9525L23.8666 30.4438C24.2157 30.7834 24.6875 31.0004 25.2064 31.0004C25.7253 31.0004 26.197 30.7834 26.5367 30.4438L33.141 23.8394C33.4901 23.4998 33.6977 23.028 33.6977 22.5091C33.6977 21.9808 33.4807 21.509 33.141 21.1694Z" fill="#FB631C"/>
</svg>
