<svg width="35" height="37" viewBox="0 0 35 37" fill="none" xmlns="http://www.w3.org/2000/svg">
<path d="M28.9377 12.5328L16.3197 0.591508L16.3056 0.578855C15.9001 0.206523 15.3703 0 14.8206 0C14.2708 0 13.741 0.206523 13.3356 0.578855L13.3214 0.591508L0.703473 12.5328C0.480292 12.7412 0.302568 12.9937 0.181499 13.2743C0.0604298 13.555 -0.00135999 13.8577 2.27029e-05 14.1635V28.7857C2.27029e-05 29.373 0.232665 29.9362 0.646772 30.3515C1.06088 30.7667 1.62253 31 2.20816 31H9.77892C10.3646 31 10.9262 30.7667 11.3403 30.3515C11.7544 29.9362 11.9871 29.373 11.9871 28.7857V21.1939C11.9871 21.11 12.0203 21.0295 12.0795 20.9702C12.1386 20.9109 12.2188 20.8775 12.3025 20.8775H17.3497C17.4333 20.8775 17.5136 20.9109 17.5727 20.9702C17.6319 21.0295 17.6651 21.11 17.6651 21.1939V28.7857C17.6651 29.373 17.8978 29.9362 18.3119 30.3515C18.726 30.7667 19.2876 31 19.8733 31H27.444C28.0297 31 28.5913 30.7667 29.0054 30.3515C29.4195 29.9362 29.6522 29.373 29.6522 28.7857V14.1635C29.6521 13.8569 29.5886 13.5537 29.4656 13.273C29.3426 12.9923 29.1629 12.7402 28.9377 12.5328ZM27.7595 28.7857C27.7595 28.8696 27.7262 28.9501 27.6671 29.0094C27.6079 29.0687 27.5277 29.102 27.444 29.102H19.8733C19.7896 29.102 19.7094 29.0687 19.6502 29.0094C19.5911 28.9501 19.5578 28.8696 19.5578 28.7857V21.1939C19.5578 20.6066 19.3252 20.0434 18.9111 19.6281C18.497 19.2129 17.9353 18.9796 17.3497 18.9796H12.3025C11.7169 18.9796 11.1552 19.2129 10.7411 19.6281C10.327 20.0434 10.0944 20.6066 10.0944 21.1939V28.7857C10.0944 28.8696 10.0611 28.9501 10.002 29.0094C9.94282 29.0687 9.86259 29.102 9.77892 29.102H2.20816C2.1245 29.102 2.04426 29.0687 1.98511 29.0094C1.92595 28.9501 1.89271 28.8696 1.89271 28.7857V14.1635C1.89262 14.1195 1.90169 14.0759 1.91934 14.0356C1.93699 13.9953 1.96284 13.9591 1.99523 13.9294L2.00943 13.9168L14.6179 1.9786C14.6754 1.92832 14.749 1.90061 14.8253 1.90061C14.9016 1.90061 14.9753 1.92832 15.0327 1.9786L27.6428 13.9184L27.6554 13.931C27.6881 13.9606 27.7142 13.9967 27.7321 14.037C27.7501 14.0773 27.7594 14.1209 27.7595 14.1651V28.7857Z" fill="black"/>
<path d="M12.0283 14.4337L18.241 9.5521L20.4369 12.6263L20.4477 12.6415L20.4596 12.6558L22.8864 15.5679L23.3587 17.457L23.4145 17.6801L23.6202 17.7829L28.4961 20.2208L31.7582 25.3468L28.5002 30.9318L22.4048 33.2755L18.2824 30.5269L17.3579 26.829L18.3323 22.4442L18.3878 22.1946L18.2179 22.0035L14.2354 17.523L12.0283 14.4337Z" fill="white" stroke="#126FAA"/>
<path d="M18.6246 22.258L12.5208 15.3183C12.4493 15.2374 12.3963 15.1415 12.3649 15.0362C12.3334 14.9309 12.3241 14.8182 12.3376 14.7046C12.351 14.591 12.3868 14.4787 12.4431 14.3741C12.4993 14.2695 12.5748 14.1748 12.6653 14.0952L16.7944 10.4656C16.9769 10.3051 17.2091 10.2162 17.4398 10.2183C17.6706 10.2205 17.881 10.3136 18.0249 10.4772C18.1688 10.6408 18.2343 10.8614 18.207 11.0906C18.1797 11.3197 18.0618 11.5386 17.8794 11.6991L14.4393 14.7248L16.6091 17.1918L20.0492 14.1661C20.2317 14.0056 20.4638 13.9167 20.6946 13.9189C20.9253 13.921 21.1358 14.0142 21.2797 14.1777C21.4236 14.3413 21.489 14.5619 21.4617 14.7911C21.4344 15.0202 21.3166 15.2391 21.1341 15.3996L17.6941 18.4253L19.8639 20.8923C21.2646 19.6625 23.0326 18.9573 24.8082 18.9203C26.5838 18.8832 28.2336 19.517 29.422 20.6928C30.6104 21.8685 31.248 23.4979 31.2053 25.2494C31.1626 27.0009 30.4426 28.743 29.1919 30.1212C27.9412 31.4995 26.2537 32.4103 24.4727 32.6685C22.6917 32.9267 20.951 32.5128 19.6048 31.511C18.2585 30.5093 17.4078 28.9949 17.2257 27.276C17.0436 25.557 17.5438 23.7627 18.6246 22.258ZM27.4584 29.5269C28.0005 29.05 28.4531 28.4822 28.7904 27.8557C29.1276 27.2292 29.343 26.5564 29.4241 25.8756C29.5051 25.1948 29.4504 24.5195 29.263 23.888C29.0756 23.2566 28.7591 22.6815 28.3317 22.1955C27.9042 21.7096 27.3742 21.3223 26.7719 21.0558C26.1696 20.7893 25.5067 20.6488 24.8211 20.6423C24.1356 20.6358 23.4407 20.7635 22.7763 21.0181C22.1119 21.2726 21.4909 21.649 20.9488 22.1258C19.854 23.0888 19.1469 24.4022 18.9831 25.7771C18.8194 27.152 19.2123 28.4757 20.0755 29.4572C20.9387 30.4386 22.2015 30.9973 23.5861 31.0104C24.9706 31.0235 26.3635 30.4898 27.4584 29.5269Z" fill="#FB631C"/>
</svg>
