<svg width="20" height="20" viewBox="0 0 20 20" fill="none" xmlns="http://www.w3.org/2000/svg">
<path d="M3.33854 14.582C3.01753 14.5822 2.70888 14.7058 2.47655 14.9274C2.24423 15.1489 2.10603 15.4513 2.0906 15.772C2.07518 16.0926 2.1837 16.4069 2.39369 16.6497C2.60367 16.8925 2.89903 17.0452 3.21854 17.0762L3.33854 17.082H11.6719C11.9929 17.0819 12.3015 16.9582 12.5339 16.7367C12.7662 16.5152 12.9044 16.2127 12.9198 15.8921C12.9352 15.5715 12.8267 15.2572 12.6167 15.0144C12.4067 14.7716 12.1114 14.6188 11.7919 14.5879L11.6719 14.582H3.33854ZM3.33854 10.4154C3.00702 10.4154 2.68908 10.5471 2.45466 10.7815C2.22024 11.0159 2.08854 11.3338 2.08854 11.6654C2.08854 11.9969 2.22024 12.3148 2.45466 12.5492C2.68908 12.7837 3.00702 12.9154 3.33854 12.9154H16.6719C17.0034 12.9154 17.3213 12.7837 17.5558 12.5492C17.7902 12.3148 17.9219 11.9969 17.9219 11.6654C17.9219 11.3338 17.7902 11.0159 17.5558 10.7815C17.3213 10.5471 17.0034 10.4154 16.6719 10.4154H3.33854ZM3.33854 6.2487C3.01753 6.24886 2.70888 6.37251 2.47655 6.59404C2.24423 6.81557 2.10603 7.11798 2.0906 7.43863C2.07518 7.75927 2.1837 8.07356 2.39369 8.31637C2.60367 8.55917 2.89903 8.71189 3.21854 8.74286L3.33854 8.7487H11.6719C11.9929 8.74854 12.3015 8.62488 12.5339 8.40336C12.7662 8.18183 12.9044 7.87941 12.9198 7.55877C12.9352 7.23813 12.8267 6.92384 12.6167 6.68103C12.4067 6.43822 12.1114 6.28551 11.7919 6.25453L11.6719 6.2487H3.33854ZM3.33854 2.08203C3.01753 2.08219 2.70888 2.20584 2.47655 2.42737C2.24423 2.6489 2.10603 2.95132 2.0906 3.27196C2.07518 3.5926 2.1837 3.90689 2.39369 4.1497C2.60367 4.39251 2.89903 4.54522 3.21854 4.5762L3.33854 4.58203H16.6719C16.9929 4.58187 17.3015 4.45822 17.5339 4.23669C17.7662 4.01516 17.9044 3.71275 17.9198 3.3921C17.9352 3.07146 17.8267 2.75717 17.6167 2.51436C17.4067 2.27156 17.1114 2.11884 16.7919 2.08786L16.6719 2.08203H3.33854Z" fill="black"/>
</svg>
