<svg width="24" height="24" viewBox="0 0 24 24" fill="none" xmlns="http://www.w3.org/2000/svg">
<g id="Group 9">
<path id="Vector" d="M8.08109 0.658116C10.7055 -0.242855 13.5593 -0.218074 16.1677 0.728335C17.6001 1.26468 18.9125 2.07859 20.0297 3.12337C19.6501 3.5295 19.2497 3.90906 18.8625 4.3038C18.1262 5.03889 17.3905 5.77144 16.6554 6.50147C15.9226 5.80056 15.0362 5.28065 14.0668 4.98322C12.8263 4.60867 11.5067 4.58302 10.2526 4.9091C8.99853 5.23517 7.8585 5.90036 6.95759 6.83169C6.1712 7.63168 5.57566 8.59895 5.2154 9.66132L1.28125 6.61533C2.68944 3.82283 5.12763 1.68677 8.08109 0.658116Z" fill="#E33629"/>
<path id="Vector_2" d="M0.235323 9.63275C0.446624 8.58473 0.797692 7.56982 1.27912 6.61523L5.21327 9.66881C4.69876 11.1844 4.69876 12.8275 5.21327 14.3431C3.90252 15.3553 2.59113 16.3725 1.27912 17.3948C0.074295 14.9966 -0.293155 12.2641 0.235323 9.63275Z" fill="#F8BD00"/>
<path id="Vector_3" d="M12.0008 9.75586H23.2966C23.6828 11.8756 23.5783 14.0556 22.991 16.1287C22.4506 18.035 21.4008 19.758 19.9546 21.1123C18.6849 20.1217 17.4096 19.1386 16.14 18.148C16.7694 17.7234 17.3067 17.1761 17.7195 16.5389C18.1324 15.9017 18.4123 15.1877 18.5426 14.4396H12.0008C11.9989 12.8797 12.0008 11.3178 12.0008 9.75586Z" fill="#587DBD"/>
<path id="Vector_4" d="M1.27344 17.3954C2.58546 16.3833 3.89684 15.366 5.20759 14.3438C5.7147 15.832 6.67916 17.1219 7.96321 18.0293C8.76399 18.5955 9.67408 18.9885 10.6353 19.1832C11.5824 19.3593 12.5539 19.3593 13.501 19.1832C14.4454 19.0235 15.3459 18.668 16.1447 18.1394C17.4143 19.13 18.6896 20.1131 19.9593 21.1037C18.5698 22.3672 16.8761 23.248 15.0439 23.6601C13.0216 24.1355 10.9142 24.1127 8.90262 23.5937C7.3117 23.1689 5.82566 22.42 4.53767 21.3941C3.17452 20.3116 2.06109 18.9477 1.27344 17.3954Z" fill="#319F43"/>
</g>
</svg>
