<svg width="22" height="20" viewBox="0 0 22 20" fill="none" xmlns="http://www.w3.org/2000/svg">
<path d="M21.972 16.1629L21.4978 14.1269C21.4674 13.9971 21.4132 13.8753 21.3385 13.7689C21.2637 13.6625 21.1699 13.5736 21.0627 13.5076C20.9549 13.4406 20.836 13.3977 20.7128 13.3812C20.5896 13.3648 20.4647 13.3752 20.3452 13.4119L14.7816 15.1183L11.0001 13.3853L15.7851 12.0524C16.1117 11.7355 16.3484 11.3238 16.4671 10.8656L16.0919 9.39844L6.11115 10.7274H0V18.7012H6.11115L11.5562 19.9823C11.8522 20.0116 12.1503 20.004 12.4447 19.9598L21.3181 17.3629C21.5509 17.2952 21.75 17.1311 21.873 16.9058C21.9337 16.7949 21.9737 16.6721 21.9907 16.5444C22.0077 16.4167 22.0013 16.2879 21.972 16.1629ZM3.66669 17.3723H1.22223V12.0564H3.66669V17.3723ZM12.127 18.6773C12.0719 18.6929 12.0152 18.7009 11.9583 18.7012C11.911 18.7014 11.8639 18.6961 11.8177 18.6853L6.11115 17.3231V12.083L15.0689 10.8763L8.5556 13.3853L14.3257 16.3516L14.7132 16.5204L15.1141 16.3968L20.3892 14.7794L20.7119 16.1642L12.127 18.6773Z" fill="#777777"/>
<path d="M13.1364 8.64661L19.4699 8.69978L19.5034 3.98716L16.5712 0.747457L13.1697 3.95266L13.1364 8.64661Z" stroke="#777777"/>
</svg>
