<svg width="10" height="10" viewBox="0 0 10 10" fill="none" xmlns="http://www.w3.org/2000/svg">
<path d="M5.05 8.49914L5 8.54999L4.945 8.49914C2.57 6.30746 1 4.8582 1 3.38861C1 2.37158 1.75 1.60882 2.75 1.60882C3.52 1.60882 4.27 2.11733 4.535 2.8089H5.465C5.73 2.11733 6.48 1.60882 7.25 1.60882C8.25 1.60882 9 2.37158 9 3.38861C9 4.8582 7.43 6.30746 5.05 8.49914ZM7.25 0.591797C6.38 0.591797 5.545 1.00369 5 1.6495C4.455 1.00369 3.62 0.591797 2.75 0.591797C1.21 0.591797 0 1.81731 0 3.38861C0 5.30569 1.7 6.87699 4.275 9.25173L5 9.92297L5.725 9.25173C8.3 6.87699 10 5.30569 10 3.38861C10 1.81731 8.79 0.591797 7.25 0.591797Z" fill="#FB631C"/>
</svg>
