<svg width="229" height="230" viewBox="0 0 229 230" fill="none" xmlns="http://www.w3.org/2000/svg">
<path d="M115.845 229.784C52.421 230.225 0.0700023 178.667 0.655002 114.531C1.227 51.6769 49.802 0.399501 114.848 0.359399C179.747 0.319296 227.485 51.5833 228.894 112.552C230.343 176.234 179.787 229.022 115.845 229.784ZM10.519 115.413C9.23 173.414 59.666 221.537 116.815 220.36C172.582 219.224 219.788 171.93 219.416 116.041C218.99 55.794 172.861 9.59627 113.478 9.99729C56.076 10.3716 10.054 57.4917 10.519 115.413Z" fill="#FF631D"/>
<path d="M16.222 114.637C16.355 59.8977 60.7291 14.8496 114.834 15.7586C170.096 16.6943 213.287 60.2319 212.596 115.453C211.918 169.524 169.405 212.7 114.329 212.54C56.2361 212.38 16.581 165.928 16.222 114.637ZM113.917 208.329C165.59 209.078 208.581 166.85 208.621 114.41C208.661 62.2638 167.039 20.0094 114.25 19.8758C62.072 19.7421 20.409 61.8494 20.37 113.982C20.343 166.342 61.872 208.236 113.917 208.329Z" fill="#FF631D"/>
<path d="M64.465 42.5339C67.257 42.4136 69.623 42.2131 72.003 42.2131C87.29 42.1997 102.578 42.3201 117.866 42.1997C135.693 42.0527 150.169 48.5225 158.677 64.6703C167.438 81.2994 166.002 97.7279 154.756 113.047C154.237 113.755 153.825 114.544 152.934 115.987C165.683 126.842 159.86 141.506 161.19 155.555C153.852 155.555 147.351 155.555 139.534 155.555C139.534 150.596 139.308 145.797 139.601 141.024C139.907 135.918 138.165 132.068 134.297 128.767C129.764 124.917 125.576 120.653 121.149 116.482C126.4 111.095 131.372 106.109 136.198 101.003C143.682 93.0627 144.746 83.1842 139.149 74.0676C135.679 68.4266 130.641 64.55 124.1 64.3228C111.551 63.8683 98.962 64.1891 85.349 64.1891C85.349 68.4533 84.911 72.4368 85.442 76.2866C86.759 85.8844 83.448 93.0092 75.592 98.5032C71.856 101.123 68.732 104.638 64.492 108.515C64.465 85.871 64.465 64.4698 64.465 42.5339Z" fill="#136FA9"/>
<path d="M127.65 94.0782C117.227 103.73 107.018 113.22 96.742 122.658C85.376 133.098 85.349 133.071 85.349 148.818C85.349 154.339 85.349 159.873 85.349 166.142C92.528 166.142 98.975 166.142 106.007 166.142C107.709 159.03 104.519 147.16 119.235 151.652C124.286 154.659 120.79 160.915 123.781 166.596C135.307 166.596 147.537 166.596 159.262 166.596C162.412 175.726 158.398 184.562 150.581 187.155C147.271 188.252 143.642 188.786 140.159 188.813C121.109 188.973 102.059 188.973 83.009 188.866C70.872 188.8 64.225 182.022 64.132 169.751C64.026 157.279 64.199 144.794 64.066 132.322C63.999 126.08 66.352 121.227 70.925 117.097C80.47 108.475 90.068 99.893 99.241 90.8834C108.44 81.8604 120.697 83.3576 127.65 94.0782Z" fill="#FF602B"/>
</svg>
