<svg width="40" height="40" viewBox="0 0 40 40" fill="none" xmlns="http://www.w3.org/2000/svg">
<circle cx="20" cy="20" r="20" transform="rotate(-180 20 20)" fill="#FB631C"/>
<path d="M32 19.699C32 19.9477 31.9012 20.1861 31.7254 20.3619C31.5496 20.5377 31.3111 20.6365 31.0625 20.6365H10.8256L18.6003 28.4112C18.7711 28.588 18.8656 28.8248 18.8634 29.0706C18.8613 29.3165 18.7627 29.5516 18.5889 29.7254C18.4151 29.8992 18.1799 29.9978 17.9341 30C17.6883 30.0021 17.4515 29.9076 17.2747 29.7368L7.89969 20.3618C7.72393 20.186 7.6252 19.9476 7.6252 19.699C7.6252 19.4504 7.72393 19.212 7.89969 19.0362L17.2747 9.66121C17.4515 9.49043 17.6883 9.39594 17.9341 9.39808C18.1799 9.40021 18.4151 9.49881 18.5889 9.67263C18.7627 9.84645 18.8613 10.0816 18.8634 10.3274C18.8656 10.5732 18.7711 10.81 18.6003 10.9868L10.8256 18.7615H31.0625C31.3111 18.7615 31.5496 18.8603 31.7254 19.0361C31.9012 19.2119 32 19.4504 32 19.699Z" fill="white"/>
</svg>
