<svg width="40" height="40" viewBox="0 0 40 40" fill="none" xmlns="http://www.w3.org/2000/svg">
<circle cx="20" cy="20" r="20" fill="#FB631C"/>
<path d="M8 20.301C8 20.0523 8.09877 19.8139 8.27459 19.6381C8.4504 19.4623 8.68886 19.3635 8.9375 19.3635H29.1744L21.3997 11.5888C21.2289 11.412 21.1344 11.1752 21.1366 10.9294C21.1387 10.6835 21.2373 10.4484 21.4111 10.2746C21.5849 10.1008 21.8201 10.0022 22.0659 10C22.3117 9.9979 22.5485 10.0924 22.7253 10.2632L32.1003 19.6382C32.2761 19.814 32.3748 20.0524 32.3748 20.301C32.3748 20.5496 32.2761 20.788 32.1003 20.9638L22.7253 30.3388C22.5485 30.5096 22.3117 30.6041 22.0659 30.6019C21.8201 30.5998 21.5849 30.5012 21.4111 30.3274C21.2373 30.1536 21.1387 29.9184 21.1366 29.6726C21.1344 29.4268 21.2289 29.19 21.3997 29.0132L29.1744 21.2385H8.9375C8.68886 21.2385 8.4504 21.1397 8.27459 20.9639C8.09877 20.7881 8 20.5496 8 20.301Z" fill="white"/>
</svg>
