<svg width="155" height="37" viewBox="0 0 155 37" fill="none" xmlns="http://www.w3.org/2000/svg">
<path d="M94.219 16.1513C94.6353 16.6462 95.1099 17.0602 95.4091 17.586C96.4282 19.3897 96.0097 22.5709 93.2067 23.4084C92.3519 23.6631 91.443 23.7701 90.5522 23.8272C89.4318 23.8986 88.3071 23.8628 87.1823 23.8415C85.4523 23.8105 85.1485 23.4942 85.1396 21.6834C85.1284 19.0684 85.1374 16.4534 85.1374 13.8386C85.1374 12.8868 85.1193 11.9351 85.1485 10.9856C85.1936 9.5319 85.6164 9.03937 86.9775 9.0132C88.3948 8.98455 89.821 8.99416 91.2338 9.1273C91.9581 9.19637 92.7005 9.47956 93.3618 9.82203C95.2583 10.8025 95.8995 13.12 94.8691 15.0759C94.6711 15.4518 94.4327 15.8016 94.219 16.1513ZM88.5117 15.0543C89.5218 15.0543 90.3295 15.0853 91.1325 15.033C91.3508 15.0187 91.6117 14.7975 91.7557 14.5951C92.2123 13.9456 92.0571 12.6798 91.5016 12.2038C90.8243 11.6257 89.2497 11.5376 88.7637 12.0707C88.6422 12.2038 88.5298 12.4061 88.5252 12.5823C88.4983 13.3578 88.5117 14.1312 88.5117 15.0543ZM88.6242 20.565C89.767 20.9148 90.7389 20.9458 91.6253 20.4817C91.9806 20.2962 92.3677 19.7227 92.3585 19.3349C92.3473 18.8829 92.0145 18.1905 91.6567 18.0405C90.6939 17.636 89.6455 17.5789 88.6242 17.9977C88.6242 18.871 88.6242 19.6704 88.6242 20.565Z" fill="#FF631D"/>
<path d="M46.9306 18.6553C46.5487 18.6553 46.1896 18.6553 45.559 18.6553C45.559 19.8655 45.5816 21.0285 45.5515 22.189C45.5214 23.3402 45.1822 23.6546 43.9991 23.7396C42.5221 23.8484 42.0272 23.463 42.0172 22.026C41.9895 18.2488 41.9996 14.4716 42.0172 10.6944C42.0222 9.54326 42.4241 9.09642 43.6499 9.05858C45.5666 8.99952 47.4958 8.94983 49.4024 9.09412C51.7184 9.269 53.203 10.5572 53.5471 12.7154C53.7154 13.7671 53.527 14.8946 53.3361 15.9629C53.1125 17.211 51.9796 17.7689 50.7588 18.3598C51.1808 18.9579 51.5677 19.4944 51.942 20.0404C52.4418 20.7661 53.0045 21.461 53.4064 22.2339C53.851 23.0896 53.424 23.6735 52.4142 23.787C50.2941 24.0232 49.9223 23.8365 48.9351 22.104C48.2845 20.9576 47.6138 19.8277 46.9306 18.6553ZM45.5314 15.5635C46.7422 15.5635 47.6967 15.6203 48.6387 15.5471C49.533 15.4784 50.0178 14.8191 50.0178 13.8806C50.0178 12.8524 49.5279 12.1103 48.6714 12.0416C47.7721 11.9707 46.8628 12.025 45.7324 12.025C45.6671 13.2211 45.6068 14.2824 45.5314 15.5635Z" fill="#136FA9"/>
<path d="M75.1126 13.8615C75.3091 13.7188 75.5125 13.544 75.7418 13.4129C76.8972 12.746 78.2329 13.3831 78.2983 14.6895C78.4058 16.8264 78.434 18.9701 78.4948 21.1093C78.4994 21.2611 78.4924 21.4152 78.4737 21.567C78.2047 23.6233 76.8716 24.2076 75.0963 22.9425C73.7116 23.9177 72.0837 24.1224 70.5002 23.5635C69.6043 23.2461 68.7155 22.586 68.1168 21.8499C66.4538 19.8005 66.5074 17.1921 68.07 15.2899C69.9528 12.9944 72.1164 12.5481 75.1126 13.8615ZM75.0565 18.3882C75.0658 16.9183 74.1162 15.9155 72.7315 15.9362C71.3984 15.957 70.3716 17.0242 70.3482 18.4112C70.3223 19.9798 71.2298 20.9598 72.7058 20.9505C74.1606 20.9391 75.0447 19.9753 75.0565 18.3882Z" fill="#136FA9"/>
<path d="M120.389 19.4557C120.851 20.6177 121.478 21.0202 122.804 20.9792C123.404 20.961 123.993 20.7427 124.59 20.6289C125.109 20.5313 125.627 20.4016 126.15 20.3856C126.77 20.3652 127.364 20.6289 127.42 21.2292C127.465 21.6977 127.359 22.3822 127.025 22.6323C126.384 23.1144 125.568 23.5305 124.762 23.6693C122.677 24.0285 120.601 24.0171 118.81 22.6891C116.636 21.077 116.026 18.28 117.338 15.913C118.431 13.9392 121.593 12.6954 123.984 13.2729C126.081 13.78 127.56 14.8714 128.128 16.8838C128.516 18.2572 128.094 19.0986 126.585 19.2806C124.976 19.4761 123.33 19.4102 121.699 19.4535C121.308 19.4647 120.913 19.4557 120.389 19.4557ZM124.131 16.7019C123.107 15.7492 121.981 15.8038 121.146 16.7019C122.178 16.7019 123.156 16.7019 124.131 16.7019Z" fill="#FF631D"/>
<path d="M58.16 19.4033C58.5127 20.4606 59.2378 20.9963 60.4044 21.0031C60.9273 21.0053 61.4551 20.8732 61.973 20.7662C62.4934 20.6589 62.9941 20.4721 63.5145 20.3855C64.3136 20.2533 64.9747 20.4356 65.3298 21.2014C65.7096 22.0218 65.1918 22.5164 64.5702 22.9197C64.1411 23.2 63.6428 23.4302 63.1372 23.5601C60.4044 24.2644 56.8355 23.8837 55.2151 21.2104C53.2913 18.0336 55.1164 14.1935 58.9319 13.3162C62.3134 12.539 65.0461 14.3463 65.7146 16.1306C65.8601 16.5204 65.9933 16.9305 66.0352 17.3385C66.1512 18.5031 65.7515 19.1481 64.4962 19.2643C62.6685 19.4306 60.8188 19.369 58.9788 19.4011C58.7198 19.4079 58.451 19.4033 58.16 19.4033ZM62.2073 16.6753C61.1863 15.6863 60.0542 15.6863 58.7248 16.6753C59.9432 16.6753 61.021 16.6753 62.2073 16.6753Z" fill="#136FA9"/>
<path d="M111.431 18.3364C111.695 17.5977 111.935 16.8476 112.228 16.1251C112.536 15.3633 112.844 14.5878 113.246 13.8907C113.718 13.0736 114.219 12.9651 114.979 13.3298C115.673 13.6598 115.959 14.2761 115.759 15.0863C115.531 16.0027 115.259 16.9122 114.917 17.7778C113.756 20.7115 112.538 23.6152 111.379 26.5512C111.043 27.403 110.571 27.957 109.746 27.9986C108.972 28.0354 108.516 27.5184 108.656 26.6459C108.788 25.8241 109.002 24.9956 109.308 24.2384C109.77 23.0936 109.728 22.0318 109.248 20.9237C108.55 19.3104 107.893 17.6738 107.219 16.0465C107.147 15.8735 107.075 15.7003 107.013 15.5202C106.537 14.1585 106.593 13.6275 107.233 13.339C108.276 12.8681 109.43 13.3991 109.812 14.5277C110.244 15.8019 110.675 17.0783 111.105 18.3524C111.215 18.3478 111.323 18.3409 111.431 18.3364Z" fill="#FF631D"/>
<path d="M142.561 16.2129C141.469 16.1655 140.375 16.1372 139.286 16.0637C138.166 15.9881 137.664 15.5147 137.662 14.6085C137.659 13.7471 138.066 13.1956 139.006 13.1767C141.789 13.1198 144.577 13.1082 147.362 13.1862C148.583 13.2193 149 14.5777 148.096 15.6592C147.239 16.6861 146.24 17.6161 145.29 18.5745C144.636 19.2348 143.956 19.8714 143.073 20.7256C143.681 20.837 144.016 20.9434 144.355 20.9504C145.426 20.9765 146.5 20.9315 147.568 20.9765C148.634 21.0214 149.013 21.438 149 22.4081C148.987 23.4067 148.621 23.8352 147.579 23.847C144.749 23.8753 141.92 23.8895 139.093 23.8162C138.594 23.8044 137.971 23.4494 137.651 23.0755C137.18 22.5265 137.391 21.845 137.883 21.3385C138.995 20.1933 140.151 19.0858 141.282 17.9546C141.76 17.4741 142.219 16.9749 142.685 16.485C142.641 16.3951 142.6 16.3052 142.561 16.2129Z" fill="#FF631D"/>
<path d="M103.292 23.3418C102.094 23.5586 101.179 23.8378 100.261 23.8679C98.3239 23.9278 97.0133 22.7143 96.8702 20.6563C96.7315 18.67 96.7727 16.6674 96.7445 14.6742C96.7338 13.9036 96.9331 13.3245 97.7997 13.2529C98.8007 13.1676 99.4116 13.5228 99.6066 14.4481C99.6846 14.8171 99.6716 15.2094 99.6802 15.5924C99.7128 16.859 99.7171 18.1255 99.769 19.3899C99.7994 20.128 100.103 20.7417 100.79 21.007C101.786 21.3922 102.653 20.7509 102.709 19.5305C102.783 17.9594 102.75 16.3837 102.802 14.8102C102.843 13.5344 103.766 12.8583 104.88 13.2344C105.601 13.479 105.877 13.9935 105.868 14.7986C105.842 17.1772 105.881 19.5581 105.864 21.939C105.853 23.5517 105.012 24.11 103.593 23.494C103.431 23.4202 103.272 23.3303 103.292 23.3418Z" fill="#FF631D"/>
<path d="M83.4596 16.5881C83.4596 18.442 83.4961 20.2937 83.4485 22.1451C83.412 23.5451 82.0529 24.2189 80.5144 23.6893C79.7465 23.4245 79.4998 22.9398 79.4859 22.2918C79.4467 20.3598 79.3822 18.4302 79.3569 16.4982C79.3288 14.5663 79.3177 12.6343 79.3318 10.7022C79.34 9.53641 79.937 9.04233 81.271 9.00199C82.6078 8.96183 83.4147 9.52934 83.4457 10.6739C83.4961 12.646 83.4596 14.6158 83.4596 16.5881Z" fill="#136FA9"/>
<path d="M133 13.7744C133.541 13.582 134.08 13.3199 134.652 13.204C135.332 13.0649 136.032 13.058 136.394 13.7907C136.725 14.4632 136.543 15.5622 135.955 15.91C135.537 16.1581 135.042 16.3227 134.557 16.4548C133.62 16.71 133.169 17.2061 133.148 18.1313C133.118 19.5573 132.971 20.9809 132.856 22.4024C132.799 23.0886 132.628 23.7008 131.681 23.8238C130.431 23.9837 129.793 23.7448 129.356 22.8545C129.239 22.6111 129.128 22.3398 129.126 22.08C129.102 19.766 129.069 17.4496 129.118 15.1355C129.138 14.1083 130.113 13.1647 131.109 13.2018C131.714 13.2273 132.297 13.5518 133 13.7744Z" fill="#FF631D"/>
<path d="M18.6714 36.9995C8.39132 37.0707 -0.0940331 28.7558 0.000787047 18.4126C0.0935001 8.27603 7.96681 0.00647109 18.5098 3.79198e-06C29.029 -0.00646367 36.7667 8.26094 36.9951 18.0934C37.2299 28.3635 29.0355 36.8767 18.6714 36.9995ZM1.5996 18.5548C1.39067 27.9087 9.56563 35.6695 18.8287 35.4797C27.8677 35.2965 35.5191 27.6694 35.4588 18.6561C35.3898 8.94 27.9129 1.48964 18.2878 1.55432C8.98374 1.61468 1.52423 9.21379 1.5996 18.5548Z" fill="#FF631D"/>
<path d="M3 18.5778C3.02099 9.9551 10.0257 2.85894 18.5664 3.00213C27.2899 3.14953 34.1078 10.0077 33.9987 18.7064C33.8917 27.2239 27.1808 34.0251 18.4867 33.9999C9.31643 33.9747 3.05667 26.6574 3 18.5778ZM18.4217 33.3366C26.5786 33.4546 33.3649 26.8027 33.3712 18.5421C33.3775 10.3278 26.8073 3.67173 18.4743 3.65069C10.2377 3.62963 3.66094 10.2625 3.65478 18.4747C3.65052 26.7226 10.2061 33.3219 18.4217 33.3366Z" fill="#FF631D"/>
<path d="M12 9.04752C12.3913 9.03054 12.7229 9.00224 13.0565 9.00224C15.1991 9.00035 17.3418 9.01734 19.4845 9.00035C21.9831 8.9796 24.012 9.89278 25.2044 12.172C26.4323 14.5191 26.2311 16.8379 24.6549 19.0002C24.5821 19.1001 24.5244 19.2115 24.3995 19.4152C26.1863 20.9473 25.3702 23.017 25.5566 25C24.5282 25 23.617 25 22.5214 25C22.5214 24.3001 22.4897 23.6227 22.5308 22.949C22.5737 22.2283 22.3295 21.6849 21.7874 21.219C21.1521 20.6756 20.5651 20.0737 19.9446 19.485C20.6806 18.7247 21.3774 18.0209 22.0538 17.3002C23.1028 16.1794 23.2519 14.7851 22.4674 13.4984C21.9811 12.7022 21.275 12.155 20.3582 12.1229C18.5994 12.0588 16.835 12.1041 14.927 12.1041C14.927 12.7059 14.8656 13.2682 14.9401 13.8116C15.1246 15.1662 14.6606 16.1719 13.5595 16.9473C13.0359 17.3172 12.598 17.8133 12.0038 18.3605C12 15.1644 12 12.1437 12 9.04752Z" fill="#136FA9"/>
<path d="M21.2464 16.2261C19.7307 17.5258 18.2461 18.8037 16.7518 20.0746C15.099 21.4804 15.0951 21.4768 15.0951 23.5972C15.0951 24.3406 15.0951 25.0858 15.0951 25.93C16.1391 25.93 17.0766 25.93 18.0991 25.93C18.3466 24.9723 17.8827 23.3739 20.0227 23.9788C20.7572 24.3837 20.2488 25.2262 20.6838 25.9911C22.3598 25.9911 24.1383 25.9911 25.8433 25.9911C26.3014 27.2206 25.7177 28.4104 24.5809 28.7596C24.0996 28.9073 23.5719 28.9792 23.0654 28.9828C20.2952 29.0044 17.525 29.0044 14.7548 28.99C12.9899 28.9811 12.0233 28.0684 12.0098 26.416C11.9944 24.7365 12.0195 23.0553 12.0002 21.3759C11.9905 20.5354 12.3326 19.8819 12.9976 19.3258C14.3856 18.1647 15.7813 17.0091 17.1152 15.7959C18.4529 14.5809 20.2353 14.7825 21.2464 16.2261Z" fill="#FF602B"/>
</svg>
