<svg width="826" height="494" viewBox="0 0 826 494" fill="none" xmlns="http://www.w3.org/2000/svg">
<g clip-path="url(#clip0_1757_17574)">
<path d="M414.858 317.965C327.106 318.575 254.674 247.232 255.483 158.483C256.275 71.5088 323.482 0.553571 413.479 0.498079C503.272 0.442587 569.322 71.3793 571.271 155.745C573.276 243.865 503.328 316.91 414.858 317.965ZM269.131 159.704C267.348 239.963 337.13 306.553 416.2 304.924C493.359 303.352 558.672 237.909 558.158 160.573C557.568 77.2058 493.745 13.2796 411.583 13.8345C332.163 14.3524 268.488 79.5551 269.131 159.704Z" fill="#F6FBFF" fill-opacity="0.8"/>
<path d="M395.859 399.815C399.263 403.661 403.144 406.88 405.59 410.968C413.922 424.989 410.5 449.72 387.583 456.23C380.594 458.21 373.163 459.042 365.88 459.486C356.719 460.041 347.524 459.763 338.327 459.597C324.183 459.356 321.699 456.897 321.626 442.82C321.534 422.492 321.608 402.163 321.608 381.836C321.608 374.437 321.46 367.038 321.699 359.657C322.067 348.356 325.525 344.527 336.653 344.323C348.24 344.101 359.901 344.175 371.453 345.21C377.375 345.747 383.444 347.949 388.851 350.611C404.357 358.233 409.6 376.249 401.175 391.454C399.556 394.376 397.607 397.096 395.859 399.815ZM349.196 391.287C357.455 391.287 364.059 391.527 370.624 391.121C372.409 391.01 374.542 389.29 375.72 387.716C379.453 382.667 378.184 372.827 373.642 369.127C368.104 364.633 355.23 363.948 351.257 368.092C350.263 369.127 349.344 370.699 349.307 372.069C349.087 378.098 349.196 384.11 349.196 391.287ZM350.117 434.126C359.46 436.845 367.406 437.086 374.653 433.479C377.559 432.037 380.723 427.578 380.648 424.563C380.557 421.05 377.835 415.667 374.91 414.5C367.038 411.357 358.466 410.912 350.117 414.168C350.117 420.957 350.117 427.171 350.117 434.126Z" fill="#F6FBFF" fill-opacity="0.8"/>
<path d="M36.9225 423.491C34.1267 423.491 31.4966 423.491 26.8799 423.491C26.8799 432.961 27.0455 442.062 26.8248 451.144C26.604 460.152 24.121 462.613 15.458 463.278C4.64293 464.129 1.01953 461.114 0.945961 449.868C0.74364 420.31 0.817211 390.751 0.945961 361.193C0.982747 352.185 3.92561 348.688 12.9014 348.392C26.9351 347.93 41.061 347.541 55.0212 348.67C71.9794 350.039 82.8496 360.119 85.3694 377.008C86.6018 385.239 85.2223 394.061 83.8244 402.422C82.1874 412.189 73.8923 416.554 64.9532 421.179C68.0433 425.859 70.8758 430.057 73.6164 434.33C77.2766 440.009 81.3966 445.447 84.3395 451.495C87.5949 458.191 84.4681 462.761 77.0743 463.649C61.5506 465.498 58.8284 464.036 51.6 450.478C46.8363 441.508 41.9254 432.665 36.9225 423.491ZM26.6776 399.296C35.5431 399.296 42.5324 399.74 49.4297 399.167C55.9775 398.631 59.5274 393.471 59.5274 386.127C59.5274 378.08 55.9407 372.273 49.6688 371.736C43.0842 371.181 36.4259 371.606 28.1491 371.606C27.6709 380.966 27.2294 389.271 26.6776 399.296Z" fill="#F6FBFF" fill-opacity="0.8"/>
<path d="M252.138 380.393C253.684 379.246 255.283 377.84 257.086 376.786C266.172 371.422 276.675 376.546 277.19 387.052C278.035 404.237 278.256 421.475 278.735 438.678C278.771 439.899 278.716 441.139 278.569 442.359C276.454 458.895 265.97 463.594 252.01 453.421C241.121 461.262 228.32 462.909 215.868 458.415C208.822 455.862 201.834 450.554 197.126 444.634C184.048 428.153 184.47 407.177 196.758 391.88C211.563 373.42 228.577 369.831 252.138 380.393ZM251.697 416.796C251.77 404.976 244.303 396.911 233.414 397.077C222.931 397.245 214.856 405.827 214.672 416.981C214.469 429.595 221.605 437.476 233.212 437.401C244.652 437.31 251.604 429.559 251.697 416.796Z" fill="#F6FBFF" fill-opacity="0.8"/>
<path d="M618.838 424.639C622.295 434.091 626.986 437.365 636.918 437.032C641.405 436.884 645.82 435.108 650.289 434.182C654.17 433.388 658.051 432.334 661.97 432.204C666.605 432.038 671.056 434.182 671.478 439.066C671.81 442.877 671.018 448.445 668.517 450.479C663.717 454.4 657.61 457.785 651.578 458.914C635.961 461.837 620.419 461.744 607.011 450.941C590.733 437.827 586.171 415.076 595.993 395.821C604.179 379.765 627.85 369.647 645.747 374.345C661.454 378.47 672.526 387.348 676.775 403.718C679.681 414.89 676.518 421.734 665.225 423.215C653.177 424.805 640.855 424.269 628.642 424.621C625.717 424.712 622.756 424.639 618.838 424.639ZM646.85 402.239C639.181 394.488 630.756 394.932 624.502 402.239C632.228 402.239 639.549 402.239 646.85 402.239Z" fill="#F6FBFF" fill-opacity="0.8"/>
<path d="M121.086 424.287C123.717 432.869 129.124 437.217 137.824 437.272C141.723 437.29 145.66 436.218 149.521 435.349C153.402 434.478 157.136 432.962 161.017 432.259C166.976 431.186 171.906 432.666 174.554 438.881C177.387 445.54 173.525 449.554 168.89 452.828C165.69 455.103 161.973 456.971 158.203 458.026C137.824 463.742 111.209 460.652 99.1252 438.955C84.7787 413.17 98.3894 382.002 126.843 374.881C152.06 368.573 172.439 383.242 177.424 397.724C178.509 400.888 179.502 404.217 179.815 407.528C180.68 416.981 177.699 422.216 168.338 423.159C154.708 424.508 140.914 424.009 127.193 424.269C125.262 424.324 123.257 424.287 121.086 424.287ZM151.269 402.146C143.655 394.118 135.212 394.118 125.298 402.146C134.384 402.146 142.422 402.146 151.269 402.146Z" fill="#F6FBFF" fill-opacity="0.8"/>
<path d="M545.414 415.574C547.841 409.655 550.049 403.644 552.735 397.854C555.567 391.749 558.399 385.535 562.096 379.948C566.437 373.4 571.036 372.531 578.024 375.454C584.407 378.098 587.037 383.037 585.198 389.529C583.1 396.873 580.599 404.161 577.454 411.098C566.787 434.608 555.585 457.877 544.936 481.405C541.846 488.231 537.504 492.67 529.927 493.004C522.809 493.299 518.616 489.156 519.902 482.163C521.117 475.578 523.085 468.939 525.899 462.871C530.148 453.697 529.762 445.188 525.347 436.309C518.928 423.38 512.895 410.265 506.696 397.225C506.035 395.838 505.372 394.45 504.802 393.007C500.424 382.095 500.94 377.84 506.826 375.527C516.409 371.754 527.021 376.009 530.534 385.053C534.506 395.264 538.462 405.492 542.416 415.703C543.428 415.666 544.421 415.61 545.414 415.574Z" fill="#F6FBFF" fill-opacity="0.8"/>
<path d="M779.413 398.612C771.614 398.241 763.796 398.02 756.017 397.446C748.015 396.855 744.429 393.155 744.411 386.071C744.392 379.338 747.299 375.028 754.012 374.88C773.895 374.435 793.815 374.344 813.715 374.954C822.433 375.213 825.413 385.831 818.957 394.284C812.832 402.311 805.696 409.58 798.909 417.072C794.237 422.233 789.382 427.209 783.073 433.886C787.413 434.756 789.805 435.588 792.232 435.643C799.883 435.846 807.554 435.495 815.187 435.846C822.801 436.198 825.506 439.454 825.413 447.037C825.322 454.843 822.709 458.191 815.26 458.284C795.046 458.505 774.832 458.616 754.637 458.043C751.069 457.95 746.618 455.176 744.338 452.254C740.971 447.962 742.48 442.635 745.993 438.676C753.938 429.725 762.197 421.068 770.272 412.226C773.692 408.47 776.967 404.568 780.296 400.739C779.983 400.036 779.688 399.333 779.413 398.612Z" fill="#F6FBFF" fill-opacity="0.8"/>
<path d="M472.525 455.658C462.353 457.396 454.591 459.635 446.793 459.876C430.349 460.356 419.223 450.627 418.008 434.127C416.83 418.201 417.18 402.146 416.941 386.165C416.85 379.986 418.542 375.344 425.898 374.769C434.396 374.086 439.583 376.934 441.238 384.352C441.901 387.31 441.79 390.456 441.863 393.526C442.14 403.682 442.176 413.836 442.618 423.973C442.875 429.891 445.45 434.812 451.282 436.939C459.742 440.027 467.099 434.885 467.577 425.101C468.203 412.504 467.926 399.871 468.367 387.255C468.717 377.026 476.553 371.606 486.007 374.621C492.132 376.582 494.467 380.707 494.394 387.162C494.173 406.233 494.505 425.322 494.357 444.411C494.265 457.341 487.129 461.817 475.082 456.879C473.703 456.286 472.359 455.565 472.525 455.658Z" fill="#F6FBFF" fill-opacity="0.8"/>
<path d="M313.476 402.701C313.476 417.203 313.715 431.686 313.403 446.169C313.163 457.12 304.243 462.39 294.146 458.247C289.105 456.176 287.487 452.384 287.395 447.316C287.138 432.204 286.715 417.11 286.549 401.998C286.364 386.886 286.291 371.774 286.384 356.661C286.438 347.542 290.356 343.677 299.111 343.361C307.885 343.047 313.181 347.486 313.385 356.439C313.715 371.865 313.476 387.273 313.476 402.701Z" fill="#F6FBFF" fill-opacity="0.8"/>
<path d="M713.485 377.987C717.366 376.453 721.229 374.362 725.33 373.437C730.204 372.327 735.225 372.272 737.819 378.117C740.192 383.482 738.886 392.249 734.673 395.024C731.676 397.003 728.126 398.316 724.649 399.37C717.936 401.406 714.698 405.363 714.551 412.744C714.331 424.12 713.283 435.477 712.455 446.816C712.05 452.29 710.819 457.174 704.031 458.155C695.073 459.431 690.494 457.525 687.367 450.422C686.521 448.481 685.73 446.317 685.712 444.244C685.546 425.785 685.307 407.306 685.657 388.845C685.803 380.651 692.793 373.123 699.93 373.419C704.27 373.623 708.446 376.212 713.485 377.987Z" fill="#F6FBFF" fill-opacity="0.8"/>
<path d="M277.023 158.629C277.207 82.8834 338.603 20.548 413.462 21.8058C489.921 23.1006 549.68 83.3459 548.723 159.758C547.785 234.579 488.965 294.324 412.763 294.103C332.386 293.881 277.52 229.603 277.023 158.629ZM412.193 288.276C483.687 289.312 543.168 230.879 543.224 158.315C543.279 86.1576 485.692 27.6879 412.653 27.503C340.461 27.318 282.816 85.5841 282.763 157.723C282.725 230.176 340.184 288.147 412.193 288.276Z" fill="#F6FBFF" fill-opacity="0.8"/>
<path d="M343.773 58.8565C347.636 58.69 350.91 58.4126 354.203 58.4126C375.354 58.394 396.506 58.5606 417.658 58.394C442.323 58.1906 462.352 67.1432 474.124 89.4878C486.245 112.498 484.258 135.231 468.699 156.43C467.981 157.409 467.411 158.501 466.178 160.498C483.817 175.519 475.76 195.81 477.601 215.25C467.448 215.25 458.453 215.25 447.638 215.25C447.638 208.388 447.325 201.748 447.73 195.143C448.154 188.078 445.744 182.75 440.392 178.182C434.12 172.855 428.326 166.955 422.201 161.183C429.466 153.729 436.345 146.829 443.022 139.764C453.377 128.776 454.849 115.106 447.105 102.491C442.304 94.6856 435.334 89.3213 426.284 89.0069C408.921 88.378 391.503 88.8219 372.668 88.8219C372.668 94.7225 372.062 100.235 372.797 105.562C374.619 118.843 370.038 128.702 359.169 136.304C354 139.93 349.677 144.794 343.811 150.159C343.773 118.824 343.773 89.2103 343.773 58.8565Z" fill="#F6FBFF" fill-opacity="0.8"/>
<path d="M431.195 130.182C416.773 143.537 402.648 156.669 388.431 169.729C372.705 184.175 372.668 184.138 372.668 205.928C372.668 213.568 372.668 221.225 372.668 229.9C382.6 229.9 391.52 229.9 401.25 229.9C403.604 220.059 399.191 203.634 419.552 209.85C426.54 214.011 421.703 222.667 425.841 230.528C441.789 230.528 458.71 230.528 474.932 230.528C479.291 243.162 473.737 255.389 462.922 258.977C458.342 260.495 453.321 261.234 448.502 261.271C422.145 261.493 395.787 261.493 369.43 261.345C352.637 261.253 343.441 251.874 343.312 234.894C343.165 217.636 343.405 200.36 343.221 183.102C343.128 174.464 346.384 167.749 352.711 162.034C365.917 150.103 379.197 138.228 391.888 125.761C404.616 113.275 421.574 115.347 431.195 130.182Z" fill="#F6FBFF" fill-opacity="0.8"/>
</g>
<defs>
<clipPath id="clip0_1757_17574">
<rect width="826" height="494" fill="white"/>
</clipPath>
</defs>
</svg>
