<svg width="36" height="30" viewBox="0 0 36 30" fill="none" xmlns="http://www.w3.org/2000/svg">
<path d="M35.9194 1.28587C36.0013 1.1155 36.0213 0.928867 35.9771 0.749101C35.9328 0.569335 35.8262 0.404345 35.6705 0.274584C35.5148 0.144824 35.3168 0.0559996 35.1011 0.0191236C34.8854 -0.0177525 34.6614 -0.0010586 34.457 0.0671355L1.72738 10.9776H1.72513L0.708162 11.3151C0.515547 11.3791 0.347917 11.4863 0.223789 11.6247C0.0996616 11.7632 0.0238666 11.9275 0.00477708 12.0996C-0.0143125 12.2717 0.0240463 12.4448 0.115616 12.5999C0.207186 12.7549 0.348403 12.8859 0.523669 12.9782L1.44614 13.4657L1.44839 13.4695L12.6867 19.4281L19.837 28.7936L19.8415 28.7974L20.4265 29.5661C20.5377 29.7116 20.6949 29.8287 20.8808 29.9046C21.0667 29.9804 21.2742 30.012 21.4803 29.9959C21.6863 29.9798 21.8831 29.9167 22.0489 29.8134C22.2147 29.7101 22.3431 29.5707 22.4199 29.4105L35.9194 1.28587ZM31.7953 4.82958L14.9344 18.8806L14.4507 18.2469C14.3621 18.1306 14.2438 18.032 14.1042 17.9582L13.3437 17.555L30.2046 3.50397L32.855 2.62085L31.7976 4.82958H31.7953Z" fill="#126FAA"/>
</svg>
