<svg width="40" height="40" viewBox="0 0 40 40" fill="none" xmlns="http://www.w3.org/2000/svg">
<rect width="40" height="40" rx="20" fill="#EBF8F1"/>
<path fill-rule="evenodd" clip-rule="evenodd" d="M21.1641 10.6667C21.1641 10.3572 21.0411 10.0605 20.8224 9.84171C20.6036 9.62292 20.3068 9.5 19.9974 9.5C19.688 9.5 19.3912 9.62292 19.1724 9.84171C18.9536 10.0605 18.8307 10.3572 18.8307 10.6667V11.8333C17.5931 11.8333 16.4061 12.325 15.5309 13.2002C14.6557 14.0753 14.1641 15.2623 14.1641 16.5C14.1641 17.7377 14.6557 18.9247 15.5309 19.7998C16.4061 20.675 17.5931 21.1667 18.8307 21.1667V25.8333C18.3481 25.8334 17.8774 25.6839 17.4832 25.4054C17.0891 25.1269 16.7909 24.7331 16.6298 24.2782C16.5227 23.9918 16.3075 23.7589 16.0305 23.6296C15.7535 23.5003 15.4367 23.4849 15.1485 23.5867C14.8602 23.6885 14.6234 23.8994 14.4891 24.1741C14.3547 24.4487 14.3335 24.7651 14.4301 25.0552C14.752 25.9651 15.348 26.7529 16.136 27.3101C16.9241 27.8673 17.8655 28.1666 18.8307 28.1667V29.3333C18.8307 29.6428 18.9536 29.9395 19.1724 30.1583C19.3912 30.3771 19.688 30.5 19.9974 30.5C20.3068 30.5 20.6036 30.3771 20.8224 30.1583C21.0411 29.9395 21.1641 29.6428 21.1641 29.3333V28.1667C22.4017 28.1667 23.5887 27.675 24.4639 26.7998C25.3391 25.9247 25.8307 24.7377 25.8307 23.5C25.8307 22.2623 25.3391 21.0753 24.4639 20.2002C23.5887 19.325 22.4017 18.8333 21.1641 18.8333V14.1667C21.6467 14.1666 22.1174 14.3161 22.5116 14.5946C22.9057 14.8731 23.2039 15.2669 23.365 15.7218C23.4721 16.0082 23.6873 16.2411 23.9643 16.3704C24.2413 16.4997 24.558 16.5151 24.8463 16.4133C25.1346 16.3115 25.3714 16.1006 25.5057 15.8259C25.6401 15.5513 25.6613 15.2349 25.5647 14.9448C25.2428 14.0349 24.6468 13.2471 23.8588 12.6899C23.0707 12.1327 22.1292 11.8334 21.1641 11.8333V10.6667ZM18.8307 14.1667C18.2119 14.1667 17.6184 14.4125 17.1808 14.8501C16.7432 15.2877 16.4974 15.8812 16.4974 16.5C16.4974 17.1188 16.7432 17.7123 17.1808 18.1499C17.6184 18.5875 18.2119 18.8333 18.8307 18.8333V14.1667ZM21.1641 21.1667V25.8333C21.7829 25.8333 22.3764 25.5875 22.814 25.1499C23.2516 24.7123 23.4974 24.1188 23.4974 23.5C23.4974 22.8812 23.2516 22.2877 22.814 21.8501C22.3764 21.4125 21.7829 21.1667 21.1641 21.1667Z" fill="#00A651"/>
</svg>
