<svg width="164" height="164" viewBox="0 0 164 164" fill="none" xmlns="http://www.w3.org/2000/svg">
<path id="Vector" d="M164 154.837L9.16322 0L0 9.16322L31.6744 40.8377L47.6199 74.4602L37.8795 92.1373C36.725 94.1575 36.0757 96.5385 36.0757 99.0638C36.0757 102.891 37.596 106.561 40.3022 109.268C43.0084 111.974 46.6788 113.494 50.5059 113.494H104.331L114.288 123.451C110.68 126.048 108.227 130.305 108.227 135.139C108.227 138.967 109.747 142.637 112.454 145.343C115.16 148.049 118.83 149.57 122.657 149.57C127.491 149.57 131.748 147.189 134.346 143.509L154.837 164L164 154.837ZM53.5363 99.0638C53.0579 99.0638 52.5991 98.8737 52.2608 98.5355C51.9226 98.1972 51.7325 97.7384 51.7325 97.26L51.949 96.3942L58.4426 84.6335H75.4703L89.9006 99.0638H53.5363ZM112.195 84.6335C117.607 84.6335 122.369 81.6753 124.822 77.2019L150.652 30.52C151.229 29.3656 151.518 28.139 151.518 26.9125C151.518 24.9989 150.758 23.1637 149.405 21.8106C148.051 20.4575 146.216 19.6973 144.303 19.6973H47.187L112.195 84.6335ZM50.5059 120.709C46.6788 120.709 43.0084 122.23 40.3022 124.936C37.596 127.642 36.0757 131.312 36.0757 135.139C36.0757 138.967 37.596 142.637 40.3022 145.343C43.0084 148.049 46.6788 149.57 50.5059 149.57C54.3331 149.57 58.0035 148.049 60.7097 145.343C63.4159 142.637 64.9362 138.967 64.9362 135.139C64.9362 131.312 63.4159 127.642 60.7097 124.936C58.0035 122.23 54.3331 120.709 50.5059 120.709Z" fill="#D7D7D7"/>
</svg>
