<svg width="40" height="40" viewBox="0 0 40 40" fill="none" xmlns="http://www.w3.org/2000/svg">
<rect width="40" height="40" rx="20" fill="#FFF3EB"/>
<path d="M26.6046 19.0667C26.3363 18.7167 26.0096 18.4133 25.7063 18.11C24.9246 17.41 24.0379 16.9083 23.2913 16.1733C21.5529 14.47 21.1679 11.6583 22.2763 9.5C21.1679 9.76833 20.1996 10.375 19.3713 11.04C16.3496 13.4667 15.1596 17.7483 16.5829 21.4233C16.6296 21.54 16.6763 21.6567 16.6763 21.8083C16.6763 22.065 16.5013 22.2983 16.2679 22.3917C15.9996 22.5083 15.7196 22.4383 15.4979 22.2517C15.4313 22.1966 15.3759 22.1293 15.3346 22.0533C14.0163 20.385 13.8063 17.9933 14.6929 16.08C12.7446 17.6667 11.6829 20.35 11.8346 22.8817C11.9046 23.465 11.9746 24.0483 12.1729 24.6317C12.3363 25.3317 12.6513 26.0317 13.0013 26.65C14.2613 28.6683 16.4429 30.115 18.7879 30.4067C21.2846 30.7217 23.9563 30.2667 25.8696 28.54C28.0046 26.6033 28.7513 23.5 27.6546 20.84L27.5029 20.5367C27.2579 20 26.6046 19.0667 26.6046 19.0667ZM22.9179 26.4167C22.5913 26.6967 22.0546 27 21.6346 27.1167C20.3279 27.5833 19.0213 26.93 18.2513 26.16C19.6396 25.8333 20.4679 24.8067 20.7129 23.7683C20.9113 22.835 20.5379 22.065 20.3863 21.1667C20.2463 20.3033 20.2696 19.5683 20.5846 18.7633C20.8063 19.2067 21.0396 19.65 21.3196 20C22.2179 21.1667 23.6296 21.68 23.9329 23.2667C23.9796 23.43 24.0029 23.5933 24.0029 23.7683C24.0379 24.725 23.6179 25.775 22.9179 26.4167Z" fill="#FF6600"/>
</svg>
