<svg width="145" height="39" viewBox="0 0 145 39" fill="none" xmlns="http://www.w3.org/2000/svg">
<rect width="145" height="39" rx="3" fill="#001022"/>
<path d="M24.3848 8.01251C24.3273 7.95314 22.2542 8.03595 20.4502 9.84375C18.6462 11.65 18.9237 13.7219 18.9644 13.775C19.005 13.8281 21.5367 13.9109 23.1528 11.8094C24.769 9.70781 24.4424 8.07345 24.3848 8.01251ZM29.9932 26.3452C29.9119 26.1952 26.0585 24.4171 26.4173 20.9984C26.7761 17.5781 29.2519 16.6406 29.2908 16.539C29.3298 16.4375 28.2805 15.3047 27.1687 14.7312C26.3523 14.3269 25.4488 14.0953 24.5236 14.0531C24.3408 14.0484 23.7062 13.9047 22.4014 14.2344C21.5418 14.4515 19.6041 15.1547 19.071 15.1828C18.5362 15.2109 16.9454 14.3672 15.2345 14.1437C14.1396 13.9484 12.9787 14.3484 12.1477 14.6562C11.3185 14.9625 9.74126 15.8343 8.63788 18.1515C7.53449 20.4671 8.11157 24.1359 8.52449 25.2765C8.93742 26.4155 9.58219 28.2827 10.6788 29.6452C11.6536 31.1827 12.9465 32.2499 13.4863 32.6124C14.0262 32.9749 15.5493 33.2155 16.6053 32.7171C17.4548 32.2358 18.9881 31.9593 19.5939 31.9796C20.1981 31.9999 21.3894 32.2202 22.6096 32.8218C23.5759 33.1296 24.4898 33.0014 25.4053 32.6577C26.3208 32.3124 27.6459 31.003 29.1927 28.3483C29.7799 27.114 30.0473 26.4468 29.9932 26.3452Z" fill="white"/>
<path d="M44.375 18H41.233V7.81818H44.5142C45.5019 7.81818 46.3471 8.02202 47.0497 8.42969C47.7524 8.83404 48.291 9.41572 48.6655 10.1747C49.04 10.9304 49.2273 11.8352 49.2273 12.8892C49.2273 13.9498 49.0384 14.8629 48.6605 15.6286C48.2827 16.3909 47.7325 16.9775 47.0099 17.3885C46.2874 17.7962 45.4091 18 44.375 18ZM42.4659 16.9062H44.2955C45.1373 16.9062 45.835 16.7438 46.3885 16.419C46.942 16.0942 47.3546 15.6319 47.6264 15.032C47.8982 14.4321 48.0341 13.7178 48.0341 12.8892C48.0341 12.0672 47.8999 11.3596 47.6314 10.7663C47.3629 10.1697 46.9619 9.71236 46.4283 9.39418C45.8946 9.07268 45.2301 8.91193 44.4347 8.91193H42.4659V16.9062ZM54.2386 18.1591C53.5492 18.1591 52.9444 17.995 52.424 17.6669C51.907 17.3388 51.5026 16.8797 51.2109 16.2898C50.9226 15.6998 50.7784 15.0104 50.7784 14.2216C50.7784 13.4261 50.9226 12.7318 51.2109 12.1385C51.5026 11.5452 51.907 11.0845 52.424 10.7564C52.9444 10.4283 53.5492 10.2642 54.2386 10.2642C54.928 10.2642 55.5313 10.4283 56.0483 10.7564C56.5687 11.0845 56.973 11.5452 57.2614 12.1385C57.553 12.7318 57.6989 13.4261 57.6989 14.2216C57.6989 15.0104 57.553 15.6998 57.2614 16.2898C56.973 16.8797 56.5687 17.3388 56.0483 17.6669C55.5313 17.995 54.928 18.1591 54.2386 18.1591ZM54.2386 17.1051C54.7623 17.1051 55.1932 16.9709 55.5312 16.7024C55.8693 16.4339 56.1196 16.081 56.282 15.6435C56.4444 15.206 56.5256 14.732 56.5256 14.2216C56.5256 13.7112 56.4444 13.2356 56.282 12.7947C56.1196 12.3539 55.8693 11.9976 55.5312 11.7259C55.1932 11.4541 54.7623 11.3182 54.2386 11.3182C53.715 11.3182 53.2841 11.4541 52.946 11.7259C52.608 11.9976 52.3577 12.3539 52.1953 12.7947C52.0329 13.2356 51.9517 13.7112 51.9517 14.2216C51.9517 14.732 52.0329 15.206 52.1953 15.6435C52.3577 16.081 52.608 16.4339 52.946 16.7024C53.2841 16.9709 53.715 17.1051 54.2386 17.1051ZM60.9602 18L58.6335 10.3636H59.8665L61.517 16.2102H61.5966L63.2273 10.3636H64.4801L66.0909 16.1903H66.1705L67.821 10.3636H69.054L66.7273 18H65.5739L63.9034 12.1335H63.7841L62.1136 18H60.9602ZM71.7784 13.4062V18H70.6051V10.3636H71.7386V11.5568H71.8381C72.017 11.169 72.2888 10.8575 72.6534 10.6222C73.018 10.3835 73.4886 10.2642 74.0653 10.2642C74.5824 10.2642 75.0348 10.3703 75.4226 10.5824C75.8104 10.7912 76.112 11.1094 76.3274 11.5369C76.5429 11.9612 76.6506 12.4981 76.6506 13.1477V18H75.4773V13.2273C75.4773 12.6274 75.3215 12.16 75.0099 11.8253C74.6984 11.4872 74.2708 11.3182 73.7273 11.3182C73.3527 11.3182 73.018 11.3994 72.723 11.5618C72.4313 11.7242 72.201 11.9612 72.032 12.2727C71.8629 12.5843 71.7784 12.9621 71.7784 13.4062ZM79.9679 7.81818V18H78.7946V7.81818H79.9679ZM85.2191 18.1591C84.5297 18.1591 83.9248 17.995 83.4045 17.6669C82.8874 17.3388 82.4831 16.8797 82.1914 16.2898C81.9031 15.6998 81.7589 15.0104 81.7589 14.2216C81.7589 13.4261 81.9031 12.7318 82.1914 12.1385C82.4831 11.5452 82.8874 11.0845 83.4045 10.7564C83.9248 10.4283 84.5297 10.2642 85.2191 10.2642C85.9085 10.2642 86.5117 10.4283 87.0288 10.7564C87.5491 11.0845 87.9535 11.5452 88.2418 12.1385C88.5335 12.7318 88.6793 13.4261 88.6793 14.2216C88.6793 15.0104 88.5335 15.6998 88.2418 16.2898C87.9535 16.8797 87.5491 17.3388 87.0288 17.6669C86.5117 17.995 85.9085 18.1591 85.2191 18.1591ZM85.2191 17.1051C85.7428 17.1051 86.1737 16.9709 86.5117 16.7024C86.8498 16.4339 87.1 16.081 87.2624 15.6435C87.4248 15.206 87.506 14.732 87.506 14.2216C87.506 13.7112 87.4248 13.2356 87.2624 12.7947C87.1 12.3539 86.8498 11.9976 86.5117 11.7259C86.1737 11.4541 85.7428 11.3182 85.2191 11.3182C84.6954 11.3182 84.2646 11.4541 83.9265 11.7259C83.5884 11.9976 83.3382 12.3539 83.1758 12.7947C83.0134 13.2356 82.9322 13.7112 82.9322 14.2216C82.9322 14.732 83.0134 15.206 83.1758 15.6435C83.3382 16.081 83.5884 16.4339 83.9265 16.7024C84.2646 16.9709 84.6954 17.1051 85.2191 17.1051ZM92.7175 18.179C92.2336 18.179 91.7944 18.0878 91.4 17.9055C91.0056 17.7199 90.6924 17.4531 90.4604 17.1051C90.2284 16.7538 90.1124 16.3295 90.1124 15.8324C90.1124 15.3949 90.1986 15.0402 90.3709 14.7685C90.5433 14.4934 90.7736 14.2779 91.062 14.1222C91.3503 13.9664 91.6685 13.8504 92.0165 13.7741C92.3678 13.6946 92.7208 13.6316 93.0755 13.5852C93.5395 13.5256 93.9157 13.4808 94.204 13.451C94.4957 13.4179 94.7078 13.3632 94.8404 13.2869C94.9763 13.2107 95.0442 13.0781 95.0442 12.8892V12.8494C95.0442 12.3589 94.91 11.9777 94.6415 11.706C94.3764 11.4342 93.9737 11.2983 93.4334 11.2983C92.8733 11.2983 92.4341 11.4209 92.1159 11.6662C91.7978 11.9115 91.574 12.1733 91.4448 12.4517L90.3311 12.054C90.53 11.59 90.7952 11.2287 91.1266 10.9702C91.4614 10.7083 91.8259 10.526 92.2203 10.4233C92.6181 10.3172 93.0092 10.2642 93.3936 10.2642C93.6389 10.2642 93.9206 10.294 94.2388 10.3537C94.5603 10.41 94.8702 10.5277 95.1685 10.7067C95.4701 10.8857 95.7203 11.1558 95.9192 11.517C96.1181 11.8783 96.2175 12.3622 96.2175 12.9688V18H95.0442V16.9659H94.9846C94.905 17.1316 94.7724 17.3089 94.5868 17.4979C94.4012 17.6868 94.1543 17.8475 93.8461 17.9801C93.5378 18.1127 93.1616 18.179 92.7175 18.179ZM92.8965 17.125C93.3605 17.125 93.7516 17.0339 94.0698 16.8516C94.3913 16.6693 94.6332 16.4339 94.7956 16.1456C94.9614 15.8572 95.0442 15.554 95.0442 15.2358V14.1619C94.9945 14.2216 94.8851 14.2763 94.7161 14.326C94.5504 14.3724 94.3581 14.4138 94.1394 14.4503C93.9239 14.4834 93.7135 14.5133 93.508 14.5398C93.3058 14.563 93.1417 14.5829 93.0158 14.5994C92.7109 14.6392 92.4258 14.7038 92.1607 14.7933C91.8989 14.8795 91.6867 15.0104 91.5243 15.1861C91.3652 15.3584 91.2857 15.5937 91.2857 15.892C91.2857 16.2997 91.4365 16.608 91.7381 16.8168C92.043 17.0223 92.4292 17.125 92.8965 17.125ZM101.243 18.1591C100.606 18.1591 100.044 17.9983 99.5572 17.6768C99.07 17.352 98.6888 16.8946 98.4137 16.3047C98.1386 15.7114 98.0011 15.0104 98.0011 14.2017C98.0011 13.3996 98.1386 12.7036 98.4137 12.1136C98.6888 11.5237 99.0716 11.0679 99.5621 10.7464C100.053 10.425 100.619 10.2642 101.262 10.2642C101.76 10.2642 102.152 10.3471 102.441 10.5128C102.732 10.6752 102.954 10.8608 103.107 11.0696C103.263 11.2751 103.384 11.4441 103.47 11.5767H103.569V7.81818H104.743V18H103.609V16.8267H103.47C103.384 16.9659 103.261 17.1416 103.102 17.3537C102.943 17.5625 102.716 17.7498 102.421 17.9155C102.126 18.0779 101.733 18.1591 101.243 18.1591ZM101.402 17.1051C101.872 17.1051 102.27 16.9825 102.595 16.7372C102.92 16.4886 103.167 16.1456 103.336 15.7081C103.505 15.2673 103.589 14.7585 103.589 14.1818C103.589 13.6117 103.506 13.1129 103.341 12.6854C103.175 12.2545 102.93 11.9197 102.605 11.6811C102.28 11.4392 101.879 11.3182 101.402 11.3182C100.904 11.3182 100.49 11.4458 100.159 11.701C99.8306 11.9529 99.5837 12.2959 99.418 12.7301C99.2556 13.161 99.1744 13.6449 99.1744 14.1818C99.1744 14.7254 99.2572 15.2192 99.4229 15.6634C99.592 16.1042 99.8406 16.4555 100.169 16.7173C100.5 16.9759 100.911 17.1051 101.402 17.1051ZM114.094 18.1591C113.405 18.1591 112.8 17.995 112.279 17.6669C111.762 17.3388 111.358 16.8797 111.066 16.2898C110.778 15.6998 110.634 15.0104 110.634 14.2216C110.634 13.4261 110.778 12.7318 111.066 12.1385C111.358 11.5452 111.762 11.0845 112.279 10.7564C112.8 10.4283 113.405 10.2642 114.094 10.2642C114.783 10.2642 115.387 10.4283 115.904 10.7564C116.424 11.0845 116.828 11.5452 117.117 12.1385C117.408 12.7318 117.554 13.4261 117.554 14.2216C117.554 15.0104 117.408 15.6998 117.117 16.2898C116.828 16.8797 116.424 17.3388 115.904 17.6669C115.387 17.995 114.783 18.1591 114.094 18.1591ZM114.094 17.1051C114.618 17.1051 115.049 16.9709 115.387 16.7024C115.725 16.4339 115.975 16.081 116.137 15.6435C116.3 15.206 116.381 14.732 116.381 14.2216C116.381 13.7112 116.3 13.2356 116.137 12.7947C115.975 12.3539 115.725 11.9976 115.387 11.7259C115.049 11.4541 114.618 11.3182 114.094 11.3182C113.57 11.3182 113.14 11.4541 112.801 11.7259C112.463 11.9976 112.213 12.3539 112.051 12.7947C111.888 13.2356 111.807 13.7112 111.807 14.2216C111.807 14.732 111.888 15.206 112.051 15.6435C112.213 16.081 112.463 16.4339 112.801 16.7024C113.14 16.9709 113.57 17.1051 114.094 17.1051ZM120.519 13.4062V18H119.345V10.3636H120.479V11.5568H120.578C120.757 11.169 121.029 10.8575 121.394 10.6222C121.758 10.3835 122.229 10.2642 122.806 10.2642C123.323 10.2642 123.775 10.3703 124.163 10.5824C124.551 10.7912 124.852 11.1094 125.068 11.5369C125.283 11.9612 125.391 12.4981 125.391 13.1477V18H124.218V13.2273C124.218 12.6274 124.062 12.16 123.75 11.8253C123.439 11.4872 123.011 11.3182 122.468 11.3182C122.093 11.3182 121.758 11.3994 121.463 11.5618C121.172 11.7242 120.941 11.9612 120.772 12.2727C120.603 12.5843 120.519 12.9621 120.519 13.4062ZM41.6506 32H40.358L44.0966 21.8182H45.3693L49.108 32H47.8153L44.7727 23.429H44.6932L41.6506 32ZM42.1278 28.0227H47.3381V29.1165H42.1278V28.0227ZM50.5348 34.8636V24.3636H51.6683V25.5767H51.8075C51.8937 25.4441 52.013 25.2751 52.1655 25.0696C52.3213 24.8608 52.5433 24.6752 52.8317 24.5128C53.1233 24.3471 53.5178 24.2642 54.0149 24.2642C54.6579 24.2642 55.2247 24.425 55.7152 24.7464C56.2057 25.0679 56.5885 25.5237 56.8636 26.1136C57.1387 26.7036 57.2763 27.3996 57.2763 28.2017C57.2763 29.0104 57.1387 29.7114 56.8636 30.3047C56.5885 30.8946 56.2074 31.352 55.7202 31.6768C55.233 31.9983 54.6712 32.1591 54.0348 32.1591C53.5443 32.1591 53.1515 32.0779 52.8565 31.9155C52.5616 31.7498 52.3345 31.5625 52.1754 31.3537C52.0163 31.1416 51.8937 30.9659 51.8075 30.8267H51.7081V34.8636H50.5348ZM51.6882 28.1818C51.6882 28.7585 51.7727 29.2673 51.9418 29.7081C52.1108 30.1456 52.3577 30.4886 52.6825 30.7372C53.0073 30.9825 53.4051 31.1051 53.8757 31.1051C54.3662 31.1051 54.7756 30.9759 55.1037 30.7173C55.4351 30.4555 55.6837 30.1042 55.8494 29.6634C56.0185 29.2192 56.103 28.7254 56.103 28.1818C56.103 27.6449 56.0201 27.161 55.8544 26.7301C55.692 26.2959 55.4451 25.9529 55.1136 25.701C54.7855 25.4458 54.3729 25.3182 53.8757 25.3182C53.3984 25.3182 52.9974 25.4392 52.6726 25.6811C52.3478 25.9197 52.1025 26.2545 51.9368 26.6854C51.7711 27.1129 51.6882 27.6117 51.6882 28.1818ZM59.0661 34.8636V24.3636H60.1996V25.5767H60.3388C60.425 25.4441 60.5443 25.2751 60.6967 25.0696C60.8525 24.8608 61.0746 24.6752 61.3629 24.5128C61.6546 24.3471 62.049 24.2642 62.5462 24.2642C63.1892 24.2642 63.7559 24.425 64.2464 24.7464C64.737 25.0679 65.1198 25.5237 65.3949 26.1136C65.67 26.7036 65.8075 27.3996 65.8075 28.2017C65.8075 29.0104 65.67 29.7114 65.3949 30.3047C65.1198 30.8946 64.7386 31.352 64.2514 31.6768C63.7642 31.9983 63.2024 32.1591 62.5661 32.1591C62.0755 32.1591 61.6828 32.0779 61.3878 31.9155C61.0928 31.7498 60.8658 31.5625 60.7067 31.3537C60.5476 31.1416 60.425 30.9659 60.3388 30.8267H60.2393V34.8636H59.0661ZM60.2195 28.1818C60.2195 28.7585 60.304 29.2673 60.473 29.7081C60.642 30.1456 60.889 30.4886 61.2138 30.7372C61.5386 30.9825 61.9363 31.1051 62.407 31.1051C62.8975 31.1051 63.3068 30.9759 63.6349 30.7173C63.9664 30.4555 64.215 30.1042 64.3807 29.6634C64.5497 29.2192 64.6342 28.7254 64.6342 28.1818C64.6342 27.6449 64.5514 27.161 64.3857 26.7301C64.2232 26.2959 63.9763 25.9529 63.6449 25.701C63.3168 25.4458 62.9041 25.3182 62.407 25.3182C61.9297 25.3182 61.5286 25.4392 61.2038 25.6811C60.879 25.9197 60.6338 26.2545 60.468 26.6854C60.3023 27.1129 60.2195 27.6117 60.2195 28.1818ZM76.9439 26.0739L75.8899 26.3722C75.8236 26.1965 75.7259 26.0258 75.5966 25.8601C75.4706 25.6911 75.2983 25.5518 75.0795 25.4425C74.8608 25.3331 74.5807 25.2784 74.2393 25.2784C73.772 25.2784 73.3826 25.3861 73.071 25.6016C72.7628 25.8137 72.6087 26.0838 72.6087 26.4119C72.6087 26.7036 72.7147 26.9339 72.9268 27.103C73.139 27.272 73.4704 27.4129 73.9212 27.5256L75.0547 27.804C75.7375 27.9697 76.2462 28.2232 76.581 28.5646C76.9157 28.9027 77.0831 29.3385 77.0831 29.8722C77.0831 30.3097 76.9571 30.7008 76.7053 31.0455C76.4567 31.3902 76.1087 31.6619 75.6612 31.8608C75.2138 32.0597 74.6934 32.1591 74.1001 32.1591C73.3213 32.1591 72.6766 31.9901 72.1662 31.652C71.6558 31.3139 71.3326 30.8201 71.1967 30.1705L72.3104 29.892C72.4164 30.303 72.617 30.6113 72.9119 30.8168C73.2102 31.0223 73.5997 31.125 74.0803 31.125C74.6271 31.125 75.0613 31.009 75.3828 30.777C75.7076 30.5417 75.87 30.2599 75.87 29.9318C75.87 29.6667 75.7772 29.4446 75.5916 29.2656C75.406 29.0833 75.121 28.9474 74.7365 28.858L73.4638 28.5597C72.7644 28.3939 72.2507 28.1371 71.9226 27.7891C71.5978 27.4377 71.4354 26.9986 71.4354 26.4716C71.4354 26.0407 71.5563 25.6596 71.7983 25.3281C72.0436 24.9967 72.3767 24.7365 72.7976 24.5476C73.2218 24.3587 73.7024 24.2642 74.2393 24.2642C74.995 24.2642 75.5883 24.4299 76.0192 24.7614C76.4534 25.0928 76.7616 25.5303 76.9439 26.0739ZM82.1703 24.3636V25.358H78.2129V24.3636H82.1703ZM79.3663 22.5341H80.5396V29.8125C80.5396 30.1439 80.5877 30.3925 80.6838 30.5582C80.7832 30.7206 80.9092 30.83 81.0616 30.8864C81.2174 30.9394 81.3815 30.9659 81.5538 30.9659C81.6831 30.9659 81.7891 30.9593 81.872 30.946C81.9548 30.9295 82.0211 30.9162 82.0708 30.9062L82.3095 31.9602C82.2299 31.9901 82.1189 32.0199 81.9764 32.0497C81.8339 32.0829 81.6532 32.0994 81.4345 32.0994C81.103 32.0994 80.7782 32.0282 80.46 31.8857C80.1452 31.7431 79.8833 31.526 79.6745 31.2344C79.469 30.9427 79.3663 30.5748 79.3663 30.1307V22.5341ZM86.9554 32.1591C86.266 32.1591 85.6612 31.995 85.1408 31.6669C84.6238 31.3388 84.2194 30.8797 83.9277 30.2898C83.6394 29.6998 83.4952 29.0104 83.4952 28.2216C83.4952 27.4261 83.6394 26.7318 83.9277 26.1385C84.2194 25.5452 84.6238 25.0845 85.1408 24.7564C85.6612 24.4283 86.266 24.2642 86.9554 24.2642C87.6448 24.2642 88.248 24.4283 88.7651 24.7564C89.2855 25.0845 89.6898 25.5452 89.9782 26.1385C90.2698 26.7318 90.4157 27.4261 90.4157 28.2216C90.4157 29.0104 90.2698 29.6998 89.9782 30.2898C89.6898 30.8797 89.2855 31.3388 88.7651 31.6669C88.248 31.995 87.6448 32.1591 86.9554 32.1591ZM86.9554 31.1051C87.4791 31.1051 87.91 30.9709 88.248 30.7024C88.5861 30.4339 88.8364 30.081 88.9988 29.6435C89.1612 29.206 89.2424 28.732 89.2424 28.2216C89.2424 27.7112 89.1612 27.2356 88.9988 26.7947C88.8364 26.3539 88.5861 25.9976 88.248 25.7259C87.91 25.4541 87.4791 25.3182 86.9554 25.3182C86.4318 25.3182 86.0009 25.4541 85.6628 25.7259C85.3248 25.9976 85.0745 26.3539 84.9121 26.7947C84.7497 27.2356 84.6685 27.7112 84.6685 28.2216C84.6685 28.732 84.7497 29.206 84.9121 29.6435C85.0745 30.081 85.3248 30.4339 85.6628 30.7024C86.0009 30.9709 86.4318 31.1051 86.9554 31.1051ZM92.2067 32V24.3636H93.3402V25.517H93.4197C93.5589 25.1392 93.8108 24.8326 94.1754 24.5973C94.54 24.362 94.951 24.2443 95.4084 24.2443C95.4946 24.2443 95.6023 24.246 95.7315 24.2493C95.8608 24.2526 95.9586 24.2576 96.0249 24.2642V25.4574C95.9851 25.4474 95.8939 25.4325 95.7514 25.4126C95.6122 25.3894 95.4647 25.3778 95.3089 25.3778C94.9377 25.3778 94.6063 25.4557 94.3146 25.6115C94.0263 25.764 93.7976 25.9761 93.6286 26.2479C93.4628 26.5163 93.38 26.8229 93.38 27.1676V32H92.2067ZM100.385 32.1591C99.6491 32.1591 99.0144 31.9967 98.4808 31.6719C97.9505 31.3438 97.5412 30.8864 97.2528 30.2997C96.9678 29.7098 96.8253 29.0237 96.8253 28.2415C96.8253 27.4593 96.9678 26.7699 97.2528 26.1733C97.5412 25.5734 97.9422 25.1061 98.456 24.7713C98.973 24.4332 99.5762 24.2642 100.266 24.2642C100.663 24.2642 101.056 24.3305 101.444 24.4631C101.832 24.5956 102.185 24.8111 102.503 25.1094C102.821 25.4044 103.075 25.7955 103.263 26.2827C103.452 26.7699 103.547 27.3698 103.547 28.0824V28.5795H97.6605V27.5653H102.354C102.354 27.1345 102.268 26.75 102.095 26.4119C101.926 26.0739 101.684 25.8071 101.369 25.6115C101.058 25.416 100.69 25.3182 100.266 25.3182C99.7983 25.3182 99.3939 25.4342 99.0526 25.6662C98.7145 25.8949 98.4543 26.1932 98.272 26.5611C98.0897 26.929 97.9986 27.3234 97.9986 27.7443V28.4205C97.9986 28.9972 98.098 29.486 98.2969 29.8871C98.4991 30.2848 98.7791 30.5881 99.1371 30.7969C99.495 31.0024 99.911 31.1051 100.385 31.1051C100.693 31.1051 100.972 31.062 101.22 30.9759C101.472 30.8864 101.689 30.7538 101.871 30.5781C102.054 30.3991 102.195 30.1771 102.294 29.9119L103.428 30.2301C103.308 30.6146 103.108 30.9527 102.826 31.2443C102.544 31.5327 102.196 31.758 101.782 31.9205C101.368 32.0795 100.902 32.1591 100.385 32.1591Z" fill="white"/>
</svg>
