<svg width="145" height="40" viewBox="0 0 145 40" fill="none" xmlns="http://www.w3.org/2000/svg">
<rect y="0.636719" width="145" height="38.8979" rx="3" fill="white"/>
<path d="M24.3848 8.62967C24.3273 8.57045 22.2542 8.65304 20.4502 10.4561C18.6462 12.2576 18.9237 14.3241 18.9644 14.3771C19.005 14.43 21.5367 14.5126 23.1528 12.4166C24.769 10.3205 24.4424 8.69044 24.3848 8.62967ZM29.9932 26.9144C29.9119 26.7648 26.0585 24.9913 26.4173 21.5815C26.7761 18.1702 29.2519 17.2352 29.2908 17.1339C29.3298 17.0326 28.2805 15.9027 27.1687 15.3308C26.3523 14.9276 25.4488 14.6965 24.5236 14.6544C24.3408 14.6498 23.7062 14.5064 22.4014 14.8352C21.5418 15.0518 19.6041 15.7531 19.071 15.7812C18.5362 15.8092 16.9454 14.9677 15.2345 14.7448C14.1396 14.55 12.9787 14.949 12.1477 15.256C11.3185 15.5614 9.74126 16.431 8.63788 18.7421C7.53449 21.0517 8.11157 24.7108 8.52449 25.8484C8.93742 26.9845 9.58219 28.8468 10.6788 30.2057C11.6536 31.7392 12.9465 32.8036 13.4863 33.1651C14.0262 33.5267 15.5493 33.7667 16.6053 33.2696C17.4548 32.7896 18.9881 32.5137 19.5939 32.534C20.1981 32.5542 21.3894 32.774 22.6096 33.374C23.5759 33.681 24.4898 33.5532 25.4053 33.2103C26.3208 32.8659 27.6459 31.56 29.1927 28.9123C29.7799 27.6811 30.0473 27.0157 29.9932 26.9144Z" fill="#001022"/>
<path d="M44.375 18.6211H41.233V8.43928H44.5142C45.5019 8.43928 46.3471 8.64311 47.0497 9.05078C47.7524 9.45514 48.291 10.0368 48.6655 10.7958C49.04 11.5515 49.2273 12.4563 49.2273 13.5103C49.2273 14.5709 49.0384 15.484 48.6605 16.2496C48.2827 17.012 47.7325 17.5986 47.0099 18.0096C46.2874 18.4173 45.4091 18.6211 44.375 18.6211ZM42.4659 17.5273H44.2955C45.1373 17.5273 45.835 17.3649 46.3885 17.0401C46.942 16.7153 47.3546 16.253 47.6264 15.6531C47.8982 15.0531 48.0341 14.3389 48.0341 13.5103C48.0341 12.6883 47.8999 11.9807 47.6314 11.3874C47.3629 10.7908 46.9619 10.3335 46.4283 10.0153C45.8946 9.69377 45.2301 9.53303 44.4347 9.53303H42.4659V17.5273ZM54.2386 18.7802C53.5492 18.7802 52.9444 18.6161 52.424 18.288C51.907 17.9599 51.5026 17.5008 51.2109 16.9109C50.9226 16.3209 50.7784 15.6315 50.7784 14.8427C50.7784 14.0472 50.9226 13.3529 51.2109 12.7596C51.5026 12.1663 51.907 11.7056 52.424 11.3775C52.9444 11.0494 53.5492 10.8853 54.2386 10.8853C54.928 10.8853 55.5313 11.0494 56.0483 11.3775C56.5687 11.7056 56.973 12.1663 57.2614 12.7596C57.553 13.3529 57.6989 14.0472 57.6989 14.8427C57.6989 15.6315 57.553 16.3209 57.2614 16.9109C56.973 17.5008 56.5687 17.9599 56.0483 18.288C55.5313 18.6161 54.928 18.7802 54.2386 18.7802ZM54.2386 17.7262C54.7623 17.7262 55.1932 17.592 55.5312 17.3235C55.8693 17.055 56.1196 16.7021 56.282 16.2646C56.4444 15.8271 56.5256 15.3531 56.5256 14.8427C56.5256 14.3323 56.4444 13.8567 56.282 13.4158C56.1196 12.975 55.8693 12.6187 55.5312 12.3469C55.1932 12.0752 54.7623 11.9393 54.2386 11.9393C53.715 11.9393 53.2841 12.0752 52.946 12.3469C52.608 12.6187 52.3577 12.975 52.1953 13.4158C52.0329 13.8567 51.9517 14.3323 51.9517 14.8427C51.9517 15.3531 52.0329 15.8271 52.1953 16.2646C52.3577 16.7021 52.608 17.055 52.946 17.3235C53.2841 17.592 53.715 17.7262 54.2386 17.7262ZM60.9602 18.6211L58.6335 10.9847H59.8665L61.517 16.8313H61.5966L63.2273 10.9847H64.4801L66.0909 16.8114H66.1705L67.821 10.9847H69.054L66.7273 18.6211H65.5739L63.9034 12.7546H63.7841L62.1136 18.6211H60.9602ZM71.7784 14.0273V18.6211H70.6051V10.9847H71.7386V12.1779H71.8381C72.017 11.7901 72.2888 11.4786 72.6534 11.2433C73.018 11.0046 73.4886 10.8853 74.0653 10.8853C74.5824 10.8853 75.0348 10.9914 75.4226 11.2035C75.8104 11.4123 76.112 11.7305 76.3274 12.158C76.5429 12.5823 76.6506 13.1192 76.6506 13.7688V18.6211H75.4773V13.8484C75.4773 13.2485 75.3215 12.7811 75.0099 12.4464C74.6984 12.1083 74.2708 11.9393 73.7273 11.9393C73.3527 11.9393 73.018 12.0205 72.723 12.1829C72.4313 12.3453 72.201 12.5823 72.032 12.8938C71.8629 13.2054 71.7784 13.5832 71.7784 14.0273ZM79.9679 8.43928V18.6211H78.7946V8.43928H79.9679ZM85.2191 18.7802C84.5297 18.7802 83.9248 18.6161 83.4045 18.288C82.8874 17.9599 82.4831 17.5008 82.1914 16.9109C81.9031 16.3209 81.7589 15.6315 81.7589 14.8427C81.7589 14.0472 81.9031 13.3529 82.1914 12.7596C82.4831 12.1663 82.8874 11.7056 83.4045 11.3775C83.9248 11.0494 84.5297 10.8853 85.2191 10.8853C85.9085 10.8853 86.5117 11.0494 87.0288 11.3775C87.5491 11.7056 87.9535 12.1663 88.2418 12.7596C88.5335 13.3529 88.6793 14.0472 88.6793 14.8427C88.6793 15.6315 88.5335 16.3209 88.2418 16.9109C87.9535 17.5008 87.5491 17.9599 87.0288 18.288C86.5117 18.6161 85.9085 18.7802 85.2191 18.7802ZM85.2191 17.7262C85.7428 17.7262 86.1737 17.592 86.5117 17.3235C86.8498 17.055 87.1 16.7021 87.2624 16.2646C87.4248 15.8271 87.506 15.3531 87.506 14.8427C87.506 14.3323 87.4248 13.8567 87.2624 13.4158C87.1 12.975 86.8498 12.6187 86.5117 12.3469C86.1737 12.0752 85.7428 11.9393 85.2191 11.9393C84.6954 11.9393 84.2646 12.0752 83.9265 12.3469C83.5884 12.6187 83.3382 12.975 83.1758 13.4158C83.0134 13.8567 82.9322 14.3323 82.9322 14.8427C82.9322 15.3531 83.0134 15.8271 83.1758 16.2646C83.3382 16.7021 83.5884 17.055 83.9265 17.3235C84.2646 17.592 84.6954 17.7262 85.2191 17.7262ZM92.7175 18.8001C92.2336 18.8001 91.7944 18.7089 91.4 18.5266C91.0056 18.341 90.6924 18.0742 90.4604 17.7262C90.2284 17.3749 90.1124 16.9506 90.1124 16.4535C90.1124 16.016 90.1986 15.6613 90.3709 15.3896C90.5433 15.1145 90.7736 14.899 91.062 14.7433C91.3503 14.5875 91.6685 14.4715 92.0165 14.3952C92.3678 14.3157 92.7208 14.2527 93.0755 14.2063C93.5395 14.1467 93.9157 14.1019 94.204 14.0721C94.4957 14.0389 94.7078 13.9843 94.8404 13.908C94.9763 13.8318 95.0442 13.6992 95.0442 13.5103V13.4705C95.0442 12.98 94.91 12.5988 94.6415 12.3271C94.3764 12.0553 93.9737 11.9194 93.4334 11.9194C92.8733 11.9194 92.4341 12.042 92.1159 12.2873C91.7978 12.5326 91.574 12.7944 91.4448 13.0728L90.3311 12.6751C90.53 12.2111 90.7952 11.8498 91.1266 11.5913C91.4614 11.3294 91.8259 11.1471 92.2203 11.0444C92.6181 10.9383 93.0092 10.8853 93.3936 10.8853C93.6389 10.8853 93.9206 10.9151 94.2388 10.9748C94.5603 11.0311 94.8702 11.1488 95.1685 11.3278C95.4701 11.5067 95.7203 11.7769 95.9192 12.1381C96.1181 12.4994 96.2175 12.9833 96.2175 13.5898V18.6211H95.0442V17.587H94.9846C94.905 17.7527 94.7724 17.93 94.5868 18.119C94.4012 18.3079 94.1543 18.4686 93.8461 18.6012C93.5378 18.7338 93.1616 18.8001 92.7175 18.8001ZM92.8965 17.7461C93.3605 17.7461 93.7516 17.6549 94.0698 17.4727C94.3913 17.2904 94.6332 17.055 94.7956 16.7667C94.9614 16.4783 95.0442 16.1751 95.0442 15.8569V14.783C94.9945 14.8427 94.8851 14.8974 94.7161 14.9471C94.5504 14.9935 94.3581 15.0349 94.1394 15.0714C93.9239 15.1045 93.7135 15.1344 93.508 15.1609C93.3058 15.1841 93.1417 15.204 93.0158 15.2205C92.7109 15.2603 92.4258 15.3249 92.1607 15.4144C91.8989 15.5006 91.6867 15.6315 91.5243 15.8072C91.3652 15.9795 91.2857 16.2148 91.2857 16.5131C91.2857 16.9208 91.4365 17.229 91.7381 17.4379C92.043 17.6433 92.4292 17.7461 92.8965 17.7461ZM101.243 18.7802C100.606 18.7802 100.044 18.6194 99.5572 18.2979C99.07 17.9731 98.6888 17.5157 98.4137 16.9258C98.1386 16.3325 98.0011 15.6315 98.0011 14.8228C98.0011 14.0207 98.1386 13.3247 98.4137 12.7347C98.6888 12.1448 99.0716 11.689 99.5621 11.3675C100.053 11.046 100.619 10.8853 101.262 10.8853C101.76 10.8853 102.152 10.9682 102.441 11.1339C102.732 11.2963 102.954 11.4819 103.107 11.6907C103.263 11.8962 103.384 12.0652 103.47 12.1978H103.569V8.43928H104.743V18.6211H103.609V17.4478H103.47C103.384 17.587 103.261 17.7627 103.102 17.9748C102.943 18.1836 102.716 18.3709 102.421 18.5366C102.126 18.699 101.733 18.7802 101.243 18.7802ZM101.402 17.7262C101.872 17.7262 102.27 17.6036 102.595 17.3583C102.92 17.1097 103.167 16.7667 103.336 16.3292C103.505 15.8884 103.589 15.3796 103.589 14.8029C103.589 14.2328 103.506 13.734 103.341 13.3065C103.175 12.8756 102.93 12.5408 102.605 12.3022C102.28 12.0603 101.879 11.9393 101.402 11.9393C100.904 11.9393 100.49 12.0669 100.159 12.3221C99.8306 12.574 99.5837 12.917 99.418 13.3512C99.2556 13.7821 99.1744 14.266 99.1744 14.8029C99.1744 15.3465 99.2572 15.8403 99.4229 16.2844C99.592 16.7253 99.8406 17.0766 100.169 17.3384C100.5 17.5969 100.911 17.7262 101.402 17.7262ZM114.094 18.7802C113.405 18.7802 112.8 18.6161 112.279 18.288C111.762 17.9599 111.358 17.5008 111.066 16.9109C110.778 16.3209 110.634 15.6315 110.634 14.8427C110.634 14.0472 110.778 13.3529 111.066 12.7596C111.358 12.1663 111.762 11.7056 112.279 11.3775C112.8 11.0494 113.405 10.8853 114.094 10.8853C114.783 10.8853 115.387 11.0494 115.904 11.3775C116.424 11.7056 116.828 12.1663 117.117 12.7596C117.408 13.3529 117.554 14.0472 117.554 14.8427C117.554 15.6315 117.408 16.3209 117.117 16.9109C116.828 17.5008 116.424 17.9599 115.904 18.288C115.387 18.6161 114.783 18.7802 114.094 18.7802ZM114.094 17.7262C114.618 17.7262 115.049 17.592 115.387 17.3235C115.725 17.055 115.975 16.7021 116.137 16.2646C116.3 15.8271 116.381 15.3531 116.381 14.8427C116.381 14.3323 116.3 13.8567 116.137 13.4158C115.975 12.975 115.725 12.6187 115.387 12.3469C115.049 12.0752 114.618 11.9393 114.094 11.9393C113.57 11.9393 113.14 12.0752 112.801 12.3469C112.463 12.6187 112.213 12.975 112.051 13.4158C111.888 13.8567 111.807 14.3323 111.807 14.8427C111.807 15.3531 111.888 15.8271 112.051 16.2646C112.213 16.7021 112.463 17.055 112.801 17.3235C113.14 17.592 113.57 17.7262 114.094 17.7262ZM120.519 14.0273V18.6211H119.345V10.9847H120.479V12.1779H120.578C120.757 11.7901 121.029 11.4786 121.394 11.2433C121.758 11.0046 122.229 10.8853 122.806 10.8853C123.323 10.8853 123.775 10.9914 124.163 11.2035C124.551 11.4123 124.852 11.7305 125.068 12.158C125.283 12.5823 125.391 13.1192 125.391 13.7688V18.6211H124.218V13.8484C124.218 13.2485 124.062 12.7811 123.75 12.4464C123.439 12.1083 123.011 11.9393 122.468 11.9393C122.093 11.9393 121.758 12.0205 121.463 12.1829C121.172 12.3453 120.941 12.5823 120.772 12.8938C120.603 13.2054 120.519 13.5832 120.519 14.0273ZM41.6506 32.6211H40.358L44.0966 22.4393H45.3693L49.108 32.6211H47.8153L44.7727 24.0501H44.6932L41.6506 32.6211ZM42.1278 28.6438H47.3381V29.7376H42.1278V28.6438ZM50.5348 35.4847V24.9847H51.6683V26.1978H51.8075C51.8937 26.0652 52.013 25.8962 52.1655 25.6907C52.3213 25.4819 52.5433 25.2963 52.8317 25.1339C53.1233 24.9682 53.5178 24.8853 54.0149 24.8853C54.6579 24.8853 55.2247 25.046 55.7152 25.3675C56.2057 25.689 56.5885 26.1448 56.8636 26.7347C57.1387 27.3247 57.2763 28.0207 57.2763 28.8228C57.2763 29.6315 57.1387 30.3325 56.8636 30.9258C56.5885 31.5157 56.2074 31.9731 55.7202 32.2979C55.233 32.6194 54.6712 32.7802 54.0348 32.7802C53.5443 32.7802 53.1515 32.699 52.8565 32.5366C52.5616 32.3709 52.3345 32.1836 52.1754 31.9748C52.0163 31.7627 51.8937 31.587 51.8075 31.4478H51.7081V35.4847H50.5348ZM51.6882 28.8029C51.6882 29.3796 51.7727 29.8884 51.9418 30.3292C52.1108 30.7667 52.3577 31.1097 52.6825 31.3583C53.0073 31.6036 53.4051 31.7262 53.8757 31.7262C54.3662 31.7262 54.7756 31.5969 55.1037 31.3384C55.4351 31.0766 55.6837 30.7253 55.8494 30.2844C56.0185 29.8403 56.103 29.3465 56.103 28.8029C56.103 28.266 56.0201 27.7821 55.8544 27.3512C55.692 26.917 55.4451 26.574 55.1136 26.3221C54.7855 26.0669 54.3729 25.9393 53.8757 25.9393C53.3984 25.9393 52.9974 26.0603 52.6726 26.3022C52.3478 26.5408 52.1025 26.8756 51.9368 27.3065C51.7711 27.734 51.6882 28.2328 51.6882 28.8029ZM59.0661 35.4847V24.9847H60.1996V26.1978H60.3388C60.425 26.0652 60.5443 25.8962 60.6967 25.6907C60.8525 25.4819 61.0746 25.2963 61.3629 25.1339C61.6546 24.9682 62.049 24.8853 62.5462 24.8853C63.1892 24.8853 63.7559 25.046 64.2464 25.3675C64.737 25.689 65.1198 26.1448 65.3949 26.7347C65.67 27.3247 65.8075 28.0207 65.8075 28.8228C65.8075 29.6315 65.67 30.3325 65.3949 30.9258C65.1198 31.5157 64.7386 31.9731 64.2514 32.2979C63.7642 32.6194 63.2024 32.7802 62.5661 32.7802C62.0755 32.7802 61.6828 32.699 61.3878 32.5366C61.0928 32.3709 60.8658 32.1836 60.7067 31.9748C60.5476 31.7627 60.425 31.587 60.3388 31.4478H60.2393V35.4847H59.0661ZM60.2195 28.8029C60.2195 29.3796 60.304 29.8884 60.473 30.3292C60.642 30.7667 60.889 31.1097 61.2138 31.3583C61.5386 31.6036 61.9363 31.7262 62.407 31.7262C62.8975 31.7262 63.3068 31.5969 63.6349 31.3384C63.9664 31.0766 64.215 30.7253 64.3807 30.2844C64.5497 29.8403 64.6342 29.3465 64.6342 28.8029C64.6342 28.266 64.5514 27.7821 64.3857 27.3512C64.2232 26.917 63.9763 26.574 63.6449 26.3221C63.3168 26.0669 62.9041 25.9393 62.407 25.9393C61.9297 25.9393 61.5286 26.0603 61.2038 26.3022C60.879 26.5408 60.6338 26.8756 60.468 27.3065C60.3023 27.734 60.2195 28.2328 60.2195 28.8029ZM76.9439 26.695L75.8899 26.9933C75.8236 26.8176 75.7259 26.6469 75.5966 26.4812C75.4706 26.3121 75.2983 26.1729 75.0795 26.0636C74.8608 25.9542 74.5807 25.8995 74.2393 25.8995C73.772 25.8995 73.3826 26.0072 73.071 26.2227C72.7628 26.4348 72.6087 26.7049 72.6087 27.033C72.6087 27.3247 72.7147 27.555 72.9268 27.7241C73.139 27.8931 73.4704 28.034 73.9212 28.1467L75.0547 28.4251C75.7375 28.5908 76.2462 28.8443 76.581 29.1857C76.9157 29.5238 77.0831 29.9596 77.0831 30.4933C77.0831 30.9308 76.9571 31.3219 76.7053 31.6665C76.4567 32.0112 76.1087 32.283 75.6612 32.4819C75.2138 32.6808 74.6934 32.7802 74.1001 32.7802C73.3213 32.7802 72.6766 32.6112 72.1662 32.2731C71.6558 31.935 71.3326 31.4412 71.1967 30.7915L72.3104 30.5131C72.4164 30.9241 72.617 31.2324 72.9119 31.4379C73.2102 31.6433 73.5997 31.7461 74.0803 31.7461C74.6271 31.7461 75.0613 31.6301 75.3828 31.3981C75.7076 31.1628 75.87 30.881 75.87 30.5529C75.87 30.2878 75.7772 30.0657 75.5916 29.8867C75.406 29.7044 75.121 29.5685 74.7365 29.479L73.4638 29.1808C72.7644 29.015 72.2507 28.7582 71.9226 28.4102C71.5978 28.0588 71.4354 27.6197 71.4354 27.0927C71.4354 26.6618 71.5563 26.2807 71.7983 25.9492C72.0436 25.6178 72.3767 25.3576 72.7976 25.1687C73.2218 24.9798 73.7024 24.8853 74.2393 24.8853C74.995 24.8853 75.5883 25.051 76.0192 25.3825C76.4534 25.7139 76.7616 26.1514 76.9439 26.695ZM82.1703 24.9847V25.979H78.2129V24.9847H82.1703ZM79.3663 23.1552H80.5396V30.4336C80.5396 30.765 80.5877 31.0136 80.6838 31.1793C80.7832 31.3417 80.9092 31.4511 81.0616 31.5075C81.2174 31.5605 81.3815 31.587 81.5538 31.587C81.6831 31.587 81.7891 31.5804 81.872 31.5671C81.9548 31.5505 82.0211 31.5373 82.0708 31.5273L82.3095 32.5813C82.2299 32.6112 82.1189 32.641 81.9764 32.6708C81.8339 32.704 81.6532 32.7205 81.4345 32.7205C81.103 32.7205 80.7782 32.6493 80.46 32.5067C80.1452 32.3642 79.8833 32.1471 79.6745 31.8555C79.469 31.5638 79.3663 31.1959 79.3663 30.7518V23.1552ZM86.9554 32.7802C86.266 32.7802 85.6612 32.6161 85.1408 32.288C84.6238 31.9599 84.2194 31.5008 83.9277 30.9109C83.6394 30.3209 83.4952 29.6315 83.4952 28.8427C83.4952 28.0472 83.6394 27.3529 83.9277 26.7596C84.2194 26.1663 84.6238 25.7056 85.1408 25.3775C85.6612 25.0494 86.266 24.8853 86.9554 24.8853C87.6448 24.8853 88.248 25.0494 88.7651 25.3775C89.2855 25.7056 89.6898 26.1663 89.9782 26.7596C90.2698 27.3529 90.4157 28.0472 90.4157 28.8427C90.4157 29.6315 90.2698 30.3209 89.9782 30.9109C89.6898 31.5008 89.2855 31.9599 88.7651 32.288C88.248 32.6161 87.6448 32.7802 86.9554 32.7802ZM86.9554 31.7262C87.4791 31.7262 87.91 31.592 88.248 31.3235C88.5861 31.055 88.8364 30.7021 88.9988 30.2646C89.1612 29.8271 89.2424 29.3531 89.2424 28.8427C89.2424 28.3323 89.1612 27.8567 88.9988 27.4158C88.8364 26.975 88.5861 26.6187 88.248 26.3469C87.91 26.0752 87.4791 25.9393 86.9554 25.9393C86.4318 25.9393 86.0009 26.0752 85.6628 26.3469C85.3248 26.6187 85.0745 26.975 84.9121 27.4158C84.7497 27.8567 84.6685 28.3323 84.6685 28.8427C84.6685 29.3531 84.7497 29.8271 84.9121 30.2646C85.0745 30.7021 85.3248 31.055 85.6628 31.3235C86.0009 31.592 86.4318 31.7262 86.9554 31.7262ZM92.2067 32.6211V24.9847H93.3402V26.1381H93.4197C93.5589 25.7603 93.8108 25.4537 94.1754 25.2184C94.54 24.9831 94.951 24.8654 95.4084 24.8654C95.4946 24.8654 95.6023 24.8671 95.7315 24.8704C95.8608 24.8737 95.9586 24.8787 96.0249 24.8853V26.0785C95.9851 26.0685 95.8939 26.0536 95.7514 26.0337C95.6122 26.0105 95.4647 25.9989 95.3089 25.9989C94.9377 25.9989 94.6063 26.0768 94.3146 26.2326C94.0263 26.3851 93.7976 26.5972 93.6286 26.869C93.4628 27.1374 93.38 27.444 93.38 27.7887V32.6211H92.2067ZM100.385 32.7802C99.6491 32.7802 99.0144 32.6178 98.4808 32.293C97.9505 31.9648 97.5412 31.5075 97.2528 30.9208C96.9678 30.3308 96.8253 29.6448 96.8253 28.8626C96.8253 28.0804 96.9678 27.391 97.2528 26.7944C97.5412 26.1945 97.9422 25.7272 98.456 25.3924C98.973 25.0543 99.5762 24.8853 100.266 24.8853C100.663 24.8853 101.056 24.9516 101.444 25.0842C101.832 25.2167 102.185 25.4322 102.503 25.7305C102.821 26.0254 103.075 26.4165 103.263 26.9038C103.452 27.391 103.547 27.9909 103.547 28.7035V29.2006H97.6605V28.1864H102.354C102.354 27.7556 102.268 27.3711 102.095 27.033C101.926 26.695 101.684 26.4281 101.369 26.2326C101.058 26.037 100.69 25.9393 100.266 25.9393C99.7983 25.9393 99.3939 26.0553 99.0526 26.2873C98.7145 26.516 98.4543 26.8143 98.272 27.1822C98.0897 27.5501 97.9986 27.9445 97.9986 28.3654V29.0415C97.9986 29.6183 98.098 30.1071 98.2969 30.5082C98.4991 30.9059 98.7791 31.2092 99.1371 31.418C99.495 31.6235 99.911 31.7262 100.385 31.7262C100.693 31.7262 100.972 31.6831 101.22 31.5969C101.472 31.5075 101.689 31.3749 101.871 31.1992C102.054 31.0202 102.195 30.7982 102.294 30.533L103.428 30.8512C103.308 31.2357 103.108 31.5737 102.826 31.8654C102.544 32.1538 102.196 32.3791 101.782 32.5415C101.368 32.7006 100.902 32.7802 100.385 32.7802Z" fill="#001022"/>
</svg>
