<svg width="25" height="26" viewBox="0 0 25 26" fill="none" xmlns="http://www.w3.org/2000/svg">
<path d="M25 12.9731C25 6.08769 19.4035 0.505859 12.5 0.505859C5.59648 0.505859 0 6.0876 0 12.9731C0 19.1959 4.57109 24.3537 10.5469 25.289V16.577H7.37305V12.9731H10.5469V10.2264C10.5469 7.10183 12.4131 5.37589 15.2683 5.37589C16.6359 5.37589 18.0664 5.61939 18.0664 5.61939V8.68751H16.4902C14.9373 8.68751 14.4531 9.64856 14.4531 10.6345V12.9731H17.9199L17.3657 16.577H14.4531V25.289C20.4289 24.3537 25 19.196 25 12.9731Z" fill="#1877F2"/>
<path d="M17.3677 16.5761L17.9219 12.9722H14.4551V10.6337C14.4551 9.64757 14.9394 8.68662 16.4922 8.68662H18.0684V5.6185C18.0684 5.6185 16.6379 5.375 15.2702 5.375C12.415 5.375 10.5488 7.10094 10.5488 10.2256V12.9722H7.375V16.5761H10.5488V25.2881C11.1949 25.3891 11.848 25.4397 12.502 25.4395C13.156 25.4397 13.809 25.3891 14.4551 25.2881V16.5761H17.3677Z" fill="white"/>
</svg>
