<svg width="145" height="39" viewBox="0 0 145 39" fill="none" xmlns="http://www.w3.org/2000/svg">
<rect width="145" height="39" rx="3" fill="#001022"/>
<path d="M8 31.4658V9.5353C8.00014 9.48772 8.01359 9.44125 8.03866 9.4017C8.06373 9.36215 8.09931 9.3313 8.14094 9.313C8.18256 9.2947 8.22838 9.28978 8.27265 9.29885C8.31691 9.30792 8.35765 9.33058 8.38976 9.36399L19.2116 20.5L8.38976 31.6371C8.35765 31.6705 8.31691 31.6932 8.27265 31.7023C8.22838 31.7113 8.18256 31.7064 8.14094 31.6881C8.09931 31.6698 8.06373 31.639 8.03866 31.5994C8.01359 31.5599 8.00014 31.5134 8 31.4658ZM23.7491 25.0758L10.1799 32.9641L10.1715 32.9691C9.9377 33.1031 9.71559 32.7694 9.90703 32.5752L20.5438 21.8432L23.7491 25.0758ZM9.90809 8.42483C9.71559 8.23063 9.9377 7.89693 10.1725 8.03086L10.181 8.03588L23.7491 15.9242L20.5438 19.1579L9.90809 8.42483ZM29.227 21.8951L25.4377 24.0971L21.8749 20.5L25.4377 16.9046L29.227 19.1049C30.2577 19.7059 30.2577 21.2941 29.227 21.8951Z" fill="white"/>
<path d="M48.1932 11C48.0838 10.6652 47.9396 10.3653 47.7607 10.1001C47.585 9.83168 47.3745 9.60298 47.1293 9.41406C46.8873 9.22514 46.6122 9.08097 46.304 8.98153C45.9957 8.8821 45.6577 8.83239 45.2898 8.83239C44.6866 8.83239 44.138 8.98816 43.6442 9.29972C43.1503 9.61127 42.7576 10.0703 42.4659 10.6768C42.1742 11.2834 42.0284 12.0275 42.0284 12.9091C42.0284 13.7907 42.1759 14.5348 42.4709 15.1413C42.7659 15.7479 43.1652 16.2069 43.669 16.5185C44.1728 16.83 44.7396 16.9858 45.3693 16.9858C45.9527 16.9858 46.4664 16.8615 46.9105 16.6129C47.358 16.361 47.706 16.0064 47.9545 15.549C48.2064 15.0883 48.3324 14.5464 48.3324 13.9233L48.7102 14.0028H45.6477V12.9091H49.5256V14.0028C49.5256 14.8414 49.3466 15.5705 48.9886 16.1903C48.634 16.8101 48.1435 17.2907 47.517 17.6321C46.8939 17.9702 46.178 18.1392 45.3693 18.1392C44.4678 18.1392 43.6757 17.9271 42.9929 17.5028C42.3134 17.0786 41.7831 16.4754 41.402 15.6932C41.0241 14.911 40.8352 13.983 40.8352 12.9091C40.8352 12.1037 40.9429 11.3795 41.1584 10.7365C41.3771 10.0902 41.6854 9.54001 42.0831 9.08594C42.4808 8.63187 42.9515 8.28385 43.495 8.0419C44.0386 7.79995 44.6368 7.67898 45.2898 7.67898C45.8267 7.67898 46.3272 7.76018 46.7912 7.92258C47.2585 8.08168 47.6745 8.30871 48.0391 8.60369C48.407 8.89536 48.7135 9.24503 48.9588 9.6527C49.2041 10.0571 49.3731 10.5062 49.4659 11H48.1932ZM54.6799 18.1591C53.9441 18.1591 53.3094 17.9967 52.7757 17.6719C52.2454 17.3438 51.8361 16.8864 51.5478 16.2997C51.2627 15.7098 51.1202 15.0237 51.1202 14.2415C51.1202 13.4593 51.2627 12.7699 51.5478 12.1733C51.8361 11.5734 52.2372 11.1061 52.7509 10.7713C53.2679 10.4332 53.8712 10.2642 54.5605 10.2642C54.9583 10.2642 55.351 10.3305 55.7388 10.4631C56.1266 10.5956 56.4796 10.8111 56.7978 11.1094C57.1159 11.4044 57.3695 11.7955 57.5584 12.2827C57.7473 12.7699 57.8418 13.3698 57.8418 14.0824V14.5795H51.9554V13.5653H56.6486C56.6486 13.1345 56.5624 12.75 56.3901 12.4119C56.2211 12.0739 55.9791 11.8071 55.6642 11.6115C55.3527 11.416 54.9848 11.3182 54.5605 11.3182C54.0932 11.3182 53.6889 11.4342 53.3475 11.6662C53.0094 11.8949 52.7492 12.1932 52.5669 12.5611C52.3846 12.929 52.2935 13.3234 52.2935 13.7443V14.4205C52.2935 14.9972 52.3929 15.486 52.5918 15.8871C52.794 16.2848 53.074 16.5881 53.432 16.7969C53.79 17.0024 54.2059 17.1051 54.6799 17.1051C54.9881 17.1051 55.2665 17.062 55.5151 16.9759C55.767 16.8864 55.9841 16.7538 56.1664 16.5781C56.3487 16.3991 56.4895 16.1771 56.589 15.9119L57.7225 16.2301C57.6032 16.6146 57.4026 16.9527 57.1209 17.2443C56.8392 17.5327 56.4912 17.758 56.0769 17.9205C55.6626 18.0795 55.1969 18.1591 54.6799 18.1591ZM62.9476 10.3636V11.358H58.9902V10.3636H62.9476ZM60.1436 8.53409H61.3169V15.8125C61.3169 16.1439 61.365 16.3925 61.4611 16.5582C61.5605 16.7206 61.6865 16.83 61.839 16.8864C61.9947 16.9394 62.1588 16.9659 62.3311 16.9659C62.4604 16.9659 62.5665 16.9593 62.6493 16.946C62.7322 16.9295 62.7985 16.9162 62.8482 16.9062L63.0868 17.9602C63.0073 17.9901 62.8962 18.0199 62.7537 18.0497C62.6112 18.0829 62.4306 18.0994 62.2118 18.0994C61.8804 18.0994 61.5556 18.0282 61.2374 17.8857C60.9225 17.7431 60.6607 17.526 60.4519 17.2344C60.2464 16.9427 60.1436 16.5748 60.1436 16.1307V8.53409ZM68.65 18V10.3636H69.8233V18H68.65ZM69.2466 9.09091C69.0179 9.09091 68.8207 9.01302 68.655 8.85724C68.4926 8.70147 68.4114 8.5142 68.4114 8.29545C68.4114 8.0767 68.4926 7.88944 68.655 7.73366C68.8207 7.57789 69.0179 7.5 69.2466 7.5C69.4753 7.5 69.6709 7.57789 69.8333 7.73366C69.999 7.88944 70.0819 8.0767 70.0819 8.29545C70.0819 8.5142 69.999 8.70147 69.8333 8.85724C69.6709 9.01302 69.4753 9.09091 69.2466 9.09091ZM73.1456 13.4062V18H71.9723V10.3636H73.1058V11.5568H73.2053C73.3842 11.169 73.656 10.8575 74.0206 10.6222C74.3852 10.3835 74.8558 10.2642 75.4325 10.2642C75.9496 10.2642 76.402 10.3703 76.7898 10.5824C77.1776 10.7912 77.4792 11.1094 77.6946 11.5369C77.91 11.9612 78.0178 12.4981 78.0178 13.1477V18H76.8445V13.2273C76.8445 12.6274 76.6887 12.16 76.3771 11.8253C76.0656 11.4872 75.638 11.3182 75.0945 11.3182C74.7199 11.3182 74.3852 11.3994 74.0902 11.5618C73.7985 11.7242 73.5682 11.9612 73.3991 12.2727C73.2301 12.5843 73.1456 12.9621 73.1456 13.4062ZM87.2015 18.1591C86.5121 18.1591 85.9073 17.995 85.3869 17.6669C84.8699 17.3388 84.4655 16.8797 84.1738 16.2898C83.8855 15.6998 83.7413 15.0104 83.7413 14.2216C83.7413 13.4261 83.8855 12.7318 84.1738 12.1385C84.4655 11.5452 84.8699 11.0845 85.3869 10.7564C85.9073 10.4283 86.5121 10.2642 87.2015 10.2642C87.8909 10.2642 88.4941 10.4283 89.0112 10.7564C89.5315 11.0845 89.9359 11.5452 90.2243 12.1385C90.5159 12.7318 90.6618 13.4261 90.6618 14.2216C90.6618 15.0104 90.5159 15.6998 90.2243 16.2898C89.9359 16.8797 89.5315 17.3388 89.0112 17.6669C88.4941 17.995 87.8909 18.1591 87.2015 18.1591ZM87.2015 17.1051C87.7252 17.1051 88.1561 16.9709 88.4941 16.7024C88.8322 16.4339 89.0824 16.081 89.2449 15.6435C89.4073 15.206 89.4885 14.732 89.4885 14.2216C89.4885 13.7112 89.4073 13.2356 89.2449 12.7947C89.0824 12.3539 88.8322 11.9976 88.4941 11.7259C88.1561 11.4541 87.7252 11.3182 87.2015 11.3182C86.6779 11.3182 86.247 11.4541 85.9089 11.7259C85.5708 11.9976 85.3206 12.3539 85.1582 12.7947C84.9958 13.2356 84.9146 13.7112 84.9146 14.2216C84.9146 14.732 84.9958 15.206 85.1582 15.6435C85.3206 16.081 85.5708 16.4339 85.9089 16.7024C86.247 16.9709 86.6779 17.1051 87.2015 17.1051ZM93.6261 13.4062V18H92.4528V10.3636H93.5863V11.5568H93.6857C93.8647 11.169 94.1365 10.8575 94.5011 10.6222C94.8656 10.3835 95.3363 10.2642 95.913 10.2642C96.43 10.2642 96.8825 10.3703 97.2702 10.5824C97.658 10.7912 97.9596 11.1094 98.1751 11.5369C98.3905 11.9612 98.4982 12.4981 98.4982 13.1477V18H97.3249V13.2273C97.3249 12.6274 97.1692 12.16 96.8576 11.8253C96.546 11.4872 96.1185 11.3182 95.5749 11.3182C95.2004 11.3182 94.8656 11.3994 94.5707 11.5618C94.279 11.7242 94.0487 11.9612 93.8796 12.2727C93.7106 12.5843 93.6261 12.9621 93.6261 13.4062ZM48.1932 25C48.0838 24.6652 47.9396 24.3653 47.7607 24.1001C47.585 23.8317 47.3745 23.603 47.1293 23.4141C46.8873 23.2251 46.6122 23.081 46.304 22.9815C45.9957 22.8821 45.6577 22.8324 45.2898 22.8324C44.6866 22.8324 44.138 22.9882 43.6442 23.2997C43.1503 23.6113 42.7576 24.0703 42.4659 24.6768C42.1742 25.2834 42.0284 26.0275 42.0284 26.9091C42.0284 27.7907 42.1759 28.5348 42.4709 29.1413C42.7659 29.7479 43.1652 30.2069 43.669 30.5185C44.1728 30.83 44.7396 30.9858 45.3693 30.9858C45.9527 30.9858 46.4664 30.8615 46.9105 30.6129C47.358 30.361 47.706 30.0064 47.9545 29.549C48.2064 29.0883 48.3324 28.5464 48.3324 27.9233L48.7102 28.0028H45.6477V26.9091H49.5256V28.0028C49.5256 28.8414 49.3466 29.5705 48.9886 30.1903C48.634 30.8101 48.1435 31.2907 47.517 31.6321C46.8939 31.9702 46.178 32.1392 45.3693 32.1392C44.4678 32.1392 43.6757 31.9271 42.9929 31.5028C42.3134 31.0786 41.7831 30.4754 41.402 29.6932C41.0241 28.911 40.8352 27.983 40.8352 26.9091C40.8352 26.1037 40.9429 25.3795 41.1584 24.7365C41.3771 24.0902 41.6854 23.54 42.0831 23.0859C42.4808 22.6319 42.9515 22.2839 43.495 22.0419C44.0386 21.8 44.6368 21.679 45.2898 21.679C45.8267 21.679 46.3272 21.7602 46.7912 21.9226C47.2585 22.0817 47.6745 22.3087 48.0391 22.6037C48.407 22.8954 48.7135 23.245 48.9588 23.6527C49.2041 24.0571 49.3731 24.5062 49.4659 25H48.1932ZM54.5804 32.1591C53.891 32.1591 53.2862 31.995 52.7658 31.6669C52.2488 31.3388 51.8444 30.8797 51.5527 30.2898C51.2644 29.6998 51.1202 29.0104 51.1202 28.2216C51.1202 27.4261 51.2644 26.7318 51.5527 26.1385C51.8444 25.5452 52.2488 25.0845 52.7658 24.7564C53.2862 24.4283 53.891 24.2642 54.5804 24.2642C55.2698 24.2642 55.873 24.4283 56.3901 24.7564C56.9105 25.0845 57.3148 25.5452 57.6032 26.1385C57.8948 26.7318 58.0407 27.4261 58.0407 28.2216C58.0407 29.0104 57.8948 29.6998 57.6032 30.2898C57.3148 30.8797 56.9105 31.3388 56.3901 31.6669C55.873 31.995 55.2698 32.1591 54.5804 32.1591ZM54.5804 31.1051C55.1041 31.1051 55.535 30.9709 55.873 30.7024C56.2111 30.4339 56.4614 30.081 56.6238 29.6435C56.7862 29.206 56.8674 28.732 56.8674 28.2216C56.8674 27.7112 56.7862 27.2356 56.6238 26.7947C56.4614 26.3539 56.2111 25.9976 55.873 25.7259C55.535 25.4541 55.1041 25.3182 54.5804 25.3182C54.0568 25.3182 53.6259 25.4541 53.2878 25.7259C52.9498 25.9976 52.6995 26.3539 52.5371 26.7947C52.3747 27.2356 52.2935 27.7112 52.2935 28.2216C52.2935 28.732 52.3747 29.206 52.5371 29.6435C52.6995 30.081 52.9498 30.4339 53.2878 30.7024C53.6259 30.9709 54.0568 31.1051 54.5804 31.1051ZM62.9339 32.1591C62.2446 32.1591 61.6397 31.995 61.1193 31.6669C60.6023 31.3388 60.1979 30.8797 59.9062 30.2898C59.6179 29.6998 59.4737 29.0104 59.4737 28.2216C59.4737 27.4261 59.6179 26.7318 59.9062 26.1385C60.1979 25.5452 60.6023 25.0845 61.1193 24.7564C61.6397 24.4283 62.2446 24.2642 62.9339 24.2642C63.6233 24.2642 64.2266 24.4283 64.7436 24.7564C65.264 25.0845 65.6683 25.5452 65.9567 26.1385C66.2483 26.7318 66.3942 27.4261 66.3942 28.2216C66.3942 29.0104 66.2483 29.6998 65.9567 30.2898C65.6683 30.8797 65.264 31.3388 64.7436 31.6669C64.2266 31.995 63.6233 32.1591 62.9339 32.1591ZM62.9339 31.1051C63.4576 31.1051 63.8885 30.9709 64.2266 30.7024C64.5646 30.4339 64.8149 30.081 64.9773 29.6435C65.1397 29.206 65.2209 28.732 65.2209 28.2216C65.2209 27.7112 65.1397 27.2356 64.9773 26.7947C64.8149 26.3539 64.5646 25.9976 64.2266 25.7259C63.8885 25.4541 63.4576 25.3182 62.9339 25.3182C62.4103 25.3182 61.9794 25.4541 61.6413 25.7259C61.3033 25.9976 61.053 26.3539 60.8906 26.7947C60.7282 27.2356 60.647 27.7112 60.647 28.2216C60.647 28.732 60.7282 29.206 60.8906 29.6435C61.053 30.081 61.3033 30.4339 61.6413 30.7024C61.9794 30.9709 62.4103 31.1051 62.9339 31.1051ZM71.2676 35.0227C70.7008 35.0227 70.2136 34.9498 69.8059 34.804C69.3983 34.6615 69.0585 34.4725 68.7868 34.2372C68.5183 34.0052 68.3045 33.7566 68.1454 33.4915L69.0801 32.8352C69.1861 32.9744 69.3204 33.1335 69.4828 33.3125C69.6452 33.4948 69.8672 33.6522 70.149 33.7848C70.434 33.9207 70.8069 33.9886 71.2676 33.9886C71.8841 33.9886 72.3928 33.8395 72.7939 33.5412C73.1949 33.2429 73.3954 32.7756 73.3954 32.1392V30.5881H73.296C73.2098 30.7273 73.0872 30.8996 72.9281 31.1051C72.7723 31.3073 72.5469 31.4879 72.252 31.647C71.9603 31.8028 71.5659 31.8807 71.0687 31.8807C70.4522 31.8807 69.8987 31.7348 69.4082 31.4432C68.921 31.1515 68.5349 30.7273 68.2498 30.1705C67.9681 29.6136 67.8272 28.9375 67.8272 28.142C67.8272 27.3598 67.9648 26.6787 68.2399 26.0987C68.515 25.5154 68.8978 25.0646 69.3883 24.7464C69.8788 24.425 70.4456 24.2642 71.0886 24.2642C71.5858 24.2642 71.9802 24.3471 72.2718 24.5128C72.5668 24.6752 72.7922 24.8608 72.948 25.0696C73.1071 25.2751 73.2297 25.4441 73.3159 25.5767H73.4352V24.3636H74.5687V32.2188C74.5687 32.875 74.4196 33.4086 74.1213 33.8196C73.8263 34.2339 73.4286 34.5372 72.9281 34.7294C72.4309 34.925 71.8774 35.0227 71.2676 35.0227ZM71.2278 30.8267C71.6984 30.8267 72.0962 30.719 72.421 30.5036C72.7458 30.2881 72.9927 29.9782 73.1618 29.5739C73.3308 29.1695 73.4153 28.6856 73.4153 28.1222C73.4153 27.572 73.3324 27.0864 73.1667 26.6655C73.001 26.2446 72.7557 25.9148 72.4309 25.6761C72.1061 25.4375 71.7051 25.3182 71.2278 25.3182C70.7306 25.3182 70.3163 25.4441 69.9849 25.696C69.6568 25.9479 69.4099 26.286 69.2441 26.7102C69.0817 27.1345 69.0005 27.6051 69.0005 28.1222C69.0005 28.6525 69.0834 29.1214 69.2491 29.5291C69.4181 29.9335 69.6667 30.2517 69.9949 30.4837C70.3263 30.7124 70.7373 30.8267 71.2278 30.8267ZM77.8897 21.8182V32H76.7164V21.8182H77.8897ZM83.2404 32.1591C82.5046 32.1591 81.8699 31.9967 81.3363 31.6719C80.806 31.3438 80.3967 30.8864 80.1083 30.2997C79.8233 29.7098 79.6808 29.0237 79.6808 28.2415C79.6808 27.4593 79.8233 26.7699 80.1083 26.1733C80.3967 25.5734 80.7977 25.1061 81.3114 24.7713C81.8285 24.4332 82.4317 24.2642 83.1211 24.2642C83.5188 24.2642 83.9116 24.3305 84.2994 24.4631C84.6871 24.5956 85.0401 24.8111 85.3583 25.1094C85.6765 25.4044 85.93 25.7955 86.119 26.2827C86.3079 26.7699 86.4023 27.3698 86.4023 28.0824V28.5795H80.516V27.5653H85.2092C85.2092 27.1345 85.123 26.75 84.9506 26.4119C84.7816 26.0739 84.5397 25.8071 84.2248 25.6115C83.9132 25.416 83.5453 25.3182 83.1211 25.3182C82.6538 25.3182 82.2494 25.4342 81.908 25.6662C81.57 25.8949 81.3098 26.1932 81.1275 26.5611C80.9452 26.929 80.854 27.3234 80.854 27.7443V28.4205C80.854 28.9972 80.9535 29.486 81.1523 29.8871C81.3545 30.2848 81.6346 30.5881 81.9925 30.7969C82.3505 31.0024 82.7665 31.1051 83.2404 31.1051C83.5487 31.1051 83.8271 31.062 84.0756 30.9759C84.3275 30.8864 84.5446 30.7538 84.7269 30.5781C84.9092 30.3991 85.0501 30.1771 85.1495 29.9119L86.283 30.2301C86.1637 30.6146 85.9632 30.9527 85.6815 31.2443C85.3997 31.5327 85.0517 31.758 84.6374 31.9205C84.2231 32.0795 83.7575 32.1591 83.2404 32.1591ZM92.2837 32V21.8182H95.7241C96.5228 21.8182 97.1758 21.9624 97.6829 22.2507C98.1933 22.5357 98.5711 22.9219 98.8164 23.4091C99.0617 23.8963 99.1843 24.4399 99.1843 25.0398C99.1843 25.6397 99.0617 26.1849 98.8164 26.6754C98.5745 27.166 98.1999 27.5571 97.6928 27.8487C97.1857 28.1371 96.5361 28.2812 95.744 28.2812H93.2781V27.1875H95.7042C96.2511 27.1875 96.6902 27.093 97.0217 26.9041C97.3531 26.7152 97.5934 26.46 97.7425 26.1385C97.895 25.8137 97.9712 25.4474 97.9712 25.0398C97.9712 24.6321 97.895 24.2675 97.7425 23.946C97.5934 23.6245 97.3514 23.3726 97.0167 23.1903C96.6819 23.0047 96.2378 22.9119 95.6843 22.9119H93.5167V32H92.2837ZM102.185 21.8182V32H101.011V21.8182H102.185ZM106.581 32.179C106.097 32.179 105.658 32.0878 105.263 31.9055C104.869 31.7199 104.556 31.4531 104.324 31.1051C104.092 30.7538 103.976 30.3295 103.976 29.8324C103.976 29.3949 104.062 29.0402 104.234 28.7685C104.407 28.4934 104.637 28.2779 104.925 28.1222C105.214 27.9664 105.532 27.8504 105.88 27.7741C106.231 27.6946 106.584 27.6316 106.939 27.5852C107.403 27.5256 107.779 27.4808 108.067 27.451C108.359 27.4179 108.571 27.3632 108.704 27.2869C108.84 27.2107 108.907 27.0781 108.907 26.8892V26.8494C108.907 26.3589 108.773 25.9777 108.505 25.706C108.24 25.4342 107.837 25.2983 107.297 25.2983C106.737 25.2983 106.297 25.4209 105.979 25.6662C105.661 25.9115 105.437 26.1733 105.308 26.4517L104.194 26.054C104.393 25.59 104.658 25.2287 104.99 24.9702C105.325 24.7083 105.689 24.526 106.084 24.4233C106.481 24.3172 106.872 24.2642 107.257 24.2642C107.502 24.2642 107.784 24.294 108.102 24.3537C108.424 24.41 108.733 24.5277 109.032 24.7067C109.333 24.8857 109.584 25.1558 109.782 25.517C109.981 25.8783 110.081 26.3622 110.081 26.9688V32H108.907V30.9659H108.848C108.768 31.1316 108.636 31.3089 108.45 31.4979C108.265 31.6868 108.018 31.8475 107.709 31.9801C107.401 32.1127 107.025 32.179 106.581 32.179ZM106.76 31.125C107.224 31.125 107.615 31.0339 107.933 30.8516C108.255 30.6693 108.497 30.4339 108.659 30.1456C108.825 29.8572 108.907 29.554 108.907 29.2358V28.1619C108.858 28.2216 108.748 28.2763 108.579 28.326C108.414 28.3724 108.221 28.4138 108.003 28.4503C107.787 28.4834 107.577 28.5133 107.371 28.5398C107.169 28.563 107.005 28.5829 106.879 28.5994C106.574 28.6392 106.289 28.7038 106.024 28.7933C105.762 28.8795 105.55 29.0104 105.388 29.1861C105.229 29.3584 105.149 29.5937 105.149 29.892C105.149 30.2997 105.3 30.608 105.601 30.8168C105.906 31.0223 106.292 31.125 106.76 31.125ZM112.705 34.8636C112.506 34.8636 112.328 34.8471 112.173 34.8139C112.017 34.7841 111.909 34.7543 111.849 34.7244L112.148 33.6903C112.433 33.7633 112.685 33.7898 112.903 33.7699C113.122 33.75 113.316 33.6522 113.485 33.4766C113.657 33.3042 113.815 33.0241 113.957 32.6364L114.176 32.0398L111.352 24.3636H112.625L114.733 30.4489H114.812L116.92 24.3636H118.193L114.952 33.1136C114.806 33.508 114.625 33.8345 114.41 34.093C114.194 34.3549 113.944 34.5488 113.659 34.6747C113.377 34.8007 113.059 34.8636 112.705 34.8636Z" fill="white"/>
</svg>
