<svg width="145" height="39" viewBox="0 0 145 39" fill="none" xmlns="http://www.w3.org/2000/svg">
<rect width="145" height="38.8979" rx="3" fill="white"/>
<path d="M8 30.4044V8.5313C8.00014 8.48384 8.01359 8.43749 8.03866 8.39804C8.06373 8.3586 8.09931 8.32783 8.14094 8.30958C8.18256 8.29133 8.22838 8.28642 8.27265 8.29547C8.31691 8.30451 8.35765 8.32712 8.38976 8.36043L19.2116 19.4673L8.38976 30.5753C8.35765 30.6086 8.31691 30.6312 8.27265 30.6402C8.22838 30.6493 8.18256 30.6444 8.14094 30.6261C8.09931 30.6079 8.06373 30.5771 8.03866 30.5377C8.01359 30.4982 8.00014 30.4519 8 30.4044ZM23.7491 24.0311L10.1799 31.8988L10.1715 31.9038C9.9377 32.0374 9.71559 31.7045 9.90703 31.5109L20.5438 20.807L23.7491 24.0311ZM9.90809 7.42373C9.71559 7.23004 9.9377 6.89722 10.1725 7.03079L10.181 7.0358L23.7491 14.9034L20.5438 18.1287L9.90809 7.42373ZM29.227 20.8587L25.4377 23.0549L21.8749 19.4673L25.4377 15.8813L29.227 18.0759C30.2577 18.6753 30.2577 20.2593 29.227 20.8587Z" fill="#001022"/>
<path d="M48.1932 10.9844C48.0838 10.6496 47.9396 10.3497 47.7607 10.0845C47.585 9.81605 47.3745 9.58736 47.1293 9.39844C46.8873 9.20952 46.6122 9.06534 46.304 8.96591C45.9957 8.86648 45.6577 8.81676 45.2898 8.81676C44.6866 8.81676 44.138 8.97254 43.6442 9.28409C43.1503 9.59564 42.7576 10.0547 42.4659 10.6612C42.1742 11.2678 42.0284 12.0118 42.0284 12.8935C42.0284 13.7751 42.1759 14.5192 42.4709 15.1257C42.7659 15.7322 43.1652 16.1913 43.669 16.5028C44.1728 16.8144 44.7396 16.9702 45.3693 16.9702C45.9527 16.9702 46.4664 16.8459 46.9105 16.5973C47.358 16.3454 47.706 15.9908 47.9545 15.5334C48.2064 15.0727 48.3324 14.5308 48.3324 13.9077L48.7102 13.9872H45.6477V12.8935H49.5256V13.9872C49.5256 14.8258 49.3466 15.5549 48.9886 16.1747C48.634 16.7945 48.1435 17.2751 47.517 17.6165C46.8939 17.9545 46.178 18.1236 45.3693 18.1236C44.4678 18.1236 43.6757 17.9115 42.9929 17.4872C42.3134 17.063 41.7831 16.4598 41.402 15.6776C41.0241 14.8954 40.8352 13.9673 40.8352 12.8935C40.8352 12.0881 40.9429 11.3639 41.1584 10.7209C41.3771 10.0746 41.6854 9.52438 42.0831 9.07031C42.4808 8.61624 42.9515 8.26823 43.495 8.02628C44.0386 7.78433 44.6368 7.66335 45.2898 7.66335C45.8267 7.66335 46.3272 7.74455 46.7912 7.90696C47.2585 8.06605 47.6745 8.29309 48.0391 8.58807C48.407 8.87973 48.7135 9.2294 48.9588 9.63707C49.2041 10.0414 49.3731 10.4905 49.4659 10.9844H48.1932ZM54.6799 18.1435C53.9441 18.1435 53.3094 17.9811 52.7757 17.6562C52.2454 17.3281 51.8361 16.8707 51.5478 16.2841C51.2627 15.6941 51.1202 15.008 51.1202 14.2259C51.1202 13.4437 51.2627 12.7543 51.5478 12.1577C51.8361 11.5578 52.2372 11.0904 52.7509 10.7557C53.2679 10.4176 53.8712 10.2486 54.5605 10.2486C54.9583 10.2486 55.351 10.3149 55.7388 10.4474C56.1266 10.58 56.4796 10.7955 56.7978 11.0938C57.1159 11.3887 57.3695 11.7798 57.5584 12.267C57.7473 12.7543 57.8418 13.3542 57.8418 14.0668V14.5639H51.9554V13.5497H56.6486C56.6486 13.1188 56.5624 12.7344 56.3901 12.3963C56.2211 12.0582 55.9791 11.7914 55.6642 11.5959C55.3527 11.4003 54.9848 11.3026 54.5605 11.3026C54.0932 11.3026 53.6889 11.4186 53.3475 11.6506C53.0094 11.8793 52.7492 12.1776 52.5669 12.5455C52.3846 12.9134 52.2935 13.3078 52.2935 13.7287V14.4048C52.2935 14.9815 52.3929 15.4704 52.5918 15.8714C52.794 16.2692 53.074 16.5724 53.432 16.7812C53.79 16.9867 54.2059 17.0895 54.6799 17.0895C54.9881 17.0895 55.2665 17.0464 55.5151 16.9602C55.767 16.8707 55.9841 16.7382 56.1664 16.5625C56.3487 16.3835 56.4895 16.1615 56.589 15.8963L57.7225 16.2145C57.6032 16.599 57.4026 16.937 57.1209 17.2287C56.8392 17.517 56.4912 17.7424 56.0769 17.9048C55.6626 18.0639 55.1969 18.1435 54.6799 18.1435ZM62.9476 10.348V11.3423H58.9902V10.348H62.9476ZM60.1436 8.51847H61.3169V15.7969C61.3169 16.1283 61.365 16.3769 61.4611 16.5426C61.5605 16.705 61.6865 16.8144 61.839 16.8707C61.9947 16.9238 62.1588 16.9503 62.3311 16.9503C62.4604 16.9503 62.5665 16.9437 62.6493 16.9304C62.7322 16.9138 62.7985 16.9006 62.8482 16.8906L63.0868 17.9446C63.0073 17.9744 62.8962 18.0043 62.7537 18.0341C62.6112 18.0672 62.4306 18.0838 62.2118 18.0838C61.8804 18.0838 61.5556 18.0125 61.2374 17.87C60.9225 17.7275 60.6607 17.5104 60.4519 17.2188C60.2464 16.9271 60.1436 16.5592 60.1436 16.1151V8.51847ZM68.65 17.9844V10.348H69.8233V17.9844H68.65ZM69.2466 9.07528C69.0179 9.07528 68.8207 8.9974 68.655 8.84162C68.4926 8.68584 68.4114 8.49858 68.4114 8.27983C68.4114 8.06108 68.4926 7.87382 68.655 7.71804C68.8207 7.56226 69.0179 7.48438 69.2466 7.48438C69.4753 7.48438 69.6709 7.56226 69.8333 7.71804C69.999 7.87382 70.0819 8.06108 70.0819 8.27983C70.0819 8.49858 69.999 8.68584 69.8333 8.84162C69.6709 8.9974 69.4753 9.07528 69.2466 9.07528ZM73.1456 13.3906V17.9844H71.9723V10.348H73.1058V11.5412H73.2053C73.3842 11.1534 73.656 10.8419 74.0206 10.6065C74.3852 10.3679 74.8558 10.2486 75.4325 10.2486C75.9496 10.2486 76.402 10.3546 76.7898 10.5668C77.1776 10.7756 77.4792 11.0938 77.6946 11.5213C77.91 11.9455 78.0178 12.4825 78.0178 13.1321V17.9844H76.8445V13.2116C76.8445 12.6117 76.6887 12.1444 76.3771 11.8097C76.0656 11.4716 75.638 11.3026 75.0945 11.3026C74.7199 11.3026 74.3852 11.3838 74.0902 11.5462C73.7985 11.7086 73.5682 11.9455 73.3991 12.2571C73.2301 12.5687 73.1456 12.9465 73.1456 13.3906ZM87.2015 18.1435C86.5121 18.1435 85.9073 17.9794 85.3869 17.6513C84.8699 17.3232 84.4655 16.8641 84.1738 16.2741C83.8855 15.6842 83.7413 14.9948 83.7413 14.206C83.7413 13.4105 83.8855 12.7161 84.1738 12.1229C84.4655 11.5296 84.8699 11.0689 85.3869 10.7408C85.9073 10.4126 86.5121 10.2486 87.2015 10.2486C87.8909 10.2486 88.4941 10.4126 89.0112 10.7408C89.5315 11.0689 89.9359 11.5296 90.2243 12.1229C90.5159 12.7161 90.6618 13.4105 90.6618 14.206C90.6618 14.9948 90.5159 15.6842 90.2243 16.2741C89.9359 16.8641 89.5315 17.3232 89.0112 17.6513C88.4941 17.9794 87.8909 18.1435 87.2015 18.1435ZM87.2015 17.0895C87.7252 17.0895 88.1561 16.9553 88.4941 16.6868C88.8322 16.4183 89.0824 16.0653 89.2449 15.6278C89.4073 15.1903 89.4885 14.7164 89.4885 14.206C89.4885 13.6955 89.4073 13.2199 89.2449 12.7791C89.0824 12.3383 88.8322 11.982 88.4941 11.7102C88.1561 11.4384 87.7252 11.3026 87.2015 11.3026C86.6779 11.3026 86.247 11.4384 85.9089 11.7102C85.5708 11.982 85.3206 12.3383 85.1582 12.7791C84.9958 13.2199 84.9146 13.6955 84.9146 14.206C84.9146 14.7164 84.9958 15.1903 85.1582 15.6278C85.3206 16.0653 85.5708 16.4183 85.9089 16.6868C86.247 16.9553 86.6779 17.0895 87.2015 17.0895ZM93.6261 13.3906V17.9844H92.4528V10.348H93.5863V11.5412H93.6857C93.8647 11.1534 94.1365 10.8419 94.5011 10.6065C94.8656 10.3679 95.3363 10.2486 95.913 10.2486C96.43 10.2486 96.8825 10.3546 97.2702 10.5668C97.658 10.7756 97.9596 11.0938 98.1751 11.5213C98.3905 11.9455 98.4982 12.4825 98.4982 13.1321V17.9844H97.3249V13.2116C97.3249 12.6117 97.1692 12.1444 96.8576 11.8097C96.546 11.4716 96.1185 11.3026 95.5749 11.3026C95.2004 11.3026 94.8656 11.3838 94.5707 11.5462C94.279 11.7086 94.0487 11.9455 93.8796 12.2571C93.7106 12.5687 93.6261 12.9465 93.6261 13.3906ZM48.1932 24.9844C48.0838 24.6496 47.9396 24.3497 47.7607 24.0845C47.585 23.8161 47.3745 23.5874 47.1293 23.3984C46.8873 23.2095 46.6122 23.0653 46.304 22.9659C45.9957 22.8665 45.6577 22.8168 45.2898 22.8168C44.6866 22.8168 44.138 22.9725 43.6442 23.2841C43.1503 23.5956 42.7576 24.0547 42.4659 24.6612C42.1742 25.2678 42.0284 26.0118 42.0284 26.8935C42.0284 27.7751 42.1759 28.5192 42.4709 29.1257C42.7659 29.7322 43.1652 30.1913 43.669 30.5028C44.1728 30.8144 44.7396 30.9702 45.3693 30.9702C45.9527 30.9702 46.4664 30.8459 46.9105 30.5973C47.358 30.3454 47.706 29.9908 47.9545 29.5334C48.2064 29.0727 48.3324 28.5308 48.3324 27.9077L48.7102 27.9872H45.6477V26.8935H49.5256V27.9872C49.5256 28.8258 49.3466 29.5549 48.9886 30.1747C48.634 30.7945 48.1435 31.2751 47.517 31.6165C46.8939 31.9545 46.178 32.1236 45.3693 32.1236C44.4678 32.1236 43.6757 31.9115 42.9929 31.4872C42.3134 31.063 41.7831 30.4598 41.402 29.6776C41.0241 28.8954 40.8352 27.9673 40.8352 26.8935C40.8352 26.0881 40.9429 25.3639 41.1584 24.7209C41.3771 24.0746 41.6854 23.5244 42.0831 23.0703C42.4808 22.6162 42.9515 22.2682 43.495 22.0263C44.0386 21.7843 44.6368 21.6634 45.2898 21.6634C45.8267 21.6634 46.3272 21.7446 46.7912 21.907C47.2585 22.0661 47.6745 22.2931 48.0391 22.5881C48.407 22.8797 48.7135 23.2294 48.9588 23.6371C49.2041 24.0414 49.3731 24.4905 49.4659 24.9844H48.1932ZM54.5804 32.1435C53.891 32.1435 53.2862 31.9794 52.7658 31.6513C52.2488 31.3232 51.8444 30.8641 51.5527 30.2741C51.2644 29.6842 51.1202 28.9948 51.1202 28.206C51.1202 27.4105 51.2644 26.7161 51.5527 26.1229C51.8444 25.5296 52.2488 25.0689 52.7658 24.7408C53.2862 24.4126 53.891 24.2486 54.5804 24.2486C55.2698 24.2486 55.873 24.4126 56.3901 24.7408C56.9105 25.0689 57.3148 25.5296 57.6032 26.1229C57.8948 26.7161 58.0407 27.4105 58.0407 28.206C58.0407 28.9948 57.8948 29.6842 57.6032 30.2741C57.3148 30.8641 56.9105 31.3232 56.3901 31.6513C55.873 31.9794 55.2698 32.1435 54.5804 32.1435ZM54.5804 31.0895C55.1041 31.0895 55.535 30.9553 55.873 30.6868C56.2111 30.4183 56.4614 30.0653 56.6238 29.6278C56.7862 29.1903 56.8674 28.7164 56.8674 28.206C56.8674 27.6955 56.7862 27.2199 56.6238 26.7791C56.4614 26.3383 56.2111 25.982 55.873 25.7102C55.535 25.4384 55.1041 25.3026 54.5804 25.3026C54.0568 25.3026 53.6259 25.4384 53.2878 25.7102C52.9498 25.982 52.6995 26.3383 52.5371 26.7791C52.3747 27.2199 52.2935 27.6955 52.2935 28.206C52.2935 28.7164 52.3747 29.1903 52.5371 29.6278C52.6995 30.0653 52.9498 30.4183 53.2878 30.6868C53.6259 30.9553 54.0568 31.0895 54.5804 31.0895ZM62.9339 32.1435C62.2446 32.1435 61.6397 31.9794 61.1193 31.6513C60.6023 31.3232 60.1979 30.8641 59.9062 30.2741C59.6179 29.6842 59.4737 28.9948 59.4737 28.206C59.4737 27.4105 59.6179 26.7161 59.9062 26.1229C60.1979 25.5296 60.6023 25.0689 61.1193 24.7408C61.6397 24.4126 62.2446 24.2486 62.9339 24.2486C63.6233 24.2486 64.2266 24.4126 64.7436 24.7408C65.264 25.0689 65.6683 25.5296 65.9567 26.1229C66.2483 26.7161 66.3942 27.4105 66.3942 28.206C66.3942 28.9948 66.2483 29.6842 65.9567 30.2741C65.6683 30.8641 65.264 31.3232 64.7436 31.6513C64.2266 31.9794 63.6233 32.1435 62.9339 32.1435ZM62.9339 31.0895C63.4576 31.0895 63.8885 30.9553 64.2266 30.6868C64.5646 30.4183 64.8149 30.0653 64.9773 29.6278C65.1397 29.1903 65.2209 28.7164 65.2209 28.206C65.2209 27.6955 65.1397 27.2199 64.9773 26.7791C64.8149 26.3383 64.5646 25.982 64.2266 25.7102C63.8885 25.4384 63.4576 25.3026 62.9339 25.3026C62.4103 25.3026 61.9794 25.4384 61.6413 25.7102C61.3033 25.982 61.053 26.3383 60.8906 26.7791C60.7282 27.2199 60.647 27.6955 60.647 28.206C60.647 28.7164 60.7282 29.1903 60.8906 29.6278C61.053 30.0653 61.3033 30.4183 61.6413 30.6868C61.9794 30.9553 62.4103 31.0895 62.9339 31.0895ZM71.2676 35.0071C70.7008 35.0071 70.2136 34.9342 69.8059 34.7884C69.3983 34.6458 69.0585 34.4569 68.7868 34.2216C68.5183 33.9896 68.3045 33.741 68.1454 33.4759L69.0801 32.8196C69.1861 32.9588 69.3204 33.1179 69.4828 33.2969C69.6452 33.4792 69.8672 33.6366 70.149 33.7692C70.434 33.9051 70.8069 33.973 71.2676 33.973C71.8841 33.973 72.3928 33.8239 72.7939 33.5256C73.1949 33.2273 73.3954 32.7599 73.3954 32.1236V30.5724H73.296C73.2098 30.7116 73.0872 30.884 72.9281 31.0895C72.7723 31.2917 72.5469 31.4723 72.252 31.6314C71.9603 31.7872 71.5659 31.8651 71.0687 31.8651C70.4522 31.8651 69.8987 31.7192 69.4082 31.4276C68.921 31.1359 68.5349 30.7116 68.2498 30.1548C67.9681 29.598 67.8272 28.9219 67.8272 28.1264C67.8272 27.3442 67.9648 26.6631 68.2399 26.0831C68.515 25.4998 68.8978 25.049 69.3883 24.7308C69.8788 24.4093 70.4456 24.2486 71.0886 24.2486C71.5858 24.2486 71.9802 24.3314 72.2718 24.4972C72.5668 24.6596 72.7922 24.8452 72.948 25.054C73.1071 25.2595 73.2297 25.4285 73.3159 25.5611H73.4352V24.348H74.5687V32.2031C74.5687 32.8594 74.4196 33.393 74.1213 33.804C73.8263 34.2183 73.4286 34.5215 72.9281 34.7138C72.4309 34.9093 71.8774 35.0071 71.2676 35.0071ZM71.2278 30.8111C71.6984 30.8111 72.0962 30.7034 72.421 30.4879C72.7458 30.2725 72.9927 29.9626 73.1618 29.5582C73.3308 29.1539 73.4153 28.67 73.4153 28.1065C73.4153 27.5563 73.3324 27.0708 73.1667 26.6499C73.001 26.2289 72.7557 25.8991 72.4309 25.6605C72.1061 25.4219 71.7051 25.3026 71.2278 25.3026C70.7306 25.3026 70.3163 25.4285 69.9849 25.6804C69.6568 25.9323 69.4099 26.2704 69.2441 26.6946C69.0817 27.1188 69.0005 27.5895 69.0005 28.1065C69.0005 28.6368 69.0834 29.1058 69.2491 29.5135C69.4181 29.9179 69.6667 30.236 69.9949 30.468C70.3263 30.6967 70.7373 30.8111 71.2278 30.8111ZM77.8897 21.8026V31.9844H76.7164V21.8026H77.8897ZM83.2404 32.1435C82.5046 32.1435 81.8699 31.9811 81.3363 31.6562C80.806 31.3281 80.3967 30.8707 80.1083 30.2841C79.8233 29.6941 79.6808 29.008 79.6808 28.2259C79.6808 27.4437 79.8233 26.7543 80.1083 26.1577C80.3967 25.5578 80.7977 25.0904 81.3114 24.7557C81.8285 24.4176 82.4317 24.2486 83.1211 24.2486C83.5188 24.2486 83.9116 24.3149 84.2994 24.4474C84.6871 24.58 85.0401 24.7955 85.3583 25.0938C85.6765 25.3887 85.93 25.7798 86.119 26.267C86.3079 26.7543 86.4023 27.3542 86.4023 28.0668V28.5639H80.516V27.5497H85.2092C85.2092 27.1188 85.123 26.7344 84.9506 26.3963C84.7816 26.0582 84.5397 25.7914 84.2248 25.5959C83.9132 25.4003 83.5453 25.3026 83.1211 25.3026C82.6538 25.3026 82.2494 25.4186 81.908 25.6506C81.57 25.8793 81.3098 26.1776 81.1275 26.5455C80.9452 26.9134 80.854 27.3078 80.854 27.7287V28.4048C80.854 28.9815 80.9535 29.4704 81.1523 29.8714C81.3545 30.2692 81.6346 30.5724 81.9925 30.7812C82.3505 30.9867 82.7665 31.0895 83.2404 31.0895C83.5487 31.0895 83.8271 31.0464 84.0756 30.9602C84.3275 30.8707 84.5446 30.7382 84.7269 30.5625C84.9092 30.3835 85.0501 30.1615 85.1495 29.8963L86.283 30.2145C86.1637 30.599 85.9632 30.937 85.6815 31.2287C85.3997 31.517 85.0517 31.7424 84.6374 31.9048C84.2231 32.0639 83.7575 32.1435 83.2404 32.1435ZM92.2837 31.9844V21.8026H95.7241C96.5228 21.8026 97.1758 21.9467 97.6829 22.2351C98.1933 22.5201 98.5711 22.9062 98.8164 23.3935C99.0617 23.8807 99.1843 24.4242 99.1843 25.0241C99.1843 25.6241 99.0617 26.1693 98.8164 26.6598C98.5745 27.1503 98.1999 27.5414 97.6928 27.8331C97.1857 28.1214 96.5361 28.2656 95.744 28.2656H93.2781V27.1719H95.7042C96.2511 27.1719 96.6902 27.0774 97.0217 26.8885C97.3531 26.6996 97.5934 26.4444 97.7425 26.1229C97.895 25.7981 97.9712 25.4318 97.9712 25.0241C97.9712 24.6165 97.895 24.2519 97.7425 23.9304C97.5934 23.6089 97.3514 23.357 97.0167 23.1747C96.6819 22.9891 96.2378 22.8963 95.6843 22.8963H93.5167V31.9844H92.2837ZM102.185 21.8026V31.9844H101.011V21.8026H102.185ZM106.581 32.1634C106.097 32.1634 105.658 32.0722 105.263 31.8899C104.869 31.7043 104.556 31.4375 104.324 31.0895C104.092 30.7382 103.976 30.3139 103.976 29.8168C103.976 29.3793 104.062 29.0246 104.234 28.7528C104.407 28.4777 104.637 28.2623 104.925 28.1065C105.214 27.9508 105.532 27.8348 105.88 27.7585C106.231 27.679 106.584 27.616 106.939 27.5696C107.403 27.5099 107.779 27.4652 108.067 27.4354C108.359 27.4022 108.571 27.3475 108.704 27.2713C108.84 27.1951 108.907 27.0625 108.907 26.8736V26.8338C108.907 26.3433 108.773 25.9621 108.505 25.6903C108.24 25.4186 107.837 25.2827 107.297 25.2827C106.737 25.2827 106.297 25.4053 105.979 25.6506C105.661 25.8958 105.437 26.1577 105.308 26.4361L104.194 26.0384C104.393 25.5743 104.658 25.2131 104.99 24.9545C105.325 24.6927 105.689 24.5104 106.084 24.4077C106.481 24.3016 106.872 24.2486 107.257 24.2486C107.502 24.2486 107.784 24.2784 108.102 24.3381C108.424 24.3944 108.733 24.5121 109.032 24.6911C109.333 24.87 109.584 25.1402 109.782 25.5014C109.981 25.8627 110.081 26.3466 110.081 26.9531V31.9844H108.907V30.9503H108.848C108.768 31.116 108.636 31.2933 108.45 31.4822C108.265 31.6712 108.018 31.8319 107.709 31.9645C107.401 32.0971 107.025 32.1634 106.581 32.1634ZM106.76 31.1094C107.224 31.1094 107.615 31.0182 107.933 30.8359C108.255 30.6536 108.497 30.4183 108.659 30.13C108.825 29.8416 108.907 29.5384 108.907 29.2202V28.1463C108.858 28.206 108.748 28.2607 108.579 28.3104C108.414 28.3568 108.221 28.3982 108.003 28.4347C107.787 28.4678 107.577 28.4976 107.371 28.5241C107.169 28.5473 107.005 28.5672 106.879 28.5838C106.574 28.6236 106.289 28.6882 106.024 28.7777C105.762 28.8639 105.55 28.9948 105.388 29.1705C105.229 29.3428 105.149 29.5781 105.149 29.8764C105.149 30.2841 105.3 30.5923 105.601 30.8011C105.906 31.0066 106.292 31.1094 106.76 31.1094ZM112.705 34.848C112.506 34.848 112.328 34.8314 112.173 34.7983C112.017 34.7685 111.909 34.7386 111.849 34.7088L112.148 33.6747C112.433 33.7476 112.685 33.7741 112.903 33.7543C113.122 33.7344 113.316 33.6366 113.485 33.4609C113.657 33.2886 113.815 33.0085 113.957 32.6207L114.176 32.0241L111.352 24.348H112.625L114.733 30.4332H114.812L116.92 24.348H118.193L114.952 33.098C114.806 33.4924 114.625 33.8189 114.41 34.0774C114.194 34.3393 113.944 34.5331 113.659 34.6591C113.377 34.785 113.059 34.848 112.705 34.848Z" fill="#001022"/>
</svg>
