<svg width="25" height="26" viewBox="0 0 25 26" fill="none" xmlns="http://www.w3.org/2000/svg">
<ellipse cx="12.5" cy="12.9751" rx="12.5" ry="12.4673" fill="white"/>
<path d="M14.5872 12.7582L11.6628 11.3972C11.4076 11.279 11.1979 11.4115 11.1979 11.6933V14.2569C11.1979 14.5387 11.4076 14.6712 11.6628 14.553L14.5859 13.192C14.8424 13.0725 14.8424 12.8777 14.5872 12.7582ZM12.5 0.507812C5.59635 0.507812 0 6.08952 0 12.9751C0 19.8607 5.59635 25.4424 12.5 25.4424C19.4036 25.4424 25 19.8607 25 12.9751C25 6.08952 19.4036 0.507812 12.5 0.507812ZM12.5 18.0399C6.10156 18.0399 5.98958 17.4646 5.98958 12.9751C5.98958 8.48557 6.10156 7.91026 12.5 7.91026C18.8984 7.91026 19.0104 8.48557 19.0104 12.9751C19.0104 17.4646 18.8984 18.0399 12.5 18.0399Z" fill="#E52D27"/>
</svg>
