<svg width="25" height="26" viewBox="0 0 25 26" fill="none" xmlns="http://www.w3.org/2000/svg">
<ellipse cx="12.5" cy="12.9731" rx="12.5" ry="12.4673" fill="white"/>
<path d="M12.5 0.505859C5.59635 0.505859 0 6.08756 0 12.9731C0 19.8587 5.59635 25.4404 12.5 25.4404C19.4036 25.4404 25 19.8587 25 12.9731C25 6.08756 19.4036 0.505859 12.5 0.505859ZM9.4401 18.1406H6.90885V10.0161H9.4401V18.1406ZM8.15885 9.01867C7.35937 9.01867 6.84245 8.45375 6.84245 7.75506C6.84245 7.04209 7.375 6.49405 8.19141 6.49405C9.00781 6.49405 9.50781 7.04209 9.52344 7.75506C9.52344 8.45375 9.00781 9.01867 8.15885 9.01867ZM18.6849 18.1406H16.1536V13.6381C16.1536 12.59 15.7865 11.8784 14.8711 11.8784C14.1719 11.8784 13.7565 12.3602 13.5729 12.8238C13.5052 12.9887 13.4883 13.2225 13.4883 13.4549V18.1393H10.9557V12.6069C10.9557 11.5926 10.9232 10.7446 10.8893 10.0148H13.0885L13.2044 11.1433H13.2552C13.5885 10.6134 14.4049 9.83164 15.7708 9.83164C17.4362 9.83164 18.6849 10.9446 18.6849 13.3368V18.1406Z" fill="#0173B2"/>
</svg>
