<svg width="25" height="26" viewBox="0 0 25 26" fill="none" xmlns="http://www.w3.org/2000/svg">
<ellipse cx="12.5" cy="12.9731" rx="12.5" ry="12.4673" fill="white"/>
<path d="M12.5 0.505859C19.4107 0.505859 25 6.08051 25 12.9731C25 19.8658 19.4107 25.4404 12.5 25.4404C5.58929 25.4404 0 19.8658 0 12.9731C0 6.08051 5.58929 0.505859 12.5 0.505859ZM10.2143 19.5452C15.75 19.5452 18.7857 14.9679 18.7857 10.9962V10.6044C19.375 10.1769 19.8929 9.64259 20.2857 9.03704C19.75 9.26857 19.1607 9.42887 18.5536 9.51792C19.1786 9.1439 19.6607 8.55616 19.875 7.86155C19.2857 8.19995 18.6429 8.4493 17.9643 8.59178C17.4107 8.00404 16.625 7.64783 15.7679 7.64783C14.1071 7.64783 12.75 9.00142 12.75 10.6578C12.75 10.8893 12.7679 11.1209 12.8393 11.3346C10.3393 11.2099 8.10714 10.0166 6.625 8.19995C6.375 8.64521 6.21429 9.16171 6.21429 9.71383C6.21429 10.7468 6.75 11.673 7.55357 12.2073C7.05357 12.2073 6.58929 12.0648 6.19643 11.8333V11.8689C6.19643 13.3293 7.23214 14.5405 8.60714 14.8254C8.35714 14.8967 8.08929 14.9323 7.82143 14.9323C7.625 14.9323 7.44643 14.9145 7.25 14.8788C7.625 16.0721 8.75 16.9449 10.0536 16.9627C9.01786 17.7641 7.71429 18.245 6.30357 18.245C6.05357 18.245 5.82143 18.245 5.58929 18.2094C6.91071 19.0643 8.5 19.563 10.1964 19.563" fill="#2DAAE1"/>
</svg>
