<svg width="30" height="30" viewBox="0 0 30 30" fill="none" xmlns="http://www.w3.org/2000/svg">
<path d="M15 3C10.0243 3 6 6.9125 6 11.75C6 18.3125 15 28 15 28C15 28 24 18.3125 24 11.75C24 6.9125 19.9757 3 15 3ZM8.57143 11.75C8.57143 8.3 11.4514 5.5 15 5.5C18.5486 5.5 21.4286 8.3 21.4286 11.75C21.4286 15.35 17.7257 20.7375 15 24.1C12.3257 20.7625 8.57143 15.3125 8.57143 11.75Z" fill="#FB631C"/>
<path d="M15 14C16.6569 14 18 12.6569 18 11C18 9.34315 16.6569 8 15 8C13.3431 8 12 9.34315 12 11C12 12.6569 13.3431 14 15 14Z" fill="#FB631C"/>
</svg>
