<svg width="50" height="50" viewBox="0 0 50 50" fill="none" xmlns="http://www.w3.org/2000/svg">
<path d="M24.9997 49.9994C37.7841 49.9994 48.1479 39.6356 48.1479 26.8513C48.1479 14.0669 37.7841 3.70312 24.9997 3.70312C12.2153 3.70312 1.85156 14.0669 1.85156 26.8513C1.85156 39.6356 12.2153 49.9994 24.9997 49.9994Z" fill="#E7EFFF"/>
<path d="M1.38889 5.55512C2.15595 5.55512 2.77778 4.93329 2.77778 4.16623C2.77778 3.39917 2.15595 2.77734 1.38889 2.77734C0.621827 2.77734 0 3.39917 0 4.16623C0 4.93329 0.621827 5.55512 1.38889 5.55512Z" fill="#FF4D69"/>
<path d="M47.2248 2.77778C47.9919 2.77778 48.6137 2.15595 48.6137 1.38889C48.6137 0.621827 47.9919 0 47.2248 0C46.4578 0 45.8359 0.621827 45.8359 1.38889C45.8359 2.15595 46.4578 2.77778 47.2248 2.77778Z" fill="#00C99F"/>
<path d="M48.6076 47.685C49.3747 47.685 49.9965 47.0632 49.9965 46.2961C49.9965 45.5291 49.3747 44.9072 48.6076 44.9072C47.8406 44.9072 47.2188 45.5291 47.2188 46.2961C47.2188 47.0632 47.8406 47.685 48.6076 47.685Z" fill="#FFA100"/>
<path d="M5.09201 47.685C5.85908 47.685 6.4809 47.0632 6.4809 46.2961C6.4809 45.5291 5.85908 44.9072 5.09201 44.9072C4.32495 44.9072 3.70312 45.5291 3.70312 46.2961C3.70312 47.0632 4.32495 47.685 5.09201 47.685Z" fill="#00C99F"/>
<path d="M46.0168 36.5742H18.9844V11.5742H42.3872C45.3489 14.9418 47.2686 19.0973 47.9129 23.5354C48.5573 27.9736 47.8985 32.5034 46.0168 36.5742Z" fill="#4E6AFF"/>
<path d="M28.7023 36.5742H9.25781V21.2964C9.25781 18.7179 10.2821 16.2451 12.1054 14.4218C13.9287 12.5985 16.4015 11.5742 18.98 11.5742C21.5585 11.5742 24.0314 12.5985 25.8547 14.4218C27.678 16.2451 28.7023 18.7179 28.7023 21.2964V36.5742ZM21.7578 36.5742H42.1282V39.352C42.1282 39.5976 42.0306 39.8331 41.857 40.0067C41.6833 40.1804 41.4478 40.2779 41.2023 40.2779H22.6837C22.4382 40.2779 22.2027 40.1804 22.029 40.0067C21.8554 39.8331 21.7578 39.5976 21.7578 39.352V36.5742Z" fill="#323FD4"/>
<path d="M34.7196 40.2773V47.8607C32.9508 48.6838 31.0837 49.2766 29.1641 49.6246V40.2773H34.7196Z" fill="#4E6AFF"/>
<path d="M43.1351 6.9447H37.0379V6.01877C37.0379 5.65042 36.8916 5.29715 36.6311 5.03668C36.3706 4.77621 36.0174 4.62988 35.649 4.62988C35.2807 4.62988 34.9274 4.77621 34.6669 5.03668C34.4065 5.29715 34.2601 5.65042 34.2601 6.01877V20.6438C33.4633 20.9661 32.8035 21.5555 32.3936 22.311C31.9837 23.0665 31.8493 23.941 32.0135 24.7847C32.1777 25.6284 32.6302 26.3887 33.2935 26.9353C33.9568 27.482 34.7895 27.7809 35.649 27.7809C36.5085 27.7809 37.3413 27.482 38.0046 26.9353C38.6678 26.3887 39.1203 25.6284 39.2845 24.7847C39.4487 23.941 39.3143 23.0665 38.9045 22.311C38.4946 21.5555 37.8347 20.9661 37.0379 20.6438V13.4262H43.1351C43.3941 13.426 43.6472 13.349 43.8625 13.205C44.0778 13.0611 44.2455 12.8565 44.3446 12.6172C44.4437 12.378 44.4696 12.1147 44.4192 11.8607C44.3687 11.6067 44.2441 11.3733 44.0611 11.1901L43.0564 10.1854L44.0611 9.18081C44.2441 8.99758 44.3687 8.76422 44.4192 8.5102C44.4696 8.25619 44.4437 7.99291 44.3446 7.75364C44.2455 7.51436 44.0778 7.30981 43.8625 7.16583C43.6472 7.02185 43.3941 6.9449 43.1351 6.9447Z" fill="#FFA100"/>
<path d="M35.6467 25.4633C36.4138 25.4633 37.0356 24.8415 37.0356 24.0744C37.0356 23.3074 36.4138 22.6855 35.6467 22.6855C34.8796 22.6855 34.2578 23.3074 34.2578 24.0744C34.2578 24.8415 34.8796 25.4633 35.6467 25.4633Z" fill="white"/>
<path d="M28.7008 21.2965V36.5743H7.86748C7.37634 36.5743 6.90531 36.3792 6.55802 36.0319C6.21073 35.6846 6.01563 35.2136 6.01562 34.7225V18.9817C6.01562 18.4906 6.21073 18.0196 6.55802 17.6723C6.90531 17.325 7.37634 17.1299 7.86748 17.1299H27.7749C28.3903 18.4324 28.7066 19.856 28.7008 21.2965Z" fill="#A5BCED"/>
<path d="M28.7008 22.8706L18.5156 27.778L6.01562 21.7595V18.9817C6.01562 18.4906 6.21073 18.0196 6.55802 17.6723C6.90531 17.325 7.37634 17.1299 7.86748 17.1299H27.7749C28.8304 19.3706 28.7008 21.1067 28.7008 22.8706Z" fill="#7F96D1"/>
<path d="M18.522 31.0186C20.3118 31.0186 21.7627 29.5677 21.7627 27.7778C21.7627 25.988 20.3118 24.5371 18.522 24.5371C16.7322 24.5371 15.2812 25.988 15.2812 27.7778C15.2812 29.5677 16.7322 31.0186 18.522 31.0186Z" fill="white"/>
<path d="M18.5139 29.1664C19.281 29.1664 19.9028 28.5446 19.9028 27.7776C19.9028 27.0105 19.281 26.3887 18.5139 26.3887C17.7468 26.3887 17.125 27.0105 17.125 27.7776C17.125 28.5446 17.7468 29.1664 18.5139 29.1664Z" fill="#7F96D1"/>
</svg>
