<svg width="30" height="28" viewBox="0 0 30 28" fill="none" xmlns="http://www.w3.org/2000/svg">
<path d="M13.6744 0.8125C14.026 0.460991 14.5028 0.263525 15 0.263525C15.4972 0.263525 15.974 0.460991 16.3256 0.8125L20.625 5.11187V2.6875C20.625 2.43886 20.7238 2.2004 20.8996 2.02459C21.0754 1.84877 21.3139 1.75 21.5625 1.75H23.4375C23.6861 1.75 23.9246 1.84877 24.1004 2.02459C24.2762 2.2004 24.375 2.43886 24.375 2.6875V8.86188L28.7887 13.2737C28.8759 13.3609 28.9451 13.4644 28.9922 13.5783C29.0394 13.6922 29.0637 13.8142 29.0637 13.9375C29.0637 14.0608 29.0394 14.1828 28.9922 14.2967C28.9451 14.4106 28.8759 14.5141 28.7887 14.6013C28.7016 14.6884 28.5981 14.7576 28.4842 14.8047C28.3703 14.8519 28.2483 14.8762 28.125 14.8762C28.0017 14.8762 27.8797 14.8519 27.7658 14.8047C27.6519 14.7576 27.5484 14.6884 27.4612 14.6013L15 2.13812L5.62499 11.5131V23.3125C5.62499 23.5611 5.72377 23.7996 5.89958 23.9754C6.0754 24.1512 6.31385 24.25 6.56249 24.25H14.0625C14.3111 24.25 14.5496 24.3488 14.7254 24.5246C14.9012 24.7004 15 24.9389 15 25.1875C15 25.4361 14.9012 25.6746 14.7254 25.8504C14.5496 26.0262 14.3111 26.125 14.0625 26.125H6.56249C5.81657 26.125 5.1012 25.8287 4.57376 25.3012C4.04631 24.7738 3.74999 24.0584 3.74999 23.3125V13.3881L2.53874 14.6013C2.45158 14.6884 2.3481 14.7576 2.23421 14.8047C2.12033 14.8519 1.99826 14.8762 1.87499 14.8762C1.75172 14.8762 1.62966 14.8519 1.51578 14.8047C1.40189 14.7576 1.29841 14.6884 1.21124 14.6013C1.12408 14.5141 1.05494 14.4106 1.00776 14.2967C0.96059 14.1828 0.93631 14.0608 0.93631 13.9375C0.93631 13.8142 0.96059 13.6922 1.00776 13.5783C1.05494 13.4644 1.12408 13.3609 1.21124 13.2737L13.6744 0.8125Z" fill="#838383"/>
<path d="M23.4375 28C25.178 28 26.8472 27.3086 28.0779 26.0779C29.3086 24.8472 30 23.178 30 21.4375C30 19.697 29.3086 18.0278 28.0779 16.7971C26.8472 15.5664 25.178 14.875 23.4375 14.875C21.697 14.875 20.0278 15.5664 18.7971 16.7971C17.5664 18.0278 16.875 19.697 16.875 21.4375C16.875 23.178 17.5664 24.8472 18.7971 26.0779C20.0278 27.3086 21.697 28 23.4375 28ZM24.1013 17.0237L26.9138 19.8362C27.0898 20.0123 27.1887 20.251 27.1887 20.5C27.1887 20.749 27.0898 20.9877 26.9138 21.1638C26.7377 21.3398 26.499 21.4387 26.25 21.4387C26.001 21.4387 25.7623 21.3398 25.5862 21.1638L24.375 19.9506V25.1875C24.375 25.4361 24.2762 25.6746 24.1004 25.8504C23.9246 26.0262 23.6861 26.125 23.4375 26.125C23.1889 26.125 22.9504 26.0262 22.7746 25.8504C22.5988 25.6746 22.5 25.4361 22.5 25.1875V19.9506L21.2888 21.1638C21.113 21.3398 20.8744 21.4388 20.6257 21.439C20.3769 21.4391 20.1382 21.3405 19.9622 21.1647C19.7861 20.9889 19.6872 20.7504 19.687 20.5016C19.6868 20.2528 19.7855 20.0142 19.9612 19.8381L22.7737 17.0256C22.8608 16.9383 22.9643 16.8691 23.0782 16.8218C23.1921 16.7745 23.3142 16.7502 23.4375 16.7502C23.5608 16.7502 23.6829 16.7745 23.7968 16.8218C23.9107 16.8691 24.0142 16.9383 24.1013 17.0256V17.0237Z" fill="#838383"/>
</svg>
