<svg width="30" height="30" viewBox="0 0 30 30" fill="none" xmlns="http://www.w3.org/2000/svg">
<path d="M25.8333 6.66667H19.1667V8.33333H25.8333V25.8333H19.1667V27.5H27.5V8.33333C27.5 7.89131 27.3244 7.46738 27.0118 7.15482C26.6993 6.84226 26.2754 6.66667 25.8333 6.66667Z" fill="#838383"/>
<path d="M16.5667 2.5H5.10001C4.63146 2.5 4.1821 2.68613 3.85079 3.01744C3.51947 3.34876 3.33334 3.79812 3.33334 4.26667V27.5H18.3333V4.26667C18.3333 3.79812 18.1472 3.34876 17.8159 3.01744C17.4846 2.68613 17.0352 2.5 16.5667 2.5ZM16.6667 25.8333H14.1667V23.3333H7.50001V25.8333H5.00001V4.26667C5.00001 4.25353 5.0026 4.24053 5.00762 4.2284C5.01265 4.21627 5.02001 4.20524 5.0293 4.19596C5.03859 4.18667 5.04961 4.1793 5.06174 4.17428C5.07387 4.16925 5.08688 4.16667 5.10001 4.16667H16.5667C16.5798 4.16667 16.5928 4.16925 16.6049 4.17428C16.6171 4.1793 16.6281 4.18667 16.6374 4.19596C16.6467 4.20524 16.654 4.21627 16.6591 4.2284C16.6641 4.24053 16.6667 4.25353 16.6667 4.26667V25.8333Z" fill="#838383"/>
<path d="M6.66666 6.66667H8.33332V8.33333H6.66666V6.66667Z" fill="#838383"/>
<path d="M10 6.66667H11.6667V8.33333H10V6.66667Z" fill="#838383"/>
<path d="M13.3333 6.66667H15V8.33333H13.3333V6.66667Z" fill="#838383"/>
<path d="M6.66666 10.8333H8.33332V12.5H6.66666V10.8333Z" fill="#838383"/>
<path d="M10 10.8333H11.6667V12.5H10V10.8333Z" fill="#838383"/>
<path d="M13.3333 10.8333H15V12.5H13.3333V10.8333Z" fill="#838383"/>
<path d="M6.66666 15H8.33332V16.6667H6.66666V15Z" fill="#838383"/>
<path d="M10 15H11.6667V16.6667H10V15Z" fill="#838383"/>
<path d="M13.3333 15H15V16.6667H13.3333V15Z" fill="#838383"/>
<path d="M6.66666 19.1667H8.33332V20.8333H6.66666V19.1667Z" fill="#838383"/>
<path d="M10 19.1667H11.6667V20.8333H10V19.1667Z" fill="#838383"/>
<path d="M13.3333 19.1667H15V20.8333H13.3333V19.1667Z" fill="#838383"/>
<path d="M19.1667 10.8333H20.8333V12.5H19.1667V10.8333Z" fill="#838383"/>
<path d="M22.5 10.8333H24.1667V12.5H22.5V10.8333Z" fill="#838383"/>
<path d="M19.1667 15H20.8333V16.6667H19.1667V15Z" fill="#838383"/>
<path d="M22.5 15H24.1667V16.6667H22.5V15Z" fill="#838383"/>
<path d="M19.1667 19.1667H20.8333V20.8333H19.1667V19.1667Z" fill="#838383"/>
<path d="M22.5 19.1667H24.1667V20.8333H22.5V19.1667Z" fill="#838383"/>
</svg>
