<svg width="27" height="28" viewBox="0 0 27 28" fill="none" xmlns="http://www.w3.org/2000/svg">
<path d="M25.8005 11.1431L14.5505 0.525917L14.5378 0.514667C14.1764 0.183622 13.704 0 13.2138 0C12.7237 0 12.2513 0.183622 11.8899 0.514667L11.8772 0.525917L0.627208 11.1431C0.428223 11.3284 0.269766 11.5528 0.161822 11.8024C0.0538785 12.0519 -0.00121255 12.3211 2.02416e-05 12.5929V25.5937C2.02416e-05 26.1159 0.207442 26.6166 0.576654 26.9858C0.945866 27.3551 1.44663 27.5625 1.96877 27.5625H8.71877C9.24092 27.5625 9.74168 27.3551 10.1109 26.9858C10.4801 26.6166 10.6875 26.1159 10.6875 25.5937V18.8437C10.6875 18.7691 10.7172 18.6976 10.7699 18.6449C10.8226 18.5921 10.8942 18.5625 10.9688 18.5625H15.4688C15.5434 18.5625 15.6149 18.5921 15.6676 18.6449C15.7204 18.6976 15.75 18.7691 15.75 18.8437V25.5937C15.75 26.1159 15.9574 26.6166 16.3267 26.9858C16.6959 27.3551 17.1966 27.5625 17.7188 27.5625H24.4688C24.9909 27.5625 25.4917 27.3551 25.8609 26.9858C26.2301 26.6166 26.4375 26.1159 26.4375 25.5937V12.5929C26.4375 12.3203 26.3809 12.0507 26.2712 11.8012C26.1616 11.5516 26.0013 11.3275 25.8005 11.1431ZM24.75 25.5937C24.75 25.6683 24.7204 25.7399 24.6676 25.7926C24.6149 25.8453 24.5434 25.875 24.4688 25.875H17.7188C17.6442 25.875 17.5726 25.8453 17.5199 25.7926C17.4672 25.7399 17.4375 25.6683 17.4375 25.5937V18.8437C17.4375 18.3216 17.2301 17.8208 16.8609 17.4516C16.4917 17.0824 15.9909 16.875 15.4688 16.875H10.9688C10.4466 16.875 9.94587 17.0824 9.57665 17.4516C9.20744 17.8208 9.00002 18.3216 9.00002 18.8437V25.5937C9.00002 25.6683 8.97039 25.7399 8.91764 25.7926C8.8649 25.8453 8.79336 25.875 8.71877 25.875H1.96877C1.89418 25.875 1.82264 25.8453 1.7699 25.7926C1.71715 25.7399 1.68752 25.6683 1.68752 25.5937V12.5929C1.68743 12.5538 1.69552 12.5151 1.71126 12.4792C1.727 12.4434 1.75005 12.4112 1.77893 12.3848L1.79158 12.3736L13.0331 1.7592C13.0844 1.71449 13.1501 1.68986 13.2181 1.68986C13.2861 1.68986 13.3518 1.71449 13.403 1.7592L24.646 12.375L24.6572 12.3862C24.6863 12.4125 24.7097 12.4446 24.7256 12.4805C24.7416 12.5163 24.7499 12.5551 24.75 12.5944V25.5937Z" fill="#838383"/>
</svg>
