<svg width="36" height="33" viewBox="0 0 36 33" fill="none" xmlns="http://www.w3.org/2000/svg">
<path d="M29.4667 31.3333V24.6667C31.3333 24.4 32.6667 22.8 32.6667 20.6667C32.6667 18.5333 30.8 16.6667 28.6667 16.6667C26.5333 16.6667 24.6667 18.5333 24.6667 20.6667C24.6667 22.5333 26 24.4 27.8667 24.6667V31.3333H16.6667V0.666666H3.33332V31.3333H0.666656V32.6667H35.3333V31.3333H29.4667ZM14 24.6667H5.99999V22H14V24.6667ZM14 19.3333H5.99999V16.6667H14V19.3333ZM14 14H5.99999V11.3333H14V14ZM14 8.66667H5.99999V6H14V8.66667Z" fill="#838383"/>
</svg>
