<svg width="36" height="36" viewBox="0 0 36 36" fill="none" xmlns="http://www.w3.org/2000/svg">
<path fill-rule="evenodd" clip-rule="evenodd" d="M10.3917 0.083334H25.6083C26.5583 0.083334 27.365 0.083334 28.03 0.151667C28.74 0.225001 29.3967 0.385001 30.0167 0.768334C30.635 1.15167 31.0717 1.66667 31.455 2.26833C31.8133 2.835 32.175 3.555 32.6 4.405L32.6267 4.46C32.6433 4.49333 32.6583 4.525 32.6717 4.56L35.01 10.4717C35.29 11.1767 35.5983 12.055 35.6883 12.9517C35.78 13.8717 35.655 14.9233 34.9333 15.835C34.3354 16.5944 33.513 17.1456 32.5833 17.41V33.4167H34.6667C34.9982 33.4167 35.3161 33.5484 35.5506 33.7828C35.785 34.0172 35.9167 34.3351 35.9167 34.6667C35.9167 34.9982 35.785 35.3161 35.5506 35.5506C35.3161 35.785 34.9982 35.9167 34.6667 35.9167H1.33334C1.00182 35.9167 0.683881 35.785 0.44946 35.5506C0.21504 35.3161 0.0833435 34.9982 0.0833435 34.6667C0.0833435 34.3351 0.21504 34.0172 0.44946 33.7828C0.683881 33.5484 1.00182 33.4167 1.33334 33.4167H3.41668V17.41C2.48728 17.146 1.6649 16.5954 1.06668 15.8367C0.346677 14.9233 0.22001 13.87 0.311677 12.9533C0.401677 12.0533 0.711677 11.1767 0.988343 10.4717L3.32834 4.55833C3.34187 4.52436 3.35688 4.49099 3.37334 4.45833L3.40001 4.405C3.82501 3.555 4.18501 2.83333 4.54501 2.26833C4.92834 1.66667 5.36501 1.15167 5.98334 0.768334C6.60334 0.385001 7.26001 0.225001 7.96834 0.151667C8.63501 0.083334 9.44168 0.083334 10.3917 0.083334ZM28 16.145C28.5674 16.7476 29.2873 17.1853 30.0833 17.4117V33.4167H23.4167V28.78C23.4167 28.0467 23.4167 27.4133 23.37 26.8967C23.32 26.3467 23.21 25.8033 22.915 25.2917C22.5857 24.7213 22.1121 24.2476 21.5417 23.9183C21.03 23.6233 20.4867 23.5133 19.9383 23.4633C19.4183 23.4167 18.7867 23.4167 18.055 23.4167H17.9467C17.2133 23.4167 16.58 23.4167 16.0633 23.4633C15.5133 23.5133 14.97 23.6233 14.4583 23.9183C13.8879 24.2476 13.4142 24.7212 13.085 25.2917C12.79 25.8033 12.68 26.3467 12.63 26.895C12.5833 27.415 12.5833 28.0467 12.5833 28.7783V33.4167H5.91668V17.41C6.71256 17.1841 7.43246 16.747 8.00001 16.145C8.42789 16.5997 8.94442 16.962 9.51772 17.2094C10.091 17.4567 10.7089 17.584 11.3333 17.5833C12.6467 17.5833 13.8317 17.0317 14.6667 16.145C15.0946 16.5997 15.6111 16.962 16.1844 17.2094C16.7577 17.4567 17.3756 17.584 18 17.5833C18.6244 17.5842 19.2424 17.457 19.8157 17.2096C20.3891 16.9622 20.9056 16.5999 21.3333 16.145C21.7612 16.5997 22.2778 16.962 22.8511 17.2094C23.4244 17.4567 24.0423 17.584 24.6667 17.5833C25.2911 17.5842 25.9091 17.457 26.4824 17.2096C27.0557 16.9622 27.5723 16.5999 28 16.145ZM15.0833 33.4167H20.9167V28.8333C20.9167 28.0317 20.9167 27.5133 20.88 27.1217C20.8467 26.7467 20.7883 26.61 20.7483 26.5417C20.6388 26.3521 20.4813 26.1946 20.2917 26.085C20.225 26.045 20.0867 25.9883 19.7117 25.9533C19.1418 25.9182 18.5708 25.9059 18 25.9167C17.1983 25.9167 16.68 25.9167 16.2883 25.9533C15.9133 25.9867 15.7767 26.045 15.7083 26.085C15.5187 26.1946 15.3613 26.3521 15.2517 26.5417C15.2117 26.6083 15.1533 26.7467 15.12 27.1217C15.085 27.5133 15.0833 28.0317 15.0833 28.8333V33.4167ZM9.25001 13C9.25001 13.5525 9.4695 14.0824 9.8602 14.4731C10.2509 14.8638 10.7808 15.0833 11.3333 15.0833C11.8859 15.0833 12.4158 14.8638 12.8065 14.4731C13.1972 14.0824 13.4167 13.5525 13.4167 13C13.4167 12.6685 13.5484 12.3505 13.7828 12.1161C14.0172 11.8817 14.3352 11.75 14.6667 11.75C14.9982 11.75 15.3161 11.8817 15.5506 12.1161C15.785 12.3505 15.9167 12.6685 15.9167 13C15.9167 13.5525 16.1362 14.0824 16.5269 14.4731C16.9176 14.8638 17.4475 15.0833 18 15.0833C18.5525 15.0833 19.0824 14.8638 19.4731 14.4731C19.8638 14.0824 20.0833 13.5525 20.0833 13C20.0833 12.6685 20.215 12.3505 20.4495 12.1161C20.6839 11.8817 21.0018 11.75 21.3333 11.75C21.6649 11.75 21.9828 11.8817 22.2172 12.1161C22.4516 12.3505 22.5833 12.6685 22.5833 13C22.5833 13.5525 22.8028 14.0824 23.1935 14.4731C23.5842 14.8638 24.1141 15.0833 24.6667 15.0833C25.2192 15.0833 25.7491 14.8638 26.1398 14.4731C26.5305 14.0824 26.75 13.5525 26.75 13C26.75 12.6685 26.8817 12.3505 27.1161 12.1161C27.3505 11.8817 27.6685 11.75 28 11.75C28.3315 11.75 28.6495 11.8817 28.8839 12.1161C29.1183 12.3505 29.25 12.6685 29.25 13C29.2502 13.433 29.3852 13.8552 29.6364 14.2079C29.8876 14.5606 30.2424 14.8262 30.6516 14.9679C31.0607 15.1096 31.5038 15.1203 31.9194 14.9985C32.3349 14.8767 32.7021 14.6285 32.97 14.2883C33.16 14.0483 33.2533 13.7183 33.2 13.2017C33.1467 12.665 32.9483 12.055 32.6867 11.3917L30.3667 5.52833C29.92 4.63667 29.6217 4.045 29.345 3.61167C29.0783 3.19167 28.8883 3.01 28.7017 2.895C28.5167 2.77833 28.2683 2.69 27.7733 2.63833C27.25 2.585 26.5733 2.58333 25.5467 2.58333H10.4533C9.42501 2.58333 8.74834 2.58333 8.22668 2.63833C7.73168 2.69 7.48334 2.78 7.29834 2.895C7.11168 3.01 6.92168 3.19167 6.65501 3.61167C6.37668 4.045 6.08001 4.63667 5.63334 5.52833L3.31334 11.3917C3.05168 12.055 2.85334 12.665 2.80001 13.2017C2.74834 13.7183 2.84001 14.0483 3.03001 14.2883C3.29792 14.6285 3.66515 14.8767 4.08066 14.9985C4.49618 15.1203 4.93931 15.1096 5.34846 14.9679C5.75761 14.8262 6.11244 14.5606 6.36363 14.2079C6.61481 13.8552 6.74987 13.433 6.75001 13C6.75001 12.6685 6.88171 12.3505 7.11613 12.1161C7.35055 11.8817 7.66849 11.75 8.00001 11.75C8.33153 11.75 8.64947 11.8817 8.88389 12.1161C9.11831 12.3505 9.25001 12.6685 9.25001 13Z" fill="#838383"/>
</svg>
