<svg width="30" height="28" viewBox="0 0 30 28" fill="none" xmlns="http://www.w3.org/2000/svg">
<path d="M13.6744 0.8125C14.026 0.460991 14.5028 0.263525 15 0.263525C15.4972 0.263525 15.974 0.460991 16.3256 0.8125L20.625 5.11187V2.6875C20.625 2.43886 20.7238 2.2004 20.8996 2.02459C21.0754 1.84877 21.3139 1.75 21.5625 1.75H23.4375C23.6861 1.75 23.9246 1.84877 24.1004 2.02459C24.2762 2.2004 24.375 2.43886 24.375 2.6875V8.86188L28.7888 13.2737C28.8759 13.3609 28.9451 13.4644 28.9922 13.5783C29.0394 13.6922 29.0637 13.8142 29.0637 13.9375C29.0637 14.0608 29.0394 14.1828 28.9922 14.2967C28.9451 14.4106 28.8759 14.5141 28.7888 14.6013C28.7016 14.6884 28.5981 14.7576 28.4842 14.8047C28.3703 14.8519 28.2483 14.8762 28.125 14.8762C28.0017 14.8762 27.8797 14.8519 27.7658 14.8047C27.6519 14.7576 27.5484 14.6884 27.4613 14.6013L15 2.13812L5.625 11.5131V23.3125C5.625 23.5611 5.72377 23.7996 5.89959 23.9754C6.0754 24.1512 6.31386 24.25 6.5625 24.25H14.0625C14.3111 24.25 14.5496 24.3488 14.7254 24.5246C14.9012 24.7004 15 24.9389 15 25.1875C15 25.4361 14.9012 25.6746 14.7254 25.8504C14.5496 26.0262 14.3111 26.125 14.0625 26.125H6.5625C5.81658 26.125 5.10121 25.8287 4.57376 25.3012C4.04632 24.7738 3.75 24.0584 3.75 23.3125V13.3881L2.53875 14.6013C2.45159 14.6884 2.34811 14.7576 2.23422 14.8047C2.12033 14.8519 1.99827 14.8762 1.875 14.8762C1.75173 14.8762 1.62967 14.8519 1.51578 14.8047C1.4019 14.7576 1.29842 14.6884 1.21125 14.6013C1.12409 14.5141 1.05494 14.4106 1.00777 14.2967C0.960597 14.1828 0.936317 14.0608 0.936317 13.9375C0.936317 13.8142 0.960597 13.6922 1.00777 13.5783C1.05494 13.4644 1.12409 13.3609 1.21125 13.2737L13.6744 0.8125Z" fill="#838383"/>
<path d="M23.4375 14.8749C21.697 14.8749 20.0278 15.5663 18.7971 16.797C17.5664 18.0277 16.875 19.6969 16.875 21.4374C16.875 23.1778 17.5664 24.847 18.7971 26.0777C20.0278 27.3084 21.697 27.9999 23.4375 27.9999C25.178 27.9999 26.8472 27.3084 28.0779 26.0777C29.3086 24.847 30 23.1778 30 21.4374C30 19.6969 29.3086 18.0277 28.0779 16.797C26.8472 15.5663 25.178 14.8749 23.4375 14.8749ZM22.7737 25.8511L19.9612 23.0386C19.7852 22.8626 19.6863 22.6238 19.6863 22.3749C19.6863 22.1259 19.7852 21.8871 19.9612 21.7111C20.1373 21.5351 20.376 21.4362 20.625 21.4362C20.8739 21.4362 21.1127 21.5351 21.2887 21.7111L22.5 22.9242V17.6874C22.5 17.4387 22.5987 17.2003 22.7746 17.0244C22.9504 16.8486 23.1888 16.7499 23.4375 16.7499C23.6861 16.7499 23.9246 16.8486 24.1004 17.0244C24.2762 17.2003 24.375 17.4387 24.375 17.6874V22.9242L25.5862 21.7111C25.762 21.5351 26.0005 21.4361 26.2493 21.4359C26.4981 21.4357 26.7368 21.5344 26.9128 21.7102C27.0888 21.886 27.1878 22.1245 27.188 22.3733C27.1882 22.622 27.0895 22.8607 26.9137 23.0367L24.1012 25.8492C24.0141 25.9365 23.9107 26.0058 23.7968 26.0531C23.6829 26.1003 23.5608 26.1247 23.4375 26.1247C23.3142 26.1247 23.1921 26.1003 23.0782 26.0531C22.9643 26.0058 22.8608 25.9365 22.7737 25.8492V25.8511Z" fill="#838383"/>
</svg>
