<svg width="30" height="30" viewBox="0 0 30 30" fill="none" xmlns="http://www.w3.org/2000/svg">
<path d="M15 1.07143L28.2429 13.2857C28.4609 13.488 28.6345 13.7334 28.7526 14.0064C28.8707 14.2794 28.9306 14.574 28.9286 14.8714V26.7857C28.9286 27.354 28.7028 27.8991 28.3009 28.3009C27.8991 28.7028 27.354 28.9286 26.7857 28.9286H3.21429C2.64597 28.9286 2.10092 28.7028 1.69906 28.3009C1.29719 27.8991 1.07143 27.354 1.07143 26.7857V14.8714C1.06942 14.574 1.12935 14.2794 1.2474 14.0064C1.36546 13.7334 1.53905 13.488 1.75714 13.2857L15 1.07143ZM15 1.07143V17.1429M1.07143 17.1429H28.9286M1.07143 23.0357H8.57143M21.4286 23.0357H28.9286M8.57143 28.9286V7.00714M21.4286 28.9286V7.00714" stroke="#838383" stroke-linecap="round" stroke-linejoin="round"/>
</svg>
