<svg width="37" height="23" viewBox="0 0 37 23" fill="none" xmlns="http://www.w3.org/2000/svg">
<rect x="0.5" y="0.5" width="36" height="22" rx="2.5" stroke="#D2D2D2"/>
<path d="M8.80833 8H8.27992C8.24867 7.84801 8.19398 7.71449 8.11586 7.59943C8.03915 7.48438 7.9454 7.38778 7.83461 7.30966C7.72523 7.23011 7.60378 7.17045 7.47026 7.13068C7.33674 7.09091 7.19753 7.07102 7.05265 7.07102C6.78844 7.07102 6.54909 7.13778 6.33461 7.27131C6.12154 7.40483 5.95179 7.60156 5.82537 7.86151C5.70037 8.12145 5.63787 8.44034 5.63787 8.81818C5.63787 9.19602 5.70037 9.51491 5.82537 9.77486C5.95179 10.0348 6.12154 10.2315 6.33461 10.3651C6.54909 10.4986 6.78844 10.5653 7.05265 10.5653C7.19753 10.5653 7.33674 10.5455 7.47026 10.5057C7.60378 10.4659 7.72523 10.407 7.83461 10.3288C7.9454 10.2493 8.03915 10.152 8.11586 10.0369C8.19398 9.92045 8.24867 9.78693 8.27992 9.63636H8.80833C8.76855 9.85937 8.69611 10.0589 8.591 10.2351C8.48588 10.4112 8.3552 10.5611 8.19895 10.6847C8.0427 10.8068 7.86728 10.8999 7.67267 10.9638C7.47949 11.0277 7.27282 11.0597 7.05265 11.0597C6.68049 11.0597 6.34952 10.9688 6.05975 10.7869C5.76998 10.6051 5.54199 10.3466 5.3758 10.0114C5.20961 9.67614 5.12651 9.27841 5.12651 8.81818C5.12651 8.35795 5.20961 7.96023 5.3758 7.625C5.54199 7.28977 5.76998 7.03125 6.05975 6.84943C6.34952 6.66761 6.68049 6.5767 7.05265 6.5767C7.27282 6.5767 7.47949 6.60866 7.67267 6.67259C7.86728 6.73651 8.0427 6.83026 8.19895 6.95384C8.3552 7.07599 8.48588 7.22514 8.591 7.40128C8.69611 7.57599 8.76855 7.77557 8.80833 8ZM9.84118 11H9.2872L10.8895 6.63636H11.4349L13.0372 11H12.4832L11.1792 7.3267H11.1452L9.84118 11ZM10.0457 9.29545H12.2787V9.7642H10.0457V9.29545ZM16.1032 7.72727C16.0777 7.51136 15.974 7.34375 15.7922 7.22443C15.6104 7.10511 15.3873 7.04545 15.1231 7.04545C14.93 7.04545 14.7609 7.0767 14.616 7.1392C14.4726 7.2017 14.3604 7.28764 14.2794 7.39702C14.1998 7.50639 14.1601 7.63068 14.1601 7.76989C14.1601 7.88636 14.1878 7.98651 14.2432 8.07031C14.3 8.1527 14.3724 8.22159 14.4605 8.27699C14.5486 8.33097 14.6409 8.37571 14.7375 8.41122C14.8341 8.44531 14.9229 8.47301 15.0038 8.49432L15.447 8.61364C15.5606 8.64347 15.6871 8.68466 15.8263 8.73722C15.9669 8.78977 16.1011 8.86151 16.229 8.95241C16.3582 9.0419 16.4648 9.15696 16.5486 9.29759C16.6324 9.43821 16.6743 9.6108 16.6743 9.81534C16.6743 10.0511 16.6125 10.2642 16.4889 10.4545C16.3667 10.6449 16.1878 10.7962 15.952 10.9084C15.7176 11.0206 15.4328 11.0767 15.0976 11.0767C14.7851 11.0767 14.5145 11.0263 14.2858 10.9254C14.0585 10.8246 13.8795 10.6839 13.7488 10.5036C13.6196 10.3232 13.5464 10.1136 13.5294 9.875H14.0748C14.089 10.0398 14.1444 10.1761 14.241 10.2841C14.339 10.3906 14.4626 10.4702 14.6118 10.5227C14.7623 10.5739 14.9243 10.5994 15.0976 10.5994C15.2993 10.5994 15.4804 10.5668 15.6409 10.5014C15.8014 10.4347 15.9285 10.3423 16.0223 10.2244C16.116 10.1051 16.1629 9.96591 16.1629 9.80682C16.1629 9.66193 16.1224 9.54403 16.0415 9.45312C15.9605 9.36222 15.854 9.28835 15.7219 9.23153C15.5898 9.17472 15.447 9.125 15.2936 9.08239L14.7567 8.92898C14.4157 8.83097 14.1459 8.69105 13.947 8.50923C13.7481 8.32741 13.6487 8.08949 13.6487 7.79545C13.6487 7.55114 13.7148 7.33807 13.8469 7.15625C13.9804 6.97301 14.1594 6.83097 14.3838 6.73011C14.6096 6.62784 14.8618 6.5767 15.1402 6.5767C15.4214 6.5767 15.6714 6.62713 15.8902 6.72798C16.1089 6.82741 16.2822 6.96378 16.4101 7.13707C16.5393 7.31037 16.6075 7.5071 16.6146 7.72727H16.1032ZM17.5431 11V6.63636H18.0715V8.57955H20.3982V6.63636H20.9266V11H20.3982V9.0483H18.0715V11H17.5431ZM27.3538 8.81818C27.3538 9.27841 27.2707 9.67614 27.1045 10.0114C26.9383 10.3466 26.7103 10.6051 26.4205 10.7869C26.1308 10.9688 25.7998 11.0597 25.4276 11.0597C25.0555 11.0597 24.7245 10.9688 24.4347 10.7869C24.145 10.6051 23.917 10.3466 23.7508 10.0114C23.5846 9.67614 23.5015 9.27841 23.5015 8.81818C23.5015 8.35795 23.5846 7.96023 23.7508 7.625C23.917 7.28977 24.145 7.03125 24.4347 6.84943C24.7245 6.66761 25.0555 6.5767 25.4276 6.5767C25.7998 6.5767 26.1308 6.66761 26.4205 6.84943C26.7103 7.03125 26.9383 7.28977 27.1045 7.625C27.2707 7.96023 27.3538 8.35795 27.3538 8.81818ZM26.8424 8.81818C26.8424 8.44034 26.7792 8.12145 26.6528 7.86151C26.5278 7.60156 26.358 7.40483 26.1436 7.27131C25.9305 7.13778 25.6919 7.07102 25.4276 7.07102C25.1634 7.07102 24.9241 7.13778 24.7096 7.27131C24.4965 7.40483 24.3268 7.60156 24.2004 7.86151C24.0754 8.12145 24.0129 8.44034 24.0129 8.81818C24.0129 9.19602 24.0754 9.51491 24.2004 9.77486C24.3268 10.0348 24.4965 10.2315 24.7096 10.3651C24.9241 10.4986 25.1634 10.5653 25.4276 10.5653C25.6919 10.5653 25.9305 10.4986 26.1436 10.3651C26.358 10.2315 26.5278 10.0348 26.6528 9.77486C26.7792 9.51491 26.8424 9.19602 26.8424 8.81818ZM31.7025 6.63636V11H31.1911L28.8133 7.57386H28.7707V11H28.2423V6.63636H28.7536L31.14 10.071H31.1826V6.63636H31.7025ZM6.2832 17H4.93661V12.6364H6.34286C6.76616 12.6364 7.12837 12.7237 7.42951 12.8984C7.73065 13.0717 7.96147 13.321 8.12198 13.6463C8.28249 13.9702 8.36275 14.358 8.36275 14.8097C8.36275 15.2642 8.28178 15.6555 8.11985 15.9837C7.95792 16.3104 7.72212 16.5618 7.41246 16.7379C7.10281 16.9126 6.72638 17 6.2832 17ZM5.46502 16.5312H6.24911C6.60991 16.5312 6.90891 16.4616 7.14613 16.3224C7.38335 16.1832 7.56019 15.9851 7.67667 15.728C7.79315 15.4709 7.85138 15.1648 7.85138 14.8097C7.85138 14.4574 7.79386 14.1541 7.6788 13.8999C7.56374 13.6442 7.39187 13.4482 7.16317 13.3118C6.93448 13.174 6.64968 13.1051 6.30877 13.1051H5.46502V16.5312ZM9.24911 17V12.6364H11.8826V13.1051H9.77752V14.5795H11.7463V15.0483H9.77752V16.5312H11.9167V17H9.24911ZM12.835 17V12.6364H13.3635V16.5312H15.3919V17H12.835ZM16.7385 12.6364V17H16.21V12.6364H16.7385ZM17.9769 12.6364L19.2724 16.3097H19.3235L20.619 12.6364H21.1729L19.5707 17H19.0252L17.4229 12.6364H17.9769ZM21.8526 17V12.6364H24.4862V13.1051H22.381V14.5795H24.3498V15.0483H22.381V16.5312H24.5202V17H21.8526ZM25.4386 17V12.6364H26.913C27.2539 12.6364 27.5337 12.6946 27.7525 12.8111C27.9712 12.9261 28.1332 13.0845 28.2383 13.2862C28.3434 13.4879 28.396 13.7173 28.396 13.9744C28.396 14.2315 28.3434 14.4595 28.2383 14.6584C28.1332 14.8572 27.9719 15.0135 27.7546 15.1271C27.5373 15.2393 27.2596 15.2955 26.9215 15.2955H25.7283V14.8182H26.9045C27.1374 14.8182 27.3249 14.7841 27.467 14.7159C27.6104 14.6477 27.7141 14.5511 27.7781 14.4261C27.8434 14.2997 27.8761 14.1491 27.8761 13.9744C27.8761 13.7997 27.8434 13.647 27.7781 13.5163C27.7127 13.3857 27.6083 13.2848 27.4648 13.2138C27.3214 13.1413 27.1317 13.1051 26.896 13.1051H25.967V17H25.4386ZM27.4925 15.0398L28.5664 17H27.9528L26.896 15.0398H27.4925ZM28.755 12.6364H29.3601L30.5703 14.6733H30.6214L31.8317 12.6364H32.4368L30.8601 15.2017V17H30.3317V15.2017L28.755 12.6364Z" fill="#444444"/>
</svg>
