<svg width="39" height="23" viewBox="0 0 39 23" fill="none" xmlns="http://www.w3.org/2000/svg">
<circle cx="11.5" cy="11.5" r="11.5" fill="#CB2026"/>
<path d="M39 11.5C39 17.8513 33.8513 23 27.5 23C21.1487 23 16 17.8513 16 11.5C16 4 21.1487 0 27.5 0C33.8513 0 39 5.14873 39 11.5Z" fill="#F7981D"/>
<rect x="15" y="8" width="6" height="1" fill="#CB2026"/>
<rect x="14" y="9" width="6" height="1" fill="#F7981D"/>
<rect x="15" y="14" width="6" height="1" fill="#CB2026"/>
<rect x="15" y="15" width="6" height="1" fill="#F7981D"/>
<rect x="15" y="6" width="4" height="1" fill="#CB2026"/>
<rect x="15" y="7" width="4" height="1" fill="#F7981D"/>
<rect x="16" y="16" width="4" height="1" fill="#CB2026"/>
<rect x="14" y="10" width="8" height="1" fill="#CB2026"/>
<rect x="13" y="11" width="8" height="1" fill="#F7981D"/>
<rect x="15" y="12" width="8" height="1" fill="#CB2026"/>
<rect x="14" y="13" width="8" height="1" fill="#F7981D"/>
<path d="M2.78116 9.63636H3.58017L4.96937 13.0284H5.02051L6.40971 9.63636H7.20872V14H6.5823V10.8423H6.54181L5.25488 13.9936H4.735L3.44806 10.8402H3.40758V14H2.78116V9.63636ZM9.06721 14.0724C8.85982 14.0724 8.67232 14.0341 8.50471 13.9574C8.33709 13.8793 8.20428 13.7663 8.10627 13.6186C8.00968 13.4709 7.96138 13.2898 7.96138 13.0753C7.96138 12.8906 7.99689 12.7386 8.06792 12.6193C8.13894 12.5 8.23482 12.4055 8.35556 12.3359C8.4763 12.2663 8.61124 12.2138 8.76039 12.1783C8.90953 12.1428 9.06152 12.1158 9.21635 12.0973C9.41238 12.0746 9.57147 12.0561 9.69363 12.0419C9.81578 12.0263 9.90456 12.0014 9.95996 11.9673C10.0154 11.9332 10.0431 11.8778 10.0431 11.8011V11.7862C10.0431 11.6001 9.9905 11.456 9.88539 11.3537C9.78169 11.2514 9.62686 11.2003 9.4209 11.2003C9.20641 11.2003 9.03738 11.2479 8.9138 11.343C8.79164 11.4368 8.70712 11.5412 8.66025 11.6562L8.06152 11.5199C8.13255 11.321 8.23624 11.1605 8.3726 11.0384C8.51039 10.9148 8.66877 10.8253 8.84775 10.7699C9.02672 10.7131 9.21493 10.6847 9.41238 10.6847C9.54306 10.6847 9.68155 10.7003 9.82786 10.7315C9.97559 10.7614 10.1134 10.8168 10.2412 10.8977C10.3705 10.9787 10.4763 11.0945 10.5587 11.245C10.6411 11.3942 10.6823 11.5881 10.6823 11.8267V14H10.0601V13.5526H10.0345C9.99334 13.6349 9.93155 13.7159 9.84917 13.7955C9.76678 13.875 9.66096 13.9411 9.53169 13.9936C9.40243 14.0462 9.2476 14.0724 9.06721 14.0724ZM9.2057 13.5611C9.38184 13.5611 9.5324 13.5263 9.6574 13.4567C9.78382 13.3871 9.87971 13.2962 9.94505 13.1839C10.0118 13.0703 10.0452 12.9489 10.0452 12.8196V12.3977C10.0225 12.4205 9.97843 12.4418 9.91309 12.4616C9.84917 12.4801 9.77601 12.4964 9.69363 12.5107C9.61124 12.5234 9.53098 12.5355 9.45286 12.5469C9.37473 12.5568 9.30939 12.5653 9.25684 12.5724C9.13326 12.5881 9.02033 12.6143 8.91806 12.6513C8.81721 12.6882 8.73624 12.7415 8.67516 12.8111C8.6155 12.8793 8.58567 12.9702 8.58567 13.0838C8.58567 13.2415 8.64391 13.3608 8.76039 13.4418C8.87686 13.5213 9.0253 13.5611 9.2057 13.5611ZM13.9832 11.5263L13.4058 11.6286C13.3817 11.5547 13.3433 11.4844 13.2907 11.4176C13.2396 11.3509 13.17 11.2962 13.0819 11.2536C12.9939 11.2109 12.8838 11.1896 12.7517 11.1896C12.5713 11.1896 12.4207 11.2301 12.3 11.3111C12.1792 11.3906 12.1189 11.4936 12.1189 11.62C12.1189 11.7294 12.1594 11.8175 12.2403 11.8842C12.3213 11.951 12.452 12.0057 12.6324 12.0483L13.1523 12.1676C13.4534 12.2372 13.6778 12.3445 13.8256 12.4893C13.9733 12.6342 14.0471 12.8224 14.0471 13.054C14.0471 13.25 13.9903 13.4247 13.8767 13.5781C13.7645 13.7301 13.6075 13.8494 13.4058 13.9361C13.2055 14.0227 12.9733 14.0661 12.7091 14.0661C12.3426 14.0661 12.0436 13.9879 11.8121 13.8317C11.5805 13.674 11.4385 13.4503 11.3859 13.1605L12.0017 13.0668C12.04 13.2273 12.1189 13.3487 12.2382 13.4311C12.3575 13.5121 12.5131 13.5526 12.7048 13.5526C12.9136 13.5526 13.0805 13.5092 13.2055 13.4226C13.3305 13.3345 13.393 13.2273 13.393 13.1009C13.393 12.9986 13.3547 12.9126 13.278 12.843C13.2027 12.7734 13.0869 12.7209 12.9307 12.6854L12.3767 12.5639C12.0713 12.4943 11.8454 12.3835 11.6991 12.2315C11.5542 12.0795 11.4818 11.8871 11.4818 11.6541C11.4818 11.4609 11.5358 11.2919 11.6437 11.147C11.7517 11.0021 11.9008 10.8892 12.0912 10.8082C12.2815 10.7259 12.4996 10.6847 12.7453 10.6847C13.099 10.6847 13.3774 10.7614 13.5805 10.9148C13.7836 11.0668 13.9179 11.2706 13.9832 11.5263ZM16.2753 10.7273V11.2386H14.4877V10.7273H16.2753ZM14.9671 9.94318H15.6041V13.0391C15.6041 13.1626 15.6226 13.2557 15.6595 13.3182C15.6965 13.3793 15.7441 13.4212 15.8023 13.4439C15.8619 13.4652 15.9266 13.4759 15.9962 13.4759C16.0473 13.4759 16.0921 13.4723 16.1304 13.4652C16.1688 13.4581 16.1986 13.4524 16.2199 13.4482L16.335 13.9744C16.298 13.9886 16.2455 14.0028 16.1773 14.017C16.1091 14.0327 16.0239 14.0412 15.9216 14.0426C15.754 14.0455 15.5977 14.0156 15.4529 13.9531C15.308 13.8906 15.1908 13.794 15.1013 13.6634C15.0118 13.5327 14.9671 13.3686 14.9671 13.1712V9.94318ZM18.3554 14.0661C18.0329 14.0661 17.7552 13.9972 17.5223 13.8594C17.2907 13.7202 17.1118 13.5249 16.9854 13.2734C16.8604 13.0206 16.7979 12.7244 16.7979 12.3849C16.7979 12.0497 16.8604 11.7543 16.9854 11.4986C17.1118 11.2429 17.2879 11.0433 17.5138 10.8999C17.741 10.7564 18.0067 10.6847 18.3106 10.6847C18.4953 10.6847 18.6743 10.7152 18.8476 10.7763C19.0209 10.8374 19.1764 10.9332 19.3142 11.0639C19.452 11.1946 19.5606 11.3643 19.6402 11.5732C19.7197 11.7805 19.7595 12.0327 19.7595 12.3295V12.5554H17.1579V12.0781H19.1352C19.1352 11.9105 19.1011 11.7621 19.0329 11.6328C18.9648 11.5021 18.8689 11.3991 18.7453 11.3239C18.6231 11.2486 18.4797 11.2109 18.3149 11.2109C18.1359 11.2109 17.9797 11.255 17.8461 11.343C17.714 11.4297 17.6118 11.5433 17.5393 11.6839C17.4683 11.8232 17.4328 11.9744 17.4328 12.1378V12.5107C17.4328 12.7294 17.4711 12.9155 17.5479 13.0689C17.626 13.2223 17.7346 13.3395 17.8738 13.4205C18.0131 13.5 18.1757 13.5398 18.3618 13.5398C18.4825 13.5398 18.5926 13.5227 18.692 13.4886C18.7915 13.4531 18.8774 13.4006 18.9498 13.331C19.0223 13.2614 19.0777 13.1754 19.116 13.0732L19.719 13.1818C19.6707 13.3594 19.5841 13.5149 19.4591 13.6484C19.3355 13.7805 19.18 13.8835 18.9925 13.9574C18.8064 14.0298 18.594 14.0661 18.3554 14.0661ZM20.4664 14V10.7273H21.0821V11.2472H21.1162C21.1759 11.071 21.281 10.9325 21.4316 10.8317C21.5835 10.7294 21.7554 10.6783 21.9472 10.6783C21.9869 10.6783 22.0338 10.6797 22.0878 10.6825C22.1432 10.6854 22.1865 10.6889 22.2178 10.6932V11.3026C22.1922 11.2955 22.1468 11.2876 22.0814 11.2791C22.0161 11.2692 21.9507 11.2642 21.8854 11.2642C21.7348 11.2642 21.6006 11.2962 21.4827 11.3601C21.3662 11.4226 21.2739 11.5099 21.2057 11.6222C21.1375 11.733 21.1034 11.8594 21.1034 12.0014V14H20.4664ZM28.0324 11.0554H27.3676C27.3421 10.9134 27.2945 10.7884 27.2249 10.6804C27.1553 10.5724 27.07 10.4808 26.9692 10.4055C26.8683 10.3303 26.7554 10.2734 26.6304 10.2351C26.5068 10.1967 26.3754 10.1776 26.2362 10.1776C25.9848 10.1776 25.7597 10.2408 25.5608 10.3672C25.3634 10.4936 25.2071 10.679 25.0921 10.9233C24.9784 11.1676 24.9216 11.4659 24.9216 11.8182C24.9216 12.1733 24.9784 12.473 25.0921 12.7173C25.2071 12.9616 25.3641 13.1463 25.5629 13.2713C25.7618 13.3963 25.9855 13.4588 26.2341 13.4588C26.3719 13.4588 26.5026 13.4403 26.6262 13.4034C26.7512 13.3651 26.8641 13.3089 26.9649 13.2351C27.0658 13.1612 27.151 13.071 27.2206 12.9645C27.2916 12.8565 27.3406 12.733 27.3676 12.5938L28.0324 12.5959C27.9969 12.8104 27.928 13.0078 27.8257 13.1882C27.7249 13.3672 27.5949 13.522 27.4358 13.6527C27.2781 13.782 27.0977 13.8821 26.8946 13.9531C26.6915 14.0241 26.4699 14.0597 26.2298 14.0597C25.852 14.0597 25.5154 13.9702 25.2199 13.7912C24.9244 13.6108 24.6915 13.353 24.521 13.0178C24.352 12.6825 24.2675 12.2827 24.2675 11.8182C24.2675 11.3523 24.3527 10.9524 24.5232 10.6186C24.6936 10.2834 24.9266 10.0263 25.222 9.8473C25.5175 9.6669 25.8534 9.5767 26.2298 9.5767C26.4614 9.5767 26.6773 9.61009 26.8776 9.67685C27.0793 9.74219 27.2604 9.83878 27.4209 9.96662C27.5814 10.093 27.7142 10.2479 27.8193 10.4311C27.9244 10.6129 27.9955 10.821 28.0324 11.0554ZM29.7215 14.0724C29.5141 14.0724 29.3266 14.0341 29.159 13.9574C28.9914 13.8793 28.8586 13.7663 28.7606 13.6186C28.664 13.4709 28.6157 13.2898 28.6157 13.0753C28.6157 12.8906 28.6512 12.7386 28.7222 12.6193C28.7932 12.5 28.8891 12.4055 29.0099 12.3359C29.1306 12.2663 29.2655 12.2138 29.4147 12.1783C29.5638 12.1428 29.7158 12.1158 29.8706 12.0973C30.0667 12.0746 30.2258 12.0561 30.3479 12.0419C30.4701 12.0263 30.5589 12.0014 30.6143 11.9673C30.6697 11.9332 30.6974 11.8778 30.6974 11.8011V11.7862C30.6974 11.6001 30.6448 11.456 30.5397 11.3537C30.436 11.2514 30.2812 11.2003 30.0752 11.2003C29.8607 11.2003 29.6917 11.2479 29.5681 11.343C29.4459 11.4368 29.3614 11.5412 29.3145 11.6562L28.7158 11.5199C28.7868 11.321 28.8905 11.1605 29.0269 11.0384C29.1647 10.9148 29.3231 10.8253 29.502 10.7699C29.681 10.7131 29.8692 10.6847 30.0667 10.6847C30.1974 10.6847 30.3358 10.7003 30.4822 10.7315C30.6299 10.7614 30.7677 10.8168 30.8955 10.8977C31.0248 10.9787 31.1306 11.0945 31.213 11.245C31.2954 11.3942 31.3366 11.5881 31.3366 11.8267V14H30.7144V13.5526H30.6888C30.6476 13.6349 30.5858 13.7159 30.5035 13.7955C30.4211 13.875 30.3153 13.9411 30.186 13.9936C30.0567 14.0462 29.9019 14.0724 29.7215 14.0724ZM29.86 13.5611C30.0361 13.5611 30.1867 13.5263 30.3117 13.4567C30.4381 13.3871 30.534 13.2962 30.5993 13.1839C30.6661 13.0703 30.6995 12.9489 30.6995 12.8196V12.3977C30.6768 12.4205 30.6327 12.4418 30.5674 12.4616C30.5035 12.4801 30.4303 12.4964 30.3479 12.5107C30.2655 12.5234 30.1853 12.5355 30.1072 12.5469C30.029 12.5568 29.9637 12.5653 29.9111 12.5724C29.7876 12.5881 29.6746 12.6143 29.5724 12.6513C29.4715 12.6882 29.3905 12.7415 29.3295 12.8111C29.2698 12.8793 29.24 12.9702 29.24 13.0838C29.24 13.2415 29.2982 13.3608 29.4147 13.4418C29.5312 13.5213 29.6796 13.5611 29.86 13.5611ZM32.1851 14V10.7273H32.8009V11.2472H32.835C32.8946 11.071 32.9997 10.9325 33.1503 10.8317C33.3023 10.7294 33.4742 10.6783 33.6659 10.6783C33.7057 10.6783 33.7526 10.6797 33.8066 10.6825C33.8619 10.6854 33.9053 10.6889 33.9365 10.6932V11.3026C33.911 11.2955 33.8655 11.2876 33.8002 11.2791C33.7348 11.2692 33.6695 11.2642 33.6041 11.2642C33.4536 11.2642 33.3193 11.2962 33.2014 11.3601C33.085 11.4226 32.9926 11.5099 32.9244 11.6222C32.8563 11.733 32.8222 11.8594 32.8222 12.0014V14H32.1851ZM35.5958 14.0639C35.3316 14.0639 35.0958 13.9964 34.8884 13.8615C34.6824 13.7251 34.5205 13.5312 34.4026 13.2798C34.2861 13.027 34.2279 12.7237 34.2279 12.37C34.2279 12.0163 34.2868 11.7138 34.4047 11.4624C34.5241 11.2109 34.6874 11.0185 34.8948 10.8849C35.1022 10.7514 35.3373 10.6847 35.6001 10.6847C35.8032 10.6847 35.9665 10.7188 36.0901 10.7869C36.2151 10.8537 36.3117 10.9318 36.3799 11.0213C36.4495 11.1108 36.5035 11.1896 36.5418 11.2578H36.5802V9.63636H37.2172V14H36.5951V13.4908H36.5418C36.5035 13.5604 36.4481 13.6399 36.3756 13.7294C36.3046 13.8189 36.2066 13.897 36.0816 13.9638C35.9566 14.0305 35.7947 14.0639 35.5958 14.0639ZM35.7364 13.5206C35.9197 13.5206 36.0745 13.4723 36.2009 13.3757C36.3287 13.2777 36.4253 13.142 36.4907 12.9688C36.5574 12.7955 36.5908 12.5937 36.5908 12.3636C36.5908 12.1364 36.5581 11.9375 36.4928 11.767C36.4275 11.5966 36.3316 11.4638 36.2052 11.3686C36.0787 11.2734 35.9225 11.2259 35.7364 11.2259C35.5447 11.2259 35.3849 11.2756 35.257 11.375C35.1292 11.4744 35.0326 11.6101 34.9672 11.782C34.9033 11.9538 34.8714 12.1477 34.8714 12.3636C34.8714 12.5824 34.904 12.7791 34.9694 12.9538C35.0347 13.1286 35.1313 13.267 35.2591 13.3693C35.3884 13.4702 35.5475 13.5206 35.7364 13.5206Z" fill="white"/>
</svg>
