<svg width="30" height="30" viewBox="0 0 30 30" fill="none" xmlns="http://www.w3.org/2000/svg">
<path d="M24.3379 9.16286L15.1342 0.837143C15.1098 0.816616 15.084 0.79753 15.0568 0.78C15.0373 0.766361 15.0183 0.752065 15 0.737143C14.8914 0.644387 14.7758 0.558471 14.6542 0.48C14.6138 0.456403 14.5716 0.435399 14.5279 0.417143L14.4521 0.382857L14.3732 0.341429C14.2879 0.297143 14.2011 0.251429 14.1111 0.217143C13.7966 0.103519 13.4639 0.0369349 13.1258 0.0199999C13.0946 0.0181604 13.0635 0.0148224 13.0326 0.00999996C12.9898 0.00401158 12.9465 0.000670564 12.9032 0H3.15789C2.32037 0 1.51715 0.301019 0.924926 0.836838C0.332706 1.37266 0 2.09938 0 2.85714V25.7143C0 26.472 0.332706 27.1988 0.924926 27.7346C1.51715 28.2704 2.32037 28.5714 3.15789 28.5714H13.9105C13.2336 27.9339 12.6605 27.2123 12.2084 26.4286H3.15789C2.94851 26.4286 2.74771 26.3533 2.59965 26.2194C2.4516 26.0854 2.36842 25.9037 2.36842 25.7143V2.85714C2.36842 2.6677 2.4516 2.48602 2.59965 2.35207C2.74771 2.21811 2.94851 2.14286 3.15789 2.14286H12.6316V8.57143C12.6316 9.32919 12.9643 10.0559 13.5565 10.5917C14.1487 11.1276 14.9519 11.4286 15.7895 11.4286H22.8947V12.9657C23.7082 13.0794 24.5035 13.2818 25.2632 13.5686V11.1829C25.263 10.4252 24.9302 9.69855 24.3379 9.16286ZM15 3.74429L21.1232 9.28571H15.7895C15.5801 9.28571 15.3793 9.21046 15.2312 9.07651C15.0832 8.94255 15 8.76087 15 8.57143V3.74429ZM10.6579 22.1429H11.0526C11.0526 22.88 11.1474 23.5971 11.3274 24.2857H10.6579C10.3438 24.2857 10.0426 24.1728 9.82053 23.9719C9.59845 23.771 9.47368 23.4984 9.47368 23.2143C9.47368 22.9301 9.59845 22.6576 9.82053 22.4567C10.0426 22.2557 10.3438 22.1429 10.6579 22.1429ZM11.3274 20C11.5247 19.2457 11.8232 18.5286 12.2084 17.8571H10.6579C10.3438 17.8571 10.0426 17.97 9.82053 18.171C9.59845 18.3719 9.47368 18.6444 9.47368 18.9286C9.47368 19.2127 9.59845 19.4853 9.82053 19.6862C10.0426 19.8871 10.3438 20 10.6579 20H11.3274ZM13.9105 15.7143C14.8864 14.7934 16.0613 14.064 17.3621 13.5714H10.6579C10.3438 13.5714 10.0426 13.6843 9.82053 13.8852C9.59845 14.0862 9.47368 14.3587 9.47368 14.6429C9.47368 14.927 9.59845 15.1995 9.82053 15.4005C10.0426 15.6014 10.3438 15.7143 10.6579 15.7143H13.9105ZM5.92105 13.5714C5.60698 13.5714 5.30577 13.6843 5.08369 13.8852C4.86161 14.0862 4.73684 14.3587 4.73684 14.6429C4.73684 14.927 4.86161 15.1995 5.08369 15.4005C5.30577 15.6014 5.60698 15.7143 5.92105 15.7143C6.23513 15.7143 6.53633 15.6014 6.75842 15.4005C6.9805 15.1995 7.10526 14.927 7.10526 14.6429C7.10526 14.3587 6.9805 14.0862 6.75842 13.8852C6.53633 13.6843 6.23513 13.5714 5.92105 13.5714ZM4.73684 18.9286C4.73684 18.6444 4.86161 18.3719 5.08369 18.171C5.30577 17.97 5.60698 17.8571 5.92105 17.8571C6.23513 17.8571 6.53633 17.97 6.75842 18.171C6.9805 18.3719 7.10526 18.6444 7.10526 18.9286C7.10526 19.2127 6.9805 19.4853 6.75842 19.6862C6.53633 19.8871 6.23513 20 5.92105 20C5.60698 20 5.30577 19.8871 5.08369 19.6862C4.86161 19.4853 4.73684 19.2127 4.73684 18.9286ZM4.73684 23.2143C4.73684 22.9301 4.86161 22.6576 5.08369 22.4567C5.30577 22.2557 5.60698 22.1429 5.92105 22.1429C6.23513 22.1429 6.53633 22.2557 6.75842 22.4567C6.9805 22.6576 7.10526 22.9301 7.10526 23.2143C7.10526 23.4984 6.9805 23.771 6.75842 23.9719C6.53633 24.1728 6.23513 24.2857 5.92105 24.2857C5.60698 24.2857 5.30577 24.1728 5.08369 23.9719C4.86161 23.771 4.73684 23.4984 4.73684 23.2143ZM30 22.1429C30 20.059 29.0851 18.0605 27.4565 16.587C25.8279 15.1135 23.619 14.2857 21.3158 14.2857C19.0126 14.2857 16.8037 15.1135 15.1751 16.587C13.5465 18.0605 12.6316 20.059 12.6316 22.1429C12.6316 24.2267 13.5465 26.2252 15.1751 27.6987C16.8037 29.1722 19.0126 30 21.3158 30C23.619 30 25.8279 29.1722 27.4565 27.6987C29.0851 26.2252 30 24.2267 30 22.1429ZM20.8737 22.74C20.7487 22.6652 20.6499 22.5599 20.5886 22.4362C20.5274 22.3125 20.5063 22.1756 20.5279 22.0414L20.5263 16.4286C20.5263 16.2391 20.6095 16.0574 20.7575 15.9235C20.9056 15.7895 21.1064 15.7143 21.3158 15.7143C21.5252 15.7143 21.726 15.7895 21.874 15.9235C22.0221 16.0574 22.1053 16.2391 22.1053 16.4286L22.1068 21.4286H26.0479C26.2573 21.4286 26.4581 21.5038 26.6061 21.6378C26.7542 21.7717 26.8374 21.9534 26.8374 22.1429C26.8374 22.3323 26.7542 22.514 26.6061 22.6479C26.4581 22.7819 26.2573 22.8571 26.0479 22.8571H21.4105C21.2219 22.8769 21.0316 22.8354 20.8737 22.74Z" fill="#444444"/>
</svg>
