<svg width="30" height="30" viewBox="0 0 30 30" fill="none" xmlns="http://www.w3.org/2000/svg">
<path d="M25.5 0H4.5C3.30653 0 2.16193 0.474099 1.31802 1.318C0.474106 2.1619 0 3.30648 0 4.49994V19.4997C0 20.6932 0.474106 21.8378 1.31802 22.6817C2.16193 23.5256 3.30653 23.9997 4.5 23.9997H21.885L27.435 29.5646C27.5752 29.7036 27.7414 29.8136 27.9241 29.8882C28.1069 29.9629 28.3026 30.0007 28.5 29.9996C28.6968 30.0047 28.892 29.9636 29.07 29.8796C29.3439 29.7671 29.5784 29.576 29.7439 29.3304C29.9094 29.0848 29.9985 28.7957 30 28.4996V4.49994C30 3.30648 29.5259 2.1619 28.682 1.318C27.8381 0.474099 26.6935 0 25.5 0ZM27 24.8847L23.565 21.4347C23.4248 21.2957 23.2586 21.1857 23.0759 21.111C22.8931 21.0364 22.6974 20.9986 22.5 20.9997H4.5C4.10218 20.9997 3.72064 20.8417 3.43934 20.5604C3.15804 20.2791 3 19.8975 3 19.4997V4.49994C3 4.10212 3.15804 3.72059 3.43934 3.43929C3.72064 3.15799 4.10218 2.99996 4.5 2.99996H25.5C25.8978 2.99996 26.2794 3.15799 26.5607 3.43929C26.842 3.72059 27 4.10212 27 4.49994V24.8847ZM15 14.9998C14.7033 14.9998 14.4133 15.0878 14.1666 15.2526C13.92 15.4174 13.7277 15.6517 13.6142 15.9258C13.5006 16.1998 13.4709 16.5014 13.5288 16.7924C13.5867 17.0834 13.7296 17.3506 13.9393 17.5604C14.1491 17.7702 14.4164 17.9131 14.7074 17.9709C14.9983 18.0288 15.2999 17.9991 15.574 17.8856C15.8481 17.772 16.0824 17.5798 16.2472 17.3331C16.412 17.0864 16.5 16.7964 16.5 16.4998C16.5 16.102 16.342 15.7204 16.0607 15.4391C15.7794 15.1578 15.3978 14.9998 15 14.9998ZM15 5.99992C14.6022 5.99992 14.2206 6.15795 13.9393 6.43925C13.658 6.72055 13.5 7.10208 13.5 7.4999V11.9998C13.5 12.3977 13.658 12.7792 13.9393 13.0605C14.2206 13.3418 14.6022 13.4998 15 13.4998C15.3978 13.4998 15.7794 13.3418 16.0607 13.0605C16.342 12.7792 16.5 12.3977 16.5 11.9998V7.4999C16.5 7.10208 16.342 6.72055 16.0607 6.43925C15.7794 6.15795 15.3978 5.99992 15 5.99992Z" fill="#444444"/>
</svg>
