<svg width="37" height="23" viewBox="0 0 37 23" fill="none" xmlns="http://www.w3.org/2000/svg">
<rect x="0.5" y="0.5" width="36" height="22" rx="2.5" stroke="#A6B7C8"/>
<g filter="url(#filter0_d_3145_7634)">
<path d="M13.3974 9.63636L14.0877 13.3097H14.1388L16.0394 9.63636H16.5934L14.2667 14H13.7212L12.8434 9.63636H13.3974ZM17.8015 9.63636L17.0771 14H16.5487L17.2731 9.63636H17.8015ZM21.0598 10.7614C21.0598 10.527 20.9824 10.3494 20.8276 10.2287C20.6728 10.1065 20.4632 10.0455 20.199 10.0455C20.0059 10.0455 19.8319 10.0767 19.677 10.1392C19.5222 10.2017 19.3958 10.2876 19.2978 10.397C19.1998 10.5064 19.1394 10.6307 19.1167 10.7699C19.0982 10.8864 19.1103 10.9865 19.1529 11.0703C19.1955 11.1527 19.2559 11.2216 19.334 11.277C19.4135 11.331 19.4988 11.3757 19.5897 11.4112C19.6806 11.4453 19.7644 11.473 19.8411 11.4943L20.2672 11.6136C20.3738 11.6435 20.4924 11.6847 20.623 11.7372C20.7537 11.7898 20.8759 11.8615 20.9895 11.9524C21.1032 12.0419 21.1898 12.157 21.2495 12.2976C21.3105 12.4382 21.324 12.6108 21.29 12.8153C21.2502 13.0511 21.1529 13.2642 20.998 13.4545C20.8446 13.6449 20.6415 13.7962 20.3887 13.9084C20.1373 14.0206 19.8439 14.0767 19.5087 14.0767C19.1962 14.0767 18.9334 14.0263 18.7203 13.9254C18.5087 13.8246 18.3525 13.6839 18.2516 13.5036C18.1522 13.3232 18.1138 13.1136 18.1365 12.875H18.682C18.6678 13.0398 18.7005 13.1761 18.78 13.2841C18.8596 13.3906 18.9703 13.4702 19.1124 13.5227C19.2544 13.5739 19.4121 13.5994 19.5854 13.5994C19.7871 13.5994 19.9732 13.5668 20.1436 13.5014C20.3155 13.4347 20.4576 13.3423 20.5698 13.2244C20.6834 13.1051 20.753 12.9659 20.7786 12.8068C20.8042 12.6619 20.7843 12.544 20.7189 12.4531C20.6536 12.3622 20.5591 12.2884 20.4355 12.2315C20.312 12.1747 20.1763 12.125 20.0286 12.0824L19.5172 11.929C19.1934 11.831 18.9469 11.6911 18.7779 11.5092C18.6103 11.3274 18.5499 11.0895 18.5968 10.7955C18.6394 10.5511 18.7424 10.3381 18.9057 10.1562C19.0691 9.97301 19.2715 9.83097 19.513 9.73011C19.7544 9.62784 20.0144 9.5767 20.2928 9.5767C20.574 9.5767 20.8148 9.62784 21.0151 9.73011C21.2154 9.83097 21.3645 9.97088 21.4625 10.1499C21.5605 10.3274 21.5968 10.5312 21.5712 10.7614H21.0598ZM22.1417 14H21.5877L23.9144 9.63636H24.4599L25.3377 14H24.7837L24.0934 10.3267H24.0593L22.1417 14ZM22.6275 12.2955H24.8604L24.7837 12.7642H22.5508L22.6275 12.2955Z" fill="#315881"/>
</g>
<path d="M1 3C1 1.89543 1.89543 1 3 1H34C35.1046 1 36 1.89543 36 3V8H1V3Z" fill="#315881"/>
<path d="M36.004 20.1035C36.0018 21.2081 35.1046 22.1017 34 22.0995L3.00007 22.0371C1.8955 22.0349 1.00187 21.1377 1.00409 20.0331L1.01411 15.0539L36.014 15.1243L36.004 20.1035Z" fill="#DFA43B"/>
<defs>
<filter id="filter0_d_3145_7634" x="12.8438" y="8.57715" width="14.4922" height="6.5" filterUnits="userSpaceOnUse" color-interpolation-filters="sRGB">
<feFlood flood-opacity="0" result="BackgroundImageFix"/>
<feColorMatrix in="SourceAlpha" type="matrix" values="0 0 0 0 0 0 0 0 0 0 0 0 0 0 0 0 0 0 127 0" result="hardAlpha"/>
<feOffset dx="1"/>
<feGaussianBlur stdDeviation="0.5"/>
<feComposite in2="hardAlpha" operator="out"/>
<feColorMatrix type="matrix" values="0 0 0 0 0.192157 0 0 0 0 0.345098 0 0 0 0 0.505882 0 0 0 0.25 0"/>
<feBlend mode="normal" in2="BackgroundImageFix" result="effect1_dropShadow_3145_7634"/>
<feBlend mode="normal" in="SourceGraphic" in2="effect1_dropShadow_3145_7634" result="shape"/>
</filter>
</defs>
</svg>
