<svg width="35" height="35" viewBox="0 0 35 35" fill="none" xmlns="http://www.w3.org/2000/svg">
<g id="mdi:generator-stationary">
<path id="Vector" d="M8.75521 4.375C7.98166 4.375 7.23979 4.68229 6.69281 5.22927C6.14583 5.77625 5.83854 6.51812 5.83854 7.29167V23.3333H8.75521V24.7917C8.75521 25.5938 9.41146 26.25 10.2135 26.25H11.6719C12.474 26.25 13.1302 25.5938 13.1302 24.7917V23.3333H21.8802V24.7917C21.8802 25.5938 22.5365 26.25 23.3385 26.25H24.7969C25.599 26.25 26.2552 25.5938 26.2552 24.7917V23.3333H29.1719V7.29167C29.1719 6.51812 28.8646 5.77625 28.3176 5.22927C27.7706 4.68229 27.0288 4.375 26.2552 4.375H8.75521ZM17.5052 10.2083V7.29167H26.2552V10.2083H17.5052ZM17.5052 13.125H26.2552V16.0417H17.5052V13.125ZM11.6719 7.29167V13.125H14.5885L10.2135 21.875V16.0417H7.29688L11.6719 7.29167ZM32.0885 29.1667V32.0833H2.92188V29.1667H32.0885Z" fill="#909394"/>
</g>
</svg>
