<svg width="38" height="32" viewBox="0 0 38 32" fill="none" xmlns="http://www.w3.org/2000/svg">
<g id="Group">
<path id="Vector" d="M19 1H35.45C35.5879 1 35.7244 1.03326 35.8518 1.09787C35.9792 1.16248 36.095 1.25719 36.1925 1.37658C36.29 1.49597 36.3673 1.6377 36.4201 1.79369C36.4728 1.94968 36.5 2.11687 36.5 2.28571V29.7143C36.5 29.8831 36.4728 30.0503 36.4201 30.2063C36.3673 30.3623 36.29 30.504 36.1925 30.6234C36.095 30.7428 35.9792 30.8375 35.8518 30.9021C35.7244 30.9667 35.5879 31 35.45 31H19M19 1H2.55C2.27152 1 2.00445 1.13546 1.80754 1.37658C1.61062 1.6177 1.5 1.94472 1.5 2.28571V29.7143C1.5 30.0553 1.61062 30.3823 1.80754 30.6234C2.00445 30.8645 2.27152 31 2.55 31H19M19 1V31" stroke="#909394" stroke-width="1.5"/>
<path id="Vector_2" d="M1.5 25.2233C3.82064 25.2233 6.04624 24.2908 7.68718 22.631C9.32813 20.9711 10.25 18.7198 10.25 16.3724C10.25 14.025 9.32813 11.7737 7.68718 10.1139C6.04624 8.45399 3.82064 7.52148 1.5 7.52148M36.5 25.2233C34.1794 25.2233 31.9538 24.2908 30.3128 22.631C28.6719 20.9711 27.75 18.7198 27.75 16.3724C27.75 14.025 28.6719 11.7737 30.3128 10.1139C31.9538 8.45399 34.1794 7.52148 36.5 7.52148M19 21.683C17.6076 21.683 16.2723 21.1235 15.2877 20.1275C14.3031 19.1316 13.75 17.7809 13.75 16.3724C13.75 14.964 14.3031 13.6132 15.2877 12.6173C16.2723 11.6214 17.6076 11.0619 19 11.0619C20.3924 11.0619 21.7277 11.6214 22.7123 12.6173C23.6969 13.6132 24.25 14.964 24.25 16.3724C24.25 17.7809 23.6969 19.1316 22.7123 20.1275C21.7277 21.1235 20.3924 21.683 19 21.683Z" stroke="#909394" stroke-width="1.5" stroke-linecap="round" stroke-linejoin="round"/>
</g>
</svg>
