<svg width="35" height="35" viewBox="0 0 35 35" fill="none" xmlns="http://www.w3.org/2000/svg">
<g id="mdi:land-plots-circle">
<path id="Vector" d="M29.1719 2.91797H5.83854C4.23437 2.91797 2.92188 4.23047 2.92188 5.83464V29.168C2.92188 30.7721 4.23437 32.0846 5.83854 32.0846H29.1719C30.776 32.0846 32.0885 30.7721 32.0885 29.168V5.83464C32.0885 4.23047 30.776 2.91797 29.1719 2.91797ZM18.9635 10.9388C18.9635 8.16797 21.2969 5.83464 24.0677 5.83464C26.8385 5.83464 29.1719 8.16797 29.1719 10.9388C29.1719 13.7096 26.8385 16.043 24.0677 16.043C21.2969 16.043 18.9635 13.7096 18.9635 10.9388ZM5.83854 5.83464H16.0469V16.043H5.83854V5.83464ZM5.83854 29.168V18.9596H16.0469V29.168H5.83854ZM29.1719 29.168H18.9635V18.9596H29.1719V29.168Z" fill="#909394"/>
</g>
</svg>
