<svg width="35" height="35" viewBox="0 0 35 35" fill="none" xmlns="http://www.w3.org/2000/svg">
<g id="medical-icon:i-waiting-area">
<path id="Vector" d="M26.5758 18.2771L17.4419 16.7743L18.7522 15.8413L20.9457 16.1448L23.1365 15.8413L26.5758 18.2771ZM20.9457 1.01609C21.3811 1.01609 21.8123 1.10188 22.2146 1.26855C22.6169 1.43522 22.9824 1.67951 23.2903 1.98747C23.5981 2.29542 23.8423 2.66101 24.0088 3.06335C24.1754 3.46569 24.261 3.8969 24.2609 4.33234C24.2609 6.16437 23.0933 7.64859 20.9457 7.64859C20.5051 7.6566 20.0674 7.57673 19.658 7.41367C19.2487 7.2506 18.8759 7.00761 18.5615 6.69887C18.2471 6.39014 17.9974 6.02185 17.8269 5.61553C17.6565 5.2092 17.5687 4.77298 17.5687 4.33234C17.5687 3.89171 17.6565 3.45549 17.8269 3.04916C17.9974 2.64284 18.2471 2.27455 18.5615 1.96582C18.8759 1.65708 19.2487 1.41408 19.658 1.25102C20.0674 1.08796 20.5051 1.00809 20.9457 1.01609ZM21.7709 24.9834V32.9979C21.7709 33.4781 21.9617 33.9387 22.3013 34.2783C22.6409 34.6178 23.1014 34.8086 23.5816 34.8086C24.0619 34.8086 24.5224 34.6178 24.862 34.2783C25.2016 33.9387 25.3923 33.4781 25.3923 32.9979V24.9834C25.3807 24.5109 25.1849 24.0616 24.8466 23.7316C24.5082 23.4015 24.0543 23.2167 23.5816 23.2167C23.109 23.2167 22.655 23.4015 22.3167 23.7316C21.9784 24.0616 21.7826 24.5109 21.7709 24.9834ZM32.8627 29.5591C32.8625 29.8376 32.752 30.1046 32.5552 30.3016C32.3585 30.4987 32.0916 30.6097 31.8132 30.6102H26.2613V25.3624H28.6627V20.1179C28.6627 19.5404 29.1335 19.069 29.7116 19.069H31.8132C32.3907 19.069 32.8627 19.5398 32.8627 20.1179V29.5591ZM20.9047 30.6097H10.1263C9.98835 30.6097 9.85172 30.5825 9.72426 30.5297C9.59679 30.4768 9.48099 30.3994 9.38348 30.3018C9.28596 30.2041 9.20864 30.0883 9.15594 29.9607C9.10324 29.8332 9.07618 29.6966 9.07633 29.5586V20.1173C9.07662 19.8391 9.18737 19.5723 9.38425 19.3756C9.58113 19.1789 9.84804 19.0684 10.1263 19.0684H12.2269C12.806 19.0684 13.2769 19.5393 13.2769 20.1173V25.3619H20.9047V30.6097ZM15.2292 19.2866C15.1513 19.7604 15.2647 20.2458 15.5444 20.6361C15.8242 21.0264 16.2474 21.2896 16.7211 21.368L24.6284 22.6713C25.1021 22.7487 25.5873 22.6349 25.9773 22.355C26.3673 22.0751 26.6304 21.6519 26.7087 21.1783C26.7475 20.9437 26.7396 20.7039 26.6856 20.4724C26.6316 20.2409 26.5325 20.0223 26.3939 19.8291C26.2554 19.6359 26.0801 19.472 25.8781 19.3466C25.6761 19.2213 25.4514 19.137 25.2168 19.0985L17.3095 17.7942C16.8358 17.7168 16.3508 17.8304 15.9608 18.1102C15.5708 18.39 15.3077 18.8131 15.2292 19.2866ZM6.31133 9.36086C3.73117 9.36086 1.63281 7.2625 1.63281 4.6807C1.63281 2.09891 3.73117 0 6.31133 0C8.89148 0 10.9926 2.09945 10.9926 4.6807C10.9926 7.2625 8.89148 9.36086 6.31133 9.36086ZM6.31133 8.20258C7.24523 8.20142 8.14055 7.82996 8.80097 7.16964C9.46139 6.50932 9.83299 5.61406 9.8343 4.68016C9.8343 2.7393 8.25219 1.15773 6.31133 1.15773C4.36883 1.15773 2.79055 2.7393 2.79055 4.68016C2.79113 5.6139 3.1622 6.50926 3.8223 7.16967C4.4824 7.83008 5.37759 8.20156 6.31133 8.20258Z" fill="#909394"/>
<path id="Vector_2" d="M6.33469 5.29909C6.28108 5.32372 6.2221 5.33433 6.16328 5.32993C6.10445 5.32553 6.0477 5.30626 5.99836 5.27394C5.95633 5.24701 5.92054 5.21142 5.89338 5.16954C5.86622 5.12767 5.84831 5.08048 5.84086 5.03112L5.83594 2.31097C5.83952 2.22004 5.87817 2.13402 5.94377 2.07095C6.00938 2.00788 6.09685 1.97266 6.18785 1.97266C6.27885 1.97266 6.36633 2.00788 6.43193 2.07095C6.49754 2.13402 6.53618 2.22004 6.53977 2.31097V4.42136L8.34391 3.57152C8.38562 3.5516 8.43085 3.54012 8.477 3.53773C8.52316 3.53534 8.56934 3.54209 8.61288 3.55759C8.65642 3.57308 8.69648 3.59703 8.73075 3.62804C8.76502 3.65905 8.79283 3.69653 8.81258 3.73831C8.85227 3.82275 8.85689 3.91948 8.82542 4.00732C8.79395 4.09516 8.72897 4.16695 8.64469 4.20698L6.33469 5.29855V5.29909ZM20.945 10.2871L25.244 9.58714V12.6092L27.3664 14.2055C27.5704 14.4111 27.4878 14.6452 27.4397 14.7114C27.382 14.7881 27.2963 14.8389 27.2013 14.8526C27.1063 14.8663 27.0098 14.8419 26.9327 14.7846L24.2541 12.7601C23.9873 12.5798 23.6604 12.5112 23.3436 12.5691C23.0268 12.6271 22.7454 12.807 22.5597 13.0701C22.374 13.3332 22.2989 13.6587 22.3505 13.9766C22.402 14.2945 22.5762 14.5795 22.8355 14.7704L27.4123 17.985C27.6251 18.1348 27.9275 18.2371 28.2288 18.2371C28.4859 18.2371 28.7883 18.1304 29.0136 17.9707C29.4937 17.6295 29.6704 17.0241 29.5074 16.4663L27.8077 11.4438C27.3538 10.1958 26.2092 8.72691 24.4898 8.72691H17.3996C15.6808 8.72691 14.5362 10.1958 14.0817 11.4438L12.382 16.4663C12.2185 17.0241 12.3963 17.63 12.8764 17.9707C13.1001 18.1304 13.4036 18.2371 13.6595 18.2371C13.9625 18.2371 14.2655 18.1353 14.4777 17.985L19.0545 14.7704C19.3138 14.5795 19.488 14.2945 19.5395 13.9766C19.5911 13.6587 19.516 13.3332 19.3303 13.0701C19.1446 12.807 18.8632 12.6271 18.5464 12.5691C18.2296 12.5112 17.9027 12.5798 17.6359 12.7601L14.9556 14.7846C14.8787 14.8417 14.7824 14.866 14.6876 14.8523C14.5928 14.8386 14.5073 14.7879 14.4498 14.7114C14.4012 14.6318 14.3818 14.5378 14.395 14.4455C14.4081 14.3532 14.453 14.2683 14.522 14.2055C14.522 14.2055 15.9613 13.1243 16.6455 12.6092V9.58714L20.945 10.2877V10.2871Z" fill="#909394"/>
</g>
</svg>
