<svg width="36" height="30" viewBox="0 0 36 30" fill="none" xmlns="http://www.w3.org/2000/svg">
<path id="Vector" d="M34.31 0L18.3165 5.61738V0.0674086L1.06875 6.12454V22.2143L15.9438 16.9853V22.508L35.5 15.6468L30.2004 9.94917L34.31 0ZM15.9467 3.65129V14.2312L3.45313 18.6176V8.03766L15.9467 3.65129ZM30.0677 4.24032L27.3698 10.4997L31.0769 14.4591L18.3165 18.9386V8.3731L30.0677 4.24032ZM3.03896 24.4099C1.64188 24.4099 0.5 25.6666 0.5 27.2042C0.5 28.7433 1.64188 30 3.03896 30C3.71253 30 4.3585 29.7055 4.83479 29.1813C5.31107 28.6572 5.57865 27.9462 5.57865 27.205C5.57865 26.4637 5.31107 25.7527 4.83479 25.2286C4.3585 24.7044 3.71253 24.4099 3.03896 24.4099Z" fill="#909394"/>
</svg>
