<svg width="35" height="35" viewBox="0 0 35 35" fill="none" xmlns="http://www.w3.org/2000/svg">
<g id="game-icons:stone-path">
<path id="Vector" d="M10.8588 1.23047C10.2846 2.60654 9.30021 5.06885 8.39103 7.78613L10.3666 7.84766C10.7016 6.05801 11.4535 4.34902 12.2465 2.58262L12.7182 1.23047H10.8588ZM14.0238 1.23047L13.4565 2.85195L16.6488 3.56016L21.2016 3.04951C21.8578 2.31943 21.8373 1.7042 22.0014 1.23047H14.0238ZM13.0463 4.02158C12.1235 5.22813 11.85 6.54746 11.6996 7.88867L14.5844 7.97754L16.0268 7.95703C15.9584 6.87695 15.9516 5.80371 16.3549 4.7585L13.0463 4.02158ZM20.6684 4.34834L17.599 4.69219C17.2436 5.77363 17.182 6.85645 17.2709 7.93652L19.3969 7.90918C20.1625 6.76006 20.436 5.49199 20.6684 4.34834ZM8.00139 9.00293C7.22892 9.46777 7.21525 10.2949 7.35881 11.1973C9.53947 12.0039 11.2416 12.1543 13.4565 12.3867C13.4496 11.3203 13.3471 10.2471 13.7094 9.18066L8.00139 9.00293ZM19.0346 9.14648C17.6879 9.30371 16.3412 9.42676 14.9467 9.20117L14.6801 12.5371C16.6488 12.5029 17.5717 12.9062 18.2621 13.043C18.3783 11.8193 18.6586 10.4795 19.0346 9.14648ZM7.05803 12.3867C6.2548 14.3281 6.04904 16.2354 6.44689 18.0674L9.28654 16.3447L10.0453 13.1865L7.05803 12.3867ZM11.2758 13.3301L10.476 16.6387L15.8969 19.0586L19.4311 19.1816C18.8227 17.4727 18.2553 15.9277 18.2143 14.2734C15.9037 13.7402 13.5863 13.2891 11.2758 13.3301ZM9.59416 17.5889L6.5631 19.4346C6.69982 20.6924 6.91447 22.0391 7.18791 23.3926L14.4613 19.7627L9.59416 17.5889ZM16.5053 20.3096L17.2026 24.8281C18.8774 25.0879 20.1215 24.5615 21.5297 24.3428L21.6049 23.5225C21.017 22.4971 20.4633 21.458 19.9848 20.4258L16.5053 20.3096ZM14.7416 20.959L8.65764 24.0283L12.7045 25.334C13.9828 25.6553 15.1586 25.3887 15.9789 24.9648C15.8832 23.5908 15.7192 22.0391 14.7416 20.959ZM7.51603 24.958C6.51525 25.2178 8.1381 31.2676 9.0883 31.0215L13.3471 29.6406L11.9799 26.4004L7.51603 24.958ZM22.685 25.3271C22.7328 26.7832 22.6987 28.1982 22.3158 29.415C22.9926 29.8594 25.6654 30.3857 26.2533 30.543C25.8637 28.6289 24.3529 26.9609 22.685 25.3271ZM21.4203 25.5869C18.8022 26.0723 16.2113 26.6191 13.3608 26.4961L14.5229 29.2578L17.6879 28.2256C18.5697 28.6768 20.0737 28.9229 21.099 29.1895C21.4545 27.9863 21.4477 26.79 21.4203 25.5869ZM17.2094 29.6748C14.7348 30.7822 12.1508 31.6367 9.43693 32.2109C8.6508 32.751 9.33439 33.6191 9.92228 33.7695H20.0805L17.2094 29.6748ZM18.8432 29.873L21.5844 33.7695H28.7553C28.3998 33.332 27.9692 32.7988 27.4496 32.1289L18.8432 29.873Z" fill="#909394"/>
</g>
</svg>
