<svg width="35" height="35" viewBox="0 0 35 35" fill="none" xmlns="http://www.w3.org/2000/svg">
<g id="pepicons-pop:electricity-circle" clip-path="url(#clip0_1703_11864)">
<g id="Group">
<path id="Vector" fill-rule="evenodd" clip-rule="evenodd" d="M24.2295 14.8074H20.117L22.7743 8.60701C22.8621 8.40226 22.8977 8.17894 22.8779 7.95706C22.8581 7.73518 22.7836 7.52167 22.6609 7.33569C22.5383 7.14971 22.3715 6.99706 22.1754 6.89143C21.9792 6.7858 21.76 6.73049 21.5372 6.73047H14.8064C14.5428 6.73023 14.2849 6.80742 14.0647 6.95244C13.8446 7.09746 13.6718 7.30393 13.568 7.54624L9.5295 16.9693C9.44169 17.1742 9.40611 17.3976 9.42596 17.6196C9.44582 17.8416 9.52048 18.0552 9.64324 18.2412C9.76601 18.4272 9.93304 18.5798 10.1293 18.6854C10.3257 18.7909 10.5451 18.8461 10.768 18.8459H13.1022L9.51874 27.7668C8.98027 29.1062 10.6428 30.2383 11.6914 29.2476L18.4545 22.8641L25.1045 17.1766C26.0549 16.3635 25.4801 14.8074 24.2295 14.8074ZM16.8391 15.6232C16.7514 15.8278 16.7158 16.051 16.7355 16.2728C16.7552 16.4945 16.8297 16.708 16.9521 16.8939C17.0746 17.0799 17.2412 17.2325 17.4372 17.3383C17.6331 17.444 17.8522 17.4995 18.0749 17.4997H20.5841L16.6534 20.8624L14.3003 23.0835L16.3424 18.0018C16.4245 17.7976 16.4553 17.5764 16.432 17.3575C16.4088 17.1387 16.3322 16.9288 16.2091 16.7464C16.0859 16.564 15.9199 16.4146 15.7256 16.3112C15.5313 16.2079 15.3146 16.1537 15.0945 16.1535H12.8101L15.6935 9.42278H19.4951L16.8378 15.6232H16.8391Z" fill="#909394"/>
<path id="Vector_2" fill-rule="evenodd" clip-rule="evenodd" d="M17.5 32.3077C25.6779 32.3077 32.3077 25.6779 32.3077 17.5C32.3077 9.32212 25.6779 2.69231 17.5 2.69231C9.32212 2.69231 2.69231 9.32212 2.69231 17.5C2.69231 25.6779 9.32212 32.3077 17.5 32.3077ZM17.5 35C27.1654 35 35 27.1654 35 17.5C35 7.83462 27.1654 0 17.5 0C7.83462 0 0 7.83462 0 17.5C0 27.1654 7.83462 35 17.5 35Z" fill="#909394"/>
</g>
</g>
<defs>
<clipPath id="clip0_1703_11864">
<rect width="35" height="35" fill="white"/>
</clipPath>
</defs>
</svg>
