<svg width="35" height="35" viewBox="0 0 35 35" fill="none" xmlns="http://www.w3.org/2000/svg">
<g id="ph:park-light">
<path id="Vector" d="M31.7188 26.5236H27.0703V22.6955H30.625C30.7497 22.6955 30.8728 22.6671 30.9849 22.6124C31.097 22.5577 31.1951 22.4781 31.2718 22.3798C31.3485 22.2814 31.4018 22.1669 31.4276 22.0449C31.4534 21.9229 31.4511 21.7966 31.4207 21.6756L27.0457 4.17558C27.0012 3.9982 26.8988 3.84077 26.7546 3.72828C26.6105 3.61579 26.4329 3.55469 26.25 3.55469C26.0671 3.55469 25.8895 3.61579 25.7454 3.72828C25.6012 3.84077 25.4988 3.9982 25.4543 4.17558L21.0793 21.6756C21.0489 21.7966 21.0466 21.9229 21.0724 22.0449C21.0982 22.1669 21.1515 22.2814 21.2282 22.3798C21.3049 22.4781 21.403 22.5577 21.5151 22.6124C21.6272 22.6671 21.7503 22.6955 21.875 22.6955H25.4297V26.5236H16.1328V23.7892H17.5C17.7176 23.7892 17.9262 23.7028 18.08 23.549C18.2339 23.3951 18.3203 23.1865 18.3203 22.9689C18.3203 22.7514 18.2339 22.5427 18.08 22.3889C17.9262 22.2351 17.7176 22.1486 17.5 22.1486H16.1328V19.4143H17.5C17.7176 19.4143 17.9262 19.3278 18.08 19.174C18.2339 19.0201 18.3203 18.8115 18.3203 18.5939C18.3203 18.3764 18.2339 18.1677 18.08 18.0139C17.9262 17.8601 17.7176 17.7736 17.5 17.7736H5.46875C5.25119 17.7736 5.04254 17.8601 4.8887 18.0139C4.73486 18.1677 4.64844 18.3764 4.64844 18.5939C4.64844 18.8115 4.73486 19.0201 4.8887 19.174C5.04254 19.3278 5.25119 19.4143 5.46875 19.4143H6.83594V22.1486H5.46875C5.25119 22.1486 5.04254 22.2351 4.8887 22.3889C4.73486 22.5427 4.64844 22.7514 4.64844 22.9689C4.64844 23.1865 4.73486 23.3951 4.8887 23.549C5.04254 23.7028 5.25119 23.7892 5.46875 23.7892H6.83594V26.5236H3.28125C3.06369 26.5236 2.85504 26.6101 2.7012 26.7639C2.54736 26.9177 2.46094 27.1264 2.46094 27.3439C2.46094 27.5615 2.54736 27.7701 2.7012 27.924C2.85504 28.0778 3.06369 28.1642 3.28125 28.1642H31.7188C31.9363 28.1642 32.145 28.0778 32.2988 27.924C32.4526 27.7701 32.5391 27.5615 32.5391 27.3439C32.5391 27.1264 32.4526 26.9177 32.2988 26.7639C32.145 26.6101 31.9363 26.5236 31.7188 26.5236ZM26.25 7.75761L29.575 21.0549H22.925L26.25 7.75761ZM8.47656 19.4143H14.4922V22.1486H8.47656V19.4143ZM8.47656 23.7892H14.4922V26.5236H8.47656V23.7892ZM15.8594 12.8518C16.5624 12.8518 17.2497 12.6433 17.8343 12.2527C18.4188 11.8621 18.8744 11.3069 19.1435 10.6574C19.4125 10.0078 19.4829 9.29312 19.3458 8.60358C19.2086 7.91404 18.8701 7.28065 18.3729 6.78352C17.8758 6.28639 17.2424 5.94784 16.5529 5.81068C15.8633 5.67352 15.1486 5.74391 14.4991 6.01296C13.8495 6.28201 13.2944 6.73762 12.9038 7.32218C12.5132 7.90675 12.3047 8.59401 12.3047 9.29706C12.3047 10.2398 12.6792 11.144 13.3458 11.8106C14.0125 12.4772 14.9166 12.8518 15.8594 12.8518ZM15.8594 7.383C16.2379 7.383 16.608 7.49526 16.9228 7.70558C17.2375 7.9159 17.4829 8.21483 17.6277 8.56458C17.7726 8.91433 17.8105 9.29919 17.7367 9.67048C17.6628 10.0418 17.4805 10.3828 17.2128 10.6505C16.9451 10.9182 16.6041 11.1005 16.2328 11.1743C15.8615 11.2482 15.4766 11.2103 15.1269 11.0654C14.7771 10.9206 14.4782 10.6752 14.2679 10.3605C14.0576 10.0457 13.9453 9.67563 13.9453 9.29706C13.9453 8.78942 14.147 8.30257 14.5059 7.94362C14.8649 7.58466 15.3517 7.383 15.8594 7.383Z" fill="#909394"/>
</g>
</svg>
