<svg width="35" height="35" viewBox="0 0 35 35" fill="none" xmlns="http://www.w3.org/2000/svg">
<g id="wpf:maintenance" clip-path="url(#clip0_1703_11851)">
<path id="Vector" d="M1.7675 0L0 1.7675L3.11365 7.15211L5.13288 6.85596L17.4583 19.1827L16.4069 20.1923C15.8685 20.7308 15.8685 21.5465 16.4069 22.085L16.9535 22.6329C17.4919 23.1713 18.3158 23.1713 18.7196 22.6329L20.3188 24.2308C20.1842 25.0385 20.3188 25.9983 20.9919 26.6713L28.2692 33.9069C29.75 35.3877 32.1731 35.3877 33.6538 33.9069C35.4038 32.2915 35.3877 29.8765 33.9069 28.3958L26.6713 21.1171C25.9983 20.444 25.0385 20.1748 24.2308 20.444L22.4633 18.8462C22.8671 18.3077 22.8671 17.4838 22.4633 17.0787L21.9585 16.5752C21.8361 16.4476 21.6892 16.346 21.5265 16.2767C21.3639 16.2073 21.1889 16.1715 21.0121 16.1715C20.8353 16.1715 20.6603 16.2073 20.4977 16.2767C20.3351 16.346 20.1881 16.4476 20.0658 16.5752L19.1827 17.4583L6.85731 5.13288L7.15077 3.11365L1.7675 0ZM28.0175 0.0417308C25.3615 -0.179038 21.84 1.58173 20.1923 3.11231C18.165 5.13962 18.4962 7.79019 20.1075 10.3492L17.2483 13.2098L19.2675 15.4808C20.3444 14.5385 21.9329 14.5385 23.0098 15.4808L23.5577 16.0273L23.6842 16.1538L24.8621 14.976C27.296 16.4069 29.8294 16.6129 31.7612 14.6812C33.6458 12.9312 35.6892 8.61538 34.7469 6.05769L30.9615 9.96961C30.4231 10.5081 29.6073 10.5081 29.0688 9.96961L25.1556 6.05769C25.028 5.93532 24.9264 5.7884 24.857 5.62576C24.7877 5.46313 24.7519 5.28815 24.7519 5.11135C24.7519 4.93454 24.7877 4.75956 24.857 4.59693C24.9264 4.4343 25.028 4.28737 25.1556 4.165L29.0702 0.253077C28.7337 0.134615 28.3971 0.0740385 28.0175 0.0417308ZM13.2098 16.8269L8.32865 21.7067C7.80413 21.5902 7.26806 21.5337 6.73077 21.5385C2.96154 21.5385 0 24.5 0 28.2692C0 32.0385 2.96154 35 6.73077 35C10.5 35 13.4615 32.0385 13.4615 28.2692C13.4615 27.5787 13.3525 26.915 13.1667 26.2917L16.0273 23.4312L15.6073 22.8846C14.5304 21.8077 14.5385 20.1762 15.4808 19.0979L13.2098 16.8269ZM23.6425 22.9694C23.8108 22.9694 23.9696 23.0017 24.1042 23.1377L32.056 31.0881C32.3252 31.3573 32.3252 31.7854 32.056 32.0546C31.7867 32.3238 31.356 32.3238 31.0867 32.0546L23.1377 24.1042C22.8685 23.835 22.8685 23.4069 23.1377 23.1377C23.2723 23.0031 23.4742 22.9694 23.6425 22.9694ZM7.65692 24.776L10.2227 27.3431L9.29654 30.8337L5.80596 31.7598L3.23885 29.1927L4.165 25.7021L7.65692 24.776Z" fill="#909394"/>
</g>
<defs>
<clipPath id="clip0_1703_11851">
<rect width="35" height="35" fill="white"/>
</clipPath>
</defs>
</svg>
