<svg width="35" height="35" viewBox="0 0 35 35" fill="none" xmlns="http://www.w3.org/2000/svg">
<g id="fluent:building-mosque-48-regular">
<path id="Vector" d="M6.20312 11.1198C6.20312 10.8781 6.1071 10.6462 5.93616 10.4753C5.76523 10.3044 5.5334 10.2084 5.29167 10.2084C5.04993 10.2084 4.8181 10.3044 4.64717 10.4753C4.47624 10.6462 4.38021 10.8781 4.38021 11.1198V28.9844C4.38021 29.4195 4.55306 29.8368 4.86074 30.1445C5.16841 30.4522 5.58571 30.625 6.02083 30.625H28.9896C29.4247 30.625 29.842 30.4522 30.1497 30.1445C30.4574 29.8368 30.6302 29.4195 30.6302 28.9844V11.1198C30.6302 10.8781 30.5342 10.6462 30.3632 10.4753C30.1923 10.3044 29.9605 10.2084 29.7187 10.2084C29.477 10.2084 29.2452 10.3044 29.0742 10.4753C28.9033 10.6462 28.8073 10.8781 28.8073 11.1198V18.9584H25.4619C25.9863 17.8146 26.257 16.5708 26.2552 15.3125C26.2552 13.9504 25.6405 12.7254 24.8363 11.6995C24.0291 10.6692 22.9754 9.76721 21.959 9.03148C21.0654 8.3907 20.1313 7.80834 19.1626 7.28804C18.7498 7.06537 18.3309 6.85432 17.9062 6.65512L17.8866 6.64637L17.8807 6.64346L17.8778 6.642C17.7606 6.58959 17.6336 6.5625 17.5052 6.5625C17.3768 6.5625 17.2498 6.58959 17.1326 6.642L17.1297 6.64346L17.1239 6.64637L17.1042 6.65512L17.032 6.68867C16.97 6.71783 16.881 6.7594 16.7695 6.81408C16.5449 6.92346 16.2277 7.08315 15.8478 7.28804C14.8791 7.80834 13.945 8.3907 13.0515 9.03148C12.035 9.76794 10.9806 10.6692 10.1742 11.6995C9.3699 12.7254 8.75521 13.9504 8.75521 15.3125C8.75521 16.6134 9.03958 17.8486 9.54854 18.9584H6.20312V11.1198ZM23.3969 18.9584H11.6135C10.9346 17.8637 10.5759 16.6007 10.5781 15.3125C10.5781 14.5104 10.9427 13.6734 11.6092 12.8239C12.2712 11.978 13.1769 11.1905 14.1204 10.508C14.949 9.91417 15.8151 9.37444 16.7133 8.89221C17.0342 8.7194 17.3047 8.58158 17.5052 8.48315C18.6875 9.06343 19.8196 9.74071 20.89 10.508C21.8328 11.1905 22.7392 11.978 23.4012 12.8239C24.0677 13.6734 24.4323 14.5104 24.4323 15.3125C24.4343 16.6006 24.0757 17.8636 23.3969 18.9584ZM28.8073 28.8021H21.151V26.25C21.151 25.2831 20.7669 24.3558 20.0832 23.672C19.3995 22.9883 18.4721 22.6042 17.5052 22.6042C16.5383 22.6042 15.6109 22.9883 14.9272 23.672C14.2435 24.3558 13.8594 25.2831 13.8594 26.25V28.8021H6.20312V20.7813H28.8073V28.8021ZM19.3281 28.8021H15.6823V26.25C15.6823 25.7666 15.8743 25.3029 16.2162 24.961C16.5581 24.6192 17.0217 24.4271 17.5052 24.4271C17.9887 24.4271 18.4523 24.6192 18.7942 24.961C19.1361 25.3029 19.3281 25.7666 19.3281 26.25V28.8021ZM5.29167 9.1146C5.63009 9.1146 5.95466 8.98016 6.19396 8.74086C6.43327 8.50156 6.56771 8.17699 6.56771 7.83856C6.56771 7.50014 6.43327 7.17557 6.19396 6.93626C5.95466 6.69696 5.63009 6.56252 5.29167 6.56252C4.95324 6.56252 4.62867 6.69696 4.38937 6.93626C4.15006 7.17557 4.01562 7.50014 4.01562 7.83856C4.01562 8.17699 4.15006 8.50156 4.38937 8.74086C4.62867 8.98016 4.95324 9.1146 5.29167 9.1146ZM30.9948 7.83856C30.9948 8.17699 30.8604 8.50156 30.621 8.74086C30.3817 8.98016 30.0572 9.1146 29.7187 9.1146C29.3803 9.1146 29.0558 8.98016 28.8165 8.74086C28.5771 8.50156 28.4427 8.17699 28.4427 7.83856C28.4427 7.50014 28.5771 7.17557 28.8165 6.93626C29.0558 6.69696 29.3803 6.56252 29.7187 6.56252C30.0572 6.56252 30.3817 6.69696 30.621 6.93626C30.8604 7.17557 30.9948 7.50014 30.9948 7.83856ZM17.8807 6.64273L17.9062 6.65512L17.8778 6.642L17.8866 6.64637" fill="#909394"/>
</g>
</svg>
