<svg width="36" height="35" viewBox="0 0 36 35" fill="none" xmlns="http://www.w3.org/2000/svg">
<g id="medical-icon:i-imaging-alternative-pet">
<path id="Vector" d="M30.0321 29.7915C30.4809 29.2362 30.7795 28.5717 30.8987 27.8636C31.0178 27.1554 30.9534 26.428 30.7116 25.7528L30.2448 24.448H33.0604V0.324219H2.5V24.448H18.9349L20.7264 29.4475C20.9681 30.1226 21.3793 30.722 21.9191 31.1862C22.4589 31.6504 23.1087 31.9635 23.8042 32.0944L24.5931 34.7593H31.8332L30.0321 29.7926V29.7915ZM29.1323 21.3773L28.463 19.5294L27.4717 16.7545C27.1127 16.8869 26.7829 17.0899 26.5012 17.3518C26.2195 17.6137 25.9913 17.9294 25.8299 18.281C25.6684 18.6325 25.5767 19.0129 25.5601 19.4004C25.5435 19.7879 25.6022 20.175 25.733 20.5395L26.8202 23.5527H3.38146V1.22109H32.1795V23.5527H29.919L29.1323 21.3773Z" fill="#909394"/>
<path id="Vector_2" d="M12.2709 10.6612C11.7152 11.1315 10.9204 11.3672 9.88819 11.3672H7.91042V14.8366H5.9375V5.18805H10.0169C10.9576 5.18805 11.7066 5.43742 12.266 5.93453C12.8255 6.43273 13.105 7.20273 13.105 8.24508C13.105 9.38531 12.8266 10.1892 12.2709 10.6612ZM10.7557 7.18414C10.5042 6.97031 10.1515 6.86313 9.69865 6.86313H7.91042V9.70523H9.69865C10.1515 9.70523 10.5037 9.58875 10.7557 9.35797C11.0071 9.12609 11.132 8.76023 11.132 8.25766C11.1326 7.75617 11.0071 7.39852 10.7557 7.18414ZM21.4576 6.89648H16.4316V8.94563H21.0462V10.6213H16.4316V13.1019H21.6907V14.836H14.4915V5.1875H21.4581L21.4576 6.89648ZM30.402 5.18805V6.89703H27.5605V14.8366H25.5617V6.89703H22.7063V5.18805H30.402Z" fill="#909394"/>
</g>
</svg>
