<svg width="36" height="35" viewBox="0 0 36 35" fill="none" xmlns="http://www.w3.org/2000/svg">
<g id="Group">
<g id="Clip path group">
<mask id="mask0_1703_11809" style="mask-type:luminance" maskUnits="userSpaceOnUse" x="0" y="0" width="36" height="35">
<g id="fluentEmojiHighContrastPlaygroundSlide0">
<path id="Vector" d="M0.5 0H35.5V35H0.5V0Z" fill="white"/>
</g>
</mask>
<g mask="url(#mask0_1703_11809)">
<g id="Group_2">
<path id="Vector_2" d="M4.32812 15.3627H7.95281L6.69719 12.4752C6.24059 11.4243 5.38997 10.5945 4.32812 10.1641V15.3638V15.3627ZM4.32812 20.7975H10.3252C10.3049 20.7617 10.2859 20.7252 10.2683 20.6881L8.91203 17.5688H4.32812V20.7975ZM4.32812 26.2313H10.8731V23.0003H4.32812V26.2313Z" fill="#909394"/>
<path id="Vector_3" d="M12.3519 1.09417C11.1106 1.09314 9.91167 1.54594 8.98094 2.3673C8.24332 1.718 7.33403 1.29531 6.36215 1.14994C5.39028 1.00457 4.3971 1.1427 3.50177 1.54775C2.60645 1.95281 1.84701 2.60758 1.31457 3.43352C0.782122 4.25946 0.499289 5.22149 0.500001 6.20417V31.7192C0.500001 32.2993 0.730469 32.8557 1.14071 33.266C1.55094 33.6762 2.10734 33.9067 2.6875 33.9067H4.32813C4.90829 33.9067 5.46469 33.6762 5.87492 33.266C6.28516 32.8557 6.51563 32.2993 6.51563 31.7192V30.6254H8.68563V31.7192C8.68563 32.2993 8.91609 32.8557 9.32633 33.266C9.73657 33.6762 10.293 33.9067 10.8731 33.9067H12.5138C13.0939 33.9067 13.6503 33.6762 14.0605 33.266C14.4708 32.8557 14.7013 32.2993 14.7013 31.7192V25.2967L18.152 32.6489C18.3286 33.025 18.6087 33.3431 18.9595 33.5658C19.3103 33.7886 19.7173 33.9068 20.1328 33.9067H33.3125C33.6794 33.9066 34.0405 33.8142 34.3623 33.638C34.6842 33.4619 34.9566 33.2075 35.1544 32.8985C35.3522 32.5895 35.4691 32.2356 35.4944 31.8696C35.5196 31.5035 35.4523 31.137 35.2988 30.8037L30.3233 20.016C29.7529 18.7841 28.8426 17.7405 27.6994 17.0081C26.5563 16.2757 25.2278 15.8849 23.8702 15.8817H23.7214L21.5853 10.9598C20.777 9.10032 19.3094 7.60553 17.4652 6.76308V6.21621C17.4662 5.54402 17.3347 4.87824 17.0782 4.25692C16.8216 3.6356 16.4452 3.07094 15.9703 2.59523C15.4954 2.11952 14.9314 1.74209 14.3105 1.48453C13.6896 1.22696 13.0241 1.09432 12.3519 1.09417ZM12.3519 3.28167C13.127 3.28167 13.8703 3.58958 14.4184 4.13765C14.9665 4.68573 15.2744 5.42908 15.2744 6.20417V8.32824C16.2194 8.52388 17.1035 8.94402 17.852 9.55319C18.6005 10.1623 19.1915 10.9427 19.575 11.8282L22.2831 18.0626H23.8669C24.8075 18.0625 25.7284 18.332 26.5207 18.8391C27.3129 19.3462 27.9432 20.0696 28.337 20.9239L33.3125 31.7192H31.5056L26.9688 21.8754L26.8473 21.6129C26.5848 21.0434 26.1645 20.561 25.6363 20.223C25.1081 19.8849 24.494 19.7053 23.8669 19.7054H21.9244C21.8591 19.7055 21.7939 19.6996 21.7297 19.6879C21.5524 19.656 21.3858 19.5808 21.2446 19.469C21.1034 19.3572 20.992 19.2122 20.9203 19.047L18.0689 12.4779C17.7295 11.6956 17.1688 11.0295 16.4559 10.5616C15.7429 10.0936 14.9087 9.84429 14.0559 9.84417H13.6589V9.82667L13.6338 9.8398V6.20417C13.6338 5.8642 13.4987 5.53815 13.2583 5.29775C13.0179 5.05735 12.6919 4.9223 12.3519 4.9223C12.0119 4.9223 11.6859 5.05735 11.4455 5.29775C11.2051 5.53815 11.07 5.8642 11.07 6.20417V9.82667L9.42938 9.82558V6.20417C9.42938 5.42908 9.73728 4.68573 10.2854 4.13765C10.8334 3.58958 11.5768 3.28167 12.3519 3.28167ZM8.5325 9.82449L6.89188 9.82339V6.20199C6.89188 5.86201 6.75682 5.53596 6.51642 5.29556C6.27603 5.05517 5.94998 4.92011 5.61 4.92011C5.27003 4.92011 4.94398 5.05517 4.70358 5.29556C4.46318 5.53596 4.32813 5.86201 4.32813 6.20199V8.43324C5.25781 8.69792 6.10985 9.17699 6.81203 9.84089C7.40469 10.4017 7.87726 11.0771 8.2011 11.826L11.6234 19.6879L11.6311 19.7054V19.7076H13.2148C13.9782 19.7668 14.7202 19.9879 15.3914 20.3562C16.4786 20.9971 17.4072 22.0329 17.9005 23.1026L21.9386 31.7192H20.1328L16.4141 23.7895C16.13 23.1462 15.6882 22.5849 15.1295 22.1578C14.5709 21.7307 13.9134 21.4515 13.2181 21.3461H12.517V31.7192H10.8764V28.4379H4.32813V31.7192H2.6875V6.20417C2.6875 5.42908 2.99541 4.68573 3.54348 4.13765C4.09156 3.58958 4.83491 3.28167 5.61 3.28167C6.3851 3.28167 7.12845 3.58958 7.67652 4.13765C8.2246 4.68573 8.5325 5.42908 8.5325 6.20417V9.82449Z" fill="#909394"/>
</g>
</g>
</g>
</g>
</svg>
