<svg width="35" height="35" viewBox="0 0 35 35" fill="none" xmlns="http://www.w3.org/2000/svg">
<g id="guidance:terrace">
<path id="Vector" d="M2.1875 20.4167V25.5208C2.1875 26.2944 2.49479 27.0362 3.04177 27.5832C3.58875 28.1302 4.33062 28.4375 5.10417 28.4375H8.02083V33.5417M32.8125 20.4167V25.5208C32.8125 26.2944 32.5052 27.0362 31.9582 27.5832C31.4112 28.1302 30.6694 28.4375 29.8958 28.4375H26.9792V33.5417M17.5 12.3958V21.875M7.29167 24.0625H27.7083M17.5 24.0625V33.5417M2.1875 12.3958H32.8125V9.47917H32.6871C32.2855 9.47918 31.8845 9.44601 31.4883 9.38L30.9108 9.28375C25.9891 8.46314 21.4601 6.08643 17.9885 2.5025L17.6823 2.1875H17.3177L17.0115 2.5025C13.5399 6.08643 9.01086 8.46314 4.08917 9.28375L3.51167 9.38C3.1155 9.44601 2.71455 9.47918 2.31292 9.47917H2.1875V12.3958Z" stroke="#909394"/>
</g>
</svg>
