<svg width="35" height="35" viewBox="0 0 35 35" fill="none" xmlns="http://www.w3.org/2000/svg">
<g id="game-icons:well">
<path id="Vector" d="M5.89781 1.95312L3.07812 9.47266H31.9274L29.1077 1.95312H5.89781ZM8.13754 10.7031V22.7392C13.3345 24.7127 21.6711 24.7127 26.868 22.7392V10.7031H25.6375V20.0976C25.1481 19.8474 24.5465 19.643 23.8392 19.4663C22.1844 19.0525 19.9605 18.8073 17.5028 18.8073C16.9662 18.8073 16.4414 18.8196 15.9305 18.8421C15.9293 18.0211 15.9306 17.2001 15.9332 16.379L17.5748 12.2754H16.2757L14.7 16.2149V18.9196C13.3651 19.0298 12.1622 19.2173 11.1663 19.4663C10.4591 19.643 9.85746 19.8475 9.36801 20.0976V10.7031H8.13754ZM14.2215 12.2754V13.3691H14.5131L14.9506 12.2754H14.2215ZM18.9 12.2754L17.15 16.6504H18.3714L20.1216 12.2754H18.9ZM5.47152 13.8477V15.0781H6.90707V13.8477H5.47152ZM10.5985 13.8477V15.0781H13.4696V13.8477H10.5985ZM20.8177 13.8477L19.6966 16.6504H20.784V15.0781H24.4071V13.8477H20.8177ZM28.0985 13.8477V15.0781H28.9188V20.5469H32.8153V19.3164H30.1493V13.8477H28.0985ZM17.5028 20.0376C19.8774 20.0376 22.0287 20.282 23.5407 20.66C24.2967 20.8489 24.8939 21.0763 25.2521 21.288C25.5513 21.4648 25.6188 21.5904 25.6332 21.6099C25.636 21.606 25.6376 21.6049 25.6376 21.6099C25.6376 21.6149 25.636 21.6137 25.6332 21.6099C25.6189 21.6293 25.5512 21.7549 25.2521 21.9316C24.8939 22.1434 24.2968 22.3708 23.5408 22.5599C22.0288 22.9379 19.8776 23.1821 17.5029 23.1821C15.1282 23.1821 12.977 22.9378 11.465 22.5599C10.7089 22.3708 10.1118 22.1434 9.75362 21.9316C9.45441 21.7549 9.38688 21.6293 9.37245 21.6099C9.36972 21.6137 9.36808 21.6149 9.36808 21.6099C9.36808 21.6049 9.36965 21.606 9.37245 21.6099C9.38681 21.5905 9.45448 21.4648 9.75355 21.2879C10.1118 21.0763 10.7089 20.8489 11.4649 20.6599C12.3511 20.4383 13.4582 20.2631 14.7 20.1557V22.119H15.9305V20.0744C16.4402 20.0507 16.9653 20.0375 17.5028 20.0375V20.0376ZM26.868 24.0479C24.6149 24.842 21.9496 25.3071 19.2118 25.4436V27.3201C22.0063 27.1817 24.7079 26.7024 26.868 25.8819V24.0479ZM8.13754 24.0493V25.8834C8.81771 26.1415 9.55142 26.3662 10.325 26.5568V24.6892C9.56331 24.5071 8.83098 24.2937 8.13754 24.0493ZM11.5555 24.9517V26.8253C13.5694 27.2121 15.783 27.3895 17.9813 27.3592V25.483C15.7945 25.5133 13.5954 25.3371 11.5555 24.9518V24.9517ZM26.868 27.1924C26.5068 27.3197 26.142 27.437 25.7743 27.5441V29.2639C26.1429 29.1517 26.5077 29.0272 26.868 28.8907V27.1924ZM8.13754 27.193V28.8902C10.0143 29.6029 12.2999 30.0579 14.7 30.256V28.517C12.3504 28.3227 10.0892 27.8811 8.13754 27.1931V27.193ZM24.5438 27.8655C21.8786 28.4869 18.8674 28.7294 15.9305 28.5949V30.3343C18.885 30.4688 21.9328 30.224 24.5438 29.5976V27.8655ZM8.13754 30.2003C8.24979 30.8261 8.71367 31.4024 9.23129 31.684V30.5521C8.86352 30.445 8.4988 30.3276 8.13754 30.2002V30.2003ZM26.868 30.2008C25.993 30.5093 25.0565 30.769 24.0766 30.9782V32.327C25.2059 32.0361 26.8517 31.2861 26.868 30.2008ZM10.4618 30.8734V32.1911C12.7757 32.8239 15.49 33.0402 17.5028 33.0479C19.4978 33.0479 21.3386 32.8862 22.8462 32.604V31.2116C18.8362 31.8792 14.2913 31.7663 10.4618 30.8734Z" fill="#909394"/>
</g>
</svg>
