<svg width="36" height="35" viewBox="0 0 36 35" fill="none" xmlns="http://www.w3.org/2000/svg">
<g id="mdi:security-camera">
<path id="Vector" d="M9.29115 17.5444L12.2078 22.6048L8.51823 27.2423L3.41406 18.4048L9.29115 17.5444ZM25.2891 26.2506V22.2985C26.5724 21.7298 27.4766 20.461 27.4766 18.959C27.4766 18.1277 27.1849 17.3548 26.7036 16.7715L29.5766 15.0944C31.0495 14.234 31.5599 12.3527 30.6995 10.8798L28.687 7.37979C28.2766 6.67251 27.6034 6.15607 26.814 5.943C26.0245 5.72993 25.1829 5.83751 24.4724 6.24229L12.6161 13.1256C11.2307 13.8985 10.7495 15.6777 11.5516 17.0777L13.7391 20.8694C14.5411 22.2548 16.3349 22.736 17.7203 21.934L20.462 20.359C20.8266 21.2194 21.512 21.9194 22.3724 22.2985V26.2506C22.3724 27.8548 23.6849 29.1673 25.2891 29.1673H32.5807V26.2506H25.2891Z" fill="#909394"/>
</g>
</svg>
