<svg width="35" height="35" viewBox="0 0 35 35" fill="none" xmlns="http://www.w3.org/2000/svg">
<g id="material-symbols:concierge-outline">
<path id="Vector" d="M14.5859 32.0833V29.1667H33.5443V32.0833H14.5859ZM16.0443 27.7083C16.0443 25.7396 16.6641 24.0197 17.9036 22.5487C19.1432 21.0778 20.7109 20.1726 22.6068 19.8333V18.9219C22.6068 18.5087 22.7468 18.1626 23.0268 17.8835C23.3068 17.6045 23.6529 17.4645 24.0651 17.4635C24.4783 17.4635 24.8249 17.6035 25.1049 17.8835C25.3849 18.1635 25.5244 18.5097 25.5234 18.9219V19.8333C27.395 20.1736 28.9568 21.0792 30.2091 22.5502C31.4613 24.0212 32.0869 25.7406 32.0859 27.7083H16.0443ZM19.8724 24.7552H28.1849C27.7231 24.099 27.1334 23.5701 26.4159 23.1685C25.6984 22.767 24.9148 22.5667 24.0651 22.5677C23.1901 22.5677 22.388 22.7685 21.6589 23.17C20.9297 23.5715 20.3342 24.0999 19.8724 24.7552ZM1.46094 18.9583V2.91667H10.2109V5.03125L20.4193 2.1875L32.0859 5.83333V7.29167C32.0859 8.50694 31.6606 9.53993 30.8099 10.3906C29.9592 11.2413 28.9262 11.6667 27.7109 11.6667H24.7943V12.5417C24.7943 13.1493 24.6178 13.702 24.2649 14.1998C23.912 14.6976 23.4565 15.0563 22.8984 15.276L13.0547 18.9583H1.46094ZM4.3776 16.0417H7.29427V5.83333H4.3776V16.0417ZM10.2109 16.0417H12.5443L21.0026 12.9427C21.27 12.8455 21.4829 12.6812 21.6414 12.4498C21.7998 12.2184 21.8786 11.9574 21.8776 11.6667H19.2891L15.0234 13.0521L14.1484 10.2813L18.7057 8.75H27.7109C27.9297 8.75 28.2034 8.67076 28.532 8.51229C28.8606 8.35382 29.0244 8.16569 29.0234 7.94792L20.3464 5.25L10.2109 8.02083V16.0417Z" fill="#909394"/>
</g>
</svg>
