<svg width="35" height="35" viewBox="0 0 35 35" fill="none" xmlns="http://www.w3.org/2000/svg">
<g id="ic:round-meeting-room">
<path id="Vector" d="M29.1667 27.7083H27.7083V7.29167C27.7083 6.48958 27.0521 5.83333 26.25 5.83333H20.4167C20.4167 5.03125 19.7604 4.375 18.9583 4.375H8.75C7.94792 4.375 7.29167 5.03125 7.29167 5.83333V27.7083H5.83333C5.03125 27.7083 4.375 28.3646 4.375 29.1667C4.375 29.9688 5.03125 30.625 5.83333 30.625H18.9583C19.7604 30.625 20.4167 29.9688 20.4167 29.1667V8.75H24.7917V29.1667C24.7917 29.9688 25.4479 30.625 26.25 30.625H29.1667C29.9688 30.625 30.625 29.9688 30.625 29.1667C30.625 28.3646 29.9688 27.7083 29.1667 27.7083ZM16.0417 18.9583C15.2396 18.9583 14.5833 18.3021 14.5833 17.5C14.5833 16.6979 15.2396 16.0417 16.0417 16.0417C16.8438 16.0417 17.5 16.6979 17.5 17.5C17.5 18.3021 16.8438 18.9583 16.0417 18.9583Z" fill="#909394"/>
</g>
</svg>
