<svg width="36" height="30" viewBox="0 0 36 30" fill="none" xmlns="http://www.w3.org/2000/svg">
<path id="Vector" d="M0.5 30V26.6667C1.60833 26.6667 2.43958 26.3889 2.99375 25.8333C3.54792 25.2778 4.64167 25 6.275 25C7.90833 25 9.03125 25.2778 9.64375 25.8333C10.2562 26.3889 11.0875 26.6667 12.1375 26.6667C13.1875 26.6667 14.0187 26.3889 14.6312 25.8333C15.2437 25.2778 16.3667 25 18 25C19.6333 25 20.7563 25.2778 21.3687 25.8333C21.9813 26.3889 22.8125 26.6667 23.8625 26.6667C24.9125 26.6667 25.7437 26.3889 26.3562 25.8333C26.9688 25.2778 28.0917 25 29.725 25C31.3583 25 32.4521 25.2778 33.0063 25.8333C33.5604 26.3889 34.3917 26.6667 35.5 26.6667V30C33.7792 30 32.6493 29.7222 32.1102 29.1667C31.5712 28.6111 30.7762 28.3333 29.725 28.3333C28.675 28.3333 27.8438 28.6111 27.2312 29.1667C26.6187 29.7222 25.4958 30 23.8625 30C22.2292 30 21.1063 29.7222 20.4937 29.1667C19.8813 28.6111 19.05 28.3333 18 28.3333C16.95 28.3333 16.1187 28.6111 15.5062 29.1667C14.8937 29.7222 13.7708 30 12.1375 30C10.5042 30 9.38125 29.7222 8.76875 29.1667C8.15625 28.6111 7.325 28.3333 6.275 28.3333C5.225 28.3333 4.42992 28.6111 3.88975 29.1667C3.34958 29.7222 2.21967 30 0.5 30ZM0.5 22.5V19.1667C1.60833 19.1667 2.43958 18.8889 2.99375 18.3333C3.54792 17.7778 4.64167 17.5 6.275 17.5C7.90833 17.5 9.03883 17.7778 9.6665 18.3333C10.2942 18.8889 11.1178 19.1667 12.1375 19.1667C13.1875 19.1667 14.0187 18.8889 14.6312 18.3333C15.2437 17.7778 16.3667 17.5 18 17.5C19.6333 17.5 20.7563 17.7778 21.3687 18.3333C21.9813 18.8889 22.8125 19.1667 23.8625 19.1667C24.9125 19.1667 25.7437 18.8889 26.3562 18.3333C26.9688 17.7778 28.0917 17.5 29.725 17.5C31.3583 17.5 32.4521 17.7778 33.0063 18.3333C33.5604 18.8889 34.3917 19.1667 35.5 19.1667V22.5C33.7792 22.5 32.6493 22.2222 32.1102 21.6667C31.5712 21.1111 30.7762 20.8333 29.725 20.8333C28.675 20.8333 27.8653 21.1111 27.296 21.6667C26.7267 22.2222 25.5822 22.5 23.8625 22.5C22.2 22.5 21.0701 22.2222 20.4727 21.6667C19.8754 21.1111 19.0512 20.8333 18 20.8333C16.8917 20.8333 16.0674 21.1111 15.5273 21.6667C14.9871 22.2222 13.8572 22.5 12.1375 22.5C10.4167 22.5 9.27158 22.2222 8.70225 21.6667C8.13292 21.1111 7.32383 20.8333 6.275 20.8333C5.225 20.8333 4.4305 21.1111 3.8915 21.6667C3.3525 22.2222 2.222 22.5 0.5 22.5ZM9.075 14L14.8938 8.45833L13.1438 6.79167C12.1813 5.875 11.1604 5.20834 10.0813 4.79167C9.00208 4.375 7.675 4.16667 6.1 4.16667V2.2553e-06C8.2875 2.2553e-06 10.0958 0.229447 11.525 0.688336C12.9542 1.14722 14.3542 2.02889 15.725 3.33334L26.925 14C26.4292 14.3056 25.9479 14.5489 25.4812 14.73C25.0146 14.9111 24.475 15.0011 23.8625 15C22.8125 15 21.9813 14.7222 21.3687 14.1667C20.7563 13.6111 19.6333 13.3333 18 13.3333C16.3667 13.3333 15.2437 13.6111 14.6312 14.1667C14.0187 14.7222 13.1875 15 12.1375 15C11.525 15 10.9854 14.9094 10.5188 14.7283C10.0521 14.5472 9.57083 14.3044 9.075 14ZM26.225 2.2553e-06C27.45 2.2553e-06 28.4854 0.409447 29.3313 1.22834C30.1771 2.04722 30.6 3.02667 30.6 4.16667C30.6 5.33334 30.1771 6.31945 29.3313 7.125C28.4854 7.93056 27.45 8.33333 26.225 8.33333C25 8.33333 23.9646 7.93056 23.1187 7.125C22.2729 6.31945 21.85 5.33334 21.85 4.16667C21.85 3.02778 22.2729 2.04834 23.1187 1.22834C23.9646 0.408336 25 -0.00110886 26.225 2.2553e-06Z" fill="#909394"/>
</svg>
