<svg width="35" height="35" viewBox="0 0 35 35" fill="none" xmlns="http://www.w3.org/2000/svg">
<g id="uil:store">
<path id="Vector" d="M32.0885 11.4051C32.0956 11.3129 32.0956 11.2203 32.0885 11.1281L29.1719 3.83639C29.058 3.54816 28.8552 3.30371 28.593 3.13851C28.3307 2.97331 28.0227 2.89595 27.7135 2.91764H7.29688C7.0048 2.91736 6.71937 3.00478 6.47756 3.16859C6.23575 3.3324 6.04869 3.56505 5.94063 3.83639L3.02396 11.1281C3.01693 11.2203 3.01693 11.3129 3.02396 11.4051C2.9755 11.4863 2.94099 11.575 2.92188 11.6676C2.93811 12.6757 3.21533 13.6623 3.7265 14.5313C4.23768 15.4003 4.96535 16.122 5.83854 16.626V30.626C5.83854 31.0127 5.99219 31.3837 6.26568 31.6572C6.53917 31.9307 6.9101 32.0843 7.29688 32.0843H27.7135C28.1003 32.0843 28.4712 31.9307 28.7447 31.6572C29.0182 31.3837 29.1719 31.0127 29.1719 30.626V16.6843C30.0535 16.1753 30.7866 15.4445 31.2983 14.5644C31.8099 13.6843 32.0824 12.6856 32.0885 11.6676C32.1022 11.5807 32.1022 11.4921 32.0885 11.4051ZM18.9635 29.1676H16.0469V23.3343H18.9635V29.1676ZM26.2552 29.1676H21.8802V21.876C21.8802 21.4892 21.7266 21.1183 21.4531 20.8448C21.1796 20.5713 20.8086 20.4176 20.4219 20.4176H14.5885C14.2018 20.4176 13.8308 20.5713 13.5573 20.8448C13.2839 21.1183 13.1302 21.4892 13.1302 21.876V29.1676H8.75521V17.501C9.58568 17.4963 10.4056 17.3143 11.1601 16.9673C11.9146 16.6202 12.5863 16.116 13.1302 15.4885C13.6776 16.1092 14.3508 16.6063 15.1052 16.9468C15.8595 17.2873 16.6776 17.4634 17.5052 17.4634C18.3328 17.4634 19.1509 17.2873 19.9053 16.9468C20.6596 16.6063 21.3328 16.1092 21.8802 15.4885C22.4242 16.116 23.0958 16.6202 23.8503 16.9673C24.6048 17.3143 25.4247 17.4963 26.2552 17.501V29.1676ZM26.2552 14.5843C25.4817 14.5843 24.7398 14.277 24.1928 13.73C23.6458 13.1831 23.3385 12.4412 23.3385 11.6676C23.3385 11.2809 23.1849 10.9099 22.9114 10.6364C22.6379 10.363 22.267 10.2093 21.8802 10.2093C21.4934 10.2093 21.1225 10.363 20.849 10.6364C20.5755 10.9099 20.4219 11.2809 20.4219 11.6676C20.4219 12.4412 20.1146 13.1831 19.5676 13.73C19.0206 14.277 18.2788 14.5843 17.5052 14.5843C16.7317 14.5843 15.9898 14.277 15.4428 13.73C14.8958 13.1831 14.5885 12.4412 14.5885 11.6676C14.5885 11.2809 14.4349 10.9099 14.1614 10.6364C13.8879 10.363 13.517 10.2093 13.1302 10.2093C12.7434 10.2093 12.3725 10.363 12.099 10.6364C11.8255 10.9099 11.6719 11.2809 11.6719 11.6676C11.6862 12.0507 11.625 12.4328 11.4917 12.7921C11.3584 13.1515 11.1556 13.4811 10.8949 13.7621C10.6343 14.0431 10.3208 14.27 9.97242 14.4298C9.62405 14.5897 9.2476 14.6793 8.86458 14.6937C8.09103 14.7227 7.33765 14.4432 6.77015 13.9167C6.48916 13.6561 6.26226 13.3426 6.10242 12.9942C5.94257 12.6459 5.8529 12.2694 5.83854 11.8864L8.28854 5.83431H26.7219L29.1719 11.8864C29.1166 12.6214 28.7851 13.3083 28.244 13.8088C27.7029 14.3093 26.9923 14.5864 26.2552 14.5843Z" fill="#909394"/>
</g>
</svg>
