<svg width="36" height="35" viewBox="0 0 36 35" fill="none" xmlns="http://www.w3.org/2000/svg">
<path id="Vector" d="M10.0916 0L1.68168 2.21108V7.95659L10.6661 4.98877L14.062 1.64521L10.0916 0ZM19.7486 4.26647C19.2105 4.27994 19.0142 4.40719 19.8141 4.80015C24.4172 7.06587 31.3109 13.4431 27.6459 14.1991C16.0763 16.6018 8.67358 19.8428 2.71865 27.2156C1.03957 29.2964 0.5 35 0.5 35H31.9581C31.9581 35 21.8502 33.4207 21.2103 29.3338C20.1268 22.4326 35.3541 21.6467 35.4995 14.3713C35.565 11.1377 29.0784 5.01572 22.0902 4.4521C21.683 4.41916 20.4395 4.24925 19.7486 4.26647ZM7.85913 7.32784L5.48196 8.11377V17.2605L8.0991 16.512L7.85913 7.32784Z" fill="#909394"/>
</svg>
