<svg width="35" height="35" viewBox="0 0 35 35" fill="none" xmlns="http://www.w3.org/2000/svg">
<g id="icon-park-outline:washing-machine">
<g id="Group">
<path id="Vector" d="M27.6942 2.91797H7.6942C6.90522 2.91797 6.26562 3.57089 6.26562 4.3763V30.6263C6.26562 31.4317 6.90522 32.0846 7.6942 32.0846H27.6942C28.4832 32.0846 29.1228 31.4317 29.1228 30.6263V4.3763C29.1228 3.57089 28.4832 2.91797 27.6942 2.91797Z" stroke="#909394" stroke-width="2"/>
<path id="Vector_2" d="M6.26562 11.3047H29.1228" stroke="#909394" stroke-width="2" stroke-linecap="round" stroke-linejoin="round"/>
<path id="Vector_3" d="M20.5536 8.7526C21.3425 8.7526 21.9821 8.09969 21.9821 7.29427C21.9821 6.48886 21.3425 5.83594 20.5536 5.83594C19.7646 5.83594 19.125 6.48886 19.125 7.29427C19.125 8.09969 19.7646 8.7526 20.5536 8.7526Z" fill="#909394"/>
<path id="Vector_4" d="M24.8348 8.7526C25.6238 8.7526 26.2634 8.09969 26.2634 7.29427C26.2634 6.48886 25.6238 5.83594 24.8348 5.83594C24.0458 5.83594 23.4062 6.48886 23.4062 7.29427C23.4062 8.09969 24.0458 8.7526 24.8348 8.7526Z" fill="#909394"/>
<path id="Vector_5" d="M17.6953 26.9818C20.4567 26.9818 22.6953 24.6966 22.6953 21.8776C22.6953 19.0587 20.4567 16.7734 17.6953 16.7734C14.9339 16.7734 12.6953 19.0587 12.6953 21.8776C12.6953 24.6966 14.9339 26.9818 17.6953 26.9818Z" stroke="#909394" stroke-width="2"/>
</g>
</g>
</svg>
