<svg width="20" height="15" viewBox="0 0 20 15" fill="none" xmlns="http://www.w3.org/2000/svg">
<path d="M1 0.0791016C1.55313 0.0791016 2 0.532376 2 1.09342V9.20798H9V4.13638C9 3.57534 9.44687 3.12206 10 3.12206H17C18.6562 3.12206 20 4.48505 20 6.16502V13.2653C20 13.8263 19.5531 14.2796 19 14.2796C18.4469 14.2796 18 13.8263 18 13.2653V12.2509H2V13.2653C2 13.8263 1.55313 14.2796 1 14.2796C0.446875 14.2796 0 13.8263 0 13.2653V1.09342C0 0.532376 0.446875 0.0791016 1 0.0791016ZM5.5 3.12206C6.16304 3.12206 6.79893 3.38922 7.26777 3.86478C7.73661 4.34033 8 4.98532 8 5.65786C8 6.3304 7.73661 6.97539 7.26777 7.45094C6.79893 7.9265 6.16304 8.19366 5.5 8.19366C4.83696 8.19366 4.20107 7.9265 3.73223 7.45094C3.26339 6.97539 3 6.3304 3 5.65786C3 4.98532 3.26339 4.34033 3.73223 3.86478C4.20107 3.38922 4.83696 3.12206 5.5 3.12206Z" fill="#1176AD"/>
</svg>
