<svg width="21" height="21" viewBox="0 0 21 21" fill="none" xmlns="http://www.w3.org/2000/svg">
<path d="M12.9231 0.692514C12.9231 0.508848 13.0082 0.332704 13.1596 0.202833C13.3111 0.0729611 13.5166 0 13.7308 0L20.1923 0C20.4065 0 20.612 0.0729611 20.7634 0.202833C20.9149 0.332704 21 0.508848 21 0.692514V7.61765C21 7.80132 20.9149 7.97746 20.7634 8.10733C20.612 8.2372 20.4065 8.31017 20.1923 8.31017H17.7692V20.0829C17.7692 20.2666 17.6841 20.4427 17.5327 20.5726C17.3812 20.7025 17.1758 20.7754 16.9615 20.7754C16.7473 20.7754 16.5419 20.7025 16.3904 20.5726C16.2389 20.4427 16.1538 20.2666 16.1538 20.0829V8.31017H13.7308C13.5166 8.31017 13.3111 8.2372 13.1596 8.10733C13.0082 7.97746 12.9231 7.80132 12.9231 7.61765V0.692514ZM5.36146 2.77006H11.3077V4.15508H5.36146C4.96878 4.15501 4.58952 4.27757 4.29459 4.49985C3.99966 4.72214 3.80926 5.02892 3.759 5.36283L3.31477 8.31017H11.445C11.6121 8.71539 11.9217 9.06621 12.3311 9.31427C12.7404 9.56233 13.2295 9.69542 13.7308 9.69519H14.5385V11.4874C14.3559 11.4314 14.1602 11.4139 13.9681 11.4364C13.7759 11.4588 13.5929 11.5206 13.4345 11.6165C13.2761 11.7124 13.1469 11.8396 13.0579 11.9873C12.9689 12.1351 12.9226 12.299 12.9231 12.4652C12.923 12.6314 12.9695 12.7952 13.0586 12.9427C13.1477 13.0903 13.2769 13.2173 13.4352 13.3131C13.5935 13.409 13.7764 13.4708 13.9683 13.4934C14.1603 13.516 14.3559 13.4988 14.5385 13.4431V16.6203H2.42308C1.78044 16.6203 1.16412 16.4014 0.709703 16.0118C0.255288 15.6222 2.64603e-08 15.0938 2.64603e-08 14.5428V10.3877C-7.54758e-05 9.94954 0.16143 9.52256 0.461427 9.16783C0.761423 8.81311 1.18455 8.54878 1.67031 8.41266L1.68646 8.31017H0.807692C0.593479 8.31017 0.388039 8.2372 0.236568 8.10733C0.0850961 7.97746 2.64603e-08 7.80132 2.64603e-08 7.61765C2.64603e-08 7.43399 0.0850961 7.25784 0.236568 7.12797C0.388039 6.9981 0.593479 6.92514 0.807692 6.92514H1.89485L2.15654 5.18554C2.2571 4.51748 2.63813 3.90373 3.22833 3.45914C3.81852 3.01454 4.57745 2.76957 5.36308 2.77006H5.36146ZM5.25 13.5026C5.40889 13.5026 5.56622 13.4758 5.71302 13.4237C5.85981 13.3715 5.99319 13.2951 6.10554 13.1988C6.2179 13.1025 6.30702 12.9881 6.36782 12.8622C6.42863 12.7364 6.45992 12.6015 6.45992 12.4652C6.45992 12.329 6.42863 12.1941 6.36782 12.0683C6.30702 11.9424 6.2179 11.828 6.10554 11.7317C5.99319 11.6354 5.85981 11.559 5.71302 11.5068C5.56622 11.4547 5.40889 11.4279 5.25 11.4279C4.92911 11.4279 4.62136 11.5372 4.39445 11.7317C4.16755 11.9263 4.04008 12.1901 4.04008 12.4652C4.04008 12.7404 4.16755 13.0042 4.39445 13.1988C4.62136 13.3933 4.92911 13.5026 5.25 13.5026ZM4.84615 18.0054H2.42308V18.3516C2.42308 18.6271 2.55072 18.8913 2.77793 19.0861C3.00514 19.2809 3.3133 19.3904 3.63462 19.3904C3.95594 19.3904 4.26409 19.2809 4.4913 19.0861C4.71851 18.8913 4.84615 18.6271 4.84615 18.3516V18.0054Z" fill="#1176AD"/>
</svg>
