<svg width="20" height="17" viewBox="0 0 20 17" fill="none" xmlns="http://www.w3.org/2000/svg">
<path d="M8.487 1.70749C9.18876 1.80051 9.82668 2.09138 10.287 2.52821C10.7472 2.96504 11 3.51942 11 4.09244V5.7039H5V4.09244C5 3.2561 5.528 2.51805 6.33 2.08457C6.04198 1.87794 5.68596 1.7428 5.30482 1.69545C4.92368 1.64809 4.53367 1.69053 4.18178 1.81765C3.82988 1.94477 3.5311 2.15115 3.32143 2.41194C3.11176 2.67273 3.00013 2.9768 3 3.28752V8.12188H19C19.2652 8.12188 19.5196 8.20677 19.7071 8.35788C19.8946 8.50898 20 8.71392 20 8.92761C20 9.1413 19.8946 9.34624 19.7071 9.49735C19.5196 9.64845 19.2652 9.73334 19 9.73334V10.5391C18.9999 11.5389 18.6153 12.5141 17.8989 13.3305C17.1826 14.1469 16.1698 14.7644 15 15.0979V15.4878C15 15.7015 14.8946 15.9065 14.7071 16.0576C14.5196 16.2087 14.2652 16.2936 14 16.2936C13.7348 16.2936 13.4804 16.2087 13.2929 16.0576C13.1054 15.9065 13 15.7015 13 15.4878V15.3734H7V15.4878C7 15.7015 6.89464 15.9065 6.70711 16.0576C6.51957 16.2087 6.26522 16.2936 6 16.2936C5.73478 16.2936 5.48043 16.2087 5.29289 16.0576C5.10536 15.9065 5 15.7015 5 15.4878V15.0979C3.83017 14.7644 2.81739 14.1469 2.10106 13.3305C1.38472 12.5141 1.00006 11.5389 1 10.5391V9.73334C0.734784 9.73334 0.48043 9.64845 0.292893 9.49735C0.105357 9.34624 0 9.1413 0 8.92761C0 8.71392 0.105357 8.50898 0.292893 8.35788C0.48043 8.20677 0.734784 8.12188 1 8.12188V3.28752C0.999957 2.57484 1.29309 1.88225 1.83355 1.31809C2.37401 0.753926 3.13131 0.350009 3.98699 0.169521C4.84267 -0.0109666 5.74846 0.0421558 6.56269 0.320578C7.37691 0.599001 8.05363 1.08621 8.487 1.70749Z" fill="#1176AD"/>
</svg>
