<svg width="42" height="43" viewBox="0 0 42 43" fill="none" xmlns="http://www.w3.org/2000/svg">
<rect width="42" height="43" rx="21" fill="#E7E7E7"/>
<path d="M21 22.2614C22.1935 22.2614 23.3381 21.798 24.182 20.9733C25.0259 20.1486 25.5 19.03 25.5 17.8636C25.5 16.6973 25.0259 15.5787 24.182 14.754C23.3381 13.9292 22.1935 13.4659 21 13.4659C19.8065 13.4659 18.6619 13.9292 17.818 14.754C16.9741 15.5787 16.5 16.6973 16.5 17.8636C16.5 19.03 16.9741 20.1486 17.818 20.9733C18.6619 21.798 19.8065 22.2614 21 22.2614ZM21 23.7273C19.4087 23.7273 17.8826 23.1095 16.7574 22.0099C15.6321 20.9102 15 19.4188 15 17.8636C15 16.3085 15.6321 14.8171 16.7574 13.7174C17.8826 12.6178 19.4087 12 21 12C22.5913 12 24.1174 12.6178 25.2426 13.7174C26.3679 14.8171 27 16.3085 27 17.8636C27 19.4188 26.3679 20.9102 25.2426 22.0099C24.1174 23.1095 22.5913 23.7273 21 23.7273ZM28.5 31.0568V28.858C28.5 28.2748 28.2629 27.7155 27.841 27.3031C27.419 26.8908 26.8467 26.6591 26.25 26.6591H15.75C15.1533 26.6591 14.581 26.8908 14.159 27.3031C13.7371 27.7155 13.5 28.2748 13.5 28.858V31.0568C13.5 31.2512 13.421 31.4376 13.2803 31.5751C13.1397 31.7126 12.9489 31.7898 12.75 31.7898C12.5511 31.7898 12.3603 31.7126 12.2197 31.5751C12.079 31.4376 12 31.2512 12 31.0568V28.858C12 27.886 12.3951 26.9538 13.0983 26.2666C13.8016 25.5793 14.7554 25.1932 15.75 25.1932H26.25C27.2446 25.1932 28.1984 25.5793 28.9017 26.2666C29.6049 26.9538 30 27.886 30 28.858V31.0568C30 31.2512 29.921 31.4376 29.7803 31.5751C29.6397 31.7126 29.4489 31.7898 29.25 31.7898C29.0511 31.7898 28.8603 31.7126 28.7197 31.5751C28.579 31.4376 28.5 31.2512 28.5 31.0568Z" fill="#969696"/>
</svg>
