<svg width="41" height="43" viewBox="0 0 41 43" fill="none" xmlns="http://www.w3.org/2000/svg">
<path d="M30.0002 31.0002L25.6572 26.6572M25.6572 26.6572C26.4001 25.9143 26.9894 25.0324 27.3914 24.0618C27.7935 23.0911 28.0004 22.0508 28.0004 21.0002C28.0004 19.9496 27.7935 18.9093 27.3914 17.9387C26.9894 16.968 26.4001 16.0861 25.6572 15.3432C24.9143 14.6003 24.0324 14.011 23.0618 13.609C22.0911 13.2069 21.0508 13 20.0002 13C18.9496 13 17.9093 13.2069 16.9387 13.609C15.968 14.011 15.0861 14.6003 14.3432 15.3432C12.8429 16.8435 12 18.8784 12 21.0002C12 23.122 12.8429 25.1569 14.3432 26.6572C15.8435 28.1575 17.8784 29.0004 20.0002 29.0004C22.122 29.0004 24.1569 28.1575 25.6572 26.6572Z" stroke="#777777" stroke-width="2" stroke-linecap="round" stroke-linejoin="round"/>
<rect x="0.5" y="0.5" width="40" height="42" rx="4.5" stroke="#E7E7E7"/>
</svg>
