<svg
    width="22"
    height="22"
    viewBox="0 0 22 22"
    fill="none"
    xmlns="http://www.w3.org/2000/svg"
  >
    <g clip-path="url(#clip0_2221_10440)">
      <path
        d="M13.9139 16.5H16.9445V13.2H18.9649V16.5H21.9955V18.7H18.9649V22H16.9445V18.7H13.9139V16.5ZM7.85268 4.95C9.26696 4.95 10.3782 6.16 10.3782 7.7C10.3782 9.24 9.26696 10.45 7.85268 10.45C6.43839 10.45 5.32717 9.24 5.32717 7.7C5.32717 6.16 6.43839 4.95 7.85268 4.95ZM7.85268 0C11.7925 0 14.9241 3.41 14.9241 7.7C14.9241 13.42 7.85268 22 7.85268 22C7.85268 22 0.78125 13.42 0.78125 7.7C0.78125 3.41 3.91288 0 7.85268 0ZM7.85268 2.2C5.02411 2.2 2.80166 4.62 2.80166 7.7C2.80166 8.8 2.80166 11 7.85268 18.37C12.9037 11 12.9037 8.8 12.9037 7.7C12.9037 4.62 10.6813 2.2 7.85268 2.2Z"
        fill="white"
      />
    </g>
    <defs>
      <clipPath id="clip0_2221_10440">
        <rect width="22" height="22" fill="white" />
      </clipPath>
    </defs>
  </svg>