<svg width="30" height="30" viewBox="0 0 30 30" fill="none" xmlns="http://www.w3.org/2000/svg">
<path d="M9.25 10.6923V8.76923C9.25 7.23914 9.90848 5.77171 11.0806 4.68977C12.2527 3.60783 13.8424 3 15.5 3C17.1576 3 18.7473 3.60783 19.9194 4.68977C21.0915 5.77171 21.75 7.23914 21.75 8.76923V10.6923M4.04167 10.6923C3.7654 10.6923 3.50045 10.7936 3.3051 10.9739C3.10975 11.1543 3 11.3988 3 11.6538V24.6346C3 26.4519 4.67708 28 6.64583 28H24.3542C26.3229 28 28 26.527 28 24.7097V11.6538C28 11.3988 27.8903 11.1543 27.6949 10.9739C27.4996 10.7936 27.2346 10.6923 26.9583 10.6923H4.04167Z" stroke="#777777" stroke-width="2" stroke-linecap="round" stroke-linejoin="round"/>
<path d="M9.25 13.5762V14.5377C9.25 16.0678 9.90848 17.5352 11.0806 18.6172C12.2527 19.6991 13.8424 20.3069 15.5 20.3069C17.1576 20.3069 18.7473 19.6991 19.9194 18.6172C21.0915 17.5352 21.75 16.0678 21.75 14.5377V13.5762" stroke="#777777" stroke-width="2" stroke-linecap="round" stroke-linejoin="round"/>
</svg>
