<svg width="45" height="45" viewBox="0 0 45 45" fill="none" xmlns="http://www.w3.org/2000/svg">
<g id="Group 261">
<circle id="Ellipse 23" cx="22.5" cy="22.5" r="22.5" fill="#F4F5F7"/>
<g id="Group">
<path id="Vector" opacity="0.2" d="M21.2079 31.9586L13.0364 23.7262C12.8917 23.5803 12.8108 23.383 12.8116 23.1775C12.8123 22.972 12.8946 22.7753 13.0404 22.6305L22.6984 13.041C22.8442 12.8964 23.0413 12.8156 23.2466 12.8163L32.2266 12.8496L32.1933 21.8296C32.1924 22.0348 32.1101 22.2314 31.9645 22.3761L22.3066 31.9627C22.2343 32.0348 22.1485 32.0919 22.0541 32.1307C21.9596 32.1695 21.8585 32.1893 21.7564 32.1889C21.6543 32.1886 21.5533 32.168 21.4592 32.1285C21.3651 32.089 21.2797 32.0312 21.2079 31.9586Z" fill="#666666"/>
<path id="Vector_2" d="M22.8484 32.4347L32.5054 22.8491C32.6505 22.7062 32.7657 22.5359 32.8444 22.3481C32.9231 22.1602 32.9637 21.9587 32.9638 21.755L32.9971 12.7751C32.9979 12.5695 32.917 12.3721 32.7721 12.2262C32.6273 12.0803 32.4305 11.9979 32.2249 11.9971L23.245 11.9638C23.0414 11.9624 22.8395 12.0015 22.6511 12.0788C22.4627 12.1561 22.2915 12.2701 22.1476 12.4141L12.4906 21.9998C12.3461 22.1432 12.2312 22.3137 12.1526 22.5015C12.074 22.6893 12.0331 22.8907 12.0324 23.0943C12.0316 23.2979 12.071 23.4996 12.1482 23.688C12.2254 23.8764 12.339 24.0477 12.4825 24.1922L20.656 32.4266C20.7994 32.5711 20.9698 32.6859 21.1577 32.7645C21.3455 32.8431 21.5469 32.884 21.7505 32.8848C21.9541 32.8855 22.1558 32.8462 22.3442 32.7689C22.5326 32.6917 22.7039 32.5781 22.8484 32.4347ZM13.5823 23.0996L23.2392 13.5139L31.4441 13.5444L31.4137 21.7493L21.7567 31.3349L13.5823 23.0996ZM27.9392 18.1817C27.7092 18.1809 27.4847 18.1119 27.294 17.9834C27.1033 17.855 26.9549 17.6728 26.8677 17.4601C26.7805 17.2473 26.7584 17.0135 26.8041 16.7881C26.8498 16.5628 26.9613 16.356 27.1245 16.194C27.2876 16.0321 27.4952 15.9221 27.7209 15.8781C27.9466 15.8341 28.1802 15.858 28.3924 15.9467C28.6045 16.0355 28.7855 16.1852 28.9125 16.3769C29.0396 16.5685 29.1069 16.7935 29.106 17.0235C29.1049 17.3318 28.9813 17.6271 28.7625 17.8443C28.5437 18.0615 28.2475 18.1829 27.9392 18.1817Z" fill="#666666"/>
</g>
</g>
</svg>
