<svg width="45" height="45" viewBox="0 0 45 45" fill="none" xmlns="http://www.w3.org/2000/svg">
<g id="Group 319">
<circle id="Ellipse 23" cx="22.5" cy="22.5" r="22.5" fill="#F4F5F7"/>
<path id="Vector" fill-rule="evenodd" clip-rule="evenodd" d="M30.5829 29.5427C30.5831 29.4664 30.6047 29.3918 30.6451 29.3271C30.6856 29.2625 30.7434 29.2105 30.8119 29.177C30.8804 29.1435 30.9569 29.1299 31.0328 29.1377C31.1086 29.1454 31.1808 29.1743 31.2411 29.2209L33.8431 31.2446C33.8919 31.2828 33.9315 31.3316 33.9587 31.3873C33.9859 31.4431 34 31.5043 34 31.5663C34 31.6283 33.9859 31.6896 33.9587 31.7453C33.9315 31.8011 33.8919 31.8499 33.8431 31.8881L31.2411 33.9133C31.1806 33.9602 31.1081 33.9891 31.032 33.9967C30.9558 34.0043 30.879 33.9904 30.8104 33.9565C30.7418 33.9226 30.6841 33.8702 30.6438 33.805C30.6036 33.7399 30.5825 33.6648 30.5829 33.5883V32.3797H20.7827V33.5916C20.7827 33.6681 20.7612 33.7431 20.7207 33.808C20.6801 33.8729 20.6221 33.9251 20.5533 33.9587C20.4845 33.9922 20.4077 34.0058 20.3316 33.9978C20.2554 33.9897 20.1831 33.9605 20.1228 33.9133L17.5225 31.8897C17.4736 31.8515 17.4341 31.8027 17.4069 31.7469C17.3797 31.6912 17.3656 31.63 17.3656 31.568C17.3656 31.5059 17.3797 31.4447 17.4069 31.389C17.4341 31.3332 17.4736 31.2844 17.5225 31.2462L20.1228 29.2209C20.1832 29.1737 20.2557 29.1444 20.332 29.1365C20.4082 29.1285 20.4852 29.1422 20.5541 29.1759C20.6229 29.2097 20.6809 29.2621 20.7213 29.3273C20.7617 29.3924 20.783 29.4676 20.7827 29.5443V30.7497H30.5829V29.5427ZM19.966 25.8499H31.3996C31.6161 25.8499 31.8239 25.7638 31.977 25.6107C32.1302 25.4575 32.2162 25.2498 32.2162 25.0332V13.6003C32.2162 13.3837 32.1302 13.176 31.977 13.0229C31.8239 12.8697 31.6161 12.7837 31.3996 12.7837H19.966C19.7494 12.7837 19.5417 12.8697 19.3885 13.0229C19.2354 13.176 19.1493 13.3837 19.1493 13.6003V25.0332C19.1493 25.2498 19.2354 25.4575 19.3885 25.6107C19.5417 25.7638 19.7494 25.8499 19.966 25.8499ZM31.3996 27.4831C32.0493 27.4831 32.6725 27.225 33.132 26.7656C33.5915 26.3061 33.8496 25.683 33.8496 25.0332V13.6003C33.8496 12.9505 33.5915 12.3274 33.132 11.868C32.6725 11.4085 32.0493 11.1504 31.3996 11.1504H19.966C19.3162 11.1504 18.693 11.4085 18.2336 11.868C17.7741 12.3274 17.516 12.9505 17.516 13.6003L17.516 25.0332C17.516 25.683 17.7741 26.3061 18.2336 26.7656C18.693 27.225 19.3162 27.4831 19.966 27.4831H31.3996ZM11.4088 24.2166L12.6159 24.2166L12.6159 14.4169H11.4088C11.3325 14.4167 11.2579 14.3952 11.1932 14.3547C11.1286 14.3142 11.0766 14.2565 11.0431 14.1879C11.0096 14.1194 10.996 14.0429 11.0038 13.9671C11.0115 13.8912 11.0404 13.819 11.087 13.7587L13.1108 11.1569C13.149 11.108 13.1978 11.0685 13.2535 11.0413C13.3093 11.0141 13.3705 11 13.4325 11C13.4946 11 13.5558 11.0141 13.6115 11.0413C13.6673 11.0685 13.7161 11.108 13.7543 11.1569L15.7797 13.7587C15.8264 13.8191 15.8553 13.8915 15.863 13.9675C15.8707 14.0435 15.8569 14.1201 15.8232 14.1887C15.7896 14.2572 15.7373 14.315 15.6724 14.3553C15.6076 14.3957 15.5327 14.417 15.4563 14.4169H14.2492L14.2492 24.2166H15.4563C15.5325 24.2168 15.6072 24.2384 15.6718 24.2788C15.7365 24.3193 15.7885 24.3771 15.822 24.4456C15.8555 24.5141 15.8691 24.5906 15.8613 24.6665C15.8536 24.7423 15.8247 24.8145 15.7781 24.8748L13.7543 27.4766C13.7161 27.5255 13.6673 27.565 13.6115 27.5922C13.5558 27.6194 13.4946 27.6335 13.4325 27.6335C13.3705 27.6335 13.3093 27.6194 13.2535 27.5922C13.1978 27.565 13.149 27.5255 13.1108 27.4766L11.0854 24.8748C11.0386 24.8144 11.0098 24.7421 11.0021 24.6661C10.9944 24.5901 11.0082 24.5134 11.0418 24.4448C11.0755 24.3763 11.1278 24.3185 11.1927 24.2782C11.2575 24.2378 11.3324 24.2165 11.4088 24.2166Z" fill="#666666"/>
</g>
</svg>
