<svg width="50" height="50" viewBox="0 0 50 50" fill="none" xmlns="http://www.w3.org/2000/svg">
<g id="Group 12088">
<circle id="Ellipse 24" cx="25" cy="25" r="25" fill="#F4F5F7"/>
<g id="Group 481">
<path id="Vector" d="M9.7 13C10.6403 13 11.4 13.7661 11.4 14.7143V28.4286H23.3V19.8571C23.3 18.9089 24.0597 18.1429 25 18.1429H36.9C39.7156 18.1429 42 20.4464 42 23.2857V35.2857C42 36.2339 41.2403 37 40.3 37C39.3597 37 38.6 36.2339 38.6 35.2857V33.5714H11.4V35.2857C11.4 36.2339 10.6403 37 9.7 37C8.75969 37 8 36.2339 8 35.2857V14.7143C8 13.7661 8.75969 13 9.7 13ZM17.35 18.1429C18.4772 18.1429 19.5582 18.5944 20.3552 19.3981C21.1522 20.2018 21.6 21.2919 21.6 22.4286C21.6 23.5652 21.1522 24.6553 20.3552 25.459C19.5582 26.2628 18.4772 26.7143 17.35 26.7143C16.2228 26.7143 15.1418 26.2628 14.3448 25.459C13.5478 24.6553 13.1 23.5652 13.1 22.4286C13.1 21.2919 13.5478 20.2018 14.3448 19.3981C15.1418 18.5944 16.2228 18.1429 17.35 18.1429Z" fill="#909394"/>
</g>
</g>
</svg>
