<svg width="633" height="232" viewBox="0 0 633 232" fill="none" xmlns="http://www.w3.org/2000/svg">
<circle cx="452.005" cy="130.823" r="28.8092" fill="#FFF5E7" stroke="#F9A62A"/>
<path d="M457.274 116.901L450.064 121.47L450.795 121.865L457.21 117.8L468.09 123.885L461.849 127.839L462.153 128.003V128.505L467.041 125.407L468.067 125.981L462.153 129.728V130.587L466.946 127.55L468.067 128.177L462.153 131.925V132.783L466.946 129.746L468.067 130.373L462.153 134.121V134.979L469.57 130.279L467.729 129.249L469.57 128.083L467.729 127.053L469.57 125.886L467.825 124.91L469.593 123.79L457.274 116.901H457.274ZM459.578 120.176C458.018 120.949 455.94 121.08 454.477 120.497L451.617 122.31L461.027 127.395L463.739 125.676C462.671 124.843 462.76 123.601 463.958 122.626L459.578 120.176H459.578ZM449.894 122.881L444.653 126.255L454.708 131.97L454.807 131.907C454.992 131.789 455.254 131.623 455.566 131.423C456.191 131.025 457.017 130.496 457.841 129.969C459.028 129.21 459.639 128.819 460.208 128.455L449.894 122.881ZM458.456 122.966C458.456 122.966 458.456 122.966 458.457 122.966C458.694 122.968 458.911 123.018 459.073 123.109C459.168 123.162 459.241 123.227 459.289 123.301C459.337 123.374 459.359 123.455 459.353 123.539C459.347 123.622 459.313 123.707 459.254 123.787C459.195 123.868 459.112 123.943 459.009 124.008C458.906 124.073 458.786 124.127 458.654 124.167C458.523 124.207 458.384 124.233 458.244 124.241C458.104 124.25 457.967 124.242 457.841 124.218C457.714 124.195 457.6 124.155 457.506 124.102C457.315 123.996 457.215 123.841 457.227 123.672C457.239 123.504 457.362 123.335 457.57 123.203C457.688 123.129 457.829 123.068 457.983 123.027C458.136 122.986 458.298 122.965 458.456 122.966ZM442.26 126.415L434.444 131.368L436.19 132.344L434.422 133.464L436.263 134.494L434.422 135.66L436.263 136.69L434.422 137.856L446.741 144.745L454.178 140.032V139.174L446.805 143.846L435.925 137.762L436.982 137.092L446.741 142.549L454.178 137.836V136.978L446.805 141.65L435.925 135.566L436.982 134.896L446.741 140.353L454.178 135.64V134.782L446.805 139.454L435.925 133.37L436.909 132.746L446.764 138.257L454.178 133.558V133.188L453.772 132.957L446.828 137.358L435.948 131.273L442.974 126.821L442.26 126.415L442.26 126.415ZM443.777 127.278L440.298 129.482C441.367 130.315 441.278 131.557 440.08 132.532L444.46 134.982C446.02 134.209 448.098 134.078 449.561 134.661L452.969 132.501L443.777 127.278L443.777 127.278ZM460.818 129.634C460.222 130.016 459.696 130.353 458.567 131.075C457.809 131.56 457.05 132.045 456.291 132.53C455.979 132.729 455.716 132.897 455.529 133.015C455.522 133.02 455.52 133.021 455.513 133.025V139.315L460.818 135.795L460.818 129.634ZM445.915 130.914C446.152 130.915 446.37 130.965 446.532 131.056C446.723 131.163 446.823 131.317 446.811 131.486C446.799 131.655 446.675 131.823 446.467 131.955C446.259 132.087 445.984 132.171 445.702 132.188C445.421 132.206 445.155 132.156 444.964 132.049C444.774 131.943 444.673 131.788 444.685 131.62C444.697 131.451 444.821 131.282 445.029 131.151C445.147 131.076 445.288 131.016 445.441 130.975C445.595 130.934 445.757 130.913 445.915 130.914V130.914Z" fill="#F9A62A"/>
<circle cx="257.825" cy="70.006" r="28.8092" fill="#FBEBEA" stroke="#F44336"/>
<path d="M265.15 56.8164C262.073 56.8164 259.362 58.3551 257.823 60.7731C256.284 58.3551 253.573 56.8164 250.496 56.8164C245.66 56.8164 241.703 60.7732 241.703 65.6092C241.703 74.3287 257.823 83.1947 257.823 83.1947C257.823 83.1947 273.943 74.4019 273.943 65.6092C273.943 60.7732 269.987 56.8164 265.15 56.8164Z" fill="#F44336"/>
<circle cx="56.4186" cy="169.309" r="28.8092" fill="#EFF9FF" stroke="#6495B2"/>
<path d="M56.4206 155.388C53.5067 155.391 50.7131 156.545 48.6527 158.595C46.5922 160.646 45.4331 163.426 45.4297 166.326C45.4262 168.696 46.204 171.002 47.6439 172.889C47.6439 172.889 47.9436 173.282 47.9926 173.339L56.4206 183.231L64.8527 173.334C64.8967 173.281 65.1974 172.889 65.1974 172.889L65.1984 172.886C66.6375 171 67.415 168.695 67.4116 166.326C67.4081 163.426 66.2491 160.646 64.1886 158.595C62.1282 156.545 59.3346 155.391 56.4206 155.388ZM56.4206 170.304C55.6302 170.304 54.8574 170.071 54.2002 169.634C53.5429 169.197 53.0307 168.575 52.7282 167.849C52.4257 167.122 52.3465 166.322 52.5007 165.55C52.6549 164.779 53.0356 164.07 53.5945 163.514C54.1535 162.957 54.8656 162.579 55.6409 162.425C56.4162 162.272 57.2198 162.35 57.9501 162.651C58.6804 162.952 59.3046 163.462 59.7438 164.116C60.1829 164.771 60.4173 165.54 60.4173 166.326C60.416 167.381 59.9945 168.392 59.2453 169.138C58.496 169.883 57.4802 170.303 56.4206 170.304Z" fill="#6495B2"/>
<circle cx="584.622" cy="70.006" r="28.8092" fill="#EAFFF4" stroke="#28AE67"/>
<path d="M585.841 60.1826C585.562 59.9037 585.184 59.7471 584.79 59.7471C584.395 59.7471 584.017 59.9037 583.738 60.1826L573.851 70.0682C573.782 70.1374 573.727 70.2195 573.689 70.3098C573.652 70.4002 573.633 70.497 573.633 70.5948C573.633 70.6926 573.652 70.7894 573.689 70.8798C573.727 70.9701 573.782 71.0522 573.851 71.1214C573.991 71.261 574.18 71.3395 574.377 71.3395C574.475 71.3395 574.572 71.3202 574.662 71.2828C574.753 71.2454 574.835 71.1905 574.904 71.1214L584.79 61.2342L594.675 71.1214C594.815 71.261 595.004 71.3395 595.202 71.3395C595.399 71.3395 595.589 71.261 595.728 71.1214C595.868 70.9817 595.947 70.7923 595.947 70.5948C595.947 70.3973 595.868 70.2079 595.728 70.0682L592.227 66.5682V61.67C592.227 61.4728 592.149 61.2836 592.009 61.1441C591.87 61.0047 591.681 60.9263 591.483 60.9263H589.996C589.799 60.9263 589.609 61.0047 589.47 61.1441C589.33 61.2836 589.252 61.4728 589.252 61.67V63.5933L585.841 60.1826Z" fill="#28AE67"/>
<path d="M584.792 62.8506L593.717 71.7753V78.0331C593.717 78.6248 593.482 79.1924 593.063 79.6108C592.645 80.0292 592.077 80.2643 591.486 80.2643H578.098C577.507 80.2643 576.939 80.0292 576.521 79.6108C576.102 79.1924 575.867 78.6248 575.867 78.0331V71.7753L584.792 62.8506Z" fill="#28AE67"/>
<path d="M435.188 95.4716C418.692 58.0307 390.528 10.2696 296.586 56.9686" stroke="#126FAA" stroke-dasharray="5 5"/>
<path d="M598.918 103.221C602.25 144.321 542.864 191.882 476.186 162.573" stroke="#126FAA" stroke-dasharray="5 5"/>
<path d="M83.1558 144.451C104.743 77.626 161.828 51.1269 221.097 63.3212" stroke="#126FAA" stroke-dasharray="5 5"/>
<path d="M1.76136 226.479V211.933H3.52273V224.916H10.2841V226.479H1.76136ZM17.2159 226.706C16.2311 226.706 15.367 226.471 14.6236 226.003C13.8849 225.534 13.3073 224.878 12.8906 224.035C12.4787 223.193 12.2727 222.208 12.2727 221.081C12.2727 219.944 12.4787 218.952 12.8906 218.105C13.3073 217.257 13.8849 216.599 14.6236 216.131C15.367 215.662 16.2311 215.427 17.2159 215.427C18.2008 215.427 19.0625 215.662 19.8011 216.131C20.5445 216.599 21.1222 217.257 21.5341 218.105C21.9508 218.952 22.1591 219.944 22.1591 221.081C22.1591 222.208 21.9508 223.193 21.5341 224.035C21.1222 224.878 20.5445 225.534 19.8011 226.003C19.0625 226.471 18.2008 226.706 17.2159 226.706ZM17.2159 225.2C17.964 225.2 18.5795 225.008 19.0625 224.625C19.5455 224.241 19.9029 223.737 20.1349 223.112C20.367 222.487 20.483 221.81 20.483 221.081C20.483 220.352 20.367 219.672 20.1349 219.042C19.9029 218.413 19.5455 217.904 19.0625 217.515C18.5795 217.127 17.964 216.933 17.2159 216.933C16.4678 216.933 15.8523 217.127 15.3693 217.515C14.8864 217.904 14.5289 218.413 14.2969 219.042C14.0649 219.672 13.9489 220.352 13.9489 221.081C13.9489 221.81 14.0649 222.487 14.2969 223.112C14.5289 223.737 14.8864 224.241 15.3693 224.625C15.8523 225.008 16.4678 225.2 17.2159 225.2ZM29.1495 226.706C28.1268 226.706 27.2461 226.464 26.5075 225.981C25.7688 225.498 25.2006 224.833 24.8029 223.986C24.4052 223.138 24.2063 222.17 24.2063 221.081C24.2063 219.973 24.4099 218.995 24.8171 218.148C25.229 217.295 25.802 216.63 26.5359 216.152C27.2745 215.669 28.1362 215.427 29.1211 215.427C29.8881 215.427 30.5794 215.569 31.195 215.854C31.8105 216.138 32.3147 216.535 32.7077 217.047C33.1007 217.558 33.3446 218.155 33.4393 218.836H31.7631C31.6353 218.339 31.3512 217.899 30.9109 217.515C30.4753 217.127 29.8881 216.933 29.1495 216.933C28.4961 216.933 27.9232 217.104 27.4308 217.444C26.9431 217.781 26.5619 218.256 26.2873 218.872C26.0174 219.483 25.8825 220.2 25.8825 221.024C25.8825 221.867 26.015 222.601 26.2802 223.226C26.5501 223.851 26.9289 224.336 27.4165 224.682C27.909 225.027 28.4866 225.2 29.1495 225.2C29.5851 225.2 29.9805 225.124 30.3356 224.973C30.6907 224.821 30.9914 224.604 31.2376 224.319C31.4838 224.035 31.659 223.694 31.7631 223.297H33.4393C33.3446 223.941 33.1102 224.521 32.7362 225.037C32.3668 225.548 31.8768 225.955 31.266 226.258C30.6599 226.557 29.9544 226.706 29.1495 226.706ZM39.0998 226.734C38.4085 226.734 37.7811 226.604 37.2177 226.344C36.6542 226.078 36.2068 225.697 35.8754 225.2C35.5439 224.698 35.3782 224.092 35.3782 223.382C35.3782 222.757 35.5013 222.25 35.7475 221.862C35.9937 221.469 36.3228 221.161 36.7347 220.939C37.1467 220.716 37.6012 220.55 38.0984 220.442C38.6003 220.328 39.1045 220.238 39.6112 220.172C40.274 220.086 40.8114 220.023 41.2234 219.98C41.64 219.933 41.9431 219.854 42.1325 219.746C42.3266 219.637 42.4237 219.447 42.4237 219.177V219.121C42.4237 218.42 42.2319 217.875 41.8484 217.487C41.4696 217.099 40.8943 216.905 40.1225 216.905C39.3223 216.905 38.695 217.08 38.2404 217.43C37.7859 217.781 37.4663 218.155 37.2816 218.552L35.6907 217.984C35.9748 217.321 36.3536 216.805 36.8271 216.436C37.3053 216.062 37.8261 215.801 38.3896 215.655C38.9577 215.503 39.5165 215.427 40.0657 215.427C40.4161 215.427 40.8185 215.47 41.2731 215.555C41.7324 215.636 42.1751 215.804 42.6012 216.059C43.0321 216.315 43.3896 216.701 43.6737 217.217C43.9577 217.733 44.0998 218.425 44.0998 219.291V226.479H42.4237V225.001H42.3384C42.2248 225.238 42.0354 225.491 41.7702 225.761C41.5051 226.031 41.1523 226.261 40.712 226.45C40.2717 226.64 39.7343 226.734 39.0998 226.734ZM39.3555 225.229C40.0183 225.229 40.5771 225.098 41.0316 224.838C41.4909 224.577 41.8365 224.241 42.0685 223.829C42.3053 223.417 42.4237 222.984 42.4237 222.53V220.996C42.3526 221.081 42.1964 221.159 41.9549 221.23C41.7182 221.296 41.4435 221.355 41.131 221.407C40.8233 221.455 40.5226 221.497 40.229 221.535C39.9402 221.568 39.7058 221.597 39.5259 221.621C39.0903 221.677 38.6831 221.77 38.3043 221.898C37.9303 222.021 37.6272 222.208 37.3952 222.459C37.168 222.705 37.0543 223.041 37.0543 223.467C37.0543 224.05 37.2698 224.49 37.7006 224.788C38.1362 225.082 38.6879 225.229 39.3555 225.229ZM51.9034 215.569V216.99H46.25V215.569H51.9034ZM47.8977 212.956H49.5739V223.354C49.5739 223.827 49.6425 224.182 49.7798 224.419C49.9219 224.651 50.1018 224.807 50.3196 224.888C50.5421 224.963 50.7765 225.001 51.0227 225.001C51.2074 225.001 51.3589 224.992 51.4773 224.973C51.5956 224.949 51.6903 224.93 51.7614 224.916L52.1023 226.422C51.9886 226.464 51.83 226.507 51.6264 226.55C51.4228 226.597 51.1648 226.621 50.8523 226.621C50.3788 226.621 49.9148 226.519 49.4602 226.315C49.0104 226.112 48.6364 225.801 48.3381 225.385C48.0445 224.968 47.8977 224.443 47.8977 223.808V212.956ZM54.4247 226.479V215.569H56.1009V226.479H54.4247ZM55.277 213.751C54.9503 213.751 54.6686 213.64 54.4318 213.417C54.1998 213.195 54.0838 212.927 54.0838 212.615C54.0838 212.302 54.1998 212.035 54.4318 211.812C54.6686 211.59 54.9503 211.479 55.277 211.479C55.6037 211.479 55.883 211.59 56.1151 211.812C56.3518 212.035 56.4702 212.302 56.4702 212.615C56.4702 212.927 56.3518 213.195 56.1151 213.417C55.883 213.64 55.6037 213.751 55.277 213.751ZM63.6026 226.706C62.6178 226.706 61.7537 226.471 61.0103 226.003C60.2717 225.534 59.694 224.878 59.2773 224.035C58.8654 223.193 58.6594 222.208 58.6594 221.081C58.6594 219.944 58.8654 218.952 59.2773 218.105C59.694 217.257 60.2717 216.599 61.0103 216.131C61.7537 215.662 62.6178 215.427 63.6026 215.427C64.5875 215.427 65.4492 215.662 66.1879 216.131C66.9312 216.599 67.5089 217.257 67.9208 218.105C68.3375 218.952 68.5458 219.944 68.5458 221.081C68.5458 222.208 68.3375 223.193 67.9208 224.035C67.5089 224.878 66.9312 225.534 66.1879 226.003C65.4492 226.471 64.5875 226.706 63.6026 226.706ZM63.6026 225.2C64.3507 225.2 64.9663 225.008 65.4492 224.625C65.9322 224.241 66.2897 223.737 66.5217 223.112C66.7537 222.487 66.8697 221.81 66.8697 221.081C66.8697 220.352 66.7537 219.672 66.5217 219.042C66.2897 218.413 65.9322 217.904 65.4492 217.515C64.9663 217.127 64.3507 216.933 63.6026 216.933C62.8545 216.933 62.239 217.127 61.756 217.515C61.2731 217.904 60.9156 218.413 60.6836 219.042C60.4516 219.672 60.3356 220.352 60.3356 221.081C60.3356 221.81 60.4516 222.487 60.6836 223.112C60.9156 223.737 61.2731 224.241 61.756 224.625C62.239 225.008 62.8545 225.2 63.6026 225.2ZM72.7805 219.916V226.479H71.1044V215.569H72.7237V217.274H72.8658C73.1214 216.72 73.5097 216.275 74.0305 215.939C74.5514 215.598 75.2237 215.427 76.0476 215.427C76.7862 215.427 77.4325 215.579 77.9865 215.882C78.5405 216.18 78.9714 216.635 79.2791 217.246C79.5869 217.852 79.7408 218.619 79.7408 219.547V226.479H78.0646V219.66C78.0646 218.803 77.8421 218.136 77.397 217.657C76.9519 217.175 76.3411 216.933 75.5646 216.933C75.0296 216.933 74.5514 217.049 74.13 217.281C73.7133 217.513 73.3842 217.852 73.1428 218.297C72.9013 218.742 72.7805 219.282 72.7805 219.916Z" fill="#FB631C"/>
<path d="M238.239 12.4879C238.154 11.7682 237.808 11.2095 237.202 10.8117C236.596 10.414 235.853 10.2152 234.972 10.2152C234.328 10.2152 233.765 10.3193 233.282 10.5277C232.804 10.736 232.43 11.0224 232.16 11.387C231.895 11.7516 231.762 12.1659 231.762 12.6299C231.762 13.0182 231.854 13.352 232.039 13.6313C232.228 13.906 232.47 14.1356 232.763 14.3203C233.057 14.5002 233.365 14.6493 233.687 14.7677C234.009 14.8813 234.305 14.9737 234.575 15.0447L236.052 15.4424C236.431 15.5419 236.852 15.6792 237.316 15.8544C237.785 16.0295 238.232 16.2687 238.658 16.5717C239.089 16.87 239.444 17.2535 239.724 17.7223C240.003 18.191 240.143 18.7663 240.143 19.4481C240.143 20.2341 239.937 20.9443 239.525 21.5788C239.118 22.2133 238.521 22.7175 237.735 23.0916C236.954 23.4656 236.004 23.6527 234.887 23.6527C233.845 23.6527 232.943 23.4846 232.181 23.1484C231.424 22.8122 230.827 22.3435 230.391 21.7421C229.96 21.1408 229.717 20.4424 229.66 19.647H231.478C231.525 20.1962 231.71 20.6508 232.032 21.0106C232.359 21.3657 232.771 21.6309 233.268 21.8061C233.77 21.9765 234.309 22.0617 234.887 22.0617C235.559 22.0617 236.163 21.9528 236.698 21.735C237.233 21.5125 237.657 21.2047 237.969 20.8117C238.282 20.414 238.438 19.95 238.438 19.4197C238.438 18.9367 238.303 18.5438 238.033 18.2407C237.763 17.9377 237.408 17.6915 236.968 17.5021C236.528 17.3127 236.052 17.147 235.54 17.0049L233.751 16.4936C232.614 16.1669 231.715 15.7005 231.052 15.0944C230.389 14.4884 230.058 13.6953 230.058 12.7152C230.058 11.9008 230.278 11.1905 230.718 10.5845C231.163 9.97368 231.76 9.50019 232.508 9.16402C233.261 8.82311 234.101 8.65265 235.029 8.65265C235.967 8.65265 236.8 8.82074 237.529 9.15692C238.258 9.48835 238.836 9.9429 239.262 10.5206C239.693 11.0982 239.92 11.754 239.944 12.4879H238.239ZM246.022 23.6527C245.33 23.6527 244.703 23.5224 244.14 23.262C243.576 22.9969 243.129 22.6157 242.797 22.1186C242.466 21.6167 242.3 21.0106 242.3 20.3004C242.3 19.6754 242.423 19.1688 242.669 18.7805C242.916 18.3875 243.245 18.0797 243.657 17.8572C244.069 17.6347 244.523 17.4689 245.02 17.36C245.522 17.2464 246.026 17.1564 246.533 17.0902C247.196 17.0049 247.733 16.941 248.145 16.8984C248.562 16.851 248.865 16.7729 249.054 16.664C249.248 16.5551 249.346 16.3657 249.346 16.0958V16.039C249.346 15.3383 249.154 14.7938 248.77 14.4055C248.391 14.0172 247.816 13.8231 247.044 13.8231C246.244 13.8231 245.617 13.9983 245.162 14.3487C244.708 14.6991 244.388 15.0731 244.203 15.4708L242.613 14.9027C242.897 14.2398 243.275 13.7237 243.749 13.3544C244.227 12.9803 244.748 12.7199 245.311 12.5731C245.88 12.4216 246.438 12.3458 246.988 12.3458C247.338 12.3458 247.74 12.3884 248.195 12.4737C248.654 12.5542 249.097 12.7223 249.523 12.9779C249.954 13.2336 250.311 13.6195 250.596 14.1356C250.88 14.6517 251.022 15.343 251.022 16.2095V23.397H249.346V21.9197H249.26C249.147 22.1564 248.957 22.4098 248.692 22.6796C248.427 22.9495 248.074 23.1792 247.634 23.3686C247.194 23.558 246.656 23.6527 246.022 23.6527ZM246.277 22.147C246.94 22.147 247.499 22.0168 247.953 21.7563C248.413 21.4959 248.758 21.1598 248.99 20.7478C249.227 20.3359 249.346 19.9027 249.346 19.4481V17.914C249.275 17.9992 249.118 18.0774 248.877 18.1484C248.64 18.2147 248.365 18.2739 248.053 18.3259C247.745 18.3733 247.444 18.4159 247.151 18.4538C246.862 18.4869 246.628 18.5153 246.448 18.539C246.012 18.5958 245.605 18.6882 245.226 18.816C244.852 18.9391 244.549 19.1261 244.317 19.3771C244.09 19.6233 243.976 19.9595 243.976 20.3856C243.976 20.968 244.192 21.4083 244.623 21.7066C245.058 22.0002 245.61 22.147 246.277 22.147ZM262.611 12.4879L258.577 23.397H256.872L252.838 12.4879H254.656L257.668 21.1811H257.781L260.793 12.4879H262.611ZM269.006 23.6242C267.955 23.6242 267.049 23.3922 266.286 22.9282C265.529 22.4595 264.944 21.8061 264.532 20.968C264.125 20.1252 263.921 19.1451 263.921 18.0277C263.921 16.9102 264.125 15.9254 264.532 15.0731C264.944 14.2161 265.517 13.5485 266.251 13.0703C266.989 12.5873 267.851 12.3458 268.836 12.3458C269.404 12.3458 269.965 12.4405 270.519 12.6299C271.073 12.8193 271.577 13.1271 272.032 13.5532C272.487 13.9746 272.849 14.5333 273.119 15.2294C273.388 15.9254 273.523 16.7824 273.523 17.8004V18.5106H265.114V17.0617H271.819C271.819 16.4462 271.696 15.897 271.45 15.414C271.208 14.9311 270.862 14.5499 270.413 14.2706C269.968 13.9912 269.442 13.8515 268.836 13.8515C268.168 13.8515 267.591 14.0172 267.103 14.3487C266.62 14.6754 266.248 15.1015 265.988 15.6271C265.728 16.1527 265.597 16.7161 265.597 17.3174V18.2833C265.597 19.1072 265.739 19.8056 266.023 20.3785C266.312 20.9467 266.712 21.3799 267.224 21.6782C267.735 21.9718 268.329 22.1186 269.006 22.1186C269.447 22.1186 269.844 22.057 270.2 21.9339C270.559 21.8061 270.87 21.6167 271.13 21.3657C271.39 21.11 271.592 20.7928 271.734 20.414L273.353 20.8686C273.183 21.4178 272.896 21.9008 272.494 22.3174C272.091 22.7294 271.594 23.0513 271.002 23.2833C270.41 23.5106 269.745 23.6242 269.006 23.6242Z" fill="#FB631C"/>
<path d="M408.332 186.064V171.519H413.246C414.383 171.519 415.316 171.713 416.045 172.101C416.774 172.485 417.314 173.013 417.664 173.685C418.014 174.358 418.19 175.122 418.19 175.979C418.19 176.836 418.014 177.596 417.664 178.259C417.314 178.922 416.776 179.443 416.052 179.822C415.327 180.196 414.402 180.383 413.275 180.383H409.298V178.792H413.218C413.995 178.792 414.62 178.678 415.093 178.451C415.571 178.224 415.917 177.902 416.13 177.485C416.348 177.064 416.457 176.562 416.457 175.979C416.457 175.397 416.348 174.888 416.13 174.452C415.912 174.017 415.564 173.68 415.086 173.444C414.608 173.202 413.976 173.081 413.19 173.081H410.093V186.064H408.332ZM415.178 179.53L418.758 186.064H416.712L413.19 179.53H415.178ZM425.354 186.292C424.303 186.292 423.396 186.06 422.634 185.596C421.876 185.127 421.292 184.474 420.88 183.635C420.472 182.793 420.269 181.813 420.269 180.695C420.269 179.578 420.472 178.593 420.88 177.741C421.292 176.884 421.864 176.216 422.598 175.738C423.337 175.255 424.199 175.013 425.184 175.013C425.752 175.013 426.313 175.108 426.867 175.297C427.421 175.487 427.925 175.795 428.38 176.221C428.834 176.642 429.196 177.201 429.466 177.897C429.736 178.593 429.871 179.45 429.871 180.468V181.178H421.462V179.729H428.167C428.167 179.114 428.043 178.564 427.797 178.081C427.556 177.599 427.21 177.217 426.76 176.938C426.315 176.659 425.79 176.519 425.184 176.519C424.516 176.519 423.938 176.685 423.451 177.016C422.968 177.343 422.596 177.769 422.336 178.295C422.075 178.82 421.945 179.384 421.945 179.985V180.951C421.945 181.775 422.087 182.473 422.371 183.046C422.66 183.614 423.06 184.047 423.571 184.346C424.083 184.639 424.677 184.786 425.354 184.786C425.794 184.786 426.192 184.724 426.547 184.601C426.907 184.474 427.217 184.284 427.478 184.033C427.738 183.778 427.939 183.46 428.081 183.081L429.701 183.536C429.53 184.085 429.244 184.568 428.841 184.985C428.439 185.397 427.942 185.719 427.35 185.951C426.758 186.178 426.093 186.292 425.354 186.292ZM434.097 179.502V186.064H432.421V175.155H434.04V176.86H434.182C434.438 176.306 434.826 175.861 435.347 175.525C435.868 175.184 436.54 175.013 437.364 175.013C438.103 175.013 438.749 175.165 439.303 175.468C439.857 175.766 440.288 176.221 440.596 176.831C440.903 177.438 441.057 178.205 441.057 179.133V186.064H439.381V179.246C439.381 178.389 439.158 177.722 438.713 177.243C438.268 176.76 437.658 176.519 436.881 176.519C436.346 176.519 435.868 176.635 435.446 176.867C435.03 177.099 434.701 177.438 434.459 177.883C434.218 178.328 434.097 178.867 434.097 179.502ZM448.864 175.155V176.576H443.211V175.155H448.864ZM444.859 172.542H446.535V182.939C446.535 183.413 446.603 183.768 446.741 184.005C446.883 184.237 447.063 184.393 447.281 184.474C447.503 184.549 447.737 184.587 447.984 184.587C448.168 184.587 448.32 184.578 448.438 184.559C448.557 184.535 448.651 184.516 448.722 184.502L449.063 186.008C448.95 186.05 448.791 186.093 448.587 186.135C448.384 186.183 448.126 186.206 447.813 186.206C447.34 186.206 446.876 186.105 446.421 185.901C445.971 185.698 445.597 185.387 445.299 184.971C445.005 184.554 444.859 184.028 444.859 183.394V172.542Z" fill="#FB631C"/>
<path d="M567.151 20.5217C567.151 22.0558 566.874 23.3816 566.32 24.499C565.766 25.6164 565.006 26.4781 564.04 27.0842C563.075 27.6903 561.971 27.9933 560.731 27.9933C559.49 27.9933 558.387 27.6903 557.421 27.0842C556.455 26.4781 555.695 25.6164 555.141 24.499C554.587 23.3816 554.31 22.0558 554.31 20.5217C554.31 18.9876 554.587 17.6619 555.141 16.5444C555.695 15.427 556.455 14.5653 557.421 13.9592C558.387 13.3531 559.49 13.0501 560.731 13.0501C561.971 13.0501 563.075 13.3531 564.04 13.9592C565.006 14.5653 565.766 15.427 566.32 16.5444C566.874 17.6619 567.151 18.9876 567.151 20.5217ZM565.447 20.5217C565.447 19.2622 565.236 18.1993 564.815 17.3328C564.398 16.4663 563.832 15.8105 563.117 15.3655C562.407 14.9204 561.612 14.6978 560.731 14.6978C559.85 14.6978 559.052 14.9204 558.337 15.3655C557.627 15.8105 557.061 16.4663 556.64 17.3328C556.223 18.1993 556.015 19.2622 556.015 20.5217C556.015 21.7812 556.223 22.8441 556.64 23.7106C557.061 24.5771 557.627 25.2329 558.337 25.678C559.052 26.123 559.85 26.3456 560.731 26.3456C561.612 26.3456 562.407 26.123 563.117 25.678C563.832 25.2329 564.398 24.5771 564.815 23.7106C565.236 22.8441 565.447 21.7812 565.447 20.5217ZM572.357 27.7944L569.033 16.8853H570.795L573.153 25.2376H573.266L575.596 16.8853H577.386L579.687 25.2092H579.8L582.158 16.8853H583.92L580.596 27.7944H578.948L576.562 19.4138H576.391L574.005 27.7944H572.357ZM587.812 21.2319V27.7944H586.136V16.8853H587.755V18.5899H587.897C588.153 18.0359 588.541 17.5908 589.062 17.2547C589.583 16.9138 590.255 16.7433 591.079 16.7433C591.817 16.7433 592.464 16.8948 593.018 17.1978C593.572 17.4961 594.003 17.9507 594.31 18.5615C594.618 19.1675 594.772 19.9346 594.772 20.8626V27.7944H593.096V20.9763C593.096 20.1192 592.873 19.4516 592.428 18.9734C591.983 18.4905 591.372 18.249 590.596 18.249C590.061 18.249 589.583 18.365 589.161 18.597C588.745 18.829 588.415 19.1675 588.174 19.6126C587.933 20.0577 587.812 20.5975 587.812 21.2319ZM602.409 28.0217C601.358 28.0217 600.451 27.7897 599.689 27.3257C598.931 26.8569 598.346 26.2035 597.934 25.3655C597.527 24.5227 597.324 23.5425 597.324 22.4251C597.324 21.3077 597.527 20.3228 597.934 19.4706C598.346 18.6136 598.919 17.9459 599.653 17.4677C600.392 16.9848 601.253 16.7433 602.238 16.7433C602.806 16.7433 603.368 16.838 603.922 17.0274C604.475 17.2168 604.98 17.5245 605.434 17.9507C605.889 18.3721 606.251 18.9308 606.521 19.6268C606.791 20.3228 606.926 21.1798 606.926 22.1978V22.9081H598.517V21.4592H605.221C605.221 20.8437 605.098 20.2944 604.852 19.8115C604.61 19.3285 604.265 18.9474 603.815 18.668C603.37 18.3887 602.844 18.249 602.238 18.249C601.571 18.249 600.993 18.4147 600.505 18.7461C600.022 19.0728 599.651 19.499 599.39 20.0245C599.13 20.5501 599 21.1136 599 21.7149V22.6808C599 23.5047 599.142 24.2031 599.426 24.776C599.715 25.3441 600.115 25.7774 600.626 26.0757C601.137 26.3692 601.732 26.516 602.409 26.516C602.849 26.516 603.247 26.4545 603.602 26.3314C603.962 26.2035 604.272 26.0141 604.532 25.7632C604.793 25.5075 604.994 25.1903 605.136 24.8115L606.755 25.266C606.585 25.8153 606.298 26.2982 605.896 26.7149C605.493 27.1268 604.996 27.4488 604.404 27.6808C603.813 27.9081 603.147 28.0217 602.409 28.0217ZM609.475 27.7944V16.8853H611.095V18.5331H611.208C611.407 17.9933 611.767 17.5553 612.288 17.2191C612.809 16.883 613.396 16.7149 614.049 16.7149C614.172 16.7149 614.326 16.7173 614.511 16.722C614.696 16.7267 614.835 16.7338 614.93 16.7433V18.4478C614.873 18.4336 614.743 18.4123 614.539 18.3839C614.341 18.3508 614.13 18.3342 613.907 18.3342C613.377 18.3342 612.904 18.4455 612.487 18.668C612.075 18.8858 611.748 19.1888 611.507 19.5771C611.27 19.9606 611.152 20.3986 611.152 20.891V27.7944H609.475Z" fill="#FB631C"/>
</svg>
