<svg width="47" height="45" viewBox="0 0 47 45" fill="none" xmlns="http://www.w3.org/2000/svg">
<ellipse cx="23.5" cy="22.5" rx="23.5" ry="22.5" fill="#F4F5F7"/>
<path d="M32.169 11.334H20.5024C19.2155 11.334 18.169 12.3805 18.169 13.6673V20.1843L12.6775 25.6758C12.5144 25.839 12.4033 26.0468 12.3583 26.2731C12.3133 26.4994 12.3364 26.7339 12.4247 26.9471C12.513 27.1602 12.6625 27.3424 12.8543 27.4706C13.0461 27.5988 13.2716 27.6673 13.5024 27.6673V33.5007C13.5024 33.8101 13.6253 34.1068 13.8441 34.3256C14.0629 34.5444 14.3596 34.6673 14.669 34.6673H33.3357C33.6451 34.6673 33.9419 34.5444 34.1606 34.3256C34.3794 34.1068 34.5024 33.8101 34.5024 33.5007V13.6673C34.5024 12.3805 33.4559 11.334 32.169 11.334ZM22.8357 32.334H15.8357V25.817L19.3357 22.317L22.8357 25.817V32.334ZM32.169 32.334H25.169V27.6673C25.4 27.6678 25.6259 27.5997 25.8181 27.4716C26.0102 27.3435 26.16 27.1612 26.2484 26.9478C26.3368 26.7344 26.3598 26.4996 26.3144 26.2731C26.2691 26.0467 26.1575 25.8388 25.9939 25.6758L20.5024 20.1843V13.6673H32.169V32.334Z" fill="#666666"/>
<path d="M22.8307 16H25.1641V18.3333H22.8307V16ZM27.4974 16H29.8307V18.3333H27.4974V16ZM27.4974 20.7028H29.8307V23H27.4974V20.7028ZM27.4974 25.3333H29.8307V27.6667H27.4974V25.3333ZM18.1641 26.5H20.4974V28.8333H18.1641V26.5Z" fill="#666666"/>
</svg>
