<svg width="45" height="45" viewBox="0 0 45 45" fill="none" xmlns="http://www.w3.org/2000/svg">
<g id="Group 261">
<circle id="Ellipse 23" cx="22.5" cy="22.502" r="22.5" fill="#F4F5F7"/>
<g id="Group">
<path id="Vector" opacity="0.2" d="M21.2079 31.9606L13.0364 23.7282C12.8917 23.5823 12.8108 23.3849 12.8116 23.1795C12.8123 22.974 12.8946 22.7772 13.0404 22.6324L22.6984 13.0429C22.8442 12.8984 23.0413 12.8176 23.2466 12.8183L32.2266 12.8516L32.1933 21.8315C32.1924 22.0368 32.1101 22.2334 31.9645 22.3781L22.3066 31.9646C22.2343 32.0367 22.1485 32.0938 22.0541 32.1327C21.9596 32.1715 21.8585 32.1913 21.7564 32.1909C21.6543 32.1905 21.5533 32.17 21.4592 32.1304C21.3651 32.0909 21.2797 32.0332 21.2079 31.9606Z" fill="#666666"/>
<path id="Vector_2" d="M22.8484 32.4366L32.5054 22.851C32.6505 22.7081 32.7657 22.5378 32.8444 22.35C32.9231 22.1622 32.9637 21.9606 32.9638 21.757L32.9971 12.777C32.9979 12.5715 32.917 12.374 32.7721 12.2281C32.6273 12.0822 32.4305 11.9998 32.2249 11.9991L23.245 11.9658C23.0414 11.9644 22.8395 12.0035 22.6511 12.0808C22.4627 12.1581 22.2915 12.2721 22.1476 12.4161L12.4906 22.0017C12.3461 22.1451 12.2312 22.3156 12.1526 22.5034C12.074 22.6912 12.0331 22.8927 12.0324 23.0963C12.0316 23.2998 12.071 23.5016 12.1482 23.69C12.2254 23.8784 12.339 24.0497 12.4825 24.1942L20.656 32.4285C20.7994 32.573 20.9698 32.6879 21.1577 32.7665C21.3455 32.8451 21.5469 32.886 21.7505 32.8867C21.9541 32.8875 22.1558 32.8481 22.3442 32.7709C22.5326 32.6937 22.7039 32.5801 22.8484 32.4366ZM13.5823 23.1015L23.2392 13.5159L31.4441 13.5463L31.4137 21.7512L21.7567 31.3368L13.5823 23.1015ZM27.9392 18.1837C27.7092 18.1828 27.4847 18.1138 27.294 17.9854C27.1033 17.8569 26.9549 17.6748 26.8677 17.462C26.7805 17.2493 26.7584 17.0154 26.8041 16.7901C26.8498 16.5647 26.9613 16.358 27.1245 16.196C27.2876 16.034 27.4952 15.9241 27.7209 15.88C27.9466 15.836 28.1802 15.8599 28.3924 15.9487C28.6045 16.0375 28.7855 16.1872 28.9125 16.3788C29.0396 16.5705 29.1069 16.7955 29.106 17.0254C29.1049 17.3338 28.9813 17.629 28.7625 17.8462C28.5437 18.0635 28.2475 18.1848 27.9392 18.1837Z" fill="#666666"/>
</g>
</g>
</svg>
