<svg width="40" height="40" viewBox="0 0 40 40" fill="none" xmlns="http://www.w3.org/2000/svg">
<g id="Group 11872">
<circle id="Ellipse 22" cx="20" cy="20" r="20" fill="#F4F5F7"/>
<path id="Vector" d="M17.6667 19.3333C18.5871 19.3333 19.3333 18.5871 19.3333 17.6667C19.3333 16.7462 18.5871 16 17.6667 16C16.7462 16 16 16.7462 16 17.6667C16 18.5871 16.7462 19.3333 17.6667 19.3333Z" fill="black"/>
<path id="Vector_2" d="M25.2026 19C22.9359 19 21.8026 22 20.1026 22C18.4026 22 18.4037 21 16.1359 21C13.8693 21 12.7348 25 12.7348 25H28.6026C28.6026 25 27.4693 19 25.2026 19ZM29.7359 12H11.6026C10.3525 12 9.33594 12.897 9.33594 14V26C9.33594 27.103 10.3525 28 11.6026 28H29.7359C30.986 28 32.0026 27.103 32.0026 26V14C32.0026 12.897 30.986 12 29.7359 12ZM29.7359 26H11.6026V14H29.7359V26Z" fill="black"/>
</g>
</svg>
