<svg width="33" height="33" viewBox="0 0 33 33" fill="none" xmlns="http://www.w3.org/2000/svg">
<path d="M28.3402 12.5328L15.9828 0.591508L15.9689 0.578855C15.5718 0.206523 15.053 0 14.5146 0C13.9762 0 13.4573 0.206523 13.0603 0.578855L13.0464 0.591508L0.688947 12.5328C0.470375 12.7412 0.296321 12.9937 0.177751 13.2743C0.0591821 13.555 -0.00133191 13.8577 2.22341e-05 14.1635V28.7857C2.22341e-05 29.373 0.227861 29.9362 0.633417 30.3515C1.03897 30.7667 1.58903 31 2.16257 31H9.57701C10.1506 31 10.7006 30.7667 11.1062 30.3515C11.5117 29.9362 11.7396 29.373 11.7396 28.7857V21.1939C11.7396 21.11 11.7721 21.0295 11.83 20.9702C11.888 20.9109 11.9666 20.8775 12.0485 20.8775H16.9915C17.0734 20.8775 17.152 20.9109 17.2099 20.9702C17.2678 21.0295 17.3004 21.11 17.3004 21.1939V28.7857C17.3004 29.373 17.5282 29.9362 17.9338 30.3515C18.3393 30.7667 18.8894 31 19.4629 31H26.8774C27.4509 31 28.001 30.7667 28.4065 30.3515C28.8121 29.9362 29.0399 29.373 29.0399 28.7857V14.1635C29.0399 13.8569 28.9777 13.5537 28.8572 13.273C28.7368 12.9923 28.5607 12.7402 28.3402 12.5328ZM27.1863 28.7857C27.1863 28.8696 27.1538 28.9501 27.0958 29.0094C27.0379 29.0687 26.9593 29.102 26.8774 29.102H19.4629C19.381 29.102 19.3024 29.0687 19.2445 29.0094C19.1865 28.9501 19.154 28.8696 19.154 28.7857V21.1939C19.154 20.6066 18.9262 20.0434 18.5206 19.6281C18.115 19.2129 17.565 18.9796 16.9915 18.9796H12.0485C11.4749 18.9796 10.9249 19.2129 10.5193 19.6281C10.1138 20.0434 9.88595 20.6066 9.88595 21.1939V28.7857C9.88595 28.8696 9.8534 28.9501 9.79546 29.0094C9.73752 29.0687 9.65895 29.102 9.57701 29.102H2.16257C2.08063 29.102 2.00205 29.0687 1.94412 29.0094C1.88618 28.9501 1.85363 28.8696 1.85363 28.7857V14.1635C1.85354 14.1195 1.86242 14.0759 1.87971 14.0356C1.897 13.9953 1.92231 13.9591 1.95404 13.9294L1.96794 13.9168L14.3161 1.9786C14.3724 1.92832 14.4445 1.90061 14.5192 1.90061C14.5939 1.90061 14.6661 1.92832 14.7223 1.9786L27.072 13.9184L27.0844 13.931C27.1164 13.9606 27.142 13.9967 27.1595 14.037C27.1771 14.0773 27.1862 14.1209 27.1863 14.1651V28.7857Z" fill="#FB631C"/>
<path d="M17.7574 16.8483C17.3898 16.8483 17.0373 16.6991 16.7774 16.4337C16.5175 16.1683 16.3714 15.8084 16.3714 15.433C16.3714 15.0577 16.5175 14.6977 16.7774 14.4323C17.0373 14.1669 17.3898 14.0178 17.7574 14.0178C18.125 14.0178 18.4776 14.1669 18.7375 14.4323C18.9974 14.6977 19.1434 15.0577 19.1434 15.433C19.1434 15.8084 18.9974 16.1683 18.7375 16.4337C18.4776 16.6991 18.125 16.8483 17.7574 16.8483ZM32.4582 21.1694L24.1423 12.6781C23.8096 12.3384 23.3476 12.1309 22.8394 12.1309H16.3714C15.3458 12.1309 14.5234 12.9706 14.5234 14.0178V20.6222C14.5234 21.1411 14.7267 21.6128 15.0686 21.9525L23.3753 30.4438C23.7172 30.7834 24.1792 31.0004 24.6874 31.0004C25.1956 31.0004 25.6576 30.7834 25.9902 30.4438L32.4582 23.8394C32.8001 23.4998 33.0034 23.028 33.0034 22.5091C33.0034 21.9808 32.7909 21.509 32.4582 21.1694Z" fill="#FB631C"/>
</svg>
