<svg width="47" height="45" viewBox="0 0 47 45" fill="none" xmlns="http://www.w3.org/2000/svg">
    <ellipse cx="23.5" cy="22.5" rx="23.5" ry="22.5" fill="#F4F5F7" />
    <path fill-rule="evenodd" clip-rule="evenodd"
        d="M24.0011 34.4866L24.9025 33.4708C25.9254 32.2994 26.8454 31.188 27.664 30.1308L28.3397 29.2394C31.1611 25.438 32.5725 22.4208 32.5725 20.1908C32.5725 15.4308 28.7354 11.5723 24.0011 11.5723C19.2668 11.5723 15.4297 15.4308 15.4297 20.1908C15.4297 22.4208 16.8411 25.438 19.6625 29.2394L20.3383 30.1308C21.506 31.6271 22.7278 33.079 24.0011 34.4866Z"
        stroke="#666666" stroke-linecap="round" stroke-linejoin="round" />
    <path
        d="M24.0011 23.7151C25.9736 23.7151 27.5725 22.1161 27.5725 20.1437C27.5725 18.1712 25.9736 16.5723 24.0011 16.5723C22.0287 16.5723 20.4297 18.1712 20.4297 20.1437C20.4297 22.1161 22.0287 23.7151 24.0011 23.7151Z"
        stroke="#666666" stroke-linecap="round" stroke-linejoin="round" />
</svg>