<svg width="60" height="60" viewBox="0 0 60 60" fill="none" xmlns="http://www.w3.org/2000/svg">
<g id="Group 12556">
<circle id="Ellipse 42" cx="30.0045" cy="29.8229" r="28.8092" fill="#FFF5E7" stroke="#F9A62A"/>
<path id="Vector" d="M35.2741 15.9014L28.064 20.4702L28.7948 20.8653L35.2095 16.8004L46.0899 22.8846L39.8491 26.8392L40.1531 27.0034V27.5047L45.0413 24.4071L46.0672 24.9809L40.153 28.7284V29.5866L44.9456 26.5497L46.0672 27.177L40.153 30.9246V31.7827L44.9456 28.7458L46.0672 29.3731L40.153 33.1207V33.9788L47.5705 29.2785L45.7295 28.2492L47.5704 27.0826L45.7294 26.0531L47.5703 24.8864L45.825 23.9104L47.5929 22.7901L35.274 15.9014H35.2741ZM37.5777 19.1764C36.0177 19.9491 33.9399 20.0799 32.4769 19.4973L29.617 21.3095L39.0268 26.3948L41.7394 24.6761C40.6709 23.8433 40.7599 22.6008 41.9575 21.6257L37.5776 19.1764H37.5777ZM27.8945 21.8808L22.6529 25.2549L32.7084 30.9695L32.807 30.9073C32.9924 30.7894 33.2542 30.6225 33.5665 30.4232C34.1908 30.0248 35.0171 29.4965 35.841 28.9694C37.0275 28.2103 37.639 27.8187 38.2075 27.4546L27.8945 21.8808ZM36.4563 21.9664C36.4564 21.9664 36.4565 21.9664 36.4566 21.9664C36.6937 21.9679 36.9111 22.018 37.0735 22.1088C37.168 22.1616 37.2413 22.2268 37.2892 22.3006C37.3371 22.3743 37.3587 22.4553 37.3527 22.5388C37.3467 22.6223 37.3132 22.7067 37.2543 22.7871C37.1953 22.8676 37.1119 22.9426 37.009 23.0079C36.906 23.0731 36.7855 23.1273 36.6542 23.1673C36.523 23.2074 36.3836 23.2325 36.244 23.2413C36.1044 23.25 35.9674 23.2423 35.8407 23.2184C35.714 23.1946 35.6002 23.1551 35.5057 23.1023C35.315 22.9956 35.2146 22.841 35.2267 22.6724C35.2388 22.5038 35.3624 22.3351 35.5702 22.2034C35.6883 22.1286 35.8293 22.0684 35.9827 22.0273C36.1362 21.9863 36.2981 21.9655 36.4563 21.9664ZM20.2603 25.4153L12.4445 30.3678L14.1898 31.3438L12.4219 32.4641L14.2629 33.4936L12.4219 34.6603L14.2629 35.6897L12.4219 36.8564L24.7408 43.7451L32.1783 39.0319V38.174L24.8054 42.8461L13.925 36.7617L14.9821 36.0919L24.7408 41.5489L32.1783 36.8359V35.978L24.8054 40.65L13.925 34.5657L14.9821 33.8959L24.7408 39.3529L32.1783 34.6398V33.7819L24.8054 38.4539L13.925 32.3696L14.909 31.746L24.7636 37.2566L32.1783 32.5579V32.1882L31.772 31.9574L24.8278 36.3575L13.9478 30.2733L20.9743 25.8209L20.2602 25.4151L20.2603 25.4153ZM21.7774 26.2776L18.2983 28.4821C19.3668 29.3147 19.2778 30.5572 18.0801 31.5324L22.46 33.9818C24.0199 33.209 26.0976 33.0783 27.5606 33.6608L30.9689 31.5011L21.7772 26.2776L21.7774 26.2776ZM38.8183 28.634C38.2219 29.0159 37.6958 29.353 36.5669 30.0752C35.8086 30.5605 35.05 31.0454 34.2912 31.5299C33.9785 31.7294 33.7162 31.8967 33.5291 32.0154C33.5224 32.0198 33.5197 32.0213 33.5132 32.0254V38.3152L38.8184 34.7951L38.8183 28.634ZM23.9149 29.9136C24.1521 29.915 24.3695 29.9653 24.5318 30.0561C24.7226 30.1628 24.823 30.3174 24.8109 30.486C24.7988 30.6546 24.6752 30.8233 24.4673 30.955C24.2594 31.0867 23.9843 31.1706 23.7025 31.1884C23.4206 31.2061 23.1551 31.1561 22.9643 31.0494C22.7735 30.9428 22.6732 30.7881 22.6853 30.6195C22.6973 30.451 22.8209 30.2823 23.0288 30.1505C23.1469 30.0757 23.2879 30.0156 23.4413 29.9745C23.5947 29.9335 23.7566 29.9127 23.9149 29.9136V29.9136Z" fill="#F9A62A"/>
</g>
</svg>
