<svg width="45" height="45" viewBox="0 0 45 45" fill="none" xmlns="http://www.w3.org/2000/svg">
<g id="Group 264">
<circle id="Ellipse 23" cx="22.5" cy="22.5" r="22.5" fill="#F4F5F7"/>
<path id="Vector" fill-rule="evenodd" clip-rule="evenodd" d="M14.1875 11C13.8726 11 13.5705 11.1264 13.3478 11.3515C13.1251 11.5765 13 11.8817 13 12.2V31.4C13 32.3548 13.3753 33.2705 14.0434 33.9456C14.7115 34.6207 15.6177 35 16.5625 35H28.4375C29.3823 35 30.2885 34.6207 30.9566 33.9456C31.6247 33.2705 32 32.3548 32 31.4V18.2C31.9999 17.8818 31.8748 17.5766 31.6521 17.3516L25.7146 11.3516C25.4919 11.1265 25.1899 11.0001 24.875 11H14.1875ZM24.875 13.8968L29.1334 18.2H24.875V13.8968ZM26.9021 25.0484C27.1184 24.8221 27.2381 24.519 27.2354 24.2043C27.2327 23.8897 27.1078 23.5887 26.8876 23.3662C26.6674 23.1437 26.3696 23.0175 26.0582 23.0148C25.7469 23.0121 25.4469 23.133 25.2229 23.3516L21.3125 27.3032L19.7771 25.7516C19.5531 25.533 19.2531 25.4121 18.9418 25.4148C18.6304 25.4175 18.3326 25.5437 18.1124 25.7662C17.8922 25.9887 17.7673 26.2897 17.7646 26.6043C17.7619 26.919 17.8816 27.2221 18.0979 27.4484L20.4729 29.8484C20.6956 30.0734 20.9976 30.1997 21.3125 30.1997C21.6274 30.1997 21.9294 30.0734 22.1521 29.8484L26.9021 25.0484Z" fill="#666666"/>
</g>
</svg>
