<svg width="50" height="50" viewBox="0 0 50 50" fill="none" xmlns="http://www.w3.org/2000/svg">
<g id="Group 12090">
<circle id="Ellipse 26" cx="25" cy="25" r="25" fill="#F4F5F7"/>
<g id="Group 482">
<path id="Vector" d="M28.9231 9.13333C28.9231 8.83275 29.0609 8.54449 29.3061 8.33195C29.5513 8.1194 29.8839 8 30.2308 8H40.6923C41.0391 8 41.3717 8.1194 41.617 8.33195C41.8622 8.54449 42 8.83275 42 9.13333V20.4667C42 20.7672 41.8622 21.0555 41.617 21.2681C41.3717 21.4806 41.0391 21.6 40.6923 21.6H36.7692V40.8667C36.7692 41.1672 36.6315 41.4555 36.3862 41.6681C36.141 41.8806 35.8084 42 35.4615 42C35.1147 42 34.7821 41.8806 34.5369 41.6681C34.2916 41.4555 34.1538 41.1672 34.1538 40.8667V21.6H30.2308C29.8839 21.6 29.5513 21.4806 29.3061 21.2681C29.0609 21.0555 28.9231 20.7672 28.9231 20.4667V9.13333ZM16.6805 12.5333H26.3077V14.8H16.6805C16.0447 14.7999 15.4307 15.0005 14.9531 15.3642C14.4756 15.728 14.1674 16.2301 14.086 16.7765L13.3668 21.6H26.53C26.8005 22.2632 27.3018 22.8373 27.9646 23.2433C28.6274 23.6492 29.4191 23.867 30.2308 23.8667H31.5385V26.7997C31.2428 26.7081 30.9261 26.6794 30.615 26.7162C30.3039 26.7529 30.0076 26.8541 29.7511 27.011C29.4946 27.168 29.2854 27.3761 29.1413 27.6179C28.9972 27.8596 28.9224 28.1279 28.9231 28.4C28.9229 28.6719 28.9982 28.9399 29.1425 29.1814C29.2868 29.4229 29.4959 29.6308 29.7522 29.7876C30.0085 29.9445 30.3046 30.0456 30.6154 30.0826C30.9263 30.1196 31.2428 30.0914 31.5385 30.0003V35.2H11.9231C10.8826 35.2 9.88476 34.8418 9.14904 34.2042C8.41332 33.5665 8 32.7017 8 31.8V25C7.99988 24.2829 8.26136 23.5842 8.74707 23.0036C9.23278 22.4231 9.91784 21.9905 10.7043 21.7677L10.7305 21.6H9.30769C8.96087 21.6 8.62825 21.4806 8.38301 21.2681C8.13777 21.0555 8 20.7672 8 20.4667C8 20.1661 8.13777 19.8778 8.38301 19.6653C8.62825 19.4527 8.96087 19.3333 9.30769 19.3333H11.0678L11.4915 16.4864C11.6544 15.3931 12.2713 14.3887 13.2268 13.661C14.1824 12.9334 15.4111 12.5325 16.6831 12.5333H16.6805ZM16.5 30.0977C16.7572 30.0977 17.012 30.0538 17.2496 29.9685C17.4873 29.8832 17.7033 29.7581 17.8852 29.6005C18.0671 29.4428 18.2114 29.2557 18.3098 29.0497C18.4083 28.8437 18.4589 28.6229 18.4589 28.4C18.4589 28.177 18.4083 27.9563 18.3098 27.7503C18.2114 27.5443 18.0671 27.3572 17.8852 27.1995C17.7033 27.0419 17.4873 26.9168 17.2496 26.8315C17.012 26.7462 16.7572 26.7023 16.5 26.7023C15.9805 26.7023 15.4822 26.8811 15.1148 27.1995C14.7475 27.5179 14.5411 27.9497 14.5411 28.4C14.5411 28.8503 14.7475 29.2821 15.1148 29.6005C15.4822 29.9189 15.9805 30.0977 16.5 30.0977ZM15.8462 37.4667H11.9231V38.0333C11.9231 38.4842 12.1297 38.9166 12.4976 39.2354C12.8655 39.5542 13.3644 39.7333 13.8846 39.7333C14.4048 39.7333 14.9038 39.5542 15.2716 39.2354C15.6395 38.9166 15.8462 38.4842 15.8462 38.0333V37.4667Z" fill="#909394"/>
</g>
</g>
</svg>
