<svg width="47" height="45" viewBox="0 0 47 45" fill="none" xmlns="http://www.w3.org/2000/svg">
<ellipse cx="23.5" cy="22.5" rx="23.5" ry="22.5" fill="#F4F5F7"/>
<path d="M26.2472 11.4961C24.7499 11.4961 23.3139 12.0909 22.2551 13.1497C21.1964 14.2084 20.6016 15.6444 20.6016 17.1417C20.6016 21.5605 24.9122 26.8767 26.0416 28.1823C26.1022 28.2517 26.1879 28.2943 26.2798 28.3007C26.3717 28.3072 26.4625 28.277 26.5322 28.2167L26.5666 28.1823C27.6809 26.8717 31.8934 21.5598 31.8934 17.1417C31.8934 16.4003 31.7474 15.6661 31.4636 14.9811C31.1799 14.2961 30.764 13.6737 30.2397 13.1494C29.7153 12.6252 29.0929 12.2093 28.4079 11.9257C27.7228 11.642 26.9886 11.496 26.2472 11.4961ZM26.2472 19.5305C25.6991 19.5303 25.1634 19.3677 24.7078 19.0632C24.2522 18.7586 23.8971 18.3258 23.6874 17.8194C23.4777 17.3131 23.4229 16.7559 23.5298 16.2184C23.6368 15.6809 23.9007 15.1872 24.2882 14.7996C24.6758 14.4121 25.1695 14.1482 25.707 14.0412C26.2445 13.9343 26.8017 13.9891 27.308 14.1988C27.8144 14.4085 28.2472 14.7636 28.5518 15.2192C28.8563 15.6748 29.0189 16.2105 29.0191 16.7586V16.7655C29.0174 17.4995 28.7246 18.2028 28.205 18.7212C27.6853 19.2396 26.9812 19.5306 26.2472 19.5305Z" stroke="#666666" stroke-linecap="round" stroke-linejoin="round"/>
<path d="M31.7837 18.423L32.5181 18.373L35.5625 33.3787L29.235 34.5024M29.235 34.5024L19.2881 33.4512L12.4375 34.5024L14.2863 19.098L19.9044 18.373M29.235 34.5024L28.1663 26.113M19.9044 18.373L20.71 18.413M19.9044 18.373L19.5031 33.4743" stroke="#666666" stroke-linecap="round" stroke-linejoin="round"/>
</svg>
