<svg width="40" height="40" viewBox="0 0 40 40" fill="none" xmlns="http://www.w3.org/2000/svg">
<circle cx="20" cy="20" r="20" fill="#F4F5F7"/>
<path d="M26.1722 16.668C26.5975 16.668 27.0053 16.5099 27.306 16.2286C27.6068 15.9473 27.7757 15.5658 27.7757 15.168C27.7757 14.7701 27.6068 14.3886 27.306 14.1073C27.0053 13.826 26.5975 13.668 26.1722 13.668C25.747 13.668 25.3391 13.826 25.0384 14.1073C24.7377 14.3886 24.5688 14.7701 24.5688 15.168C24.5688 15.5658 24.7377 15.9473 25.0384 16.2286C25.3391 16.5099 25.747 16.668 26.1722 16.668ZM21.6665 9.66797C20.7452 9.66802 19.8616 10.0105 19.2101 10.62L9.32214 19.87C8.67067 20.4795 8.30469 21.3061 8.30469 22.168C8.30469 23.0299 8.67067 23.8565 9.32214 24.466L16.2319 30.931C16.5545 31.2329 16.9376 31.4724 17.3592 31.6358C17.7808 31.7992 18.2326 31.8833 18.6889 31.8833C19.1453 31.8833 19.5971 31.7992 20.0187 31.6358C20.4403 31.4724 20.8233 31.2329 21.146 30.931L31.0339 21.681C31.3566 21.3791 31.6126 21.0207 31.7872 20.6262C31.9618 20.2317 32.0517 19.8089 32.0515 19.382V12.418C32.0515 11.6886 31.7418 10.9892 31.1905 10.4734C30.6393 9.9577 29.8915 9.66797 29.1119 9.66797H21.6665ZM20.3442 11.681C20.6949 11.3527 21.1705 11.1682 21.6665 11.168H29.1119C29.8495 11.168 30.4481 11.728 30.4481 12.418V19.382C30.4481 19.847 30.2503 20.292 29.8997 20.62L20.0118 29.87C19.8381 30.0325 19.6318 30.1614 19.4049 30.2494C19.1779 30.3373 18.9346 30.3826 18.6889 30.3826C18.4433 30.3826 18.2 30.3373 17.973 30.2494C17.746 30.1614 17.5398 30.0325 17.3661 29.87L10.4563 23.405C10.1058 23.0768 9.90886 22.6319 9.90886 22.168C9.90886 21.7041 10.1058 21.2591 10.4563 20.931L20.3442 11.681Z" fill="black"/>
<path d="M26.0873 33.6414C30.0533 33.6414 33.2683 30.4263 33.2683 26.4603C33.2683 22.4944 30.0533 19.2793 26.0873 19.2793C22.1213 19.2793 18.9062 22.4944 18.9062 26.4603C18.9062 30.4263 22.1213 33.6414 26.0873 33.6414Z" fill="#FB631C"/>
<path d="M25.0625 23.0391H27.1142V29.8781H25.0625V23.0391Z" fill="white"/>
<path d="M22.6719 25.4336H29.511V27.4853H22.6719V25.4336Z" fill="white"/>
</svg>
