<svg width="798" height="477" viewBox="0 0 798 477" fill="none" xmlns="http://www.w3.org/2000/svg">
<g clip-path="url(#clip0_1436_11758)">
<path d="M400.799 307.022C316.022 307.612 246.045 238.723 246.827 153.029C247.591 69.0475 312.521 0.534082 399.467 0.4805C486.216 0.426917 550.027 68.9225 551.91 150.385C553.847 235.472 486.27 306.004 400.799 307.022ZM260.012 154.207C258.289 231.704 325.706 296.003 402.096 294.431C476.639 292.913 539.738 229.722 539.241 155.046C538.672 74.5485 477.012 12.8222 397.635 13.358C320.907 13.8581 259.39 76.8169 260.012 154.207Z" fill="#F6FBFF" fill-opacity="0.8"/>
<path d="M382.442 386.056C385.73 389.77 389.48 392.878 391.843 396.825C399.893 410.364 396.587 434.243 374.446 440.53C367.695 442.442 360.515 443.245 353.479 443.674C344.629 444.21 335.745 443.941 326.86 443.781C313.195 443.548 310.796 441.174 310.725 427.582C310.637 407.952 310.708 388.323 310.708 368.695C310.708 361.551 310.565 354.407 310.796 347.28C311.152 336.368 314.492 332.671 325.243 332.474C336.438 332.259 347.703 332.331 358.863 333.331C364.584 333.849 370.448 335.975 375.672 338.546C390.652 345.905 395.717 363.301 387.578 377.983C386.014 380.805 384.13 383.43 382.442 386.056ZM337.361 377.821C345.34 377.821 351.72 378.054 358.062 377.661C359.787 377.554 361.848 375.893 362.985 374.374C366.592 369.498 365.366 359.997 360.978 356.424C355.628 352.085 343.191 351.423 339.352 355.425C338.392 356.424 337.504 357.942 337.468 359.265C337.256 365.086 337.361 370.892 337.361 377.821ZM338.25 419.187C347.277 421.812 354.953 422.045 361.955 418.561C364.762 417.169 367.819 412.864 367.747 409.953C367.659 406.56 365.029 401.363 362.204 400.236C354.598 397.2 346.317 396.772 338.25 399.916C338.25 406.471 338.25 412.471 338.25 419.187Z" fill="#F6FBFF" fill-opacity="0.8"/>
<path d="M35.6753 408.918C32.9742 408.918 30.4333 408.918 25.9731 408.918C25.9731 418.063 26.1331 426.85 25.9199 435.62C25.7066 444.318 23.3077 446.693 14.9384 447.336C4.48992 448.158 0.989343 445.246 0.918265 434.388C0.722801 405.846 0.793878 377.305 0.918265 348.764C0.953803 340.066 3.79691 336.689 12.4684 336.404C26.0264 335.957 39.6734 335.582 53.1604 336.672C69.5438 337.994 80.0455 347.727 82.4799 364.035C83.6705 371.982 82.3378 380.501 80.9872 388.574C79.4058 398.005 71.3919 402.22 62.7558 406.686C65.7412 411.204 68.4776 415.258 71.1253 419.384C74.6614 424.868 78.6418 430.119 81.4849 435.959C84.63 442.424 81.6092 446.836 74.466 447.694C59.4685 449.479 56.8386 448.068 49.8552 434.977C45.253 426.315 40.5086 417.777 35.6753 408.918ZM25.7777 385.556C34.3426 385.556 41.095 385.985 47.7585 385.432C54.0844 384.913 57.5139 379.931 57.5139 372.84C57.5139 365.07 54.0488 359.463 47.9895 358.944C41.6281 358.408 35.1955 358.819 27.1992 358.819C26.7373 367.856 26.3107 375.876 25.7777 385.556Z" fill="#F6FBFF" fill-opacity="0.8"/>
<path d="M243.593 367.302C245.086 366.195 246.632 364.837 248.373 363.819C257.151 358.64 267.298 363.588 267.795 373.732C268.612 390.325 268.826 406.971 269.288 423.582C269.323 424.76 269.27 425.957 269.128 427.136C267.084 443.103 256.956 447.64 243.469 437.817C232.949 445.389 220.582 446.979 208.552 442.639C201.746 440.174 194.994 435.048 190.445 429.332C177.811 413.419 178.219 393.165 190.09 378.394C204.394 360.57 220.831 357.104 243.593 367.302ZM243.167 402.452C243.238 391.039 236.024 383.252 225.504 383.412C215.376 383.574 207.575 391.86 207.397 402.631C207.201 414.811 214.095 422.42 225.309 422.348C236.361 422.26 243.077 414.776 243.167 402.452Z" fill="#F6FBFF" fill-opacity="0.8"/>
<path d="M597.858 410.024C601.198 419.152 605.73 422.313 615.326 421.991C619.661 421.848 623.926 420.134 628.243 419.24C631.993 418.473 635.742 417.455 639.528 417.329C644.006 417.169 648.306 419.24 648.713 423.955C649.034 427.635 648.27 433.011 645.853 434.975C641.216 438.762 635.316 442.03 629.488 443.121C614.401 445.942 599.386 445.853 586.432 435.422C570.706 422.759 566.299 400.79 575.788 382.198C583.696 366.695 606.565 356.925 623.855 361.461C639.029 365.444 649.727 374.017 653.831 389.823C656.639 400.611 653.583 407.22 642.673 408.65C631.033 410.185 619.129 409.668 607.33 410.007C604.504 410.095 601.643 410.024 597.858 410.024ZM624.92 388.395C617.511 380.911 609.372 381.34 603.33 388.395C610.794 388.395 617.867 388.395 624.92 388.395Z" fill="#F6FBFF" fill-opacity="0.8"/>
<path d="M116.982 409.685C119.523 417.972 124.748 422.17 133.152 422.224C136.92 422.241 140.723 421.206 144.453 420.367C148.203 419.526 151.81 418.062 155.56 417.383C161.317 416.347 166.08 417.776 168.638 423.778C171.374 430.207 167.643 434.083 163.166 437.245C160.074 439.441 156.483 441.245 152.841 442.263C133.152 447.783 107.44 444.799 95.7657 423.848C81.9055 398.951 95.0549 368.856 122.544 361.98C146.906 355.889 166.594 370.053 171.41 384.037C172.458 387.091 173.418 390.306 173.72 393.504C174.555 402.631 171.676 407.685 162.632 408.596C149.465 409.899 136.138 409.417 122.882 409.668C121.016 409.722 119.079 409.685 116.982 409.685ZM146.142 388.306C138.786 380.555 130.629 380.555 121.052 388.306C129.83 388.306 137.595 388.306 146.142 388.306Z" fill="#F6FBFF" fill-opacity="0.8"/>
<path d="M526.924 401.274C529.268 395.558 531.402 389.754 533.996 384.163C536.732 378.268 539.469 372.268 543.04 366.874C547.233 360.551 551.677 359.712 558.428 362.534C564.594 365.087 567.135 369.856 565.359 376.125C563.332 383.216 560.916 390.253 557.877 396.951C547.572 419.652 536.75 442.121 526.461 464.839C523.477 471.43 519.282 475.716 511.961 476.038C505.085 476.323 501.034 472.323 502.277 465.571C503.45 459.213 505.351 452.802 508.07 446.943C512.175 438.084 511.802 429.868 507.537 421.294C501.336 408.811 495.506 396.147 489.518 383.555C488.879 382.216 488.239 380.876 487.688 379.483C483.459 368.946 483.958 364.837 489.644 362.605C498.902 358.961 509.154 363.07 512.548 371.803C516.385 381.662 520.207 391.539 524.027 401.398C525.004 401.362 525.964 401.308 526.924 401.274Z" fill="#F6FBFF" fill-opacity="0.8"/>
<path d="M752.988 384.895C745.453 384.537 737.901 384.323 730.385 383.768C722.655 383.198 719.19 379.625 719.173 372.785C719.154 366.284 721.962 362.122 728.448 361.979C747.657 361.55 766.902 361.461 786.127 362.051C794.55 362.301 797.429 372.553 791.192 380.715C785.274 388.466 778.38 395.485 771.823 402.719C767.309 407.702 762.619 412.507 756.524 418.954C760.717 419.794 763.028 420.597 765.373 420.651C772.764 420.847 780.175 420.508 787.549 420.847C794.905 421.187 797.518 424.331 797.429 431.653C797.341 439.19 794.817 442.423 787.62 442.513C768.091 442.726 748.562 442.833 729.052 442.28C725.605 442.191 721.305 439.512 719.102 436.69C715.85 432.546 717.307 427.402 720.701 423.58C728.377 414.936 736.356 406.577 744.157 398.039C747.461 394.413 750.625 390.645 753.841 386.948C753.539 386.269 753.254 385.591 752.988 384.895Z" fill="#F6FBFF" fill-opacity="0.8"/>
<path d="M456.508 439.978C446.681 441.656 439.182 443.818 431.648 444.05C415.762 444.514 405.012 435.119 403.839 419.187C402.701 403.81 403.039 388.307 402.808 372.876C402.72 366.91 404.355 362.427 411.462 361.872C419.672 361.212 424.683 363.962 426.282 371.125C426.922 373.982 426.815 377.019 426.886 379.984C427.153 389.79 427.188 399.594 427.614 409.383C427.863 415.097 430.35 419.849 435.985 421.902C444.158 424.885 451.265 419.919 451.728 410.472C452.332 398.309 452.065 386.11 452.491 373.928C452.829 364.052 460.399 358.818 469.533 361.729C475.45 363.623 477.706 367.606 477.636 373.839C477.422 392.253 477.743 410.685 477.599 429.117C477.511 441.602 470.617 445.925 458.978 441.156C457.645 440.584 456.348 439.888 456.508 439.978Z" fill="#F6FBFF" fill-opacity="0.8"/>
<path d="M302.853 388.842C302.853 402.844 303.084 416.83 302.782 430.814C302.551 441.388 293.933 446.477 284.178 442.477C279.309 440.477 277.745 436.816 277.656 431.921C277.408 417.33 276.999 402.755 276.838 388.163C276.661 373.571 276.59 358.979 276.679 344.386C276.732 335.581 280.517 331.849 288.976 331.544C297.451 331.241 302.568 335.527 302.765 344.172C303.084 359.067 302.853 373.945 302.853 388.842Z" fill="#F6FBFF" fill-opacity="0.8"/>
<path d="M689.301 364.98C693.05 363.499 696.782 361.48 700.744 360.587C705.453 359.516 710.304 359.462 712.81 365.106C715.103 370.286 713.841 378.752 709.771 381.431C706.876 383.341 703.446 384.61 700.087 385.628C693.601 387.593 690.473 391.414 690.332 398.541C690.119 409.526 689.106 420.491 688.306 431.441C687.915 436.727 686.725 441.442 680.167 442.389C671.514 443.621 667.089 441.781 664.068 434.923C663.252 433.048 662.487 430.959 662.47 428.957C662.309 411.133 662.078 393.29 662.416 375.465C662.558 367.552 669.311 360.284 676.205 360.57C680.399 360.766 684.433 363.266 689.301 364.98Z" fill="#F6FBFF" fill-opacity="0.8"/>
<path d="M267.633 153.17C267.811 80.0309 327.125 19.8406 399.446 21.0552C473.314 22.3054 531.046 80.4775 530.123 154.26C529.216 226.506 472.39 284.195 398.771 283.981C321.119 283.768 268.113 221.702 267.633 153.17ZM398.22 278.355C467.291 279.356 524.756 222.933 524.809 152.867C524.863 83.1924 469.227 26.7348 398.665 26.5563C328.92 26.3777 273.229 82.6387 273.177 152.295C273.141 222.255 328.652 278.231 398.22 278.355Z" fill="#F6FBFF" fill-opacity="0.8"/>
<path d="M332.117 56.8307C335.849 56.6699 339.012 56.402 342.193 56.402C362.627 56.3841 383.062 56.545 403.497 56.3841C427.326 56.1877 446.676 64.8322 458.049 86.4079C469.76 108.627 467.84 130.577 452.808 151.046C452.114 151.992 451.563 153.046 450.372 154.974C467.414 169.478 459.63 189.071 461.408 207.843C451.599 207.843 442.91 207.843 432.461 207.843C432.461 201.217 432.159 194.805 432.55 188.427C432.959 181.605 430.631 176.461 425.46 172.05C419.401 166.906 413.803 161.209 407.886 155.636C414.905 148.438 421.551 141.776 428.002 134.954C438.005 124.344 439.427 111.145 431.946 98.9639C427.308 91.4268 420.574 86.2471 411.83 85.9436C395.056 85.3363 378.229 85.7649 360.032 85.7649C360.032 91.4625 359.447 96.785 360.157 101.929C361.917 114.753 357.491 124.272 346.99 131.613C341.997 135.114 337.821 139.811 332.153 144.991C332.117 114.735 332.117 86.14 332.117 56.8307Z" fill="#F6FBFF" fill-opacity="0.8"/>
<path d="M416.579 125.701C402.647 138.597 389.001 151.277 375.265 163.888C360.073 177.837 360.036 177.801 360.036 198.841C360.036 206.218 360.036 213.612 360.036 221.988C369.632 221.988 378.25 221.988 387.65 221.988C389.925 212.486 385.661 196.626 405.331 202.628C412.083 206.645 407.41 215.004 411.408 222.595C426.814 222.595 443.162 222.595 458.835 222.595C463.045 234.794 457.68 246.6 447.231 250.064C442.807 251.53 437.956 252.244 433.3 252.28C407.836 252.493 382.372 252.493 356.909 252.35C340.685 252.262 331.8 243.206 331.676 226.81C331.534 210.146 331.766 193.464 331.588 176.8C331.498 168.46 334.643 161.976 340.756 156.457C353.515 144.937 366.344 133.471 378.606 121.433C390.902 109.377 407.286 111.377 416.579 125.701Z" fill="#F6FBFF" fill-opacity="0.8"/>
</g>
<defs>
<clipPath id="clip0_1436_11758">
<rect width="798" height="477" fill="white"/>
</clipPath>
</defs>
</svg>
