<svg width="50" height="50" viewBox="0 0 50 50" fill="none" xmlns="http://www.w3.org/2000/svg">
<g id="Group 12089">
<circle id="Ellipse 25" cx="25" cy="25" r="25" fill="#F4F5F7"/>
<g id="Group 483">
<path id="Vector" d="M22.4279 15.531C23.6209 15.6743 24.7054 16.1224 25.4878 16.7953C26.2703 17.4682 26.6999 18.3222 26.7 19.2049V21.6872H16.5V19.2049C16.5 17.9165 17.3976 16.7796 18.761 16.1119C18.2714 15.7936 17.6661 15.5854 17.0182 15.5124C16.3703 15.4395 15.7072 15.5049 15.109 15.7007C14.5108 15.8965 14.0029 16.2144 13.6464 16.6162C13.29 17.0179 13.1002 17.4863 13.1 17.9649V25.412H40.3C40.7509 25.412 41.1833 25.5428 41.5021 25.7755C41.8209 26.0083 42 26.324 42 26.6532C42 26.9824 41.8209 27.2981 41.5021 27.5308C41.1833 27.7636 40.7509 27.8944 40.3 27.8944V29.1355C40.2999 30.6757 39.646 32.178 38.4282 33.4356C37.2104 34.6932 35.4887 35.6444 33.5 36.1581V36.7588C33.5 37.088 33.3209 37.4037 33.0021 37.6365C32.6833 37.8692 32.2509 38 31.8 38C31.3491 38 30.9167 37.8692 30.5979 37.6365C30.2791 37.4037 30.1 37.088 30.1 36.7588V36.5826H19.9V36.7588C19.9 37.088 19.7209 37.4037 19.4021 37.6365C19.0833 37.8692 18.6509 38 18.2 38C17.7491 38 17.3167 37.8692 16.9979 37.6365C16.6791 37.4037 16.5 37.088 16.5 36.7588V36.1581C14.5113 35.6444 12.7896 34.6932 11.5718 33.4356C10.354 32.178 9.70009 30.6757 9.7 29.1355V27.8944C9.24913 27.8944 8.81673 27.7636 8.49792 27.5308C8.17911 27.2981 8 26.9824 8 26.6532C8 26.324 8.17911 26.0083 8.49792 25.7755C8.81673 25.5428 9.24913 25.412 9.7 25.412V17.9649C9.69993 16.8671 10.1983 15.8002 11.117 14.9312C12.0358 14.0621 13.3232 13.4399 14.7779 13.1619C16.2325 12.8838 17.7724 12.9657 19.1566 13.3945C20.5407 13.8234 21.6912 14.574 22.4279 15.531Z" fill="#909394"/>
</g>
</g>
</svg>
