<svg width="47" height="45" viewBox="0 0 47 45" fill="none" xmlns="http://www.w3.org/2000/svg">
<g id="Group 232">
<ellipse id="Ellipse 23" cx="23.5" cy="22.5" rx="23.5" ry="22.5" fill="#F4F5F7"/>
<path id="Vector" d="M18.3969 21.0008L23.1969 25.0008L29.5969 17.0008M23.9969 32.2008C22.5261 32.2008 21.0697 31.9111 19.7108 31.3482C18.352 30.7854 17.1173 29.9604 16.0773 28.9204C15.0373 27.8804 14.2123 26.6457 13.6494 25.2868C13.0866 23.928 12.7969 22.4716 12.7969 21.0008C12.7969 19.53 13.0866 18.0736 13.6494 16.7147C14.2123 15.3559 15.0373 14.1212 16.0773 13.0812C17.1173 12.0412 18.352 11.2162 19.7108 10.6533C21.0697 10.0905 22.5261 9.80078 23.9969 9.80078C26.9673 9.80078 29.8161 10.9808 31.9165 13.0812C34.0169 15.1816 35.1969 18.0304 35.1969 21.0008C35.1969 23.9712 34.0169 26.82 31.9165 28.9204C29.8161 31.0208 26.9673 32.2008 23.9969 32.2008Z" stroke="#666666"/>
</g>
</svg>
