<svg width="45" height="48" viewBox="0 0 45 48" fill="none" xmlns="http://www.w3.org/2000/svg">
<path d="M6.86899 41.2629C4.72001 39.049 3.00591 36.4007 1.8267 33.4726C0.647501 30.5445 0.0268104 27.3953 0.000849527 24.2085C-0.0251113 21.0218 0.544177 17.8615 1.6755 14.912C2.80682 11.9625 4.47751 9.28286 6.5901 7.02944C8.70268 4.77601 11.2149 2.99394 13.98 1.7872C16.7452 0.580455 19.708 -0.0267854 22.6955 0.000906162C25.683 0.0285978 28.6355 0.690667 31.3806 1.94848C34.1257 3.2063 36.6084 5.03467 38.684 7.32692C42.7825 11.8534 45.0504 17.9158 44.9991 24.2085C44.9479 30.5013 42.5816 36.5208 38.4099 40.9706C34.2382 45.4204 28.5949 47.9444 22.6955 47.9991C16.7961 48.0538 11.1125 45.6347 6.86899 41.2629ZM25.9265 24.2949L32.294 17.5029L29.1215 14.1189L22.7765 20.9109L16.409 14.1189L13.2365 17.5029L19.604 24.2949L13.2365 31.0869L16.409 34.4709L22.7765 27.6789L29.144 34.4709L32.3165 31.0869L25.949 24.2949H25.9265Z" fill="white"/>
</svg>
