<svg width="250" height="224" viewBox="0 0 250 224" fill="none" xmlns="http://www.w3.org/2000/svg">
<path d="M0 26C0 11.6406 11.6406 0 26 0H224C238.359 0 250 11.6406 250 26V30H0V26Z" fill="#00A69C"/>
<path d="M0 29V197.202C19.3117 174.379 70.3259 144.146 132.552 197.202C184.175 241.217 250 223.576 250 197.202V113.172V70.7837V37.2454V30L0 29Z" fill="#00A69C"/>
<path d="M65.0195 53.4113C64.0745 53.4117 63.1347 53.5606 62.23 53.8532C62.2369 53.7049 62.2508 53.5611 62.2508 53.4113C62.2495 51.2569 61.5184 49.1762 60.1933 47.5556C58.8682 45.9351 57.0392 44.8847 55.0459 44.5997C53.0525 44.3147 51.0304 44.8143 49.355 46.0058C47.6795 47.1973 46.4646 48.9998 45.9359 51.0784C44.9606 50.6606 43.9199 50.4457 42.8695 50.4451C40.6666 50.4451 38.5539 51.3826 36.9961 53.0514C35.4384 54.7202 34.5633 56.9836 34.5633 59.3436C34.5633 61.7036 35.4384 63.967 36.9961 65.6358C38.5539 67.3046 40.6666 68.2421 42.8695 68.2421C44.6922 68.2409 46.4638 67.5972 47.9111 66.4104C49.3584 65.2235 50.4011 63.5595 50.8781 61.675C51.8534 62.0933 52.8941 62.3087 53.9445 62.3098C54.4637 62.3098 54.969 62.2519 55.4618 62.1555C55.3815 62.6894 55.3289 63.2337 55.3289 63.7929C55.3289 69.525 59.6689 74.1745 65.0195 74.1745C70.3701 74.1745 74.7102 69.525 74.7102 63.7929C74.7102 61.0395 73.6892 58.3989 71.8718 56.452C70.0545 54.505 67.5896 53.4113 65.0195 53.4113Z" fill="#CCD6DD"/>
<path d="M52.7767 59.3523C52.1302 59.3523 51.5169 59.4784 50.923 59.6549C51.222 58.8748 51.3923 58.0235 51.3923 57.1277C51.3923 55.3577 50.7359 53.6602 49.5677 52.4086C48.3994 51.157 46.8148 50.4538 45.1626 50.4538C43.8102 50.458 42.4965 50.9379 41.4234 51.8197C40.9371 49.7361 39.8149 47.8862 38.235 46.5639C36.6551 45.2417 34.7081 44.5228 32.7032 44.5215C30.8377 44.5225 29.0185 45.1451 27.4978 46.3028C25.9771 47.4605 24.8301 49.0962 24.2156 50.9833C22.6929 50.4789 21.0864 50.3326 19.506 50.5543C17.9256 50.776 16.4085 51.3606 15.0583 52.2681C13.7081 53.1756 12.5567 54.3846 11.6827 55.8125C10.8087 57.2404 10.2327 58.8537 9.994 60.542C9.75534 62.2303 9.85965 63.9539 10.2998 65.595C10.74 67.2362 11.5056 68.7562 12.5444 70.0513C13.5833 71.3463 14.8708 72.3859 16.319 73.099C17.7673 73.8121 19.3421 74.1819 20.936 74.1832H52.7767C56.6003 74.1832 59.6985 70.864 59.6985 66.7678C59.6985 62.6715 56.6003 59.3523 52.7767 59.3523Z" fill="#E1E8ED"/>
<path d="M229.348 108.447C228.403 108.448 227.463 108.597 226.558 108.889C226.565 108.741 226.579 108.597 226.579 108.447C226.578 106.293 225.846 104.212 224.521 102.592C223.196 100.971 221.367 99.9209 219.374 99.6358C217.381 99.3508 215.358 99.8504 213.683 101.042C212.008 102.233 210.793 104.036 210.264 106.115C209.289 105.697 208.248 105.482 207.198 105.481C204.995 105.481 202.882 106.419 201.324 108.088C199.767 109.756 198.891 112.02 198.891 114.38C198.891 116.74 199.767 119.003 201.324 120.672C202.882 122.341 204.995 123.278 207.198 123.278C209.02 123.277 210.792 122.633 212.239 121.446C213.687 120.26 214.729 118.596 215.206 116.711C216.181 117.129 217.222 117.345 218.273 117.346C218.792 117.346 219.297 117.288 219.79 117.192C219.71 117.726 219.657 118.27 219.657 118.829C219.657 124.561 223.997 129.211 229.348 129.211C234.698 129.211 239.038 124.561 239.038 118.829C239.038 116.076 238.017 113.435 236.2 111.488C234.383 109.541 231.918 108.447 229.348 108.447Z" fill="#CCD6DD"/>
<path d="M217.105 114.388C216.458 114.388 215.845 114.515 215.251 114.691C215.55 113.911 215.72 113.06 215.72 112.164C215.72 110.394 215.064 108.696 213.896 107.445C212.727 106.193 211.143 105.49 209.491 105.49C208.138 105.494 206.825 105.974 205.752 106.856C205.265 104.772 204.143 102.922 202.563 101.6C200.983 100.278 199.036 99.5589 197.031 99.5576C195.166 99.5587 193.347 100.181 191.826 101.339C190.305 102.497 189.158 104.132 188.544 106.019C187.021 105.515 185.415 105.369 183.834 105.59C182.254 105.812 180.737 106.397 179.386 107.304C178.036 108.212 176.885 109.421 176.011 110.849C175.137 112.277 174.561 113.89 174.322 115.578C174.083 117.266 174.188 118.99 174.628 120.631C175.068 122.272 175.834 123.792 176.873 125.087C177.911 126.382 179.199 127.422 180.647 128.135C182.095 128.848 183.67 129.218 185.264 129.219H217.105C220.928 129.219 224.027 125.9 224.027 121.804C224.027 117.708 220.928 114.388 217.105 114.388Z" fill="#E1E8ED"/>
<path d="M199.48 62.7347C199.75 62.4452 199.004 58.9995 202.333 56.3378C205.662 53.6761 207.932 55.2643 208.251 55.1477C208.566 55.0351 210.049 48.0713 216.283 46.262C222.517 44.4527 229.017 47.8462 230.548 53.5073C231.948 58.6818 230.863 62.1678 231.025 62.3929C231.182 62.6181 234.196 62.5055 235.937 65.5049C237.679 68.5043 237.048 70.3739 237.048 70.3739L225.954 74.0528H208.202C208.202 74.0528 192.563 69.6381 192.406 68.8461C192.248 68.054 192.605 65.4808 195.153 63.9208C197.367 62.5658 199.004 63.2453 199.48 62.7347Z" fill="#E4EAEE"/>
<path d="M203.876 75.0135C203.876 75.0135 197.954 76.3404 193.949 73.0193C191.54 71.017 192.418 67.7723 192.418 67.7723C192.418 67.7723 194.144 69.6419 197.631 70.1485C201.117 70.6592 205.028 70.4863 205.028 70.4863C205.028 70.4863 206.004 72.2715 209.678 73.0917C214.283 74.1169 216.711 71.592 216.711 71.592C216.711 71.592 217.972 73.2083 222.412 73.3208C226.852 73.4334 229.34 70.1124 229.757 70.036C229.967 69.9998 231.191 71.1899 233.615 70.7717C235.923 70.3737 237.139 69.3002 237.139 69.3002C237.139 69.3002 237.473 71.9619 235.15 73.6023C233.337 74.8809 230.185 75.0176 230.185 75.0176C230.185 75.0176 229.704 76.9917 227.539 78.4271C225.527 79.766 222.059 80.2123 219.492 79.392C216.268 78.3628 215.469 76.7907 215.469 76.7907C215.469 76.7907 213.067 78.2984 209.314 77.7878C205.767 77.3134 203.876 75.0135 203.876 75.0135Z" fill="#BACDD2"/>
<path d="M204 3.65575V42L217.001 31.045L230 42V3.65575C229.989 2.68312 229.543 1.7536 228.758 1.0691C227.974 0.384598 226.915 0.000412814 225.811 4.54183e-09L225.658 0.00175H225.666H208.336L208.191 4.54183e-09C207.087 -4.82082e-05 206.028 0.383749 205.244 1.06797C204.459 1.75219 204.013 2.68153 204.002 3.654L204 3.65575Z" fill="url(#paint0_linear_10_4)"/>
<defs>
<linearGradient id="paint0_linear_10_4" x1="217" y1="0" x2="217" y2="42" gradientUnits="userSpaceOnUse">
<stop stop-color="#1176AD"/>
<stop offset="1"/>
</linearGradient>
</defs>
</svg>
