<svg width="28" height="28" viewBox="0 0 28 28" fill="none" xmlns="http://www.w3.org/2000/svg">
<g id="Group 12114">
<path id="Vector" d="M14 0C6.2 0 0 6.17937 0 13.9534C0 21.7275 6.2 27.9068 14 27.9068C21.8 27.9068 28 21.7275 28 13.9534C28 6.17937 21.8 0 14 0ZM14 25.9135C7.4 25.9135 2 20.5315 2 13.9534C2 7.37538 7.4 1.99335 14 1.99335C20.6 1.99335 26 7.37538 26 13.9534C26 20.5315 20.6 25.9135 14 25.9135Z" fill="#136FA9"/>
<path id="Vector_2" d="M19.3844 20.93L13.9844 15.5479L8.58438 20.93L6.98438 19.3353L12.3844 13.9533L6.98438 8.57124L8.58438 6.97656L13.9844 12.3586L19.3844 6.97656L20.9844 8.57124L15.5844 13.9533L20.9844 19.3353L19.3844 20.93Z" fill="#136FA9"/>
</g>
</svg>
