<svg width="90" height="90" viewBox="0 0 90 90" fill="none" xmlns="http://www.w3.org/2000/svg">
<circle cx="45" cy="45" r="40" fill="#126FAA" stroke="#126FAA" stroke-opacity="0.8" stroke-width="9"/>
<path fill-rule="evenodd" clip-rule="evenodd" d="M44.1494 38.5727C44.5015 38.206 44.979 38 45.4769 38C45.9748 38 46.4524 38.206 46.8045 38.5727L57.4268 49.6372C57.6061 49.8177 57.7491 50.0335 57.8476 50.2721C57.946 50.5107 57.9978 50.7674 57.9999 51.0271C58.0021 51.2868 57.9546 51.5444 57.8602 51.7847C57.7658 52.0251 57.6263 52.2435 57.45 52.4271C57.2737 52.6108 57.0641 52.756 56.8333 52.8544C56.6025 52.9527 56.3553 53.0022 56.106 52.9999C55.8566 52.9977 55.6102 52.9437 55.3812 52.8412C55.1521 52.7387 54.9449 52.5897 54.7717 52.4029L45.4769 42.7211L36.1822 52.4029C35.8281 52.7592 35.3537 52.9563 34.8614 52.9519C34.3691 52.9474 33.8981 52.7417 33.55 52.3791C33.2018 52.0164 33.0043 51.5259 33.0001 51.013C32.9958 50.5002 33.1851 50.0061 33.5271 49.6372L44.1494 38.5727Z" fill="white"/>
</svg>
